<?xml version="1.0" encoding="UTF-8"?><svg id="Layer_2" xmlns="http://www.w3.org/2000/svg" viewBox="0 0 622.25 311.44"><defs><style>.cls-1{fill:#8ba2b1;}</style></defs><g id="Layer_1-2"><path class="cls-1" d="M11.15,279.36h12.15c4.71,0,9.55,2.16,9.55,7.83,0,3.52-2.2,5.85-5.41,6.82v.09c3.92.44,6.73,3.52,6.73,7.52,0,6.78-5.9,8.89-11.79,8.89h-11.22v-31.16ZM16.7,292.03h5.06c3.7,0,5.54-1.58,5.54-3.92,0-2.68-1.85-4-6.03-4h-4.58v7.92ZM16.7,305.76h5.1c2.86,0,6.82-.48,6.82-4.58,0-3.26-2.11-4.4-6.6-4.4h-5.32v8.98Z"/><path class="cls-1" d="M53.79,297.18l-11.71-17.82h6.95l7.66,12.41,7.75-12.41h6.6l-11.71,17.82v13.33h-5.54v-13.33Z"/><path class="cls-1" d="M97.88,279.36h5.54v31.16h-5.54v-31.16Z"/><path class="cls-1" d="M122.91,279.36h7.35l15.09,23.15h.09v-23.15h5.54v31.16h-7.04l-15.4-23.9h-.09v23.9h-5.54v-31.16Z"/><path class="cls-1" d="M170.61,279.36h7.35l15.09,23.15h.09v-23.15h5.54v31.16h-7.04l-15.4-23.9h-.09v23.9h-5.54v-31.16Z"/><path class="cls-1" d="M214.69,279.36h6.38l8.49,23.54,8.76-23.54h5.99l-12.59,31.16h-4.8l-12.23-31.16Z"/><path class="cls-1" d="M260.32,279.36h20.64v5.02h-15.09v7.66h14.3v5.02h-14.3v8.45h15.89v5.02h-21.43v-31.16Z"/><path class="cls-1" d="M315.15,286.05c-1.19-1.67-3.3-2.46-5.46-2.46-2.55,0-5.1,1.14-5.1,4,0,6.25,14.79,2.68,14.79,13.77,0,6.69-5.28,9.95-11.4,9.95-3.87,0-7.66-1.19-10.21-4.22l4.18-4.05c1.36,2.07,3.7,3.26,6.16,3.26s5.46-1.41,5.46-4.27c0-6.82-14.79-2.9-14.79-14.04,0-6.42,5.72-9.42,11.49-9.42,3.26,0,6.51.92,8.93,3.21l-4.05,4.27Z"/><path class="cls-1" d="M344.19,284.38h-9.55v-5.02h24.64v5.02h-9.55v26.14h-5.54v-26.14Z"/><path class="cls-1" d="M389.99,279.36h5.54v12.41h14.57v-12.41h5.54v31.16h-5.54v-13.73h-14.57v13.73h-5.54v-31.16Z"/><path class="cls-1" d="M450.05,278.57c9.73-.18,16.59,6.34,16.59,16.33s-6.87,16.24-16.59,16.41c-9.59,0-16.46-6.51-16.46-16.24s6.86-16.5,16.46-16.5ZM450.1,306.29c6.47,0,10.74-4.93,10.74-11.57,0-6.21-4.27-11.13-10.74-11.13s-10.69,4.93-10.69,11.13c0,6.64,4.27,11.57,10.69,11.57Z"/><path class="cls-1" d="M490.97,284.38h-9.55v-5.02h24.64v5.02h-9.55v26.14h-5.54v-26.14Z"/><path class="cls-1" d="M522.52,279.36h20.64v5.02h-15.09v7.66h14.3v5.02h-14.3v8.45h15.89v5.02h-21.43v-31.16Z"/><path class="cls-1" d="M562.07,279.36h5.54v26.14h13.25v5.02h-18.79v-31.16Z"/><path class="cls-1" d="M612.85,286.05c-1.19-1.67-3.3-2.46-5.46-2.46-2.55,0-5.1,1.14-5.1,4,0,6.25,14.79,2.68,14.79,13.77,0,6.69-5.28,9.95-11.4,9.95-3.87,0-7.66-1.19-10.21-4.22l4.18-4.05c1.36,2.07,3.7,3.26,6.16,3.26s5.46-1.41,5.46-4.27c0-6.82-14.79-2.9-14.79-14.04,0-6.42,5.72-9.42,11.49-9.42,3.26,0,6.51.92,8.93,3.21l-4.05,4.27Z"/><path class="cls-1" d="M11.02,279.5h12.15c4.71,0,9.55,2.16,9.55,7.83,0,3.52-2.2,5.85-5.41,6.82v.09c3.92.44,6.73,3.52,6.73,7.52,0,6.78-5.9,8.89-11.79,8.89h-11.22v-31.16ZM16.56,292.17h5.06c3.7,0,5.54-1.58,5.54-3.92,0-2.68-1.85-4-6.03-4h-4.58v7.92ZM16.56,305.9h5.1c2.86,0,6.82-.48,6.82-4.58,0-3.26-2.11-4.4-6.6-4.4h-5.32v8.98Z"/><path class="cls-1" d="M53.65,297.32l-11.71-17.82h6.95l7.66,12.41,7.75-12.41h6.6l-11.71,17.82v13.33h-5.54v-13.33Z"/><path class="cls-1" d="M97.74,279.5h5.54v31.16h-5.54v-31.16Z"/><path class="cls-1" d="M122.77,279.5h7.35l15.09,23.15h.09v-23.15h5.54v31.16h-7.04l-15.4-23.9h-.09v23.9h-5.54v-31.16Z"/><path class="cls-1" d="M170.47,279.5h7.35l15.09,23.15h.09v-23.15h5.54v31.16h-7.04l-15.4-23.9h-.09v23.9h-5.54v-31.16Z"/><path class="cls-1" d="M214.56,279.5h6.38l8.49,23.54,8.76-23.54h5.99l-12.59,31.16h-4.8l-12.23-31.16Z"/><path class="cls-1" d="M260.19,279.5h20.64v5.02h-15.09v7.66h14.3v5.02h-14.3v8.45h15.89v5.02h-21.43v-31.16Z"/><path class="cls-1" d="M315.01,286.18c-1.19-1.67-3.3-2.46-5.46-2.46-2.55,0-5.1,1.14-5.1,4,0,6.25,14.79,2.68,14.79,13.77,0,6.69-5.28,9.95-11.4,9.95-3.87,0-7.66-1.19-10.21-4.22l4.18-4.05c1.36,2.07,3.7,3.26,6.16,3.26s5.46-1.41,5.46-4.27c0-6.82-14.79-2.9-14.79-14.04,0-6.42,5.72-9.42,11.49-9.42,3.26,0,6.51.92,8.93,3.21l-4.05,4.27Z"/><path class="cls-1" d="M344.05,284.51h-9.55v-5.02h24.64v5.02h-9.55v26.14h-5.54v-26.14Z"/><path class="cls-1" d="M389.85,279.5h5.54v12.41h14.57v-12.41h5.54v31.16h-5.54v-13.73h-14.57v13.73h-5.54v-31.16Z"/><path class="cls-1" d="M449.91,278.7c9.73-.18,16.59,6.34,16.59,16.33s-6.87,16.24-16.59,16.41c-9.59,0-16.46-6.51-16.46-16.24s6.86-16.5,16.46-16.5ZM449.96,306.43c6.47,0,10.74-4.93,10.74-11.57,0-6.21-4.27-11.13-10.74-11.13s-10.69,4.93-10.69,11.13c0,6.64,4.27,11.57,10.69,11.57Z"/><path class="cls-1" d="M490.83,284.51h-9.55v-5.02h24.64v5.02h-9.55v26.14h-5.54v-26.14Z"/><path class="cls-1" d="M522.38,279.5h20.64v5.02h-15.09v7.66h14.3v5.02h-14.3v8.45h15.89v5.02h-21.43v-31.16Z"/><path class="cls-1" d="M561.94,279.5h5.54v26.14h13.25v5.02h-18.79v-31.16Z"/><path class="cls-1" d="M612.71,286.18c-1.19-1.67-3.3-2.46-5.46-2.46-2.55,0-5.1,1.14-5.1,4,0,6.25,14.79,2.68,14.79,13.77,0,6.69-5.28,9.95-11.4,9.95-3.87,0-7.66-1.19-10.21-4.22l4.18-4.05c1.36,2.07,3.7,3.26,6.16,3.26s5.46-1.41,5.46-4.27c0-6.82-14.79-2.9-14.79-14.04,0-6.42,5.72-9.42,11.49-9.42,3.26,0,6.51.92,8.93,3.21l-4.05,4.27Z"/><rect class="cls-1" x="8.59" y="243.44" width="611.18" height="4.95"/><path class="cls-1" d="M75.03,123.21H8.62V0h65.67c29.23,0,43.47,12.76,43.47,31.63v2.22c0,13.5-7.95,24.23-23.86,27.38,18.13,2.96,25.71,15.17,25.71,26.09v3.33c0,19.42-15.54,32.56-44.58,32.56ZM96.31,34.78c0-8.88-5.55-16.09-20.72-16.09H31v35.15h43.1c15.35,0,22.2-7.4,22.2-16.84v-2.22ZM96.49,86.39c0-9.62-6.48-16.65-22.01-16.65H31v35.33h44.77c15.35,0,20.72-7.4,20.72-16.28v-2.41Z"/><path class="cls-1" d="M234.68,123.21l-14.06-30.71h-62.16l-13.69,30.71h-23.12L179.74,0h19.61l59.01,123.21h-23.68ZM188.99,24.6l-23.12,51.06h46.8l-23.68-51.06Z"/><path class="cls-1" d="M365.29,123.21l-69-77.88-8.88-11.47v89.35h-22.01V0h20.53l66.78,78.07,9.06,11.47V0h21.83v123.21h-18.32Z"/><path class="cls-1" d="M430.6,18.87v35.33h57.35v18.13h-57.35v50.87h-22.2V0h98.79v18.87h-76.59Z"/><path class="cls-1" d="M545.66,18.87v35.33h57.35v18.13h-57.35v50.87h-22.2V0h98.79v18.87h-76.59Z"/><path class="cls-1" d="M56.87,203.95c-4.04,4.51-11.37,9.59-23.69,9.59-18.89,0-33.18-13.25-33.18-33.46s14.57-33.46,33.18-33.46c12.12,0,19.46,5.08,23.03,8.55l-3.85,7.33c-2.54-3.2-9.78-7.9-18.8-7.9-14,0-24.16,10.06-24.16,25.28s10.25,25.29,24.16,25.29c8.55,0,15.13-3.29,19.36-7.9l3.95,6.67Z"/><path class="cls-1" d="M103.96,213.54c-18.23,0-33.46-12.69-33.46-33.46s15.23-33.46,33.46-33.46,33.46,12.69,33.46,33.46-15.23,33.46-33.46,33.46ZM103.96,154.51c-13.25,0-24.16,9.49-24.16,25.38s11,25.38,24.16,25.38,24.16-9.59,24.16-25.38-10.9-25.38-24.16-25.38Z"/><path class="cls-1" d="M189.88,212.41h-31.96v-64.86h9.12v57.05h22.84v7.8Z"/><path class="cls-1" d="M239.79,212.41h-31.96v-64.86h9.12v57.05h22.84v7.8Z"/><path class="cls-1" d="M296.47,212.41h-38.73v-64.86h37.97v7.61h-28.86v19.36h27.26v7.61h-27.26v22.56h29.61v7.71Z"/><path class="cls-1" d="M370.73,203.95c-4.04,4.51-11.37,9.59-23.69,9.59-18.89,0-33.18-13.25-33.18-33.46s14.57-33.46,33.18-33.46c12.12,0,19.46,5.08,23.03,8.55l-3.85,7.33c-2.54-3.2-9.78-7.9-18.8-7.9-14,0-24.16,10.06-24.16,25.28s10.25,25.29,24.16,25.29c8.55,0,15.13-3.29,19.36-7.9l3.95,6.67Z"/><path class="cls-1" d="M429.1,155.17h-18.23v57.24h-9.12v-57.24h-18.33v-7.61h45.68v7.61Z"/><path class="cls-1" d="M455.99,212.41h-9.12v-64.86h9.12v64.86Z"/><path class="cls-1" d="M509.94,213.54c-18.23,0-33.46-12.69-33.46-33.46s15.23-33.46,33.46-33.46,33.46,12.69,33.46,33.46-15.23,33.46-33.46,33.46ZM509.94,154.51c-13.25,0-24.16,9.49-24.16,25.38s11,25.38,24.16,25.38,24.16-9.59,24.16-25.38-10.9-25.38-24.16-25.38Z"/><path class="cls-1" d="M619.08,212.41h-8.93l-37.41-51.7s.19,8.74.19,17.2v34.5h-9.02v-64.86h9.59l36.75,50.95s-.09-7.99-.09-16.54v-34.4h8.93v64.86Z"/></g></svg>