<?xml version="1.0" encoding="UTF-8"?>
<svg id="Layer_2" data-name="Layer 2" xmlns="http://www.w3.org/2000/svg" viewBox="0 0 322.54 243.8">
  <defs>
    <style>
      .cls-1 {
        fill: #fcfafa;
      }

      .cls-2 {
        fill: #1a73e8;
      }
    </style>
  </defs>
  <g id="Layer_1-2" data-name="Layer 1">
    <g>
      <path class="cls-2" d="M320.48,158.58c-2.92,16.22-11.52,28.63-24.22,38.15-16.41,12.3-37.03,14.74-56.94,9.34-27.73-7.52-25.43,16.94-71.7,30.95-56.92,17.23-120.24,2.26-150.94-51.97C-8.47,140.62-4.95,84.88,25.69,44.02,45.72,17.32,76.22,1.2,109.61.08c22.7-.77,44.19,4.18,63.6,15.47,10.07,5.86,17.82,13.78,25.97,21.87l16.54,16.4c4.89,4.85,10.87,7.42,17.82,7.5l22.02.25c9.18.1,18.01.36,26.76,2.68,16.04,4.25,28.46,15.29,33.71,31.23,6.67,20.26,8.32,41.6,4.45,63.09ZM170.64,198.22c-26.37,17.15-64.92,16.64-91.96,3.83-49.58-23.49-60.13-88.06-32.41-131.29,21.69-33.82,63.42-47.63,100.75-33.25,28.64,11.03,39.87,37.46,46.26,32.52,1.47-1.14,2.25-4.07.73-5.56l-11.56-11.36c-11.72-11.52-25.19-20.94-41.19-25.49-40.86-11.63-83.61,6.81-104.18,43.8-13.55,24.36-16.65,52.66-9.41,79.54,8.33,30.94,30.96,54.04,61.54,63.2s60.01,5.62,87.01-9.63l-.41,6.27c-.13,1.92,1.81,2.63,3.28,2.7s2.76-.77,3.54-2.41c3.07-6.49,13.5-22.18,2.82-22.78l-16.81-.94c-2.37-.13-3.9,1.33-4.22,3.16-.97,5.57,8.58,4.8,6.24,7.7ZM92.03,149.9c-8.01,3.56-16.31.82-19.57-6.91-2.35-5.56-12.45-4.44-17.66-3.57-4.1.69-5.49,4.85-4.28,8.59,7.53,23.2,38.2,27.9,57.84,15.89,12.68-7.75,17.14-23.46,9.65-36.15-2.17-3.68-5.83-5.34-9.35-8.16,7.31-4.81,10.62-12.48,10.05-21.02-.52-7.75-4.45-15.26-11.98-19.7-21.94-12.93-50.24.17-53.68,17.3-.67,3.36,1.22,6.33,4.66,6.86,5.13.78,14.37,2,16.58-2.42,2.93-5.85,8.87-8.78,15.4-7.55,5.02.94,8.22,4.89,8.14,9.42-.2,11.37-13.87,9.39-20.69,11.2-2.6,3.9-3.8,11.17.16,14.57,3.49,2.99,18.74-1.68,21.34,9.4,1.2,5.1-1.43,9.96-6.6,12.26ZM151.69,116.71c-.13-6.9,2.55-11.83,6.4-16.34,6.36-5.39,15.64-5.38,22.18-.01,7.92,6.5,20.12,2.98,21.7.97,6.78-8.63-12.06-24.78-36.43-24.06-12.95.38-24.26,7.23-29.75,19.18-9.2,20.02-10.83,52.94,6.9,67.51,12.4,10.18,29.39,12.07,44.2,6.13,16.78-6.72,24.81-25.62,17.45-42.12-8.45-18.95-36.91-22.73-52.66-11.25ZM290.86,155.01c11.07-23.23,8.05-56.76-16.35-68.89-11.94-5.93-24.91-6.34-36.22-.65-22.49,11.32-27.65,38.41-22.95,60.57,3.71,17.5,17.43,29.72,34.04,31.71,17.53,2.09,33.63-6.25,41.48-22.74Z"/>
      <path class="cls-1" d="M290.86,155.01c-7.85,16.49-23.96,24.84-41.48,22.74-16.61-1.99-30.32-14.21-34.04-31.71-4.7-22.16.46-49.25,22.95-60.57,11.3-5.69,24.28-5.28,36.22.65,24.41,12.12,27.42,45.66,16.35,68.89ZM266.88,150.66c8.06-11.82,8.79-27.92,2.43-40.28-4.42-8.58-14.5-10.44-22.08-5.49-5.25,3.42-8.47,8.88-9.33,15.35-1.47,11.08-1.11,34.86,13.49,37.25,5.73.93,11.68-1.23,15.49-6.82Z"/>
      <path class="cls-1" d="M92.03,149.9c5.17-2.3,7.8-7.16,6.6-12.26-2.6-11.08-17.85-6.41-21.34-9.4-3.97-3.4-2.77-10.67-.16-14.57,6.82-1.81,20.48.16,20.69-11.2.08-4.54-3.12-8.48-8.14-9.42-6.53-1.23-12.47,1.7-15.4,7.55-2.21,4.42-11.44,3.21-16.58,2.42-3.44-.53-5.34-3.5-4.66-6.86,3.44-17.12,31.74-30.22,53.68-17.3,7.54,4.44,11.47,11.95,11.98,19.7.57,8.54-2.74,16.21-10.05,21.02,3.53,2.82,7.18,4.48,9.35,8.16,7.49,12.69,3.03,28.4-9.65,36.15-19.64,12-50.31,7.31-57.84-15.89-1.21-3.74.18-7.9,4.28-8.59,5.21-.87,15.31-1.99,17.66,3.57,3.26,7.73,11.57,10.47,19.57,6.91Z"/>
      <path class="cls-1" d="M170.64,198.22c2.35-2.9-7.21-2.13-6.24-7.7.32-1.84,1.85-3.3,4.22-3.16l16.81.94c10.68.6.25,16.29-2.82,22.78-.78,1.64-2.07,2.48-3.54,2.41s-3.4-.78-3.28-2.7l.41-6.27c-26.99,15.24-57.53,18.45-87.01,9.63s-53.2-32.26-61.54-63.2c-7.24-26.88-4.14-55.18,9.41-79.54,20.57-36.99,63.32-55.43,104.18-43.8,16,4.55,29.47,13.97,41.19,25.49l11.56,11.36c1.52,1.49.75,4.42-.73,5.56-6.4,4.94-17.63-21.49-46.26-32.52-37.33-14.38-79.07-.57-100.75,33.25-27.73,43.24-17.17,107.8,32.41,131.29,27.04,12.81,65.59,13.32,91.96-3.83Z"/>
      <g>
        <path class="cls-1" d="M151.69,116.71c15.75-11.48,44.21-7.7,52.66,11.25,7.36,16.5-.68,35.4-17.45,42.12-14.81,5.93-31.81,4.05-44.2-6.13-17.73-14.56-16.1-47.48-6.9-67.51,5.49-11.95,16.8-18.8,29.75-19.18,24.38-.72,43.22,15.44,36.43,24.06-1.58,2.01-13.79,5.52-21.7-.97-6.54-5.37-15.82-5.38-22.18.01-3.85,4.51-6.53,9.44-6.4,16.34ZM179.93,150.82c4.52-3.72,5.4-9.34,3.73-14.32-3.35-9.95-16.49-11.07-24.4-5.87-3.77,2.48-5.91,6.73-5.82,10.82.08,3.73,1.99,7.74,5.46,10.26,6.03,4.38,14.93,4.13,21.03-.89Z"/>
        <path class="cls-2" d="M179.93,150.82c-6.11,5.02-15,5.28-21.03.89-3.48-2.53-5.39-6.54-5.46-10.26-.08-4.09,2.06-8.34,5.82-10.82,7.9-5.2,21.05-4.08,24.4,5.87,1.68,4.98.8,10.6-3.73,14.32Z"/>
      </g>
      <path class="cls-2" d="M266.88,150.66c-3.81,5.59-9.76,7.75-15.49,6.82-14.6-2.38-14.97-26.16-13.49-37.25.86-6.47,4.09-11.92,9.33-15.35,7.58-4.95,17.66-3.09,22.08,5.49,6.36,12.36,5.63,28.47-2.43,40.28Z"/>
    </g>
  </g>
</svg>