<?xml version="1.0" encoding="UTF-8"?>
<svg id="Layer_2" data-name="Layer 2" xmlns="http://www.w3.org/2000/svg" viewBox="0 0 94.75 87.16">
  <defs>
    <style>
      .cls-1 {
        fill: #f74d92;
      }

      .cls-2 {
        fill: #7ddd7a;
      }
    </style>
  </defs>
  <g id="Layer_1-2" data-name="Layer 1">
    <path class="cls-1" d="M74.38,79.29c-11.78,6.73-25.43,9.26-38.7,7.14-16.32-2.61-29.84-14.44-34.17-30.4-2.56-9.43-1.75-19.32,1.58-28.4C8.22,13.61,20.22,3.53,34.97.9c13.87-2.47,28.24.22,40.32,7.42,5.32,3.17,9.65,7.31,13.08,12.35,6.66,9.79,7.77,22.85,4.89,34.15-2.65,10.41-9.39,19.05-18.88,24.48ZM84.11,52.28c1.72-7.14,1.72-14.53-.76-21.5-2.24-6.29-6.55-11.3-11.97-15.11-7.28-5.11-15.72-7.69-24.65-7.91-6.33-.15-12.42.76-18.14,3.28-12.33,5.42-19.52,16.61-20.43,29.97-1.2,17.4,10.19,31.82,26.96,35.77,19.13,4.52,43.95-3.57,48.99-24.5Z"/>
    <path class="cls-2" d="M84.11,52.28c-5.04,20.93-29.86,29.02-48.99,24.5-16.77-3.96-28.16-18.37-26.96-35.77.92-13.36,8.11-24.55,20.43-29.97,5.72-2.51,11.8-3.43,18.14-3.28,8.93.22,17.37,2.79,24.65,7.91,5.43,3.81,9.73,8.82,11.97,15.11,2.48,6.97,2.48,14.36.76,21.5ZM50.26,66.25c7.06-2.16-1.42-16.47,5.74-16.26l9.21.27c1.46.04,2.95-.39,3.79-1.61,1.39-2.06,1.6-4.53,1.24-6.92-.42-2.76-2.38-4.6-5.17-4.71l-9.47-.37c-1.46-.06-3.18-1.06-3.16-2.61l.07-9.27c.02-2.36-1.66-4.25-3.96-4.65s-4.57-.37-6.71.45c-1.88.72-2.98,2.69-2.89,4.65l.39,8.74c.08,1.73-1.39,3.02-3.11,2.98l-9.23-.21c-4.73-.11-5.67,5.15-5.23,8.55,1.19,9.2,18,1.1,17.95,8.46l-.05,8.6c-.03,4.87,6.86,5.05,10.61,3.9Z"/>
    <path class="cls-1" d="M50.26,66.25c-3.75,1.15-10.64.97-10.61-3.9l.05-8.6c.05-7.36-16.77.75-17.95-8.46-.44-3.41.5-8.66,5.23-8.55l9.23.21c1.72.04,3.19-1.25,3.11-2.98l-.39-8.74c-.09-1.96,1.01-3.93,2.89-4.65,2.14-.82,4.48-.84,6.71-.45s3.98,2.29,3.96,4.65l-.07,9.27c-.01,1.54,1.71,2.55,3.16,2.61l9.47.37c2.79.11,4.76,1.95,5.17,4.71.36,2.39.15,4.87-1.24,6.92-.83,1.23-2.32,1.66-3.79,1.61l-9.21-.27c-7.16-.21,1.32,14.1-5.74,16.26Z"/>
  </g>
</svg>