<?xml version="1.0" encoding="UTF-8"?>
<svg id="Layer_2" data-name="Layer 2" xmlns="http://www.w3.org/2000/svg" viewBox="0 0 210.53 252.57">
  <defs>
    <style>
      .cls-1 {
        fill: #fddd45;
      }

      .cls-2 {
        fill: #f8bdcc;
      }

      .cls-3 {
        fill: #ea5c89;
      }

      .cls-4 {
        fill: #fbe977;
      }

      .cls-5 {
        fill: #f3f5e4;
      }
    </style>
  </defs>
  <g id="Layer_1-2" data-name="Layer 1">
    <g>
      <path class="cls-2" d="M155.8,220.29c-23.12,39.6-78.15,39.44-114.88,17.47C4.68,216.08-6.52,176.53,14.84,139.14c-6.72-8.48-12.69-16.96-14.33-27.74-3-19.82,7.32-39.96,25.13-49.08,9.43-4.83,19.51-4.46,30.14-3.99C58.89,26.44,82.55,2.28,114.84.15c32.68-2.15,63.22,19.02,73.46,50.07,5.25,15.91,2.22,31.76-4.45,46.87,2.44,4.27,5.9,7.21,9.41,10.3,16.95,14.93,22.2,38.14,12.26,58.85-7.41,15.44-22.65,24.72-39.92,26.84-2.46,9.67-4.8,18.63-9.8,27.21ZM130.54,217.05c11.32-11.92,14.67-27.82,11.34-44.79,21.68,2.66,45.18-4.63,47.35-25.97s-22.9-32.77-42.86-41.58c14.22-10.41,24.11-26.59,21.67-44.13-1.97-14.16-11.19-25.81-21.91-32.05-13.34-7.77-28.21-8.36-41.39-2.36-16.24,7.4-25.63,23.32-24.48,40.93l2.53,18.89-30.17-4.89c-7.6-1.23-15.96-1.23-22.16,3.92-8.11,6.73-9.02,18.54-4.55,27.96,4.69,9.87,12.62,16.8,21.45,24.15-20.96,17.68-30.26,43.12-14.39,65.72,20.75,29.53,75.15,37.8,97.56,14.21Z"/>
      <g>
        <path class="cls-3" d="M130.54,217.05c-22.4,23.59-76.81,15.32-97.56-14.21-15.87-22.59-6.57-48.04,14.39-65.72-8.83-7.35-16.76-14.28-21.45-24.15-4.48-9.42-3.56-21.23,4.55-27.96,6.2-5.15,14.56-5.15,22.16-3.92l30.17,4.89-2.53-18.89c-1.16-17.61,8.24-33.53,24.48-40.93,13.18-6,28.05-5.41,41.39,2.36,10.72,6.24,19.94,17.89,21.91,32.05,2.44,17.55-7.46,33.73-21.67,44.13,19.96,8.81,45.05,20.07,42.86,41.58s-25.67,28.63-47.35,25.97c3.33,16.98-.02,32.87-11.34,44.79ZM93.82,52.42c-3.18,7.4-3.13,16.27-.6,24.24l4.82,15.15c2.81,8.83-1.47,17.89-10.06,21.57-.97.42-1.47,1.51-1.4,2.21.35,3.52,26.05,14.09,37.97,12.35-1.95-6.71-3.67-13.52-.41-19.22,3.46-6.07,9.78-9.06,15.38-12.78,4.74-3.14,8.46-7.49,12.1-11.73,1.67-1.96,2.02-4.13,2.17-6.22,1.14-.12,1.79-1.05,2.2-2.4,3.45-11.28.3-22.79-7.55-31.23-12.18-13.1-31.55-15.48-45.88-4.02-3.78,3.02-6.9,7.84-8.72,12.07ZM134.78,112.95c-4.32,7.49,5.85,13.47,1.8,20.45-7.24,12.47-44.52,2.28-59.3-11.86-2.93-2.8-4.72-5.59-3.7-9.81,1.57-6.49,13.3-5.32,13.44-13.17l-34.39-6.31c-4.57-.84-10.31-.19-13.57,3.33-8.06,8.71,6.7,25.85,19.3,33.89,25.43,16.23,53.98,27.18,84.02,30.55,8.7.98,16.84.46,24.44-2.62,6.95-2.81,11.59-9.65,9.32-16.95-4.18-13.41-26.73-22.08-41.36-27.5ZM115.59,191.14c-1.94,4.94-6.41,10.73-13.15,12.8-17.52,5.39-36.79-1.28-47.17-16.46-4.13-6.04-4.13-14.16-.25-19.98,6.3-9.46,19.72-12.18,16.11-15.99-2.68-2.83-7.28-6.34-11.41-6.38s-6.64,4.32-9.29,6.64c-7.65,6.71-12.52,15.91-12.46,25.77.17,27.86,36.17,45.04,65.42,40.27,22.37-3.65,31.68-25.28,25.61-47.21-7.79-2.76-17.57-5.43-17.81-2.06-.16,2.34,9.52,9.56,4.4,22.59ZM96.55,193.62c6.48-1.77,9.02-7.5,7.87-13.41l-2.25-11.53c-9.11,3.15-17.45.29-21.87-7.74l-10.26,7.48c-5.27,3.84-7.32,9.95-3.17,15.74,6.34,8.85,18.61,12.49,29.68,9.46Z"/>
        <path class="cls-2" d="M134.78,112.95c14.63,5.42,37.18,14.09,41.36,27.5,2.27,7.29-2.37,14.13-9.32,16.95-7.59,3.07-15.73,3.6-24.44,2.62-30.03-3.38-58.59-14.32-84.02-30.55-12.6-8.04-27.36-25.19-19.3-33.89,3.26-3.52,9-4.17,13.57-3.33l34.39,6.31c-.14,7.85-11.87,6.69-13.44,13.17-1.02,4.22.77,7.01,3.7,9.81,14.77,14.14,52.06,24.33,59.3,11.86,4.05-6.98-6.12-12.96-1.8-20.45Z"/>
        <path class="cls-1" d="M119.66,40.31c-4.33,2.25-8.62,6.74-7.33,12.22,1.13,4.77,5.77,7.89,9.75,8.73,11.02,2.32,14.18-6.68,18.54-5.35-.02,3.04,3.54,3.12,3.49,4.74-.05,1.76-5.72,2.72-5.28,7.97.25,2.99,2.31,5.1,4.45,5.52,6.42,1.26,7.91-4.96,9.37-3.58.38.36,1.59,1.19,1.52,2.1l-.38,5.34c-.15,2.1-.49,4.27-2.17,6.22-3.63,4.24-7.36,8.59-12.1,11.73-5.6,3.71-11.92,6.71-15.38,12.78-3.25,5.71-1.54,12.52.41,19.22-11.93,1.74-37.62-8.83-37.97-12.35-.07-.7.43-1.79,1.4-2.21,8.6-3.68,12.87-12.75,10.06-21.57l-4.82-15.15c-2.53-7.97-2.59-16.84.6-24.24,1.09-.17,1.93-1.08,2.65-2.39,2.54-4.6,17.32-14.41,23.18-9.72Z"/>
        <path class="cls-2" d="M115.59,191.14c5.11-13.04-4.57-20.25-4.4-22.59.23-3.37,10.02-.69,17.81,2.06,6.07,21.92-3.24,43.56-25.61,47.21-29.24,4.77-65.24-12.42-65.42-40.27-.06-9.86,4.81-19.06,12.46-25.77,2.65-2.32,5.29-6.67,9.29-6.64s8.73,3.55,11.41,6.38c3.61,3.81-9.81,6.53-16.11,15.99-3.88,5.83-3.88,13.94.25,19.98,10.39,15.18,29.66,21.84,47.17,16.46,6.73-2.07,11.21-7.86,13.15-12.8Z"/>
        <path class="cls-2" d="M96.55,193.62c-11.07,3.03-23.34-.61-29.68-9.46-4.15-5.79-2.1-11.9,3.17-15.74l10.26-7.48c4.42,8.03,12.76,10.89,21.87,7.74l2.25,11.53c1.15,5.91-1.39,11.64-7.87,13.41Z"/>
        <path class="cls-4" d="M153.78,78l.38-5.34c.07-.92-1.14-1.74-1.52-2.1-1.46-1.38-2.95,4.84-9.37,3.58-2.14-.42-4.2-2.53-4.45-5.52-.44-5.25,5.23-6.2,5.28-7.97.05-1.62-3.51-1.7-3.49-4.74l8.11,2.46c-1.67-12.13-17.24-19.34-29.07-18.06-5.86-4.69-20.65,5.12-23.18,9.72-.72,1.31-1.56,2.22-2.65,2.39,1.82-4.24,4.95-9.06,8.72-12.07,14.34-11.46,33.7-9.08,45.88,4.02,7.85,8.45,11,19.95,7.55,31.23-.41,1.35-1.07,2.28-2.2,2.4Z"/>
        <path class="cls-5" d="M140.62,55.9c-4.37-1.33-7.52,7.68-18.54,5.35-3.98-.84-8.63-3.97-9.75-8.73-1.29-5.47,3-9.97,7.33-12.22,11.83-1.28,27.4,5.93,29.07,18.06l-8.11-2.46Z"/>
      </g>
    </g>
  </g>
</svg>