<?xml version="1.0" encoding="UTF-8"?>
<svg id="Layer_2" data-name="Layer 2" xmlns="http://www.w3.org/2000/svg" viewBox="0 0 335.06 308.95">
  <defs>
    <style>
      .cls-1 {
        fill: #fddd45;
      }

      .cls-2 {
        fill: #a2dbe3;
      }

      .cls-3 {
        fill: #fbe977;
      }

      .cls-4 {
        fill: #f3f5e4;
      }

      .cls-5 {
        fill: #7ecfd5;
      }
    </style>
  </defs>
  <g id="Layer_1-2" data-name="Layer 1">
    <g>
      <path class="cls-5" d="M183.06,26.81c-13.33-3.73-28.12-17.88-19.7-25.01,2.35-1.99,7.79-2.76,10.65-.02,6.3,6.02,10.02,15.31,9.05,25.03Z"/>
      <g>
        <path class="cls-5" d="M222.77,9.09c8.26,9.53-17.83,24.56-21.51,21.66-2.96-2.33,2.48-16.77,10.73-22.53,3.49-2.44,8.16-2.16,10.78.87Z"/>
        <g>
          <path class="cls-5" d="M283.49,194.94l-5.57,2.68c-4.45,2.14-7.04,6.14-5.73,11.48l9.64,39.23c2.18,8.86,8.43,14.08,17.38,15.79l17.53,3.35c8.74,1.67,12.48,7.07,18.05,10.24-1.16,5.06-3.96,9.08-8.74,12.32-20.46,13.84-45.36,20.76-70.16,18.5-7.15-.65-14.14-3.5-17.47-9.56-3.74-6.81-.83-14.44,3.69-20.21,10.38-13.28,24.97-17.2,22.6-26.23l-10.57-40.16c-.83-3.15-3.12-5.24-6.34-5.92-31.66-6.71-45.8-33.85-54.25-63.52-6.03-21.53-9.08-42.65-11.78-66.07-10.04,27.98-18.78,57.1-37.13,80.53-11.77,14.25-28.82,23.13-47.04,22.19-4.22-.22-8.51-2.5-13.24-.58-7.43,13.84-14.11,27.74-19.59,42.34-2.17,5.79.41,11.73,4.08,16.23l14.81,18.13c4.07,4.98,5.8,10.95,6.34,17.16-2.92,2.38-6.22,4.15-10.89,4.14-22.95-.08-45.92-7.34-64.25-21.19-5.36-4.05-9.67-8.7-12.82-14.24-4.14-7.26-1.68-15.35,5.25-19.76,5.19-3.3,11.25-5.16,17.61-5.12l16.12.11c2.92.02,5.91-1.36,7.13-4.19l17.49-40.4c1.41-3.25-1.8-7.03-3.71-9.43-24.46-30.65-11.22-63.23,5.3-95.77,9.23-18.17,19.06-35.28,31.47-51.38,4.97-6.45,12.18-8.87,20.25-5.63,20.95,8.41,40.84,19.36,59.96,31.51,7.13,4.53,8.67,12.19,6.63,20.45l10.71-5.92c19.57-7.74,39.68-14.02,60.48-16.94,7.52-1.06,12.86,2.47,16.22,8.51,5.13,9.2,8.7,18.53,12.36,28.53,9.99,27.26,20.64,61.96,14.73,90.08-2.33,11.09-8.77,21.29-16.53,28.73ZM89.85,58.77c-8.09,13.76-15.25,27.82-20.59,43.09-6.36,18.21-7.09,35.16,5.14,50.38,14.74,18.34,42.66,14.6,57.89-4.07,16.69-20.46,27.57-52.43,34.28-78.13l.16-2.97.1-1.11c.15-1.67-1.68-3.1-3.57-3.88-18-7.48-35.1-15.92-51.93-25.86-7.98-4.71-15,11.51-21.49,22.55ZM199.5,85.35c1.88,23.7,7.02,46.86,15.46,69.1,7.07,18.61,19.96,36.02,39.71,34.47,9.64-.76,18.38-5.78,24.25-14.27,12.55-18.17,5.29-47.05-.82-68.77-3.58-12.71-7.8-24.84-13.73-36.76-1.02-2.06-3.81-4.82-6.28-4.01-18.55,6.09-36.66,11.6-55.73,15.87-1.1.25-2.18.83-2.48,1.4-.34.65-.47,1.77-.37,2.97ZM70.72,258.81c.26-1.27-.22-3.4-1.57-4.74-21.2-20.96-55.09-21.58-45.54-10.26,13.38,15.84,45.55,22.58,47.11,15ZM311.28,278.41c-2.1-6.83-30.85-6.2-48.41,6.91-1.87,1.4-3.25,3.7-2.79,5.43,2.68,10.13,54.46-1.77,51.2-12.34Z"/>
          <path class="cls-2" d="M283.49,194.94c-.25,4.09-.87,8.37.2,12.59l10.12,39.9c1.92,7.58,19.84,5.41,32.66,14.28,5.53,3.82,9.72,9.84,8.31,16-5.57-3.16-9.31-8.56-18.05-10.24l-17.53-3.35c-8.95-1.71-15.2-6.92-17.38-15.79l-9.64-39.23c-1.31-5.34,1.27-9.34,5.73-11.48l5.57-2.68Z"/>
          <path class="cls-4" d="M278.1,105.88c-2.5.14-4.56,1.15-6.28,2.46-25.06,7.56-37.63-4.72-53.64-7.06-8.67-1.26-5.9-11.85-14.98-13.98-.58-1.33-2.04-1.82-3.7-1.95-.09-1.19.04-2.31.37-2.97.3-.57,1.38-1.16,2.48-1.4,19.06-4.27,37.18-9.78,55.73-15.87,2.47-.81,5.26,1.95,6.28,4.01,5.93,11.92,10.15,24.05,13.73,36.76Z"/>
          <path class="cls-4" d="M311.28,278.41c3.26,10.57-48.52,22.47-51.2,12.34-.46-1.74.92-4.04,2.79-5.43,17.56-13.11,46.3-13.74,48.41-6.91Z"/>
          <g>
            <path class="cls-3" d="M203.2,87.3c-1.36,2.28.6,4.76.86,7.18,1.92,17.93,9.46,47.64,16.68,64.13,3.82,8.72,9.04,16.72,17.38,21.7,12.91,7.72,29.39,2.17,36.73-10.65,10.54-18.41,4.66-42.16-3.04-61.32,1.72-1.31,3.78-2.31,6.28-2.46,6.11,21.71,13.37,50.59.82,68.77-5.86,8.49-14.6,13.51-24.25,14.27-19.75,1.55-32.64-15.86-39.71-34.47-8.44-22.23-13.58-45.4-15.46-69.1,1.66.13,3.12.62,3.7,1.95Z"/>
            <path class="cls-1" d="M271.82,108.34c7.69,19.16,13.57,42.92,3.04,61.32-7.34,12.82-23.81,18.37-36.73,10.65-8.34-4.98-13.56-12.99-17.38-21.7-7.22-16.5-14.76-46.21-16.68-64.13-.26-2.42-2.22-4.89-.86-7.18,9.08,2.13,6.31,12.72,14.98,13.98,16.01,2.33,28.57,14.62,53.64,7.06ZM235.07,119.9c0-2.42-1.97-4.39-4.39-4.39s-4.39,1.96-4.39,4.39,1.97,4.39,4.39,4.39,4.39-1.96,4.39-4.39ZM267.17,126.68c0-2.55-2.07-4.62-4.62-4.62s-4.62,2.07-4.62,4.62,2.07,4.62,4.62,4.62,4.62-2.07,4.62-4.62ZM240.66,145.21c0-2.26-1.83-4.09-4.09-4.09s-4.09,1.83-4.09,4.09,1.83,4.09,4.09,4.09,4.09-1.83,4.09-4.09ZM265.64,157.61c0-3.6-2.92-6.52-6.53-6.52s-6.53,2.92-6.53,6.52,2.92,6.52,6.53,6.52,6.53-2.92,6.53-6.52Z"/>
            <circle class="cls-4" cx="259.12" cy="157.61" r="6.53"/>
            <circle class="cls-4" cx="262.56" cy="126.68" r="4.62"/>
            <circle class="cls-4" cx="230.68" cy="119.9" r="4.39"/>
            <circle class="cls-4" cx="236.57" cy="145.21" r="4.09"/>
          </g>
        </g>
        <g>
          <path class="cls-2" d="M97.58,179.58c.49,2.39-2.05,3.7-3,5.73l-18.79,40.28c-.29,2.16,2.21,5.12,3.51,6.52,11.29,12.13,22.48,31.15,10.68,40.75-.55-6.21-2.28-12.18-6.34-17.16l-14.81-18.13c-3.67-4.5-6.26-10.43-4.08-16.23,5.48-14.61,12.16-28.5,19.59-42.34,4.74-1.91,9.02.37,13.24.58Z"/>
          <path class="cls-4" d="M166.84,65.96c-1.18-.22-1.02.88-.1,1.11l-.16,2.97c-1.76.53-3.72.9-5.88.72-4.33-5.44-10.74-7.35-17.69-5.79l-25.19,5.67c-6.94,1.56-14.57-1.17-19.65-5.15l-8.31-6.72c6.49-11.05,13.51-27.27,21.49-22.55,16.83,9.94,33.94,18.38,51.93,25.86,1.89.78,3.72,2.21,3.57,3.88Z"/>
          <path class="cls-3" d="M89.85,58.77l8.31,6.72c-9.01,14.32-17.57,28.97-23.06,45.19-3.68,10.87-4.12,21.99.48,32.16,6.88,15.21,23.54,21.17,38.89,14.21,9.29-4.21,16.63-11.83,22.1-20.82,10.58-17.39,18.56-35.74,24.63-55.2,1.12-3.58,1.54-7.68-.51-10.26,2.16.18,4.13-.19,5.88-.72-6.71,25.71-17.59,57.68-34.28,78.13-15.23,18.67-43.15,22.41-57.89,4.07-12.23-15.22-11.51-32.17-5.14-50.38,5.34-15.27,12.5-29.33,20.59-43.09Z"/>
          <path class="cls-4" d="M70.72,258.81c-1.56,7.58-33.73.83-47.11-15-9.55-11.31,24.34-10.7,45.54,10.26,1.35,1.34,1.83,3.47,1.57,4.74Z"/>
          <path class="cls-3" d="M166.74,67.07c-.92-.24-1.08-1.33.1-1.11l-.1,1.11Z"/>
          <path class="cls-1" d="M160.69,70.76c2.05,2.58,1.62,6.68.51,10.26-6.07,19.46-14.05,37.82-24.63,55.2-5.47,8.98-12.81,16.6-22.1,20.82-15.35,6.96-32.01,1-38.89-14.21-4.6-10.17-4.16-21.29-.48-32.16,5.49-16.22,14.05-30.87,23.06-45.19,5.08,3.98,12.71,6.72,19.65,5.15l25.19-5.67c6.95-1.56,13.36.35,17.69,5.79ZM145.5,89.39c0-4.99-4.04-9.03-9.03-9.03s-9.03,4.04-9.03,9.03,4.04,9.03,9.03,9.03,9.03-4.04,9.03-9.03ZM103.05,96.56c0-2.83-2.29-5.12-5.12-5.12s-5.12,2.29-5.12,5.12,2.29,5.12,5.12,5.12,5.12-2.29,5.12-5.12ZM129.59,118.77c0-2.81-2.28-5.08-5.08-5.08s-5.08,2.28-5.08,5.08,2.28,5.08,5.08,5.08,5.08-2.28,5.08-5.08ZM105.06,130.24c0-4.77-3.87-8.65-8.65-8.65s-8.65,3.87-8.65,8.65,3.87,8.65,8.65,8.65,8.65-3.87,8.65-8.65Z"/>
          <circle class="cls-4" cx="136.47" cy="89.39" r="9.03"/>
          <circle class="cls-4" cx="96.41" cy="130.24" r="8.65"/>
          <circle class="cls-4" cx="124.51" cy="118.77" r="5.08"/>
          <circle class="cls-4" cx="97.93" cy="96.56" r="5.12"/>
        </g>
      </g>
    </g>
  </g>
</svg>