<?xml version="1.0" encoding="UTF-8"?>
<svg id="Layer_2" data-name="Layer 2" xmlns="http://www.w3.org/2000/svg" viewBox="0 0 257.78 265">
  <defs>
    <style>
      .cls-1 {
        fill: #fddd45;
      }

      .cls-2 {
        fill: #87bd41;
      }

      .cls-3 {
        fill: #fbe977;
      }
    </style>
  </defs>
  <g id="Layer_1-2" data-name="Layer 1">
    <g>
      <path class="cls-3" d="M211.74,241.56c-5.63,17.11-21.46,26.9-39.03,22.3l-94.85-24.83-58.23-19.52c-15.77-5.29-22.64-21.47-18.41-37.02l11.6-42.72c-8.93-10.59-11.97-23.07-8.43-36.21l9.71-36.07c5.11-18.99,22.49-30.57,42.31-28.17,9.29,1.13,17.69,4.85,27.2,7.79.27-12.42,3.62-23.59,11.39-32.5,13.58-15.57,34.62-18.92,52.71-8.99,12.11,6.65,20.59,17.59,24.78,32.01,24.61-11.32,50.64-11.8,66.22,11.79,8.43,14.48,8.88,32.09,1.35,47.4l8.68,8.47c7.2,7.02,10.97,17.17,8.04,27.3l-12.72,43.88c-2.67,9.22-9.08,16.18-17.61,20.39l-14.71,44.69ZM172.68,245.74c8.07,2.24,15.43-1.53,17.84-8.89l16.93-51.83c.8-2.44,1.99-3.65,4.87-3.54,5.18.19,10.82-3.01,12.21-8.43l10.84-42.27c2.04-7.94-.84-14.94-9.02-17.37l-41.28-12.25c9.17-1.92,17.25-4.55,25.21-8.18,11.22-5.12,16.43-16.19,12.46-27.32-3.9-10.91-15.87-16.45-27.48-12.77-11.8,3.74-21.35,11.18-31.17,19.79-5.86-4.07-11.39-7.03-18.54-8.41,2.6-7.35,3.97-13.49,3.94-20.48-.05-11.69-8.02-20.3-19.54-21.46-12.61-1.83-23.13,6.63-23.66,19.48-.54,13.04,2.53,25.04,8.51,37.19l-52.58-17.01c-4.52-1.46-8.98-2.42-13.56-2-6.78.61-11.18,4.73-13.02,11.17l-11.77,41.07c-2.24,7.81,1.74,14.33,9.67,16.46,1.09.29,2.48,1,2.81,1.76.3.68.21,2.08-.1,3.11l-15.36,51.6c-3.32,11.16,4.29,18.13,15.57,21.47l70.88,21,65.37,18.11Z"/>
      <path class="cls-2" d="M172.68,245.74l-65.37-18.11-70.88-21c-11.28-3.34-18.89-10.31-15.57-21.47l15.36-51.6c.31-1.03.4-2.43.1-3.11-.34-.75-1.72-1.46-2.81-1.76-7.93-2.14-11.9-8.66-9.67-16.46l11.77-41.07c1.84-6.44,6.24-10.56,13.02-11.17,4.58-.41,9.04.54,13.56,2l52.58,17.01c-5.98-12.15-9.05-24.15-8.51-37.19.53-12.84,11.05-21.31,23.66-19.48,11.52,1.16,19.49,9.77,19.54,21.46.03,6.99-1.34,13.13-3.94,20.48,7.15,1.38,12.68,4.34,18.54,8.41,9.82-8.6,19.38-16.05,31.17-19.79,11.61-3.68,23.59,1.85,27.48,12.77,3.98,11.13-1.24,22.2-12.46,27.32-7.96,3.63-16.04,6.26-25.21,8.18l41.28,12.25c8.18,2.43,11.05,9.43,9.02,17.37l-10.84,42.27c-1.39,5.42-7.03,8.62-12.21,8.43-2.88-.11-4.07,1.1-4.87,3.54l-16.93,51.83c-2.4,7.35-9.77,11.12-17.84,8.89ZM133.84,65.99c4.32-7.8,7.89-24.55,2.05-30.25-2.6-2.54-5.67-3.2-9.66-3.3s-8.28,1.96-8.73,6.59c-1.26,12.98.78,26.32,8.64,37.44l7.69-10.48ZM164.37,91.93c15.91.48,29.91-3.42,42.97-9.97,4.95-3.12,6.44-8.79,4.01-13.84-2.05-4.26-7.54-6.19-12.76-4.79-8.18,2.2-14.83,7.14-21.6,12.11-5.76,4.24-11.19,9.02-12.62,16.48ZM100.54,136.4l14.36-46.95c-20.88-5.18-40.6-11.3-60.4-19.01-2.27-.33-5.2-.12-6.55,1.1-.96.87-2.01,2.56-2.5,4.49l-10.08,39.43c2.65,2.34,5.47,3.76,8.73,4.69l56.43,16.25ZM152.71,88.99c2.61.75,3.96-5.42,3.43-7.43-1.38-5.2-11.82-8.63-16.66-5.3-1.98,1.37-4.43,3.82-5.01,7.47l18.23,5.25ZM141.31,117.97l6.34-18.21-22.63-6.64-5.98,18.17c7.92,2.57,14.38,5.64,22.28,6.68ZM204.72,167.67c4.36,1.16,8.24-1.48,9.41-5.06l9.62-29.45c.64-1.97,1.47-5.37.2-7.13-.97-1.35-2.54-3.54-5.05-4.19-20.84-5.33-40.73-12.02-61.67-19.56l-13.76,46.42,38.86,12.99,22.39,5.98ZM44.29,150.87l-9.35,36.71c-.9,3.53,1.14,6.29,4.32,7.37l35.14,11.89c2.48.84,4.8-.17,5.62-2.74l13.43-41.98c3.13-9.79,5.32-14.74-1.16-16.35l-23.16-5.76c-6.46-1.61-12.82-3.28-19.61-3.3l-5.23,14.18ZM136.11,175.09l-12.9,45.34,45.35,12.91c5.03,1.43,10.02.47,11.93-4.62l10-31.68,3.64-14.33c.75-2.95-2.07-5.18-4.86-6.12l-48.47-16.28-4.69,14.78Z"/>
      <path class="cls-3" d="M204.72,167.67l-22.39-5.98-38.86-12.99,13.76-46.42c20.94,7.54,40.83,14.23,61.67,19.56,2.51.64,4.08,2.84,5.05,4.19,1.27,1.76.44,5.16-.2,7.13l-9.62,29.45c-1.17,3.59-5.05,6.23-9.41,5.06Z"/>
      <path class="cls-3" d="M100.54,136.4l-56.43-16.25c-3.26-.94-6.08-2.36-8.73-4.69l10.08-39.43c.49-1.93,1.54-3.62,2.5-4.49,1.35-1.23,4.29-1.43,6.55-1.1,19.8,7.71,39.51,13.83,60.4,19.01l-14.36,46.95Z"/>
      <path class="cls-3" d="M190.49,197.04l-10,31.68c-1.91,5.09-6.9,6.05-11.93,4.62l-45.35-12.91,12.9-45.34c1.68.37,4.19-.44,6.22.38l40.11,16.01,8.04,5.57Z"/>
      <path class="cls-3" d="M93.44,162.11l-13.43,41.98c-.82,2.57-3.14,3.58-5.62,2.74l-35.14-11.89c-3.18-1.08-5.22-3.84-4.32-7.37l9.35-36.71,11.01-.9c13.55,1.4,26.41,5.95,38.15,12.14Z"/>
      <path class="cls-1" d="M190.49,197.04l-8.04-5.57-40.11-16.01c-2.03-.81-4.54,0-6.22-.38l4.69-14.78,48.47,16.28c2.79.94,5.6,3.17,4.86,6.12l-3.64,14.33Z"/>
      <path class="cls-3" d="M164.37,91.93c1.43-7.46,6.86-12.24,12.62-16.48,6.76-4.98,13.41-9.92,21.6-12.11,5.23-1.4,10.71.53,12.76,4.79,2.43,5.05.94,10.72-4.01,13.84-13.06,6.54-27.06,10.45-42.97,9.97Z"/>
      <path class="cls-3" d="M133.84,65.99l-7.69,10.48c-7.86-11.12-9.9-24.46-8.64-37.44.45-4.62,4.61-6.69,8.73-6.59s7.06.76,9.66,3.3c5.84,5.7,2.27,22.45-2.05,30.25Z"/>
      <path class="cls-1" d="M93.44,162.11c-11.74-6.2-24.6-10.74-38.15-12.14l-11.01.9,5.23-14.18c6.79.03,13.15,1.7,19.61,3.3l23.16,5.76c6.48,1.61,4.29,6.56,1.16,16.35Z"/>
      <path class="cls-3" d="M141.31,117.97c-7.9-1.03-14.35-4.11-22.28-6.68l5.98-18.17,22.63,6.64-6.34,18.21Z"/>
      <path class="cls-3" d="M152.71,88.99l-18.23-5.25c.57-3.66,3.02-6.1,5.01-7.47,4.83-3.33,15.27.11,16.66,5.3.53,2.01-.82,8.18-3.43,7.43Z"/>
    </g>
  </g>
</svg>