<?xml version="1.0" encoding="UTF-8"?>
<svg id="Layer_2" data-name="Layer 2" xmlns="http://www.w3.org/2000/svg" viewBox="0 0 247.69 277.7">
  <defs>
    <style>
      .cls-1 {
        fill: #fddd45;
      }

      .cls-2 {
        fill: #16a7c5;
      }

      .cls-3 {
        fill: #a2dbe3;
      }

      .cls-4 {
        fill: #fbe977;
      }

      .cls-5 {
        fill: #f3f5e4;
      }

      .cls-6 {
        fill: #7ecfd5;
      }
    </style>
  </defs>
  <g id="Layer_1-2" data-name="Layer 1">
    <g>
      <path class="cls-4" d="M231.72,238.05c-11.1,15.05-25.32,25.12-42.23,32.18-26.71,11.14-57.15,10.04-82.07-4.77-22.26-13.23-35.85-35.62-37.71-61.09-22.62,1.64-41.49-7.36-55.4-23.73-24.39-25.74-13.74-52.87,3.22-80.31,1.76-2.85,1.67-4.72-.58-7.28C1.37,75.32-2.11,49.98,9.31,29.1,17.78,13.6,32.98,4.31,50.14,1.14c29.62-6.27,46.49,14.39,62.63,36.93,33.01-7.86,62.09-1.09,80.57,27.55,9.54,14.78,11.22,32.78,5.69,49.58-4.17,12.69,9.09,12.18,24.26,25.39,10.11,8.81,18.72,19.36,22.12,32.7,5.77,22.59.33,45.75-13.69,64.77ZM226.09,195.93c1.71-14.64-2.94-28.75-13.91-38.26-8.4-7.28-18.35-11.58-28.81-15.16l-24.2-8.28c19.55-19.9,29.63-45.41,10.22-66-9.6-10.19-24.37-13.57-38.48-11.51-10.95,1.6-20.79,5.23-31.1,9.15-8.89,3.37-7.69-17.85-13.49-28.24-9.11-16.31-29.76-21.17-45.5-12.49-15.87,8.75-22.41,28.29-13.94,45.25,1.89,3.79,5.86,6.91,9.39,9.26l12.63,8.43c1.55,1.04,2.23,2.83,2.34,4.34.29,3.96-14.88,14.14-23.85,29.69-8.09,14.02-9.15,30.82.31,44.26,6.92,9.84,18.53,14.44,30.65,15.19s24.33-3.36,36.78-6.53l-2.51,22.52c-3.43,30.75,17.47,53.65,48.24,57.57,39.17,5,80.67-20.17,85.23-59.2Z"/>
      <path class="cls-2" d="M226.09,195.93c-4.56,39.03-46.06,64.2-85.23,59.2-30.77-3.93-51.67-26.82-48.24-57.57l2.51-22.52c-12.45,3.16-24.18,7.31-36.78,6.53s-23.73-5.35-30.65-15.19c-9.46-13.44-8.4-30.24-.31-44.26,8.97-15.54,24.14-25.73,23.85-29.69-.11-1.51-.79-3.3-2.34-4.34l-12.63-8.43c-3.53-2.35-7.5-5.48-9.39-9.26-8.46-16.97-1.93-36.5,13.94-45.25,15.74-8.68,36.4-3.82,45.5,12.49,5.8,10.39,4.6,31.61,13.49,28.24,10.32-3.91,20.16-7.54,31.1-9.15,14.11-2.06,28.88,1.32,38.48,11.51,19.41,20.6,9.33,46.1-10.22,66l24.2,8.28c10.45,3.58,20.41,7.87,28.81,15.16,10.97,9.52,15.62,23.62,13.91,38.26ZM37.55,60.95c1.16,3.07,2.8,5.63,5.77,7.87l13.56,10.25c8.96,6.77,11.47,16.92,7.98,27.73-1.16,3.59-.6,7.52,1.11,10.6,6.57,11.81,35.31.78,44.76-14.82,2.65-4.37,3.74-10.53.41-14.69-8.59-10.72-26.82.66-32.64-31.95-1.85-10.39-5.45-19.81-16.44-21.66-13.77-2.32-26.26,7.55-26.01,21.59.04,2.23.9,3.46,1.51,5.08ZM35.9,136.55c-.03.63-.53,1.41-.8,1.97-.38.79-.61,1.26-.73,2.05-2.08,13.35,6.09,25.12,20.02,27.06,26.69,3.72,62.28-14.83,83.36-31.95,17.54-14.24,37.52-37,23.63-56.43-3.48-4.87-7.82-8.43-14.18-9.64-11.71-2.23-23.92-.22-34.18,4.74,4.2,2.52,8.3,4.98,10.57,9.04,4.68,8.35,3.24,18.79-2.47,26.76-16.62,23.23-54.2,34.61-65.66,13.47-2.13-3.93-1.88-8.33-2.58-12.56-7.15,5.68-16.65,17.71-16.98,25.48ZM212.83,197.11c1.52-14.39-1.99-27.18-14.6-34l-1.71-.93-2.13-2.26c-8.25-5.03-18.04-6.62-27.29-10.08l-17.09-6.39-1.27,10c-2.63,6.67-8.61,10.41-14.61,13.49-15.65,8.03-24.57.59-26.63,3.85-.65,1.02-.31,2.59-.44,3.99l-2.17,22.97c-1.87,19.77,9.37,36.87,28.31,43.03,34.17,11.11,76.49-13.73,79.65-43.67Z"/>
      <path class="cls-6" d="M161.37,79.26l-11.08-4.35c13.3,13.17.12,33.06-13.02,45.36-17.27,16.16-38.06,27.9-60.74,34.93-8.21,2.55-16.47,3.46-24.62,2.06-8.93-1.53-15.26-8.3-14.65-17.46.09-1.4-.42-2.56-1.37-3.26.33-7.77,9.83-19.8,16.98-25.48.69,4.23.45,8.63,2.58,12.56,11.46,21.14,49.04,9.76,65.66-13.47,5.71-7.97,7.15-18.42,2.47-26.76-2.27-4.05-6.37-6.52-10.57-9.04,10.26-4.96,22.47-6.97,34.18-4.74,6.36,1.21,10.69,4.77,14.18,9.64ZM149.53,73.93l-.5.5.5.5.5-.5-.5-.5Z"/>
      <path class="cls-6" d="M194.39,159.93c-.47.21-1.58-.33-1.94-.2s-.47,1.16-.27,1.49c.6.98,3,1.81,4.34.96l1.71.93c-.19.92.01,2.42.9,3.57,13.01,16.81,4.94,31.35,13.69,30.43-3.16,29.94-45.48,54.78-79.65,43.67-18.94-6.16-30.18-23.26-28.31-43.03l2.17-22.97c.13-1.4-.2-2.97.44-3.99,2.07-3.26,10.98,4.18,26.63-3.85,6-3.08,11.98-6.81,14.61-13.49l1.27-10,17.09,6.39c9.25,3.46,19.04,5.05,27.29,10.08ZM118.95,198.15c-.78-.63-3.2-1.61-4.57-.64-1.29,7.71.96,17.01,7.18,22.83,4.34,4.05,9.74,9.42,15.72,11.04,23.08,6.23,47.44-4.36,60.69-23.37,3.64-5.22,3.95-10.35,4.29-16.15.6-10.22-3.54-18.75-12.17-24.29-2.21-1.42-4.74-4.29-7.76-2.27-.68.63-.48,3.11-.42,3.91-9.18-5.56-20.89-8.05-30.45-1.87-7.33,4.74-14.93,8.42-23.55,10.31-7.69,1.68-9.63,12.59-8.95,20.5Z"/>
      <path class="cls-1" d="M69.9,46.89c-2.18-.37-3.88,1.01-4.29,3.44-.54,3.2.41,5.49,2.78,6.81,2.53,1.4,5.14,1.46,6.97-.85.46-.58,2.07-.67,3.13-.35,5.82,32.61,24.06,21.23,32.64,31.95,3.33,4.16,2.24,10.32-.41,14.69-9.45,15.6-38.18,26.63-44.76,14.82-1.72-3.08-2.27-7.01-1.11-10.6,3.49-10.81.98-20.96-7.98-27.73l-13.56-10.25c-2.96-2.24-4.6-4.8-5.77-7.87l10.83.55c6.11.29,11.24-5.34,11.68-10.4l1.08-1.74c.39-.62-.29-1.65-1.26-1.43-.21-1.85,1-4.11,2.91-4.99,1.31-.6,3.54-.48,5.17.34,1.09.54,2.05,1.84,1.92,3.6Z"/>
      <path class="cls-3" d="M161.37,79.26c13.89,19.42-6.09,42.19-23.63,56.43-21.08,17.11-56.67,35.66-83.36,31.95-13.94-1.94-22.1-13.71-20.02-27.06.48-.13.77-.92.73-2.05.27-.56.78-1.34.8-1.97.95.7,1.46,1.86,1.37,3.26-.61,9.15,5.72,15.92,14.65,17.46,8.15,1.4,16.41.49,24.62-2.06,22.68-7.03,43.47-18.77,60.74-34.93,13.14-12.3,26.32-32.19,13.02-45.36l11.08,4.35Z"/>
      <path class="cls-5" d="M62.05,34.28c1.34,2.55,1.41,5.72.75,8.67-1.91.88-3.12,3.14-2.91,4.99-.26.4-.73,1-.75,1.55-.03.62.18,1.33.93,1.61-.44,5.06-5.57,10.69-11.68,10.4l-10.83-.55c-.62-1.62-1.47-2.85-1.51-5.08-.25-14.04,12.24-23.91,26.01-21.59Z"/>
      <path class="cls-3" d="M212.83,197.11c-8.76.92-.69-13.62-13.69-30.43-.89-1.15-1.09-2.65-.9-3.57,12.6,6.82,16.11,19.61,14.6,34Z"/>
      <path class="cls-4" d="M78.49,55.93c-1.06-.32-2.67-.23-3.13.35.8-4.08-1.2-8.63-5.46-9.39.13-1.76-.83-3.06-1.92-3.6-1.64-.81-3.87-.94-5.17-.34.66-2.96.58-6.12-.75-8.67,10.99,1.85,14.59,11.27,16.44,21.66Z"/>
      <path class="cls-3" d="M194.39,159.93l2.13,2.26c-1.34.85-3.73.02-4.34-.96-.21-.33-.1-1.36.27-1.49s1.47.41,1.94.2Z"/>
      <path class="cls-6" d="M34.36,140.57c.12-.79.35-1.27.73-2.05.04,1.14-.25,1.93-.73,2.05Z"/>
      <rect class="cls-3" x="149.17" y="74.07" width=".71" height=".71" transform="translate(-8.82 127.56) rotate(-45.01)"/>
      <path class="cls-6" d="M181.9,169.21c11.15,6.76,14.13,20.84,6.66,32.47-9.94,15.47-28.95,22.99-47.43,19.93-11.34-1.88-18.63-10.69-22.02-20.8l-.04-1.2-.13-1.47c-.68-7.91,1.26-18.82,8.95-20.5,8.62-1.89,16.22-5.57,23.55-10.31,9.55-6.18,21.27-3.69,30.45,1.87Z"/>
      <path class="cls-2" d="M118.95,198.15l.13,1.47c-1.34.02-1.01,1.31.04,1.2,3.39,10.11,10.67,18.92,22.02,20.8,18.49,3.06,37.5-4.46,47.43-19.93,7.47-11.63,4.49-25.71-6.66-32.47-.05-.8-.25-3.28.42-3.91,3.02-2.02,5.55.85,7.76,2.27,8.63,5.54,12.76,14.06,12.17,24.29-.34,5.8-.64,10.93-4.29,16.15-13.26,19.01-37.61,29.61-60.69,23.37-5.99-1.62-11.39-6.99-15.72-11.04-6.22-5.82-8.46-15.12-7.18-22.83,1.37-.97,3.8,0,4.57.64Z"/>
      <path class="cls-5" d="M69.9,46.89c4.26.77,6.26,5.32,5.46,9.39-1.83,2.31-4.44,2.26-6.97.85-2.37-1.31-3.32-3.61-2.78-6.81.41-2.42,2.11-3.81,4.29-3.44Z"/>
      <path class="cls-4" d="M60.07,51.1c-.75-.28-.96-.99-.93-1.61.02-.55.5-1.15.75-1.55.97-.23,1.65.8,1.26,1.43l-1.08,1.74Z"/>
      <path class="cls-6" d="M119.11,200.82c-1.04.11-1.37-1.18-.04-1.2l.04,1.2Z"/>
    </g>
  </g>
</svg>