<?xml version="1.0" encoding="UTF-8"?>
<svg id="Layer_2" data-name="Layer 2" xmlns="http://www.w3.org/2000/svg" viewBox="0 0 306.9 300.55">
  <defs>
    <style>
      .cls-1 {
        fill: #e8ddec;
      }

      .cls-2 {
        fill: #f8bdcc;
      }

      .cls-3 {
        fill: #ea5c89;
      }

      .cls-4 {
        fill: #fbe977;
      }

      .cls-5 {
        fill: #f17f37;
      }

      .cls-6 {
        fill: #f385a7;
      }
    </style>
  </defs>
  <g id="Layer_1-2" data-name="Layer 1">
    <g>
      <g>
        <path class="cls-4" d="M263.58,104.83l-2.46,12.43-7.72.81c-.62-.04-3.41-.2-3.65-1.17.02-11.17,6.11-20.57,6.08-30.96-5.71-2.46-11.58-4.47-17.86-4.04l-9.13,28.14-19.68-5.48c-1.51-3.37-9.81-2.1-17.12-8.01-2.29-.45-3.54-2.1-4.06-3.99,1.07-8.37,3.4-16.5,2.81-25.69-4.47-2.74-12.42-4.57-16.93-2.29-3.05,5.47-2.99,12.69-4.64,18.53l-3.57,12.63-28.89-3.71-12.84-.47.88-20.81c.1-2.36.83-7.17-.91-8.69-5.51-2.5-11.62-2.66-17.58-1.85l-3.85,29.83c-11.17-.38-21.5-1.11-31.56,1.67l-7.95,2.3c.31-1.21.65-3.03,2.54-3.76,9.29-3.6,18.8-6.17,28.78-6.84,1.35-.09,1.95-1.35,1.95-2.09.01-3.74-5.88-4.88-5.14-7.93l4.3-17.85c-7.33-6.18-10.59-15.51-7.37-24.79s8.7-18.48,15.92-25.67c5.89-5.86,14.9-6.96,21.48-1.62,10.16,8.23,17.79,20.22,19.25,33.12,1.11,9.8-3.32,17.85-13.13,20.39,4.84,4.49,5.56,10.41,4.57,17.48l22.18,2.21c2.08-6.36,3.64-12.12,6.93-18.03-8.02-5.36-10.39-14.53-6.89-23.68,3.91-10.25,11.33-19.54,20.1-26.23,8.38-6.38,18.93-4.61,25.61,3.09,9.81,11.33,12.7,27.44,7.28,41.54-1.73,4.52-5.38,7.66-9.96,9.48,5.68,11.42-4.01,21.59.69,22.71l19.78,4.69c1.85-5.84,4.44-10.29,7.43-15.44-6.11-6.61-7.5-15.8-3.13-24.01,9.25-17.41,33.66-33.52,44.82-18.03,11.7,16.24,15.92,43.6-2.54,51.65.03,7.31-3.23,12.33-4.84,20.44ZM127.42,36.56c-1.6-6.39-5.02-11.63-9.74-16.48-8.96,6.86-15.62,19.65-9.29,26.72,2.28,2.54,5.69,3.55,9.5,3.21,6.81-.6,11.36-6.13,9.53-13.45ZM195.21,50.75c4.95-6.71.26-17.84-4.97-26.29-9.69,6.18-18.36,16.97-13.53,24.97,3.81,6.32,14.61,6.58,18.5,1.31ZM263.68,63.22c-.11-7.06-2.39-13.04-5.8-18.96-10.11,6.26-19.51,15.98-14.92,24.77,1.55,2.98,4.74,4.74,8.82,5.2,6.62.74,12.01-3.48,11.89-11.01Z"/>
        <path class="cls-2" d="M281.13,223.81c-3.57.89-7.32,1.3-11.17.92-.87-3.87,1.4-6.59,1.91-9.97l1.85-12.24,1.27-7.93c.32-1.97-2.48-4.3-4.2-4.67.95-6.12-1.25-7.46-3.13-11.33,3.75-.15,8.04.52,11,2.84l7.15,5.6c3.03-11.63,4.75-22.69,5.77-34.29.71-8.14-2.72-14.79-9.15-19.8-8.67-6.95-19.11-10.42-29.03-14.87l7.72-.81,2.46-12.43c5.18.43,9.37,3.6,14.17,5.98,15.63,7.76,26.55,21.63,28.57,39.19,1.65,14.39-.36,28.49-5.16,42.08-2.43,6.89-7.29,12-13.6,15.46l-6.44,16.27Z"/>
        <path class="cls-2" d="M91.11,73.39c-.73,3.05,5.15,4.19,5.14,7.93,0,.74-.6,2-1.95,2.09-9.98.67-19.49,3.24-28.78,6.84-1.89.73-2.23,2.55-2.54,3.76-3.6,3.14-8.34,6.24-10.4,11.47-4.84,12.3-8.67,24.89-11.04,38.04,3.08,1.75,5.75.94,8.2,1.31,1.69.26,3.34.66,5.68.43l6.36-.64c.25,2.52,3.96,2.05,4,4.62.05,3.27-4.72,3.1-4.96,6.39-3.89,1.55-8.22.63-13.23-.26l-4.47,20.38c-1.78.11-4.12.73-5.76-.43l-6.96-4.67,2.89-11.86c-9.73-13.95-6.91-31.52-.36-47.05,11.14-26.41,30.08-37.21,58.17-38.35Z"/>
        <path class="cls-3" d="M187.98,92.58l-.95,7.45,22.13,4.55,19.68,5.48,9.13-28.14c6.28-.43,12.15,1.58,17.86,4.04.02,10.39-6.06,19.8-6.08,30.96.24.97,3.02,1.13,3.65,1.17,9.91,4.45,20.36,7.91,29.03,14.87,6.43,5.01,9.86,11.66,9.15,19.8-1.01,11.6-2.73,22.66-5.77,34.29l-7.15-5.6,4.84-24.89c3.66-18.66-18.41-24.95-35.56-31.93l-4.23,11.18c-6.7,2.66-15.33.71-19.38-5.57-.33-4.08,1.46-7.39,2.1-11.96l-40.75-10.51c-1.19,3.76.07,8.31-2.82,11.38-4.61,4.89-15.92,2.88-18.52-3.27-1.62-3.84.46-7.82.17-11.74-13.95-2.32-27.42-4.4-41.62-4.66-.7,4.23.38,9.12-2.49,12.14-4.41,4.66-14.51,3.44-18.22-1.82-2.34-3.33-.43-7.89-.54-12.05-15.6-.25-38.28-1.71-42.93,11.9-4,11.72-6.83,23.41-8.97,35.2-2.44-.37-5.12.44-8.2-1.31,2.37-13.15,6.2-25.74,11.04-38.04,2.06-5.23,6.8-8.33,10.4-11.47l7.95-2.3c10.06-2.78,20.38-2.05,31.56-1.67l3.85-29.83c5.95-.81,12.07-.65,17.58,1.85,1.74,1.53,1.01,6.33.91,8.69l-.88,20.81,12.84.47,28.89,3.71,3.57-12.63c1.65-5.84,1.59-13.06,4.64-18.53,4.51-2.28,12.46-.45,16.93,2.29.59,9.19-1.74,17.32-2.81,25.69Z"/>
        <path class="cls-5" d="M195.21,50.75c-3.89,5.27-14.69,5-18.5-1.31-4.83-8,3.83-18.79,13.53-24.97,5.23,8.44,9.92,19.58,4.97,26.29Z"/>
        <path class="cls-5" d="M127.42,36.56c1.83,7.31-2.72,12.84-9.53,13.45-3.81.34-7.22-.66-9.5-3.21-6.33-7.08.32-19.86,9.29-26.72,4.72,4.85,8.14,10.09,9.74,16.48Z"/>
        <path class="cls-5" d="M263.68,63.22c.12,7.53-5.28,11.75-11.89,11.01-4.08-.46-7.27-2.22-8.82-5.2-4.59-8.8,4.81-18.52,14.92-24.77,3.4,5.92,5.68,11.91,5.8,18.96Z"/>
        <path class="cls-2" d="M209.16,104.57l-22.13-4.55.95-7.45c.52,1.88,1.76,3.54,4.06,3.99,7.31,5.91,15.61,4.64,17.12,8.01Z"/>
        <path class="cls-6" d="M278.66,181.44c-2.97-2.32-7.25-2.99-11-2.84-11.68.47-17.26,9.76-25.54-1.09-5.47-7.18-14.16-9.2-21.52-3.91l-8.08,5.81c-2.69,1.94-5.49,2.81-8.69,2.01-2.47-.63-4.58-2.6-6.48-5.24l-6.64-9.24c-4.46-6.21-12.79-7.76-19.51-3.72l-10.51,6.33c-4.6,2.77-10.11,1.93-13.04-2.65l-6.95-10.87c-4.06-6.35-11.85-8.29-18.88-5.33l-11.29,6.56c-4.88,2.83-10.25,1.86-13.36-2.83l-7.53-11.36c-3.76-5.67-11.33-7.19-17.4-3.97l-10.44,5.52-6.36.64c-2.34.24-3.99-.17-5.68-.43,2.14-11.79,4.97-23.48,8.97-35.2,4.65-13.61,27.32-12.15,42.93-11.9.11,4.17-1.81,8.72.54,12.05,3.7,5.26,13.81,6.48,18.22,1.82,2.86-3.02,1.79-7.91,2.49-12.14,14.2.26,27.67,2.34,41.62,4.66.29,3.92-1.79,7.9-.17,11.74,2.6,6.15,13.91,8.17,18.52,3.27,2.89-3.07,1.63-7.62,2.82-11.38l40.75,10.51c-.64,4.57-2.43,7.88-2.1,11.96,4.05,6.29,12.68,8.23,19.38,5.57l4.23-11.18c17.16,6.98,39.22,13.27,35.56,31.93l-4.84,24.89Z"/>
        <path class="cls-1" d="M267.65,178.59c1.88,3.87,4.08,5.21,3.13,11.33-4.32-.95-8.6,1.93-12.54,3.96-16.82,8.66-21.96-8-27.36-9.87-4.79-1.66-9.36,5.26-17.65,9.04s-17.65.94-22.81-6.93l-5.89-8.97c-2.45-3.74-7.19-3.87-10.9-1.66l-11.79,7.04c-7.26,4.34-16.4,2.11-20.75-5.08l-5.99-9.91c-2.83-4.69-7.49-6.73-12.38-3.92l-10.73,6.18c-6.75,3.88-14.5,2.37-19.87-3.38-7.81-8.35-8.41-19.92-18.45-15.92l-12.85,5.12c.24-3.29,5.01-3.12,4.96-6.39-.04-2.57-3.75-2.1-4-4.62l10.44-5.52c6.08-3.21,13.65-1.7,17.4,3.97l7.53,11.36c3.11,4.7,8.48,5.67,13.36,2.83l11.29-6.56c7.03-2.96,14.82-1.02,18.88,5.33l6.95,10.87c2.93,4.58,8.44,5.43,13.04,2.65l10.51-6.33c6.72-4.05,15.05-2.49,19.51,3.72l6.64,9.24c1.9,2.64,4.01,4.62,6.48,5.24,3.2.81,5.99-.07,8.69-2.01l8.08-5.81c7.35-5.29,16.04-3.27,21.52,3.91,8.28,10.85,13.86,1.56,25.54,1.09Z"/>
      </g>
      <g>
        <path class="cls-4" d="M43.13,175.74l-2.65,11.27c-1.57,6.69-1.82,14.37,3.96,19.41,8.69,7.58,18.76,13.14,29.63,18.22,52.29,24.41,119.14,36.31,175.86,25.2,6.2-1.21,10.91-5.39,12.76-11.21l4.93-15.45,6.09-20.65-1.85,12.24c-.51,3.38-2.77,6.1-1.91,9.97,3.85.37,7.6-.04,11.17-.92-2.41,6.09,8.89,7.61,12.87,20.47,4.71,15.19-.65,30.71-14.1,39.61-31.08,20.57-96.55,18.89-134.36,11.93-26.56-4.89-51.76-11.44-76.82-21.03-23.27-8.9-61.14-29.98-67.6-53.15-5.46-19.59,10.24-41.14,18.76-38.48,1.72.54,3.08,2.09,5.61,4.23l4.92-16.74,6.96,4.67c1.64,1.16,3.98.54,5.76.43ZM272.56,245.08c-6.03,7.58-12.31,12.11-20.36,14.98-7.59,2.96-15.24,4.29-23.42,5.72-51.46,6.42-106.58-4.15-153.87-24.94-18.5-9.31-41.59-21.1-48.69-40.84-5.77,8.5-4.74,17.97,1.22,25.27,15.25,18.67,46.39,31.67,70.16,38.74,42.55,12.66,95.08,21.73,138.78,15.04,11.09-1.7,21.85-4.7,30.95-10.69,8.04-5.3,10.6-14.91,5.23-23.27Z"/>
        <path class="cls-5" d="M270.78,189.92c1.72.38,4.52,2.71,4.2,4.67l-1.27,7.93-6.09,20.65-4.93,15.45c-1.85,5.82-6.56,10-12.76,11.21-56.72,11.11-123.57-.79-175.86-25.2-10.87-5.07-20.93-10.63-29.63-18.22-5.78-5.04-5.53-12.72-3.96-19.41l2.65-11.27,4.47-20.38c5.01.89,9.35,1.81,13.23.26l12.85-5.12c10.04-4,10.63,7.56,18.45,15.92,5.38,5.75,13.12,7.26,19.87,3.38l10.73-6.18c4.89-2.81,9.55-.77,12.38,3.92l5.99,9.91c4.34,7.2,13.48,9.42,20.75,5.08l11.79-7.04c3.71-2.21,8.44-2.08,10.9,1.66l5.89,8.97c5.16,7.86,14.16,10.87,22.81,6.93s12.86-10.69,17.65-9.04c5.39,1.87,10.53,18.53,27.36,9.87,3.94-2.03,8.22-4.9,12.54-3.96ZM262.08,210.3c-1.31-1.99-3.61-2.24-5.23-2.05-46.08,5.6-101.59-3.4-145.81-17.56-18.27-5.85-34.85-13.33-51.3-22.77-1.76-1.01-4.04-1.13-5.66-.56-1.49.53-2.59,2.37-3.3,4.1-1.55,3.78-.55,6.71,2.77,8.67,51.91,30.55,123.12,44.34,183.16,43.23,7.73-.14,14.66-.38,21.94-2.33,3.74-1.01,5.45-7.65,3.43-10.73Z"/>
        <path class="cls-5" d="M272.56,245.08c5.37,8.36,2.81,17.97-5.23,23.27-9.1,5.99-19.86,8.99-30.95,10.69-43.71,6.69-96.23-2.38-138.78-15.04-23.76-7.07-54.9-20.07-70.16-38.74-5.96-7.3-6.99-16.77-1.22-25.27,7.1,19.74,30.19,31.53,48.69,40.84,47.29,20.79,102.41,31.36,153.87,24.94,8.18-1.42,15.83-2.76,23.42-5.72,8.04-2.87,14.33-7.4,20.36-14.98Z"/>
        <path class="cls-4" d="M262.08,210.3c2.02,3.07.31,9.72-3.43,10.73-7.28,1.96-14.21,2.19-21.94,2.33-60.04,1.11-131.25-12.68-183.16-43.23-3.32-1.95-4.33-4.88-2.77-8.67.71-1.73,1.82-3.57,3.3-4.1,1.62-.58,3.9-.45,5.66.56,16.45,9.45,33.03,16.93,51.3,22.77,44.22,14.15,99.73,23.16,145.81,17.56,1.62-.2,3.92.05,5.23,2.05Z"/>
      </g>
    </g>
  </g>
</svg>