<?xml version="1.0" encoding="UTF-8"?>
<svg id="Layer_2" data-name="Layer 2" xmlns="http://www.w3.org/2000/svg" viewBox="0 0 272.21 291.12">
  <defs>
    <style>
      .cls-1 {
        fill: #e8ddec;
      }

      .cls-2 {
        fill: #16a7c5;
      }

      .cls-3 {
        fill: #a2dbe3;
      }

      .cls-4 {
        fill: #31b6e2;
      }

      .cls-5 {
        fill: #f8bdcc;
      }

      .cls-6 {
        fill: #ea5c89;
      }

      .cls-7 {
        fill: #f385a7;
      }
    </style>
  </defs>
  <g id="Layer_1-2" data-name="Layer 1">
    <g>
      <g>
        <path class="cls-3" d="M158.47,52.74l-6.56,2.22c-2.52.85-2.61,3.04-2.22,4.83.28,1.26.5,4.58-.87,5.33l-4.93,2.77c-2.6-11.94-9.48-22.37-17.18-31.49-17.52-20.74-46.43-28.01-70.59-15.15-10.01,5.33-18.77,12.66-25.02,23.1-9.61,16.08-14.45,34.92-12.22,53.85,3.78,32.09,32.48,65.7,63.71,70.22.73,1.32.8,2.64.61,3.8-4.09,6.67-9.94,15.42-6.28,19.09s11.93-5.96,17.33-4.69l12.07,2.84c1.68.4,3.63-.12,4.41-1.21,2.98-4.17-4.02-11.71-10.33-16.94-.75-1.12-1.11-2.47-1.29-4.09,10.91-2.75,18.43-9.74,26.94-15.82l1.25,7.91c.13.85-.44,2.44,1.02,2.78l-.09.92c.2,9.58-.38,20.22-7.09,28.11-2.72,3.19-6.97,4.77-8.77,8.58l-10.62-3.38-.52,21.76c-2.43,14.83-14.8,24.58-29.37,22.11-.66-3.03-1.34-5.51-.94-8.4,7.05,0,14.02-2.14,17.4-8.48,4.29-8.07,4.62-17.33,2.14-26.34l-9.39,3.94c-3.89,1.63-8.11.93-10.8-1.93-6.9-7.32,1.22-14.91-7.99-18.77-27.97-11.73-50.09-35.48-58.53-64.93C-5.64,82.6,2.92,47.85,26.25,23.46,40.35,8.72,59.22,2.01,79.31.3c23.47-2,45.2,5.98,61.11,23.12,6.17,6.65,11.29,13.44,15.31,21.68,1.23,2.52,3.02,4.69,2.74,7.64Z"/>
        <path class="cls-4" d="M126.71,36.39c6.17,15.84,13.9,46.97,7.86,62.28l-1.75,5.28c-.3-.02-.42.3-.34.54-1.4-.03-.93,1.4-1.15,2.05l-3.74,10.95c-.71.05-1.38.78-1.43,1.66-.21,3.76-2.56,5.92-4.3,8.71-4.37,6.98-9.35,13.09-16.17,17.86-10.68,7.46-24.27,8.04-35.38.53C30.53,119.34,22.92,59.29,56.5,22.67c.46-.48.49-1.01-.38-1.43,24.16-12.85,53.06-5.58,70.59,15.15ZM111.14,32.8c-2.68-1.68-5.65-1.85-8.17-.27-7.38,4.63-6.51,23.98,7.82,33.4,2.92,1.92,6.72,1.99,9.42.05,9.14-6.57,4.09-24.88-9.07-33.17ZM122.37,91.86c4.95-.53,6.5-4.9,6-8.84-.37-2.92-2.94-6.53-6.88-6.06s-5.98,4.31-5.74,7.87c.2,3,2.56,7.47,6.61,7.04Z"/>
        <path class="cls-2" d="M56.12,21.24c.87.42.83.94.38,1.43-33.57,36.63-25.97,96.67,13.8,123.59,11.11,7.52,24.7,6.94,35.38-.53,6.82-4.77,11.81-10.88,16.17-17.86,1.75-2.79,4.1-4.95,4.3-8.71.05-.88.72-1.61,1.43-1.66-3.7,10.84-3.31,22.57-1.52,33.9-8.51,6.08-16.04,13.07-26.94,15.82-4.96,1.25-11.3,1.96-16.54,1.2-31.23-4.52-59.93-38.13-63.71-70.22-2.23-18.93,2.61-37.77,12.22-53.85,6.25-10.44,15.01-17.78,25.02-23.1Z"/>
        <path class="cls-2" d="M100.41,171.31c6.31,5.23,13.3,12.77,10.33,16.94-.78,1.09-2.73,1.61-4.41,1.21l-12.07-2.84c-5.4-1.27-13.61,8.41-17.33,4.69s2.19-12.42,6.28-19.09l17.21-.91Z"/>
        <path class="cls-2" d="M143.89,67.88l3.66,15.63c-6.14,5.84-10.77,13.09-14.73,20.45l1.75-5.28c6.04-15.32-1.69-46.44-7.86-62.28,7.7,9.12,14.58,19.55,17.18,31.49Z"/>
        <path class="cls-1" d="M153.48,77.87l-5.93,5.64-3.66-15.63,4.93-2.77c1.37-.75,1.14-4.07.87-5.33,3.02,5.45,3.41,11.73,3.79,18.08Z"/>
        <path class="cls-4" d="M99.12,167.21c.18,1.62.54,2.98,1.29,4.09l-17.21.91c.18-1.17.12-2.48-.61-3.8,5.24.76,11.57.05,16.54-1.2Z"/>
        <path class="cls-3" d="M111.14,32.8c13.17,8.29,18.22,26.6,9.07,33.17-2.7,1.94-6.5,1.88-9.42-.05-14.34-9.41-15.21-28.77-7.82-33.4,2.52-1.58,5.5-1.41,8.17.27Z"/>
        <path class="cls-3" d="M122.37,91.86c-4.06.43-6.41-4.04-6.61-7.04-.24-3.55,1.72-7.39,5.74-7.87s6.51,3.14,6.88,6.06c.5,3.94-1.05,8.31-6,8.84Z"/>
        <path class="cls-2" d="M131.33,106.55c.22-.65-.25-2.08,1.15-2.05-.12.81-.49,1.55-1.15,2.05Z"/>
      </g>
      <g>
        <path class="cls-5" d="M159.82,236.33c1.72-3.43,4.23-6.94,8.6-7.15,1.24,1.51,5.18,3.39,7.02,2.34,5.95-3.4-1.4-13.76-1.25-22.58,26.69,1.53,52.78-11.17,66.24-34.32,11.16-19.19,13.73-41.87,10.24-63.35-1.16-7.17-3.95-12.68-6.91-18.49-9.12-17.9-28.05-29.51-48.22-29.08-15.23.33-29.9,4.9-42.07,14.18-.38-6.36-.76-12.63-3.79-18.08-.39-1.79-.3-3.97,2.22-4.83l6.56-2.22c17.64-5.98,36.09-7.26,54.74-3.29,31.17,6.64,54.45,30.89,58.18,62.83,2.51,21.56-.7,43.01-9.36,62.95-11.54,26.56-35.25,44.68-63.57,50.15-5.04.97-8.38,3-10.09,8.27-1.51,4.65-4.92,9.03-10.3,9.27-8.94.4-12.77-5.02-18.25-6.58Z"/>
        <path class="cls-5" d="M154.31,221.79c-.64,4.64-4.15,11.57-6.88,11.44-.38-1.04-1.54-1.87-2.8-2.15-10.06-2.26-15.51-10.77-14.16-20.85.59-4.36-2.07-9.29-4.31-12.6-3.38-5.01-6.58,4.37-13.79,2.08,1.81-3.81,6.06-5.38,8.77-8.58,6.71-7.89,7.29-18.53,7.09-28.11.71.52,1.48,1.4,1.91,2.64,5.54,16.01,16.16,28.88,30.54,38.84l-14.89,10.34c-1.56,1.08-2.97,4.51-.99,5.99,2.4,1.8,6.89,1.69,9.49.97Z"/>
        <path class="cls-7" d="M168.42,229.18c-4.37.21-6.87,3.72-8.6,7.15-3.1,6.18-4.09,12.66-1.33,19.71l3.35,8.57c6.1,15.62-9.56,28.32-14.27,26.3-2.24-.96-4.17-4.1-5.02-6.48,3.64-3.03,8.48-5.48,9.75-10.27,2.04-7.73-7.67-13.94-5.61-33.79l.74-7.15c2.73.14,6.24-6.8,6.88-11.44,5.88-1.64,10.61,3.14,14.11,7.39Z"/>
        <path class="cls-6" d="M195.55,63.69c-.18.93-.77,1.51-1.87,2.11-6.94,3.76-13.36,7.42-19.42,12.69-24.53,21.36-33.31,55.65-22.61,86.3,2.65,7.59,6.68,13.7,12.08,19.02,6.36,6.26,13.76,8.72,22.53,6.74,30.05-6.79,57.41-36.9,60.6-67.39.74-7.06-.6-14.46-2.1-21.29-.72-3.27-2.78-5.9-1-9.09,2.96,5.81,5.74,11.32,6.91,18.49,3.49,21.49.92,44.16-10.24,63.35-13.46,23.15-39.56,35.85-66.24,34.32-.15,8.82,7.2,19.18,1.25,22.58-1.85,1.05-5.78-.83-7.02-2.34-3.5-4.25-8.23-9.03-14.11-7.39-2.6.72-7.09.83-9.49-.97-1.98-1.48-.57-4.91.99-5.99l14.89-10.34c-14.38-9.97-25-22.83-30.54-38.84-.43-1.24-1.2-2.11-1.91-2.64l.09-.92c.17-1.08-.03-2.2-1.02-2.78l-1.25-7.91c-1.79-11.32-2.19-23.06,1.52-33.9l3.74-10.95c.66-.5,1.03-1.24,1.15-2.05-.08-.24.04-.56.34-.54,3.97-7.36,8.6-14.6,14.73-20.45l5.93-5.64c12.16-9.28,26.84-13.85,42.07-14.18Z"/>
        <path class="cls-5" d="M128.33,162.09c-1.45-.34-.88-1.93-1.02-2.78.98.58,1.18,1.7,1.02,2.78Z"/>
        <path class="cls-7" d="M243.77,92.77c-1.78,3.19.28,5.82,1,9.09,1.5,6.83,2.84,14.23,2.1,21.29-3.19,30.49-30.55,60.59-60.6,67.39-8.78,1.98-16.17-.48-22.53-6.74-5.4-5.32-9.43-11.43-12.08-19.02-10.71-30.65-1.93-64.94,22.61-86.3,6.06-5.27,12.48-8.93,19.42-12.69,1.1-.6,1.7-1.18,1.87-2.11,20.17-.43,39.1,11.18,48.22,29.08ZM229.06,86.77c-1.82-1.86-4.91-2.66-7.05-2.25-9.03,1.73-12.53,23.02-2.58,34.34,2.79,3.18,7.15,4.01,10.42,2.8,9.72-3.6,10.54-23.34-.79-34.89ZM233.51,141.08c.96-4.4-2.08-8.6-5.83-8.82-3.92-.23-6.88,3.24-7.18,7.19s1.52,7.8,5.22,8.09,6.81-1.97,7.79-6.46Z"/>
        <path class="cls-5" d="M229.06,86.77c11.33,11.55,10.51,31.28.79,34.89-3.27,1.21-7.63.38-10.42-2.8-9.95-11.32-6.45-32.61,2.58-34.34,2.14-.41,5.23.39,7.05,2.25Z"/>
        <path class="cls-5" d="M233.51,141.08c-.98,4.49-4.02,6.76-7.79,6.46s-5.54-4.01-5.22-8.09,3.27-7.42,7.18-7.19c3.75.22,6.78,4.43,5.83,8.82Z"/>
      </g>
    </g>
  </g>
</svg>