<?xml version="1.0" encoding="UTF-8"?>
<svg id="Layer_2" data-name="Layer 2" xmlns="http://www.w3.org/2000/svg" viewBox="0 0 264.83 218.3">
  <defs>
    <style>
      .cls-1 {
        fill: #16a7c5;
      }

      .cls-2 {
        fill: #a2dbe3;
      }

      .cls-3 {
        fill: #31b6e2;
      }
    </style>
  </defs>
  <g id="Layer_1-2" data-name="Layer 1">
    <g>
      <path class="cls-2" d="M218,165.31c-18.32,16.88-36.51,32.14-57.57,44.56-19.34,11.41-35.63,11.16-54.87-.26-19.42-11.53-35.83-26.04-52.16-41.59C31.67,147.34,10.2,122.06,2.59,93.04-6.12,59.81,7.54,25.14,37.63,8.37c31.19-17.38,67.83-6.19,92.16,19.68,1.75-2.54,3.42-4.22,5.56-5.87,30.85-23.86,76.65-23.91,105.67,2.11,16.05,14.39,24.75,33.55,23.74,55.39-1.61,34.6-21.35,62.21-46.76,85.63ZM43.19,28.39c-14.55,10.94-22.38,27-22.56,45.2-.11,11.18,1.81,21.38,7,31.38,7.54,14.54,17.63,26.84,29.44,38.43,19.65,19.28,40.88,36.12,64.46,50.18,5.01,2.99,10.94,3.52,15.93,2.2,4.93-1.31,9.04-3.41,13.46-6.32,22.03-14.52,42.37-30.99,60.79-49.87,13.2-13.53,23.4-28.25,29.15-46,8.76-27.04-3.46-54.38-29.59-65.68-11.65-5.04-24.43-6.08-37.45-4.03-28.41,4.47-42.44,25.54-45.48,25.54-3.4,0-14.53-17.34-36.81-26.43-16.27-6.63-34.46-5.04-48.33,5.39Z"/>
      <g>
        <path class="cls-3" d="M137.46,195.78c-32.29-24.65-67.97-54.9-89.53-90.21-15.15-24.81-17.63-49.25-4.39-75.34.39-.77.3-1.4-.35-1.85,13.87-10.43,32.05-12.02,48.33-5.39,22.29,9.08,33.41,26.42,36.81,26.43,3.04,0,17.07-21.07,45.48-25.54,13.02-2.05,25.8-1.01,37.45,4.03,26.13,11.3,38.35,38.64,29.59,65.68-5.75,17.74-15.95,32.47-29.15,46-18.42,18.88-38.76,35.35-60.79,49.87-4.42,2.91-8.53,5.02-13.46,6.32ZM226.31,77.63c1.7-13.89-5.57-27.49-17.1-34.18-6.97-4.05-14.7-3.14-19.95,2.61-6.92,16.51,6.09,37.37,22.45,41.33,6.89,1.67,13.65-2,14.6-9.76Z"/>
        <path class="cls-1" d="M137.46,195.78c-5,1.33-10.92.79-15.93-2.2-23.57-14.06-44.8-30.9-64.46-50.18-11.81-11.59-21.89-23.89-29.44-38.43-5.19-10-7.11-20.2-7-31.38.18-18.2,8.01-34.27,22.56-45.2.65.46.74,1.08.35,1.85-13.24,26.09-10.77,50.52,4.39,75.34,21.56,35.31,57.23,65.56,89.53,90.21Z"/>
        <path class="cls-2" d="M226.31,77.63c-.95,7.76-7.71,11.42-14.6,9.76-16.36-3.96-29.37-24.81-22.45-41.33,5.26-5.74,12.98-6.65,19.95-2.61,11.53,6.69,18.8,20.28,17.1,34.18Z"/>
      </g>
    </g>
  </g>
</svg>