<?xml version="1.0" encoding="UTF-8"?>
<svg id="Layer_2" data-name="Layer 2" xmlns="http://www.w3.org/2000/svg" viewBox="0 0 64.3 105.11">
  <defs>
    <style>
      .cls-1 {
        fill: #fcf4e9;
      }

      .cls-2 {
        fill: #84e0ef;
      }

      .cls-3 {
        fill: #abdeea;
      }

      .cls-4 {
        fill: #4f74b8;
      }
    </style>
  </defs>
  <g id="Layer_1-2" data-name="Layer 1">
    <path class="cls-2" d="M64,92.95c-.45,4.7-3.44,8.15-7.46,9.84-2.55,1.07-5.02,1.44-7.82,1.69-10.65.94-21.1.58-31.78.52-6.45-.04-11.88-2.75-14.84-8.6-2.2-4.35-2.89-9.35-1.06-14.06l4.82-12.41c1.9-4.89,3.77-9.65,4.93-14.72.92-4.02.03-7.64-2.61-10.65-2.13-2.42-3.23-5.54-3.71-8.74-2.35-15.5.47-10.88.54-24.19C5.05,4.99,10.59-.47,17.28.03l18.76,1.4c6.35.47,9.37,3.95,10.45,9.88l1.53,8.38c.45,2.45,1.25,4.77,2.19,7.07,1.98,4.82,1.67,9.96-.74,14.56-1.95,3.73-2.21,7.68-1.05,11.69s2.25,7.54,3.71,11.23c1.13,2.85,3.15,4.85,5.78,6.41,3.07,1.82,5.62,4.86,5.99,8.53.45,4.55.55,9.05.1,13.78ZM35.66,27.28c1.45-.08,2.28-1.06,2.31-2.3.07-4.29.45-8.52.29-12.71-.09-2.35-2.15-3.37-4.12-3.25-6.26.41-12.24.91-18.49.88-1.49,0-2.7.71-2.7,2.42,0,4.61.31,9.16.69,13.8.08.98,1,2.25,2.08,2.19l19.95-1.04ZM33.35,96.13l-.47-10.01,8.32-5.32,8.16,14.21c.52.9,1.9.98,2.54.71.78-.33,1.47-1.57.91-2.54l-17.43-30.32c-.32-1.3.3-3-.8-3.96-.93-.81-2.33-.34-3.68-.48l-1.48-23.31c1.32-.44,2.54-.3,3.8-.6,1.06-.25,1.31-1.41,1.12-2.31-.13-.64-.85-1.65-1.89-1.67-3.99-.11-8.14-.62-12.06.3-1.45.34-1,3.59.23,3.95,1.6.48,2.96.23,4.6.44.41,1.88.5,3.73.63,5.69l1.26,17.73c-1.35.27-2.52.03-3.71.5-.3,1.51.04,2.88.42,4.33l-11.49,29.87c-.4,1.04.6,2.36,1.26,2.53.86.23,1.95-.16,2.34-1.16l5.06-13.01,7.66,4.54.61,10.42c.08,1.41,1.13,2.21,2.41,2.06,1.11-.13,1.75-1.18,1.68-2.59Z"/>
    <path class="cls-3" d="M26.28,25.26c-2.84.21-5.4.33-8.1.31-3.28-.03-3.3-8.21-2.95-10.51.26-1.74,1.58-2.81,3.27-2.86l8.3-.25c1.18-.04,2.48.96,2.46,2.17-.04,3.08-.4,5.95-.83,8.94-.16,1.08-.88,2.1-2.15,2.2Z"/>
    <g>
      <path class="cls-4" d="M33.35,96.13c.07,1.41-.58,2.46-1.68,2.59-1.28.15-2.32-.65-2.41-2.06l-.61-10.42-7.66-4.54-5.06,13.01c-.39,1.01-1.48,1.39-2.34,1.16-.66-.18-1.66-1.5-1.26-2.53l11.49-29.87c-.38-1.46-.71-2.82-.42-4.33,1.19-.47,2.35-.23,3.71-.5l-1.26-17.73c-.14-1.96-.22-3.81-.63-5.69-1.64-.21-3,.04-4.6-.44-1.23-.37-1.68-3.61-.23-3.95,3.93-.93,8.08-.41,12.06-.3,1.04.03,1.76,1.04,1.89,1.67.19.91-.06,2.07-1.12,2.31-1.26.29-2.48.15-3.8.6l1.48,23.31c1.35.15,2.74-.33,3.68.48,1.11.97.48,2.66.8,3.96l17.43,30.32c.55.96-.13,2.21-.91,2.54-.64.27-2.03.19-2.54-.71l-8.16-14.21-8.32,5.32.47,10.01ZM40.04,78.45c-3.04-5.16-5.28-9.93-8.65-14.77l1.24,19.46c2.75-1.61,5.11-2.81,7.41-4.69ZM28.45,83.07l-.81-18.64-5.71,14.9c2.2,1.45,4.21,2.9,6.52,3.74Z"/>
      <path class="cls-4" d="M35.66,27.28l-19.95,1.04c-1.08.06-2-1.21-2.08-2.19-.38-4.64-.68-9.2-.69-13.8,0-1.71,1.21-2.43,2.7-2.42,6.25.03,12.23-.48,18.49-.88,1.97-.13,4.03.9,4.12,3.25.16,4.2-.22,8.43-.29,12.71-.02,1.24-.85,2.23-2.31,2.3ZM26.28,25.26c1.27-.09,1.99-1.12,2.15-2.2.43-2.98.79-5.86.83-8.94.02-1.22-1.28-2.21-2.46-2.17l-8.3.25c-1.69.05-3.01,1.11-3.27,2.86-.35,2.3-.33,10.48,2.95,10.51,2.7.02,5.26-.1,8.1-.31ZM34.88,15.95c.95-.27.97-1.25.79-1.88-.22-.76-1.01-.84-1.88-.8-1.13.05-1.43,1.09-1.17,1.93s1.22,1.05,2.26.75Z"/>
      <path class="cls-3" d="M40.04,78.45c-2.29,1.88-4.66,3.08-7.41,4.69l-1.24-19.46c3.36,4.84,5.6,9.62,8.65,14.77Z"/>
      <path class="cls-3" d="M28.45,83.07c-2.31-.84-4.31-2.29-6.52-3.74l5.71-14.9.81,18.64Z"/>
      <path class="cls-1" d="M34.88,15.95c-1.03.3-2,.07-2.26-.75s.03-1.88,1.17-1.93c.86-.04,1.66.05,1.88.8.18.63.16,1.61-.79,1.88Z"/>
    </g>
  </g>
</svg>