<?xml version="1.0" encoding="UTF-8"?>
<svg id="Layer_2" data-name="Layer 2" xmlns="http://www.w3.org/2000/svg" viewBox="0 0 245.7 298.79">
  <defs>
    <style>
      .cls-1 {
        fill: #f8bdcc;
      }

      .cls-2 {
        fill: #ea5c89;
      }

      .cls-3 {
        fill: #fbe977;
      }

      .cls-4 {
        fill: #f3f5e4;
      }

      .cls-5 {
        fill: #7ecfd5;
      }
    </style>
  </defs>
  <g id="Layer_1-2" data-name="Layer 1">
    <g>
      <path class="cls-1" d="M233.4,235.24c-6.34,12.65-14.21,22.27-23.99,31.61-36.94,35.29-85.99,38.8-133.45,22.85-17.33-5.82-31.46-15.87-44.05-28.83C9.78,238.07-1.8,208.49.23,176.55c1.54-24.22,9.51-46.29,25.14-64.84,18.01-21.37,41.25-36.27,68.08-44.58l-4-18.47c-2.91-13.43,2.8-26.01,14.26-33.44,7.5-4.87,15.45-8.74,23.8-12.02,10.94-4.3,21.63-4.02,32.86-.62l29.82,9.03c10.41,3.15,18.71,8.19,25.48,16.6,16.37,20.31,25.11,44.16,6.91,65.08-2.55,2.93-5.66,5.94-7.13,9.63-.69,1.73,1.38,3.76,2.38,5.05,9.69,12.59,18.08,25.61,22.77,41.12,8.63,28.52,6.3,59.21-7.21,86.15ZM125.31,86.88c-56.06-.05-105.25,40.25-102.42,98.7,2.54,52.29,43.88,87.33,95.35,90,32.97,1.71,65.05-11.22,85.72-37.21s24.74-59.68,13.41-90.1c-7.82-21.01-23.32-37.08-42.28-47.97l28.68-18.86c4.91-3.23,7.29-8.78,4.9-14.35l-10.21-23.82c-2.12-4.94-7.31-7.17-12.21-8.66-11.78-3.6-23-7.08-34.52-11.34-4.46-1.65-9.36-1.56-13.53.56l-19.84,10.11c-4.33,2.21-7.13,6.45-5.85,11.83,3.34,14,7.46,27.83,12.8,41.11Z"/>
      <path class="cls-2" d="M125.31,86.88c1.23,3.04,3.34,5.47,3.04,8.8l-9.23.75c-21.28,1.99-41.11,9.15-57.01,22.82-37.85,32.54-38.1,90.34-.46,123.15,39.36,34.3,104.88,31.59,136.34-12.8,29.19-41.19,16.66-95.82-28.79-121.03-1.13-.63-1.76-.98-2.19-2.6,2.74-1.29,5.47-3.95,8.07-5.66,18.96,10.89,34.46,26.96,42.28,47.97,11.33,30.42,6.85,64.63-13.41,90.1s-52.75,38.91-85.72,37.21c-51.46-2.67-92.81-37.71-95.35-90-2.84-58.45,46.36-98.75,102.42-98.7Z"/>
      <path class="cls-3" d="M128.36,95.68c2.9,1.41,3.71,4.04,5.76,6.11,8.09,8.16,24,8.37,32.91,4.18.43,1.62,1.06,1.97,2.19,2.6,45.45,25.21,57.98,79.84,28.79,121.03-31.46,44.4-96.98,47.11-136.34,12.8-37.64-32.8-37.38-90.61.46-123.15,15.9-13.67,35.73-20.83,57.01-22.82l9.23-.75ZM147.18,245.76c21.42-5.94,38-21.88,44.69-40.82,7.96-22.56,4.68-46.13-10.19-63.82-21.19-25.21-56.9-33.77-87.2-22.48-20.34,7.58-34.76,23.8-40.19,42.29-6.52,22.22-2.12,44.62,12.12,61.16,20.01,23.24,51.99,31.65,80.78,23.67Z"/>
      <path class="cls-2" d="M147.18,245.76c-28.78,7.98-60.77-.43-80.78-23.67-14.24-16.54-18.64-38.95-12.12-61.16,5.43-18.49,19.85-34.71,40.19-42.29,30.3-11.29,66.01-2.73,87.2,22.48,14.87,17.69,18.15,41.26,10.19,63.82-6.68,18.95-23.26,34.89-44.69,40.82ZM150.68,230.74c18.67-7.63,30.11-24.33,32.12-42.27,2.23-19.95-6.01-37.79-22.24-49.3-19.8-14.04-45.92-16.9-67.48-5.92-14.43,7.35-24.2,20.31-27.4,34.05-3.88,16.67-.53,33.17,10.08,45.79,18.05,21.46,48.75,28.35,74.92,17.65Z"/>
      <path class="cls-1" d="M150.68,230.74c-26.17,10.69-56.87,3.81-74.92-17.65-10.61-12.61-13.96-29.12-10.08-45.79,3.19-13.73,12.97-26.69,27.4-34.05,21.55-10.98,47.68-8.12,67.48,5.92,16.24,11.51,24.47,29.35,22.24,49.3-2.01,17.94-13.45,34.64-32.12,42.27Z"/>
      <g>
        <path class="cls-5" d="M175.09,100.31c-2.6,1.71-5.33,4.38-8.07,5.66-8.9,4.19-24.82,3.98-32.91-4.18-2.05-2.07-2.85-4.7-5.76-6.11.3-3.33-1.82-5.75-3.04-8.8-5.35-13.28-9.46-27.11-12.8-41.11-1.28-5.38,1.52-9.62,5.85-11.83l19.84-10.11c4.17-2.12,9.08-2.21,13.53-.56,11.52,4.26,22.73,7.74,34.52,11.34,4.9,1.5,10.09,3.72,12.21,8.66l10.21,23.82c2.39,5.57.01,11.12-4.9,14.35l-28.68,18.86ZM140.59,53.43l6.48-19.93c.5-1.24-.09-2.83-.86-3.19-3.51-1.61-18.51,6.84-25.56,11.98,6.56,4.75,12.41,8.42,19.94,11.14ZM171.35,63.86c3.74-7.63,6.28-14.43,7.44-22.28-7.55-3.37-14.71-5.55-22.96-7.6-3.65,7.64-5.87,15.2-6.87,23.23,7.55,3.17,14.21,5.97,22.38,6.65ZM201.84,70.65l-9.92-23.65c-.87-1.26-2.08-2.39-3.3-2.42-1.3-.04-2.43,1.26-2.9,2.75l-6.01,19.31c7.28,2.38,14.02,4.22,22.13,4.01ZM138.43,94.33c.63-10.94.37-20.83-.23-31.64-4.77-3.6-9.19-6.95-15.33-9.25,2,8.06,4.49,14.97,7.17,22.38,2.29,6.33,3.79,12.59,8.39,18.52ZM166.78,72.3c-7.37-3.19-13.31-5.29-20.1-6.44.03,11.16-.43,20.94,1.05,31.41l19.05-24.98ZM168.75,94.71l24.57-16.51-15.43-3.14c-1.43-.29-3.58.61-4.51,1.9l-16.81,23.34c5.22-.27,8.35-3.02,12.18-5.59Z"/>
        <path class="cls-4" d="M171.35,63.86c-8.16-.67-14.82-3.48-22.38-6.65,1-8.04,3.22-15.6,6.87-23.23,8.25,2.06,15.41,4.24,22.96,7.6-1.17,7.85-3.7,14.65-7.44,22.28Z"/>
        <path class="cls-4" d="M166.78,72.3l-19.05,24.98c-1.47-10.47-1.02-20.25-1.05-31.41,6.78,1.15,12.72,3.25,20.1,6.44Z"/>
        <path class="cls-4" d="M140.59,53.43c-7.53-2.72-13.38-6.39-19.94-11.14,7.05-5.13,22.05-13.59,25.56-11.98.77.35,1.36,1.95.86,3.19l-6.48,19.93Z"/>
        <path class="cls-4" d="M201.84,70.65c-8.11.21-14.85-1.63-22.13-4.01l6.01-19.31c.46-1.49,1.6-2.79,2.9-2.75,1.23.03,2.43,1.16,3.3,2.42l9.92,23.65Z"/>
        <path class="cls-4" d="M168.75,94.71c-3.83,2.57-6.96,5.32-12.18,5.59l16.81-23.34c.93-1.29,3.07-2.19,4.51-1.9l15.43,3.14-24.57,16.51Z"/>
        <path class="cls-4" d="M138.43,94.33c-4.6-5.93-6.1-12.19-8.39-18.52-2.68-7.41-5.17-14.31-7.17-22.38,6.14,2.3,10.55,5.65,15.33,9.25.6,10.81.86,20.71.23,31.64Z"/>
      </g>
    </g>
  </g>
</svg>