<?xml version="1.0" encoding="UTF-8"?>
<svg id="Layer_2" data-name="Layer 2" xmlns="http://www.w3.org/2000/svg" viewBox="0 0 240.92 317.2">
  <defs>
    <style>
      .cls-1 {
        fill: #fddd45;
      }

      .cls-2 {
        fill: #16a7c5;
      }

      .cls-3 {
        fill: #a2dbe3;
      }

      .cls-4 {
        fill: #fbe977;
      }

      .cls-5 {
        fill: #f17f37;
      }

      .cls-6 {
        fill: #f3f5e4;
      }
    </style>
  </defs>
  <g id="Layer_1-2" data-name="Layer 1">
    <g>
      <path class="cls-4" d="M12.54,260.85C1.69,250.24-1.72,234.84.78,219.79c1.44-8.71,4.72-16.3,9-24.03l30.56-55.23c6.23-11.25,12.52-21.7,19.8-32.15,4.62-6.63,10.13-11.76,17.17-15.93,1.04-8.65,3-17.46,9.63-23.16l20.22-11.82c5.66-5.06,9.51-11.71,16.09-15.92,16.74-10.7,29.76-4.08,36.63-14.36,4.39-6.55,9.22-12.58,15.02-17.78,13.74-12.31,32.97-12.47,47.11-.94,18.53,15.1,22.72,40.52,9.39,60.62l5.23,12.56c4.64,11.14,5.81,22.99,2.03,34.52-4.82,14.7,9.66,34.25-14.41,52.82.92,15.81-8.52,35.41-16.67,49.87l-39.14,69.52c-13.36,23.73-39.81,34.02-66.17,26.27-28.17-8.28-53.66-22.49-76.58-40.93l-13.17-12.87ZM133.57,293.26c8.9-3.59,13.83-9.64,18.18-17.51l30.14-54.65,18.81-36.03c4.19-8.03,3.54-16.87-.73-25.61,9.87-1.99,17.43-16.55,19.54-26.5,1.31-6.17-.43-11.57-3.8-16.47-2.3-3.35,12.65-17.5-.4-38.35-7.71-12.31-5.18-16.96,1.76-28.67,4.22-7.12,5.06-16.41.33-23.32-3.89-5.69-10.5-8.07-17.12-7.3-5.9.68-11.12,4.48-14.84,10.03l-9.23,13.77c-7.96,11.89-35.66-3.32-47.97,26.09-16.26-.83-20.3,6.35-27.4,19.3-2.84,5.19-2.8,10.88-2.15,16.74-8.5,2.01-17.21,5.38-21.89,13.53-18.29,31.88-36.04,63.67-52.66,96.78-7.17,14.28-.76,31.48,10.89,41.24,16.25,13.61,52.25,33.37,72.11,38.76,9.01,2.45,17.68,1.7,26.45-1.83Z"/>
      <g>
        <path class="cls-2" d="M133.57,293.26c-8.76,3.53-17.44,4.28-26.45,1.83-19.85-5.39-55.86-25.14-72.11-38.76-11.64-9.76-18.06-26.96-10.89-41.24,16.63-33.11,34.37-64.91,52.66-96.78,4.68-8.15,13.39-11.52,21.89-13.53-.66-5.86-.7-11.56,2.15-16.74,7.1-12.95,11.15-20.12,27.4-19.3,12.32-29.4,40.01-14.2,47.97-26.09l9.23-13.77c3.72-5.55,8.94-9.36,14.84-10.03,6.63-.76,13.23,1.61,17.12,7.3,4.72,6.91,3.89,16.21-.33,23.32-6.94,11.7-9.47,16.35-1.76,28.67,13.05,20.85-1.9,35,.4,38.35,3.37,4.9,5.11,10.3,3.8,16.47-2.11,9.95-9.67,24.51-19.54,26.5,4.28,8.74,4.92,17.58.73,25.61l-18.81,36.03-30.14,54.65c-4.34,7.88-9.27,13.93-18.18,17.51ZM184.2,49.45c-10.96,16.67-38.65,1.6-44.08,23.46l11.09,6.56,51.49,28.68c8.13-7.1,7.82-17.88,2.26-26.63-4.14-6.5-6.16-13.9-4.64-21.3.34-1.64.34-3.54,1.2-4.93l8.45-13.71c2.41-3.9.84-9.35-2.75-11.68s-9.27-1.37-12.02,2.82l-10.99,16.72ZM119.22,107.88l6.96,4,49.6,27.43c2.9,1.6,5.11,4.02,8.91,4.33,2.28,3.5,6.14,3.78,10.27,3.18,6.4-.87,12.11-13.91,10.17-19.61-1.28-3.77-4.97-5.7-8.11-7.35l-5.99-3.17-51.88-28.82-6.26-3.2c-3.51-1.8-7.76-4.49-11.99-1.32-4.49,3.37-8.73,9.49-9.07,15.45-.25,4.33,4.42,7.36,7.4,9.07ZM176,204.37c8.63-17.14,24.14-33.71,5.26-45.77-8.03-5.13-15.83-9.55-24.28-14.22l-43.67-24.1c-10.77-5.95-22-2.24-27.96,8.58l-49.86,90.61c-5.87,10.66-.07,23.42,9.46,30.05,19.08,13.26,38.92,24.3,60.09,33.61,13.48,5.93,27.62,1.08,34.53-11.49l30.46-55.43,5.97-11.85Z"/>
        <path class="cls-6" d="M181.26,158.6c-1.45,4.33-6.67,6.46-10.92,4.25l-39.28-20.43c-13.31-6.92-28.79-14.19-33.34-1.84,28.28,11.92,61.8,31.08,75.92,58.16.85,1.63.2,4.32,2.36,5.63l-5.97,11.85-30.46,55.43c-6.91,12.57-21.05,17.42-34.53,11.49-21.17-9.31-41.01-20.35-60.09-33.61-9.53-6.62-15.33-19.38-9.46-30.05l49.86-90.61c5.95-10.82,17.19-14.53,27.96-8.58l43.67,24.1c8.45,4.66,16.25,9.09,24.28,14.22ZM81.02,229.94c2.18,1.73,4.57,4.86,3.98,7.36-.78,3.28-4.79,3.66-7.51,2.6l-20.16-7.85c-2.06-.8-4.39.12-5.27,1.66-.66,1.16-.59,3.67.92,4.76l15.65,11.36c13.7,8.48,27.81,15.98,42.6,22.13,6.88,2.87,13.53.33,16.94-5.79l27.8-49.97c2.5-4.49,2.18-9.87-1.2-13.61-5.96-6.59-12.23-12.35-19.61-17.44-10.74-7.41-43.44-27.29-45.48-19.77-.31,1.15-.14,3.25,1.17,4.23l10.86,8.09c6.2,4.62,13.96,10.62,9.79,14.51-1.24,1.16-3.87,2.04-5.84,1.37l-23-7.83c-2.72-.92-6.66.82-6.02,3.91,1.62,7.8,27.03,18.07,21.87,25.5-5.84,8.41-29.05-11.03-34.53-4.06-2.01,2.56,1.39,6.39,3.29,7.9l13.75,10.93Z"/>
        <path class="cls-3" d="M181.26,158.6c18.88,12.05,3.37,28.63-5.26,45.77-2.17-1.3-1.51-3.99-2.36-5.63-14.12-27.08-47.65-46.24-75.92-58.16,4.55-12.35,20.04-5.08,33.34,1.84l39.28,20.43c4.25,2.21,9.47.08,10.92-4.25Z"/>
        <path class="cls-1" d="M191.02,116.7c-2.48,8.96-7.96,16.83-15.24,22.62l-49.6-27.43,12.96-24,51.88,28.82Z"/>
        <path class="cls-1" d="M200.32,60.24c-1.52,7.39.51,14.8,4.64,21.3,5.57,8.75,5.87,19.53-2.26,26.63l-51.49-28.68c1.08-12.43,15.43-2.58,26.87-6.22,8.48-2.69,13.71-9.81,17.28-17.91,2.9.32,3.76,2.88,4.96,4.89Z"/>
        <path class="cls-4" d="M201.52,55.31c-.86,1.39-.86,3.29-1.2,4.93-1.2-2.01-2.06-4.57-4.96-4.89-3.56,8.1-8.8,15.22-17.28,17.91-11.44,3.64-25.79-6.21-26.87,6.22l-11.09-6.56c5.42-21.87,33.12-6.79,44.08-23.46,6.94,1.44,11,6.56,17.32,5.86Z"/>
        <path class="cls-6" d="M201.52,55.31c-6.32.7-10.38-4.42-17.32-5.86l10.99-16.72c2.75-4.18,8.31-5.23,12.02-2.82s5.16,7.78,2.75,11.68l-8.45,13.71Z"/>
        <path class="cls-1" d="M184.69,143.65l12.33-23.78c3.13,1.66,6.82,3.58,8.11,7.35,1.94,5.7-3.76,18.74-10.17,19.61-4.13.6-7.99.32-10.27-3.18Z"/>
        <path class="cls-1" d="M132.88,84.68c-.31,2.07-.87,3.81-1.98,5.53l-11.69,17.67c-2.98-1.71-7.64-4.75-7.4-9.07.34-5.95,4.57-12.08,9.07-15.45,4.23-3.17,8.48-.48,11.99,1.32Z"/>
        <path class="cls-5" d="M139.14,87.89l-12.96,24-6.96-4,11.69-17.67c1.1-1.72,1.67-3.46,1.98-5.53l6.26,3.2Z"/>
        <path class="cls-5" d="M197.01,119.87l-12.33,23.78c-3.8-.31-6.01-2.73-8.91-4.33,7.28-5.78,12.77-13.66,15.24-22.62l5.99,3.17Z"/>
        <path class="cls-3" d="M81.02,229.94l-13.75-10.93c-1.9-1.51-5.3-5.34-3.29-7.9,5.48-6.97,28.69,12.47,34.53,4.06,5.16-7.43-20.25-17.69-21.87-25.5-.64-3.09,3.31-4.83,6.02-3.91l23,7.83c1.97.67,4.59-.21,5.84-1.37,4.17-3.89-3.59-9.89-9.79-14.51l-10.86-8.09c-1.31-.98-1.48-3.08-1.17-4.23,2.04-7.52,34.74,12.37,45.48,19.77,7.38,5.09,13.66,10.85,19.61,17.44,3.38,3.74,3.7,9.11,1.2,13.61l-27.8,49.97c-3.41,6.12-10.06,8.66-16.94,5.79-14.79-6.16-28.9-13.65-42.6-22.13l-15.65-11.36c-1.5-1.09-1.58-3.6-.92-4.76.88-1.54,3.21-2.46,5.27-1.66l20.16,7.85c2.72,1.06,6.73.68,7.51-2.6.59-2.51-1.8-5.63-3.98-7.36Z"/>
      </g>
    </g>
  </g>
</svg>