<?xml version="1.0" encoding="UTF-8"?>
<svg id="Layer_2" data-name="Layer 2" xmlns="http://www.w3.org/2000/svg" viewBox="0 0 273.1 268.05">
  <defs>
    <style>
      .cls-1 {
        fill: #4ab39b;
      }

      .cls-2 {
        fill: #faf2a0;
      }

      .cls-3 {
        fill: #eae863;
      }

      .cls-4 {
        fill: #b85c43;
      }
    </style>
  </defs>
  <g id="Layer_1-2" data-name="Layer 1">
    <g>
      <path class="cls-3" d="M218.95,265.6c-12,3.79-23.67,2.54-35.54.56-10.54-1.76-19.34-6.75-29.68-9.41-28.34-7.28-56.72-11.36-85.62-16.13-14.25-2.35-27.64-4.21-41.2-8.76C3.75,224.09-.84,209.88.12,186.87l1.9-45.92c1.6-38.78-3.52-71.6,24.01-100.7C58.27,6.16,106.19-12.03,150.99,8.91c26.09,9.12,46.67,8.42,72.52,12.33,15.6,2.36,28.28,10.99,37.02,24.05,14.78,22.09,13.77,53.95,10.65,79.57-1.5,12.34-1.83,23.66-.78,36.07,1.51,17.74-3.67,34.71-13.6,49.1-6.47,9.38-10.76,18.73-13.32,29.8-2.93,12.66-11.94,21.79-24.53,25.76ZM234.14,222.93l17.64-102.83,8.26-45.62c1.14-6.29-2.35-11.66-8.04-13.83-6.17-2.35-12.03-3.98-18.81-5.03l-104.49-16.2c-2.79-7.15,3.56-17.86-5.35-18.88l-24.62-2.81c-7.05-.81-4.72,9.74-9.16,15.17-10.98-2-22.15-1.29-32.31,2.61-7.37,2.83-10.11,8.4-11.33,15.77l-22.43,135.07c-3.08,18.55,11.1,30.92,29.38,33.64l102.54,15.23c17.87,2.66,34.43,5.75,52.31,7.1,12,.9,24.2-6.46,26.42-19.38Z"/>
      <g>
        <path class="cls-4" d="M234.14,222.93c-2.21,12.91-14.42,20.28-26.42,19.38-17.88-1.34-34.44-4.44-52.31-7.1l-102.54-15.23c-18.28-2.72-32.46-15.09-29.38-33.64L45.92,51.28c1.22-7.37,3.96-12.94,11.33-15.77,10.16-3.9,21.33-4.61,32.31-2.61,4.44-5.43,2.1-15.97,9.16-15.17l24.62,2.81c8.9,1.02,2.56,11.73,5.35,18.88l104.49,16.2c6.78,1.05,12.64,2.68,18.81,5.03,5.69,2.17,9.18,7.54,8.04,13.83l-8.26,45.62-17.64,102.83ZM115.41,32.48c0-3.14-2.54-5.68-5.68-5.68s-5.68,2.54-5.68,5.68,2.54,5.68,5.68,5.68,5.68-2.54,5.68-5.68ZM227.07,194.01l17.67-106.94c1.29-7.82-5.87-14.75-13.14-16.01l-86.93-15.05-67.85-10.85c-6.95-1.11-12.66,3.51-13.84,10.43l-18.87,110.59c-4.57,6.56,4.58,16.41,11.88,17.87l133.65,19.56c16.36,2.39,34.56,7.77,37.43-9.6Z"/>
        <path class="cls-2" d="M227.07,194.01c-2.87,17.37-21.07,12-37.43,9.6l-133.65-19.56c-7.3-1.46-16.45-11.31-11.88-17.87l18.87-110.59c1.18-6.92,6.89-11.54,13.84-10.43l67.85,10.85,86.93,15.05c7.28,1.26,14.44,8.19,13.14,16.01l-17.67,106.94ZM210,190.49c4.01.12,7.68-1.92,8.2-4.86l10.08-57.69-15.4-2.17c-34.81-8.21-36.34-28.71-54.77-54.56l-74.91,62.41-12.81-14.68c-2.65.17-8.08,1.26-8.96,4.44-3.6,13.01-5.55,25.87-7.51,39.42,12.81,5.49,24.95,8.71,38.37,11.89,38.58,9.15,77.39,14.58,117.71,15.8ZM227.68,91.74c-5.94-10.12-19.09-14.78-29.93-9.53-7.68,3.72-9.63,13.88-5.11,21.27,5.72,9.33,17.77,14.01,28.53,12.03,8.28-1.52,10.41-17.12,6.51-23.77Z"/>
        <circle class="cls-3" cx="109.72" cy="32.48" r="5.68"/>
        <path class="cls-1" d="M227.68,91.74c3.9,6.65,1.77,22.24-6.51,23.77-10.76,1.98-22.81-2.69-28.53-12.03-4.53-7.39-2.57-17.55,5.11-21.27,10.84-5.26,23.98-.6,29.93,9.53Z"/>
        <g>
          <path class="cls-1" d="M210,190.49c-40.31-1.22-79.12-6.65-117.71-15.8-13.42-3.18-25.56-6.4-38.37-11.89,1.96-13.55,3.91-26.41,7.51-39.42.88-3.18,6.31-4.27,8.96-4.44l12.81,14.68,74.91-62.41c18.43,25.85,19.96,46.35,54.77,54.56l15.4,2.17-10.08,57.69c-.51,2.93-4.18,4.98-8.2,4.86ZM170.51,160.44c.47-.67.84-2.19-.21-3.22-5.74-5.65-10.11-11.97-13.57-19.27l-8.06-16.96c-.6-1.26-1.38-2.35-2.62-2.41-.78-.04-1.83.31-2.74,1.09l-27.44,23.3c-1.43,1.22-.94,3.8-.02,4.53,1.34,1.07,3.21.26,4.56-.97,7.81-7.11,15.67-13.58,24.14-20.48,3.41,5.06,20.33,42.48,25.97,34.39Z"/>
          <path class="cls-2" d="M170.51,160.44c-5.63,8.1-22.55-29.33-25.97-34.39-8.47,6.9-16.33,13.37-24.14,20.48-1.35,1.23-3.21,2.03-4.56.97-.92-.73-1.42-3.32.02-4.53l27.44-23.3c.91-.77,1.95-1.13,2.74-1.09,1.23.06,2.02,1.15,2.62,2.41l8.06,16.96c3.47,7.3,7.84,13.62,13.57,19.27,1.05,1.03.68,2.55.21,3.22Z"/>
        </g>
      </g>
    </g>
  </g>
</svg>