<?xml version="1.0" encoding="UTF-8"?>
<svg id="Layer_2" data-name="Layer 2" xmlns="http://www.w3.org/2000/svg" viewBox="0 0 336 302.57">
  <defs>
    <style>
      .cls-1 {
        fill: #e54f6f;
      }
    </style>
  </defs>
  <g id="Layer_1-2" data-name="Layer 1">
    <path class="cls-1" d="M180.22,285.92c-31.06-25.33-63.65,11.62-114.54,7.32-29.45-2.49-52.59-21.16-61.37-49.02-10.94-34.68-.29-63.42,23.06-89.71l25.29-28.49c21.1-23.77,12.4-49.19,36.89-84.11,6.26-8.93,13.87-16.15,22.66-22.51,37.56-27.17,91.41-28.55,118.5,13.61l13.69,21.31c11.22,17.46,24.84,18.45,42.57,26.31,53.3,23.63,61.5,93.59,32.54,139.99-8.77,14.05-20.26,24.98-33.36,34.77-7.93,5.93-13.86,12.38-18.77,21.06-8.11,14.37-21.8,23.77-38.41,25.75-17.89,2.13-34.66-4.78-48.75-16.27Z"/>
  </g>
</svg>