<?xml version="1.0" encoding="UTF-8"?>
<svg id="Layer_2" data-name="Layer 2" xmlns="http://www.w3.org/2000/svg" viewBox="0 0 846.79 812.49">
  <defs>
    <style>
      .cls-1 {
        fill: #0f1011;
      }

      .cls-2 {
        fill: #96b2fc;
      }
    </style>
  </defs>
  <g id="Layer_1-2" data-name="Layer 1">
    <g>
      <path class="cls-2" d="M539.04,151.78c-7.04,18.36-32.43,33.97-30.23,37.61.52.87,2.59,1.34,3.73.57,9.79-6.56,17.56-15.28,24.45-24.89.94-1.31,1.84-2.21,3.92-2.38,2.78,10.83,4.86,21.97,5.3,33.15-4.83,6.15-30.87,9.37-29.55,14.03,1.45,5.14,25.54-6.13,30.07-7.42,2.05,12.05.78,24.2,1.07,37.38,25.79-30.34,72.33-82.08,115.57-74.72,10.19,1.73,17.39,8.77,20.26,18.76,6.29,21.85-5.79,50.22-17.66,69.08-16.09,25.57-36.46,47.85-58.24,68.72l19.67-9.47c21.88-10.54,44.87-17.05,68.85-22,27.5-5.68,54.97-6.45,82.32-.64,17.29,3.67,33.49,9.71,47.08,20.78,26,21.17,28.12,54.16,5.73,79.22-12.67,14.18-28.34,24.17-45.87,31.87-52,22.85-115.32,24.67-172.44,16.72,40.01,42.01,70.65,94.28,86.79,148.77,5.68,19.9,11.06,54.91-2.93,71.6-9.75,11.64-28.06,8.3-40.28,2.6-21.47-10.02-43.76-29.67-59.5-47.38-30.08-33.84-54.86-75.83-68.93-118.65-1.81,13.75-3.64,25.87-6.64,39.08-18,79.1-47.46,151.38-98.56,214.8-18.53,22.99-42.9,45.28-70.11,56.86-12.41,5.28-25.36,7.46-38.8,6.37-36.67-2.99-51.71-37.5-53.84-70.2-4.27-65.41,28.37-138.73,57.22-196.33l8.27-13.71c8.8-14.58,18.66-27.73,27.26-42.8-27.61,18.21-55.93,32.84-86.63,44.45-52.3,19.79-105.83,32.03-162.08,27.65-30.35-2.36-63.96-12.19-85.39-34.32-29.43-30.4-21.35-73.41,2.35-104.76,13.83-18.3,31-32.59,49.99-45.65,64.66-42.47,154.22-61.49,231.07-60.67-46.9-32.88-90.83-83.29-105.88-138.66-16.07-60.65,4.96-121.91,59.72-154.46,43.94-26.13,100.92-28.21,149.07-14.09,54.22,15.89,97.58,54.62,120.41,105.98,5.54,12.47,9.43,24.62,13.36,37.13Z"/>
      <path class="cls-1" d="M546.2,195.85c14.34-5.65,25.55-15.85,36.63-26.07,1.41-1.3,2.8-2.04,4.17-.79.92.84,1.52,2.68.11,4.14-11.81,12.24-25.81,21.34-40.4,29.33-4.53,1.3-28.62,12.56-30.07,7.42-1.32-4.66,24.72-7.88,29.55-14.03Z"/>
      <path class="cls-1" d="M539.04,151.78c.8-2.09,3.01-4,4.09-5.37.85-1.07,2.85-.42,3.53,0,3.92,2.44-8.44,13.39-5.75,16.28-2.08.17-2.99,1.08-3.92,2.38-6.89,9.61-14.66,18.33-24.45,24.89-1.14.77-3.21.29-3.73-.57-2.2-3.64,23.19-19.26,30.23-37.61Z"/>
    </g>
  </g>
</svg>