<?xml version="1.0" encoding="UTF-8"?>
<svg id="Layer_2" data-name="Layer 2" xmlns="http://www.w3.org/2000/svg" viewBox="0 0 274.83 300.29">
  <defs>
    <style>
      .cls-1 {
        fill: #4195f9;
      }
    </style>
  </defs>
  <g id="Layer_1-2" data-name="Layer 1">
    <path class="cls-1" d="M108.41,280.74c-24.09,15.37-63.57,27.83-89.9,12.67-22.91-13.18-22.15-43.3-10.71-64.27,6.01-11.01,13.91-20.34,21.64-30.23s18.65-25.16,12.19-37.87c-2.63-5.18-5.67-10.04-9.28-14.49-15.19-18.77-14.63-44.03,2.36-61.65,8.98-9.32,20.1-16.48,32.51-21.13l35.7-13.38c40.32-15.11,45.89-26.65,79.32-41.63C196.64,2.31,211.81-.85,227.53.2c19.7,1.31,41.22,10,45.87,31.39,6.31,28.99-9.31,52.18-25.49,74.75-30.1,41.99-5.54,44.33-2.79,76.16,1.53,17.75-5.72,33.74-19.79,44.39-23.95,18.14-43.19,6.83-77.93,28.99l-38.98,24.86Z"/>
  </g>
</svg>