<?xml version="1.0" encoding="UTF-8"?>
<svg id="Layer_2" data-name="Layer 2" xmlns="http://www.w3.org/2000/svg" viewBox="0 0 306.93 288.83">
  <defs>
    <style>
      .cls-1 {
        fill: #fceb72;
      }
    </style>
  </defs>
  <g id="Layer_1-2" data-name="Layer 1">
    <path class="cls-1" d="M127.26,288.4c-27.59,2.87-62.94-8.38-62.4-41.1l.35-21c.13-7.8-3.98-13.87-11.02-16.79l-22.65-9.4C1.67,187.72-4.37,155.44,2.65,126.81c2.93-11.97,9.71-22,18.23-30.81,22.26-23.02,42.65-21.73,66.54-41.34l27.99-22.98C140.34,11.22,170.61-.27,203.05,0c39.57.33,74.08,15.91,92.09,52.6,14.17,28.88,15.47,62.75,4.45,92.98-6.44,17.66-19.44,30.05-36.61,36.93-19.03,7.62-27.33,10.24-38.47,29.05-6.09,10.28-11.51,19.89-18.32,29.84-18.08,26.4-46.83,43.65-78.93,46.99Z"/>
  </g>
</svg>