<?xml version="1.0" encoding="UTF-8"?>
<svg id="Layer_2" data-name="Layer 2" xmlns="http://www.w3.org/2000/svg" viewBox="0 0 448.6 511.99">
  <defs>
    <style>
      .cls-1 {
        fill: #98e5dc;
      }
    </style>
  </defs>
  <g id="Layer_1-2" data-name="Layer 1">
    <path class="cls-1" d="M448.42,377.53c-.76,8.3-6.13,17.15-14,20.85-16.97,7.99-35.26,11.6-52.13,20.83-9.19,5.02-19.35,12.06-19.75,22.53-.33,8.77,6.45,15.97,10.02,23.99,7.25,16.3-.89,39.41-18.36,44.49-22.82,6.63-48.6-6.99-69.46-14.42-9.62-3.21-18.46-7.89-27.25-12.91-59.29-32.43-112.61-74.38-161.65-120.71-12.96-12.75-25.75-26.02-37.17-40.24-5.29-6.99-9.42-14.88-14.33-22.13-3.77-5.67-8.77-10.45-13.03-15.74-1.46-2.02-2.54-4.32-3.7-6.52-2.65-5.36-6.73-9.64-9.58-14.84-6.19-10.36-10.01-22.08-13.84-33.29-2.36-6.72-4.55-13.7-4.13-20.91.09-11.9-1.59-25.93,15.12-24.37,12.49,2.8,23.37,16.54,31.76,25.6,3.75,3.68,7.36,7.08,10.47,11.52,3.61,4.19,6.89,8.85,10.3,13.11,2.67,3.16,6.15,5.62,8.77,8.97,3.1,3.97,5.59,8.52,9.24,12.11,6.1,6.68,11.31,13.78,17.5,20.28,9.59,10.07,18.96,21.37,29.96,29.96,9.9,7.72,21.62,5.63,34.02,3.15,1.95-.39,4.21-1.12,4.78-3.02.25-.82.11-1.71-.09-2.54-3.18-13.62-22.65-23.2-32.55-31.91-12.45-10.95-24.13-22.63-35.19-34.97-28.71-32.01-53.82-67.74-70.33-107.6-8.05-19.01-11.31-39.52-12.9-59.99-.58-8.03,3.72-25.17,14.15-15.26,6.08,7.87,8.53,17.82,14.31,26,4.38,6.88,8.35,14.62,14.47,20.09,3.43,2.35,6.19-.78,6.64-4.62.52-7.2-1.14-14.66-1.55-21.86-1.89-21.59-.81-47.57,12.18-65.72C87.38-.64,99.74-1.6,108.78,1.98c9.58,6.81,18.51,15.45,23.57,26.12,2.22,4.28,5.7,7.89,8.17,12.11,3.48,5.4,5.76,11.61,8.61,17.26,6.35,10.22,12.76,20.65,20.64,29.93,4.49,4.84,7.89,10.36,11.95,15.53,7.52,9.01,14.74,18.36,23.82,26.03,3.37,2.85,6.71,5.71,9.82,8.85,6.21,6.25,11.91,13.04,18.33,19.07,4.69,4.23,10.23,7.35,14.25,12.28,7.4,8.11,15.01,15.78,19.96,25.49,1.79,4.82,2.98,9.95,5.52,14.46,3.99,7.71,1.35,16.86-3.77,23.36-7.21,8.49-12.13,16.33-24.25,18.09-8.76,1.27-17.68-.19-26.53.27-1.39.07-2.91.25-3.9,1.23-1.11,1.1-1.19,2.85-1.08,4.41.76,11.13,7.7,21.23,16.82,27.67,11.74,8.28,25.08,9.53,38.67,12,16.92,3.08,33.45,8.14,50.43,11.08,18.68,2.75,37.08,6.84,55.5,10.94,12.63,3.74,24.18,9.66,36.47,14.06,10.86,4.8,20.91,11.75,29.14,20.44,5.92,6.66,8.25,15.78,7.58,24.57l-.04.34-.04-.05Z"/>
  </g>
</svg>