<?xml version="1.0" encoding="UTF-8"?>
<svg id="Layer_2" data-name="Layer 2" xmlns="http://www.w3.org/2000/svg" viewBox="0 0 481.75 460.22">
  <defs>
    <style>
      .cls-1 {
        fill: #e9bad6;
      }

      .cls-2 {
        fill: #a33a65;
      }

      .cls-3 {
        fill: #a03863;
      }

      .cls-4 {
        fill: #f0e4e2;
      }
    </style>
  </defs>
  <g id="Layer_1-2" data-name="Layer 1">
    <g>
      <path class="cls-1" d="M131.76,455.24c-28.05-10.58-39.84-25.62-50.73-52.58-16.23-8.06-27.32-21.5-32.87-38.83-8.75-27.31-16.92-81-18.21-110.3-14.55-13.86-20.1-32.96-17.1-52.73-3.46-25.4-6.13-50.04-7.76-75.36C-4.45,104.72-.29,82.09,15.16,65.89c29.49-30.93,77.35-41.95,118.58-35.56,6.28.97,12.77,3.3,18.97,1.25,36.66-12.14,63.48-6,69.3-8.33,49.84-19.93,65.38-7.83,83.6-16.4,17.83-8.39,37.26-9.24,55.39-1.6,2.54,1.07,5.67-.39,8.25-1.06,21.5-5.55,45.04-2.19,62.52,11.95,25.68,20.77,33.83,55.56,20.15,86.04,9.1,8.82,17.35,17.3,23.22,28.23,9.78,18.19,8.39,39.31-1.99,56.92-1.89,3.2-4.89,6.33-5.85,9.99l-7.62,97.26c-.47,5.96-1.07,9.1,1.58,14.45,9.68,19.49,6.67,41.85-6.49,58.67-12.72,16.24-30.41,24.66-50.92,26.18-26.4,1.96-51.83,5.3-77.64,11.07-49.54,11.07-83.72,21.61-128.81,45.03-20.83,10.82-42.8,13.87-65.63,5.26ZM30.11,97.88c-.8,8.64,1.44,16.62,6.01,24.18-.02,4,.38,7.98,1.08,11.92.16.93-.18,1.96-.09,2.89.15,1.67-.72,3.93.8,5.08l5.61,56.98c-4.22,17.15,2.54,34.22,18.52,42.03-.41,7.44-.42,14.15.57,21.3l7.17,51.59,4.54,29.49c1.46,9.48,5.17,24.81,13.64,29.23,5.9,6.81,15.02,9.75,25.11,10.7-1.57,16.88,6.94,31,20.9,39.6,14.81,9.13,31.52,9.91,47.13,1.94,67.85-34.64,150.45-50.68,225.88-58.01,10.73-1.04,19.67-9.26,25.27-17.59,8.55-12.69,3.9-30.91-6.99-41.6,3.21-8.67,4.55-17.49,5.02-26.74l.71-13.96,4.25-55.01c.69-8.88,1.25-17-.43-26.16,14.27-9.53,20.49-27.61,13.61-43.46-3.2-7.38-8.47-13.25-14.22-18.67l-19.13-18.02c6.63-8.47,10.99-17.62,13.06-27.59,3.14-15.15-1.71-31.55-14.37-41.88-15.26-12.45-36.22-11.68-51.93.28-19.76-17.31-42.65-13.25-59.75,4.81-28.06-9.71-52.51-4.3-74.45,16.22-25.55-13.89-55.77-10.55-78.19,8.36-20.29-16.28-46.57-16.07-69.94-10.44-22.24,5.62-47.07,17.57-49.39,42.52Z"/>
      <path class="cls-2" d="M428.12,78.02c.2-1.63-.79-3.26-2.73-3.59-3.05-.51-3.51-3.99-5.48-5.42-4.17-3.03-7.95-5.67-11.52-9.55-1.9-2.07-6.02-1.21-8.14-.43.42,4.5,2.17,8.07,3.35,12.15.32,1.11-3.15,2.97-1.53,4.56,2.51,2.45,6.88,4.96,6.35,8.66-.41,2.86-3.09,4.75-5,4.8-4.43.13-9.44-9.77-6.82-15.29.55-1.17.27-2.79,1.15-3.89,1.96.1,2.24-1.14,2.27-3.36.02-1.46-.46-3.33-2.22-2.83-1.87-2.87-4.86-5.75-7.99-6.32-4.49-.81-8,1.2-10.78,4.74-8.65,11.02-16.3,22.31-26.51,33.98-4.17-11.54-3.79-22.98-6.87-34.24-1.7-6.22-9.5-8.48-14.67-6.32-6.38,2.66-8.03,8.23-6.6,15.08,6.06,29.13,10.32,58.26,11.04,88.08.09,3.84-.25,6.88,2.55,9.51,2,1.88,5.05,3.04,8.67,3.1,4.96.08,11.8-2.6,12-8.5.25-7.54-2.4-32.53-.8-33.23,3.09-1.36,30.11,20.34,32.11,24.14-1.54,1.19-2.34,3.32-1.92,5.44s3.19,1.81,5.96,3.11c-.42,2.61-3.46.97-5.23,2.63,3.43,12.73,1.03,9.74.19,20.89-5.67,2.74-7.98,6.66-8.18,12.98-.71,22.17-2.54,43.66-4.48,66.54-4.52-3.95-5.37-9.08-7.18-14.01l-15.22-41.5c-1.56-4.25-6.31-5.21-10.44-4.93-3.26.22-7.61,2.47-8.64,6.72l-14.55,59.79c-9.12-22.56-13.51-44.79-19.03-67.28-1.35-5.52-7.75-7.59-12.45-6.78s-10.87,5.35-9.71,11.49c4.09,21.59,18.73,77.72,30.49,94.47,5.21,7.42,17.83,7.9,23.26.57,3.62-4.89,4.8-10.91,6.5-16.54l7.02-23.29c.25-.83.68-1.88,1.19-2.08.92-.37,1.97.84,2.45,1.84,5.24,10.91,10.19,21.6,17.24,31.44,3.21,4.48,7.27,8.28,12.55,8.47-4.67,8.88-9.3,5.41-5.85,21.73-55.65,2.05-110.8,10.43-164.18,27.94-20.8,6.82-39.86,15.63-58.42,26.45-4.3,2.5-6.6,7.8-4.44,12.28,3.41,7.05,12.8,10.09,19.86,6.1,18.75-10.6,37.66-18.89,58.38-25.65,58.02-18.94,111.64-27.93,172.58-31.16,3.44-.18,6.04-4.1,6.66-6.41.97-3.61-1.56-6.38-4.3-9.03,1.14-.21,2.04-1.85,2.85-1.55,1.08.41,1.43,2.4,2.41,2.94,4.72,2.64,11.78,3.46,16.56.58-2.01,1.21,5.47-8.14,5.41-7.9.31-1.2-.01-3.28-1.17-3.59-6.84-1.81.75,6.97-17.32,2.44-1.99-.5-1.54-4.07-.73-5.21,2.08-2.93,12.38-1.55,11.48-5.96-2.58-12.65,1.96-.62,2.73-20.35.26-6.6-3.27-19.35,4.46-22.11,1.79-.64,3.25-.31,4.25,1.55l-.71,13.96c-.47,9.25-1.81,18.06-5.02,26.74,10.9,10.68,15.54,28.9,6.99,41.6-5.6,8.32-14.54,16.54-25.27,17.59-75.43,7.33-158.03,23.37-225.88,58.01-15.6,7.97-32.31,7.19-47.13-1.94-13.95-8.6-22.46-22.72-20.9-39.6-10.09-.95-19.21-3.89-25.11-10.7,2.4-2.11-1.98-5.49,2.69-9.26,6.06-4.88-.99-11.99,2.21-14.62,3.48-2.86,4.64-6.17,4.31-10.84-.12-1.75,2.17-6.04.35-7.26-4.58-3.06-5.77-6.43-7.19-11.46-.86-3.05-9.92-7.26-6.97-15.37-.32.87,7.72-6.39,9.41-5.56,2.23,1.09,3.19,4.35,6.36,3.62.87-4.2-4.46-18.69-.94-19.11,2.79,18.7,5.9,37.55,7.81,56.97.57,5.79.59,10.61,5.17,13.86.49,3.65-1.36,8.34,4.06,10.15,2.03.68,4.21,3.85,7.18,1.2-4.94-5.33-1.26-10.58-5.3-9.61-.5.12-1.07-.73-1.18-1.23,5.94.52,14.6-3.04,13.85-10.24l-6.42-61.91c8.28,8.45,13.19,17.24,20.02,25.4,7.49,8.95,14.29,18.18,23.58,25.25,3.87,2.95,8.97,3.79,13.84,2.58,12.53-3.11,9.41-16.42,8.2-25.45-3.67-27.3-7.91-53.95-9.41-81.37-.36-6.53-3.61-10.73-10.74-10.85-3.91-.06-7.22,1.42-9.8,3.83-3.28,3.06-2.86,6.62-2.47,11.02l5.25,60.08c-8.94-8.96-13.59-18.37-20.2-27.28-6.01-8.1-11.35-16.32-17.91-23.92-4.32-5.01-9.45-7.13-15.75-6.46-.02-1.8,2.44-.03,4.16-1.25-.03-3.54-10.1.59-7.39,1.35.43.12.9-.04,1.3,0-1.99,1.97-5.81,1.18-7.94,2.73-.85-4.13-5.64-5.88-.78-11.05,4.49-4.76,9.32,3.95,13.9-4.42,3.87-7.08.61-3.82.77-11.35,10.87-4.09,21.88-7.88,30.74-16.07,8.92-8.25,13.41-19.07,10.85-31.49-2.13-10.37-9.35-19.71-21.44-24.04,6.2-7.65,10.09-15.17,10.46-24.26.65-15.75-9.01-29.14-24.51-33.07s-32.31-.35-46.98,7.03c-4.06,2.04-7.11,4.89-8.93,9.1-1.65-.03-2.39.77-2.22,2.46.16,1.56.9,2.14,2.3,3.5,4.66,4.53,5.26,20.96,5.97,28.04-1.97.43-.61,3.24-1.44,4.65-1.98,3.35-2.45,6.56.09,9.67s1.65,7.37-1.85,9.89c-5.93,4.27-16.09,7.03-22.94,2.79-4.68-5.96,2.66-24.76-4.89-24.98-.7-3.94-1.1-7.92-1.08-11.92,2.78-.51,5.41-.03,7.54,1.81,5.04,4.36-1.39,11.6,7.04,11.75,1.93.03,4.88-1.59,4.34-4.52-1.58-8.5,4.83-9.15,1.3-16.57-.73-1.53-3.63-2.01-5.09-3.68-4.51-5.11-15.41-12.12-21.15-12.98,2.32-24.95,27.15-36.9,49.39-42.52,23.37-5.63,49.65-5.84,69.94,10.44,22.42-18.91,52.64-22.25,78.19-8.36,21.94-20.51,46.39-25.92,74.45-16.22,17.1-18.06,39.99-22.12,59.75-4.81,15.71-11.96,36.67-12.73,51.93-.28,12.66,10.33,17.51,26.74,14.37,41.88ZM291.53,171.73c12.23-4.35,20.94-14.36,24.34-26.74,7.58-27.6.97-74.06-32.06-78.69-13.75-1.93-26.27,3.83-34.34,15.19-14.08,19.81-11.16,54.03.43,74.6,8.27,14.68,25.04,21.53,41.63,15.63ZM219.22,175.53c20.46-18.43,17-57.04,5.47-79.12-7.36-14.11-22.25-20.91-37.93-17.36-10.5,2.38-18.99,9.82-24.15,19.39-7.59,14.06-8.37,29.96-5.76,45.65,2.01,12.11,5.98,23.41,15.23,31.9,13.17,12.09,33.49,11.84,47.14-.46ZM258,315.18c8.73-6.47,14.74-15.41,17.17-25.99,5.58-24.24,1.88-64.6-21.81-76.5-18.3-9.19-39.76-1.96-50.17,15.36-13.29,22.09-11.51,52.04-.51,74,10.59,21.13,36.14,27.35,55.32,13.13Z"/>
      <path class="cls-3" d="M428.12,78.02c-2.07,9.96-6.43,19.12-13.06,27.59l19.13,18.02c5.75,5.42,11.02,11.29,14.22,18.67,6.88,15.85.67,33.93-13.61,43.46,1.68,9.16,1.11,17.28.43,26.16l-4.25,55.01c-.99-1.86-2.46-2.19-4.25-1.55-7.73,2.76-4.2,15.51-4.46,22.11-.78,19.72-5.31,7.69-2.73,20.35.9,4.41-9.41,3.03-11.48,5.96-.81,1.14-1.25,4.71.73,5.21,18.07,4.54,10.49-4.25,17.32-2.44,1.16.31,1.48,2.39,1.17,3.59.06-.23-7.42,9.11-5.41,7.9-4.78,2.88-11.84,2.06-16.56-.58-.98-.55-1.32-2.53-2.41-2.94-.81-.31-1.71,1.33-2.85,1.55-1.76-.23-3.53-.28-6.12-.35-10.73-2.79-3.57-.63-7.92-4.04-2.7-2.12-6.5,1.16-7.12,3.77-1.39.06-2.77.26-4.97.1-3.44-16.31,1.18-12.84,5.85-21.73,2.53.09,5.57-.24,8.03-.88-.01.74.08,1.42.43,1.83,1.8,2.08,5.5-.12,7.83.19,1.88.25,5.67,1.24,6.99-.94,3.14-5.18.35-11-5.1-13.7.33,4.12-1.62,3.71-2.42,4.59,3.45-23.94,4.85-48.02,6.59-72.58l1.73-24.42c.39-5.46-1.8-10.17-7.44-11.42-2.28-.51-5.39-.69-7.47-.55.84-11.16,3.25-8.17-.19-20.89,1.77-1.66,4.8-.02,5.23-2.63-2.77-1.3-5.56-1.07-5.96-3.11s.38-4.25,1.92-5.44c5.77,1.81,12.11,13.61,23.24,7.37,2.73-1.53,4.61-3.64,5.06-6.31s-.49-5.57-2.75-7.75c-13.15-12.68-27-24.13-41.64-35.12-2.38-1.78-1.2-4.81.28-6.75,7.99-10.5,15.28-20.86,22.46-31.39-2.62,5.52,2.39,15.42,6.82,15.29,1.91-.06,4.59-1.95,5-4.8.53-3.69-3.84-6.21-6.35-8.66-1.63-1.59,1.85-3.45,1.53-4.56-1.18-4.08-2.93-7.65-3.35-12.15,2.11-.78,6.23-1.64,8.14.43,3.57,3.88,7.35,6.52,11.52,9.55,1.97,1.43,2.43,4.9,5.48,5.42,1.94.33,2.93,1.95,2.73,3.59Z"/>
      <path class="cls-3" d="M111.99,210.77c-.16,7.53,3.11,4.27-.77,11.35-4.58,8.37-9.41-.34-13.9,4.42-4.87,5.16-.07,6.91.78,11.05-4.16,3.02-5.47,7.84-4.7,13.06l4.78,32.08c-3.52.41,1.81,14.91.94,19.11-3.17.73-4.13-2.53-6.36-3.62-1.69-.82-9.73,6.43-9.41,5.56-2.95,8.11,6.11,12.32,6.97,15.37,1.42,5.02,2.61,8.4,7.19,11.46,1.82,1.22-.47,5.51-.35,7.26.33,4.66-.83,7.97-4.31,10.84-3.2,2.63,3.85,9.74-2.21,14.62-4.67,3.76-.29,7.15-2.69,9.26-8.47-4.42-12.18-19.75-13.64-29.23l-4.54-29.49-7.17-51.59c-.99-7.15-.99-13.87-.57-21.3-15.98-7.81-22.74-24.88-18.52-42.03l-5.61-56.98c-.16-1.65,1.01-4.02-.8-5.08-.08-.93.26-1.97.09-2.89,7.55.22.21,19.02,4.89,24.98,6.85,4.25,17.01,1.49,22.94-2.79,3.5-2.52,4.31-6.89,1.85-9.89s-2.07-6.32-.09-9.67c.83-1.41-.53-4.22,1.44-4.65l6.21,61.88c.34,3.41.11,6.76-.27,10.07-2.18,19.19,28.69,7.87,37.82,6.86Z"/>
      <path class="cls-3" d="M36.12,122.06c-4.58-7.56-6.82-15.54-6.01-24.18,5.74.85,16.64,7.86,21.15,12.98,1.46,1.66,4.36,2.14,5.09,3.68,3.53,7.42-2.88,8.06-1.3,16.57.54,2.93-2.41,4.56-4.34,4.52-8.43-.15-1.99-7.39-7.04-11.75-2.14-1.85-4.76-2.32-7.54-1.81Z"/>
      <path class="cls-2" d="M37.91,141.96c-1.52-1.14-.65-3.41-.8-5.08,1.8,1.06.63,3.42.8,5.08Z"/>
      <path class="cls-4" d="M395.55,294.92c-1.88,2.08-4.41,7.16-7.74,8.02-2.46.64-5.5.97-8.03.88-5.28-.19-9.34-3.99-12.55-8.47-7.05-9.83-12-20.53-17.24-31.44-.48-1-1.53-2.21-2.45-1.84-.5.2-.94,1.25-1.19,2.08l-7.02,23.29c-1.7,5.63-2.88,11.65-6.5,16.54-5.43,7.34-18.05,6.86-23.26-.57-11.75-16.76-26.39-72.89-30.49-94.47-1.16-6.14,4.92-10.67,9.71-11.49s11.1,1.26,12.45,6.78c5.52,22.49,9.91,44.72,19.03,67.28l14.55-59.79c1.03-4.25,5.38-6.5,8.64-6.72,4.13-.28,8.88.68,10.44,4.93l15.22,41.5c1.81,4.94,2.66,10.06,7.18,14.01,1.94-22.88,3.77-44.37,4.48-66.54.2-6.32,2.51-10.24,8.18-12.98,2.08-.14,5.19.05,7.47.55,5.64,1.25,7.83,5.97,7.44,11.42l-1.73,24.42c-1.74,24.56-3.14,48.64-6.59,72.58Z"/>
      <path class="cls-4" d="M111.99,210.77c-9.13,1.01-40,12.33-37.82-6.86.38-3.31.61-6.66.27-10.07l-6.21-61.88c-.71-7.08-1.31-23.51-5.97-28.04-.22-1.98-.16-3.97-.09-5.96,1.82-4.21,4.88-7.06,8.93-9.1,14.67-7.38,31-11.08,46.98-7.03s25.17,17.32,24.51,33.07c-.38,9.1-4.26,16.62-10.46,24.26,12.1,4.33,19.31,13.67,21.44,24.04,2.55,12.42-1.93,23.24-10.85,31.49-8.86,8.2-19.87,11.98-30.74,16.07ZM115.26,126.6c5.97-6.36,7.35-17.4-.11-22.63-7.89-5.54-19.03-3.87-26.71.93l3.82,31.2c9.2-1.27,16.18-4.07,22.99-9.51ZM128.22,178.18c3.21-4.29,3.34-9.06,1.23-14.12-5.15-12.4-23.63-11.59-34.54-5.93l2.82,32.66c10.82.05,24.33-4.37,30.49-12.61Z"/>
      <path class="cls-4" d="M115.93,354.07c-1.48-.45-3.21-.59-4.76-.51-4.58-3.25-4.61-8.07-5.17-13.86-1.9-19.42-5.02-38.27-7.81-56.97l-4.78-32.08c-.78-5.22.53-10.04,4.7-13.06,2.14-1.55,5.96-.76,7.94-2.73.49-.17,1.38-.06,1.93-.12,6.31-.66,11.43,1.45,15.75,6.46,6.56,7.6,11.89,15.82,17.91,23.92,6.61,8.91,11.26,18.33,20.2,27.28l-5.25-60.08c-.38-4.4-.8-7.97,2.47-11.02,2.58-2.41,5.89-3.89,9.8-3.83,7.13.11,10.39,4.32,10.74,10.85,1.49,27.42,5.73,54.07,9.41,81.37,1.22,9.04,4.34,22.35-8.2,25.45-4.87,1.21-9.97.37-13.84-2.58-9.29-7.07-16.09-16.3-23.58-25.25-6.84-8.17-11.74-16.95-20.02-25.4l6.42,61.91c.75,7.2-7.91,10.77-13.85,10.24Z"/>
      <path class="cls-4" d="M258,315.18c-19.18,14.22-44.73,8-55.32-13.13-11-21.96-12.77-51.91.51-74,10.41-17.31,31.87-24.54,50.17-15.36,23.69,11.89,27.39,52.26,21.81,76.5-2.43,10.58-8.44,19.52-17.17,25.99ZM237.36,230.7c-22.42-2.39-23.36,39.42-14.43,61.03,2.3,5.56,7.5,8.77,12.65,9.08,27.63,1.69,21.49-68.01,1.79-70.11Z"/>
      <path class="cls-4" d="M373.92,325.55c2.2.15,3.58-.04,4.97-.1,5.02-.22,10.03.14,15.05.28,2.59.07,4.36.12,6.12.35,2.74,2.64,5.26,5.41,4.3,9.03-.62,2.31-3.22,6.23-6.66,6.41-60.94,3.23-114.55,12.22-172.58,31.16-20.72,6.76-39.63,15.05-58.38,25.65-7.06,3.99-16.45.95-19.86-6.1-2.16-4.48.14-9.78,4.44-12.28,18.56-10.81,37.62-19.62,58.42-26.45,53.38-17.51,108.53-25.89,164.18-27.94Z"/>
      <path class="cls-4" d="M397.8,63.84l-.04,6.19c-.87,1.1-.59,2.72-1.15,3.89-7.18,10.53-14.47,20.89-22.46,31.39-1.48,1.95-2.66,4.97-.28,6.75,14.64,10.98,28.49,22.44,41.64,35.12,2.26,2.18,3.18,5.15,2.75,7.75s-2.33,4.78-5.06,6.31c-11.13,6.24-17.47-5.56-23.24-7.37-2-3.8-29.02-25.5-32.11-24.14-1.6.7,1.05,25.7.8,33.23-.2,5.9-7.04,8.58-12,8.5-3.62-.06-6.67-1.22-8.67-3.1-2.8-2.63-2.46-5.67-2.55-9.51-.72-29.82-4.98-58.95-11.04-88.08-1.43-6.85.22-12.43,6.6-15.08,5.17-2.16,12.97.1,14.67,6.32,3.09,11.26,2.7,22.7,6.87,34.24,10.2-11.67,17.85-22.96,26.51-33.98,2.78-3.54,6.29-5.55,10.78-4.74,3.12.57,6.12,3.45,7.99,6.32Z"/>
      <path class="cls-4" d="M291.53,171.73c-16.59,5.9-33.37-.95-41.63-15.63-11.59-20.57-14.51-54.79-.43-74.6,8.07-11.36,20.58-17.12,34.34-15.19,33.03,4.63,39.64,51.09,32.06,78.69-3.4,12.37-12.11,22.39-24.34,26.74ZM295.22,137.13c2.46-14.36.74-29.47-5.91-42.36-2.31-4.48-6.64-7.26-10.96-7.42s-8.03,2.67-10.62,6.47c-9.06,13.33-5.58,54.39,8.84,58.19,9.51,2.5,16.95-4.94,18.65-14.87Z"/>
      <path class="cls-4" d="M219.22,175.53c-13.65,12.29-33.97,12.55-47.14.46-9.25-8.49-13.22-19.79-15.23-31.9-2.6-15.69-1.83-31.58,5.76-45.65,5.16-9.57,13.65-17.01,24.15-19.39,15.67-3.54,30.56,3.25,37.93,17.36,11.53,22.09,14.99,60.69-5.47,79.12ZM202.53,161.87c14.29-8.81,8.99-40.9,2.57-54.74-2.43-5.24-7.08-8.26-12.47-7.76-16.41,1.52-18.25,37.24-8.6,57.33,3.48,7.23,11.86,9.27,18.5,5.18Z"/>
      <path class="cls-3" d="M115.93,354.07c.11.5.68,1.35,1.18,1.23,4.04-.96.35,4.29,5.3,9.61-2.97,2.65-5.15-.52-7.18-1.2-5.41-1.81-3.57-6.5-4.06-10.15,1.55-.08,3.29.06,4.76.51Z"/>
      <path class="cls-3" d="M107.97,234.75c-.55.06-1.44-.06-1.93.12-.4-.05-.86.11-1.3,0-2.71-.77,7.36-4.89,7.39-1.35-1.72,1.22-4.18-.55-4.16,1.25Z"/>
      <path class="cls-3" d="M397.75,70.03l.04-6.19c1.76-.51,2.24,1.36,2.22,2.83-.03,2.22-.31,3.46-2.27,3.36Z"/>
      <path class="cls-3" d="M62.17,97.97c-.07,1.99-.14,3.98.09,5.96-1.4-1.36-2.14-1.94-2.3-3.5-.18-1.69.57-2.49,2.22-2.46Z"/>
      <path class="cls-2" d="M387.81,302.94c3.33-.87,5.86-5.94,7.74-8.02.8-.89,2.75-.47,2.42-4.59,5.45,2.69,8.24,8.52,5.1,13.7-1.32,2.18-5.12,1.18-6.99.94-2.33-.31-6.04,1.9-7.83-.19-.35-.41-.45-1.09-.43-1.83Z"/>
      <path class="cls-2" d="M393.94,325.72c-5.02-.14-10.02-.5-15.05-.28.62-2.61,4.42-5.88,7.12-3.77,4.36,3.41-2.81,1.26,7.92,4.04Z"/>
      <path class="cls-2" d="M128.22,178.18c-6.16,8.23-19.67,12.66-30.49,12.61l-2.82-32.66c10.91-5.66,29.39-6.47,34.54,5.93,2.1,5.06,1.98,9.83-1.23,14.12Z"/>
      <path class="cls-2" d="M115.26,126.6c-6.81,5.43-13.79,8.24-22.99,9.51l-3.82-31.2c7.68-4.8,18.82-6.47,26.71-.93,7.46,5.23,6.08,16.27.11,22.63Z"/>
      <path class="cls-3" d="M237.36,230.7c19.7,2.1,25.84,71.8-1.79,70.11-5.15-.32-10.35-3.53-12.65-9.08-8.93-21.6-7.99-63.42,14.43-61.03Z"/>
      <path class="cls-2" d="M295.22,137.13c-1.7,9.93-9.15,17.37-18.65,14.87-14.42-3.8-17.9-44.86-8.84-58.19,2.59-3.81,6.35-6.64,10.62-6.47s8.65,2.94,10.96,7.42c6.65,12.9,8.37,28,5.91,42.36Z"/>
      <path class="cls-3" d="M202.53,161.87c-6.63,4.09-15.02,2.05-18.5-5.18-9.66-20.09-7.81-55.81,8.6-57.33,5.39-.5,10.04,2.52,12.47,7.76,6.42,13.85,11.72,45.93-2.57,54.74Z"/>
    </g>
  </g>
</svg>