<?xml version="1.0" encoding="UTF-8"?>
<svg id="Layer_2" data-name="Layer 2" xmlns="http://www.w3.org/2000/svg" viewBox="0 0 243.91 243.83">
  <defs>
    <style>
      .cls-1 {
        fill: #faf2a0;
      }

      .cls-2 {
        fill: #fed534;
      }
    </style>
  </defs>
  <g id="Layer_1-2" data-name="Layer 1">
    <g>
      <path class="cls-2" d="M243.91,121.91c0,67.33-54.6,121.91-121.95,121.91S0,189.25,0,121.91,54.6,0,121.95,0s121.95,54.58,121.95,121.91ZM221.31,146.95c4.28-18.19,2.68-37.65-3.17-55.1-12.92-38.57-47.12-63.67-86.95-67.97C77.32,18.06,26.43,56.55,21.39,111.51c-3.59,39.2,16.4,77.13,51.04,95.81,14.92,8.05,31.39,11.71,48.31,12.39,45.26,1.82,90.04-28.05,100.57-72.76Z"/>
      <g>
        <path class="cls-1" d="M221.31,146.95c-10.53,44.71-55.31,74.58-100.57,72.76-16.92-.68-33.39-4.34-48.31-12.39-34.64-18.68-54.63-56.62-51.04-95.81,5.04-54.96,55.93-93.46,109.8-87.63,39.83,4.3,74.04,29.4,86.95,67.97,5.85,17.45,7.45,36.91,3.17,55.1ZM145.18,210.99c32.74-7.56,60.2-30.39,69.14-63.31,5.46-20.1,3.16-42.7-5.24-61.44C184.93,32.41,118.91,14.38,70.93,43.83c-43.15,26.48-56.08,80.66-30.61,123.86,14.22,24.12,37.35,39.6,65.11,44.1,13.7,2.22,25.33,2.52,39.74-.81Z"/>
        <path class="cls-2" d="M145.18,210.99c-14.42,3.33-26.05,3.03-39.74.81-27.76-4.51-50.89-19.98-65.11-44.1-25.47-43.2-12.54-97.38,30.61-123.86,47.98-29.45,114-11.43,138.14,42.4,8.4,18.74,10.7,41.34,5.24,61.44-8.94,32.93-36.39,55.76-69.14,63.31ZM98.28,69.42c-12.23-.05-17.58,43.99-2.93,44.61,13.9.59,17.52-44.55,2.93-44.61ZM151.19,72.15c-13.05-1.53-17.96,41.52-3.81,43.86s17.35-42.27,3.81-43.86ZM197.4,121.08c-8.15-2.14-15.65-4.47-23.62-5.95-2.19-.41-4.49.93-4.71,2.67-.7,5.37,9.95,5.22,10.29,8.79-.34,7.41-4.25,14-7.67,20.59-13.5,25.99-44.6,37.45-71.51,25.83-18.88-8.15-30.62-28.19-34.02-47.37.07-3.45,11.92-4.07,9.88-9.35-.63-1.62-2.84-2.99-4.96-2.49-8.03,1.88-15.78,3.97-23.69,6.29-2.27.66-3.5,2.83-3.06,4.48,1.44,5.35,10.81.61,12.47,3.48,3.07,5.31,3.7,11.41,6.16,17.1,7.26,16.8,19.29,30.57,36.72,37.08,29.34,10.96,62-1.2,78.01-27.8,4.25-7.06,7.02-13.94,9.34-21.81,2.86-9.69,11.12-1.24,13.61-7.09.58-1.37-.87-3.82-3.24-4.44Z"/>
        <path class="cls-1" d="M197.4,121.08c2.36.62,3.82,3.07,3.24,4.44-2.49,5.85-10.76-2.61-13.61,7.09-2.32,7.86-5.09,14.75-9.34,21.81-16.01,26.59-48.67,38.76-78.01,27.8-17.43-6.51-29.46-20.28-36.72-37.08-2.46-5.69-3.09-11.79-6.16-17.1-1.66-2.88-11.03,1.87-12.47-3.48-.45-1.65.79-3.81,3.06-4.48,7.91-2.32,15.66-4.41,23.69-6.29,2.11-.5,4.33.87,4.96,2.49,2.04,5.28-9.81,5.9-9.88,9.35,3.4,19.19,15.13,39.22,34.02,47.37,26.91,11.62,58.02.16,71.51-25.83,3.42-6.58,7.33-13.17,7.67-20.59-.34-3.58-10.98-3.42-10.29-8.79.22-1.73,2.52-3.07,4.71-2.67,7.96,1.48,15.47,3.81,23.62,5.95Z"/>
        <path class="cls-1" d="M98.28,69.42c14.59.06,10.97,45.2-2.93,44.61-14.65-.62-9.3-44.66,2.93-44.61Z"/>
        <path class="cls-1" d="M151.19,72.15c13.54,1.59,10.67,46.25-3.81,43.86s-9.24-45.39,3.81-43.86Z"/>
      </g>
    </g>
  </g>
</svg>