<?xml version="1.0" encoding="UTF-8"?>
<svg id="Layer_2" data-name="Layer 2" xmlns="http://www.w3.org/2000/svg" viewBox="0 0 86.69 99.49">
  <defs>
    <style>
      .cls-1 {
        fill: #298fb5;
      }

      .cls-2 {
        fill: #f9f093;
      }

      .cls-3 {
        fill: #abdeea;
      }

      .cls-4 {
        fill: #f5e55f;
      }

      .cls-5 {
        fill: #4f74b8;
      }
    </style>
  </defs>
  <g id="Layer_1-2" data-name="Layer 1">
    <g>
      <path class="cls-3" d="M61.39,89.86c-7.02,1.19-10.55-.71-17.17,4.54-2.55,2.03-5.26,3.75-8.49,4.53-4.63,1.12-9.28.51-13.69-1.4-5.39-2.33-10.42-5.21-15.23-8.58-5.67-3.97-8.05-9.05-6.2-15.92,2.11-7.83.28-10.15.47-18.23.34-14.86,10.12-16.43,9.79-31.28-.09-4.02,1.65-7.58,5.05-9.64,4.85-2.94,5.09-6.99,8.53-10.6C28.98-1.42,34.89.25,40.95.46l14.98.52c8.44.29,16.77,2.22,18.76,11.53,1.26,5.89,2.08,8.17,6.78,11.97,6.08,4.92,5.94,9.9,4.12,17-1.93,7.55,2.57,7.8.24,13.92-.76,2-.75,4.27-.18,6.33,1.09,3.98.11,7.87-2.53,11.06-3.23,3.9-6.58,7.5-10.16,11.12-3.16,3.2-7.13,5.19-11.57,5.94ZM26,23.58c-1.42-1.85-2.26-4.49-5.2-5.27-1.17-.31-2.36-.02-3.11.66-2.41,2.21.55,7.91-.4,14.17-1.33,8.79-8.88,13.2-7.15,20.31l2.17,8.96c.5,2.08.93,4.64-.23,6.46l-4,6.26c-1.1,1.71-.19,3.81,1.29,5.24,3.07,2.94,12.97,9.36,16.91,11.63,2.48,1.43,5.41,1.17,7.14-1.13l5.47-7.27c1.32-1.75,3.35-3.27,5.62-3.46,6.69-.57,14.04,2.11,19.39-3.65,1.55-1.67,2.95-3.37,3.51-5.47.1-.39.42-.76.34-1.21,2.87.34,5.84-.02,8.13-2.06,1.47-1.31,1.57-3.42.79-4.9-1.9-3.61-6.1-1.26-8.82-1.41.1-.53.11-1.07.15-1.6,3.81.3,10.32-.89,10.02-5.83-.08-1.43-.8-3.18-2.48-3.75-2.66-.91-4.93.47-7.48.44-.02-.65.05-1.32-.02-1.97,3.27.69,9.1-.24,9.71-4.13.26-1.63-.02-3.18-1.23-4.31-1.11-1.04-2.78-1.38-4.34-1-1.28.31-2.75.46-3.86.93-.49-1.23.07-2.7-.25-3.94,2.45-.26,5.05-1.03,6.91-2.82,1.33-1.27,1.54-3.2.86-4.78-1.33-3.09-4.91-2.63-7.52-2.2-.84-4.68-.33-9.37-.64-14.42-.14-2.37-2.2-5.53-4.74-5.84-3.57-.44-6.96-.32-10.51-.51l-19.45-1.03c-3.05-.16-5.72,2.9-6.01,5.83-.45,4.54-.27,8.81-.99,13.08Z"/>
      <g>
        <path class="cls-4" d="M26,23.58c1.04,4.71,1.31,9.45-.09,14.24-.98,3.35-.45,6.37-.44,9.73l.06,21.56c0,2.08,2.61,4.26,4.71,4.33l32.04,1.06c2.42.08,3.76-1.98,5.12-3.49-.56,2.1-1.95,3.8-3.51,5.47-5.35,5.76-12.7,3.09-19.39,3.65-2.27.19-4.3,1.71-5.62,3.46l-5.47,7.27c-1.73,2.3-4.65,2.56-7.14,1.13-3.94-2.27-13.84-8.68-16.91-11.63-1.49-1.43-2.39-3.52-1.29-5.24l4-6.26c1.16-1.82.73-4.38.23-6.46l-2.17-8.96c-1.72-7.1,5.82-11.52,7.15-20.31.95-6.26-2.01-11.96.4-14.17.74-.68,1.94-.98,3.11-.66,2.94.78,3.79,3.42,5.2,5.27Z"/>
        <path class="cls-4" d="M68,59.83c-1.99-1.47-3.24-3.6-2.52-6.04.42-1.43,1.68-2.11,2.58-3.1,2.54.02,4.81-1.35,7.48-.44,1.68.57,2.4,2.32,2.48,3.75.29,4.94-6.21,6.13-10.02,5.83Z"/>
        <path class="cls-4" d="M68.05,48.71c-.08-.77-2.44-2.18-1.93-5.12.19-1.09.9-2.83,2.22-3.39,1.11-.47,2.58-.62,3.86-.93,1.56-.38,3.23-.04,4.34,1,1.2,1.13,1.48,2.68,1.23,4.31-.62,3.89-6.45,4.82-9.71,4.13Z"/>
        <path class="cls-4" d="M67.74,69.8c-1.94-2.03-3.29-4.8-1.01-7.06.45-.45.9-.81,1.11-1.31,2.73.16,6.92-2.2,8.82,1.41.78,1.48.68,3.6-.79,4.9-2.29,2.03-5.26,2.39-8.13,2.06Z"/>
        <path class="cls-4" d="M68.08,36.27c-.83-3.18-1.25-6.85.26-9.8,2.61-.43,6.19-.89,7.52,2.2.68,1.58.47,3.51-.86,4.78-1.86,1.79-4.47,2.56-6.91,2.82Z"/>
        <g>
          <path class="cls-5" d="M68.34,26.47c-1.51,2.96-1.09,6.63-.26,9.8.32,1.23-.24,2.7.25,3.94-1.32.56-2.03,2.3-2.22,3.39-.51,2.95,1.85,4.36,1.93,5.12.07.65,0,1.32.02,1.97-.9.99-2.16,1.66-2.58,3.1-.72,2.44.53,4.57,2.52,6.04-.04.53-.05,1.07-.15,1.6-.22.5-.66.86-1.11,1.31-2.28,2.26-.92,5.04,1.01,7.06.08.45-.24.81-.34,1.21-1.36,1.51-2.7,3.57-5.12,3.49l-32.04-1.06c-2.09-.07-4.7-2.25-4.71-4.33l-.06-21.56c0-3.36-.54-6.38.44-9.73,1.4-4.79,1.13-9.53.09-14.24.72-4.27.54-8.54.99-13.08.29-2.94,2.96-5.99,6.01-5.83l19.45,1.03c3.55.19,6.95.07,10.51.51,2.54.31,4.6,3.47,4.74,5.84.3,5.05-.21,9.73.64,14.42ZM61.7,61.66c.59-.02.79-.86.79-1.25l.14-21.56.32-27.02c0-.45-.22-1.16-.68-1.17-2.93-.04-5.72-.04-8.63-.31-3.51-.04-6.9-.18-10.42.02l-12.57.69-1.11,48.16c-.02.83.03,1.51.48,1.89s1.06.23,1.71.28c6.32.51,12.44.92,18.79.69l11.19-.42ZM47.9,69.28c.78-1.01.56-3.1-.3-3.9-.73-.68-2.65-.64-3.29.02-1.08,1.11-.8,2.78-.14,4.06,1.03.38,2.9.91,3.73-.18Z"/>
          <path class="cls-2" d="M61.7,61.66l-11.19.42c-6.35.24-12.47-.17-18.79-.69-.65-.05-1.26.1-1.71-.28s-.5-1.06-.48-1.89l1.11-48.16,12.57-.69c3.52-.19,6.91-.06,10.42-.02,2.91.27,5.7.27,8.63.31.46,0,.69.72.68,1.17l-.32,27.02-.14,21.56c0,.38-.21,1.23-.79,1.25ZM52.92,28.3c-1.34-.58-2.44,0-3.78-.29l.41-9.12c-2.03-.12-3.98-.25-6.05-.11l-.08,8.99-3.8.13c2.19,2.19,4.05,4.21,6.45,5.96,2.5-1.58,4.72-3.32,6.85-5.56ZM59.72,32.43c.03-1.9-1.63-2.62-3.07-2.4-4.64.73-7.66,4.91-10.41,5.79-2.1.67-8.71-9.66-12.65-4.74l-.69,21.83c-.03.97.78,1.6,1.68,1.64l3.88.2,18.77.04c1.24,0,2.17-.97,2.19-2.25l.31-20.12Z"/>
          <path class="cls-2" d="M47.9,69.28c-.83,1.09-2.7.56-3.73.18-.66-1.27-.94-2.94.14-4.06.64-.66,2.56-.7,3.29-.02.86.8,1.08,2.88.3,3.9Z"/>
          <path class="cls-1" d="M59.72,32.43l-.31,20.12c-.02,1.27-.95,2.25-2.19,2.25l-18.77-.04-3.88-.2c-.9-.05-1.71-.68-1.68-1.64l.69-21.83c3.94-4.92,10.55,5.41,12.65,4.74,2.75-.88,5.77-5.06,10.41-5.79,1.44-.23,3.1.5,3.07,2.4ZM55.07,42.16c-.72-.95-1.8-.98-2.82-1.06l-.22-1.84c-.08-.66-.65-1.18-1.1-1.29-.61-.15-1.26.13-1.74.57-1.71,1.58-3.3,3.2-4.91,4.88-.56.59-.86,1.44-.6,2.13.19.51.62,1.32,1.41,1.31l7.36-.05c1.28,0,2.27-.64,2.73-1.57s.64-2.11-.1-3.09Z"/>
          <path class="cls-1" d="M52.92,28.3c-2.13,2.24-4.35,3.98-6.85,5.56-2.4-1.75-4.26-3.77-6.45-5.96l3.8-.13.08-8.99c2.06-.14,4.01-.01,6.05.11l-.41,9.12c1.34.29,2.44-.28,3.78.29Z"/>
          <path class="cls-2" d="M55.07,42.16c.74.98.57,2.14.1,3.09s-1.44,1.56-2.73,1.57l-7.36.05c-.79,0-1.22-.8-1.41-1.31-.26-.69.04-1.54.6-2.13,1.62-1.68,3.2-3.3,4.91-4.88.48-.44,1.13-.72,1.74-.57.45.11,1.02.63,1.1,1.29l.22,1.84c1.02.08,2.1.11,2.82,1.06Z"/>
        </g>
      </g>
    </g>
  </g>
</svg>