<?xml version="1.0" encoding="UTF-8"?>
<svg id="Layer_2" data-name="Layer 2" xmlns="http://www.w3.org/2000/svg" viewBox="0 0 275.51 219.44">
  <defs>
    <style>
      .cls-1 {
        fill: #8f63aa;
      }

      .cls-2 {
        fill: #fcfafa;
      }
    </style>
  </defs>
  <g id="Layer_1-2" data-name="Layer 1">
    <g>
      <path class="cls-1" d="M54.75,212.43c-7.19-5.42-11.81-12.74-16.42-19.16l-17.36-10.56c-20.27-12.33-17.91-35.4-6.39-51.54,10.27-14.37,6.98-30.53-4.17-42.63C-.09,77.14-4.5,60.55,6.04,49.51c13.95-14.61,12.89-24.44,22.55-36.35C43.75-5.53,62.43,1.81,80.33,7.78c14.46,4.82,29.35,4.03,42.97-2.69,21.37-10.55,49.6-4.61,62.11,17.22,12.07,21.05,27.06,25.16,49.75,26.62,13.28.86,24.98,7.27,32.76,17.77,9.28,12.51,10.48,29.36,1.12,41.99-12.29,16.59-31.38,15.21-48.76,34.11-8.58,9.33-13.36,20.83-15.6,33.28-5.59,31.05-37.52,38.57-63.83,31.63-13.04-3.44-28.24-8.23-40.39,2.27-12.78,11.04-31.52,13.15-45.72,2.45ZM169.38,165.32l5.55-26.52c8.11-38.77,57.26-31.12,60.66-53.46.92-6.05-2.72-11.17-8.99-11.35l-32.75-.91c-29.71-.83-29.63-35.08-44.35-44.53-3.66-2.35-8.01-2.88-11.7-.69-2.82,1.67-4.86,5.26-4.9,9.37l-.16,17.91c-.12,12.99-7.8,23.33-19.7,28.34-10.01,4.22-23.05,8.73-21.92,19.03.35,3.19,3.05,6.01,6.63,7.64,10.51,4.78,26.97,1.64,38.7,23.35,8.29,15.33,11.02,36.78,20.05,40.4,5.89,2.36,11.57-2.41,12.86-8.58ZM80.55,74.05c5.63-1.79,10.79-3.4,10.06-8.22s-13.98-2.91-23-11.45c-10.94-10.35-4.33-25.59-12.44-26.04-9.98-.55,1.39,25-19.14,32.29l-11.83,4.2c-2.52.89-3.94,3.35-3.31,5.74,1.6,6.09,15.09,1.74,23.21,10.21,8.75,9.13,5.03,25.02,13.06,24.05,7.21-.87.04-23.37,23.39-30.79ZM87.85,166.11c9.02-7.08,19.58-7.85,18.35-13.27-1.07-4.71-11.1-2.88-19.69-8.48-12.92-8.42-9.07-23.16-16.35-24.05-10.49-1.29-.26,20.18-20.13,28.41-5.07,2.1-17.1,4.64-15.43,10.33,2,6.82,18.09.42,27.02,14.3,5.07,7.87,4.19,20.06,12.52,18.49,7.36-1.39-.89-14.27,13.7-25.73Z"/>
      <path class="cls-2" d="M169.38,165.32c-1.29,6.17-6.97,10.94-12.86,8.58-9.03-3.62-11.76-25.08-20.05-40.4-11.74-21.71-28.2-18.57-38.7-23.35-3.58-1.63-6.28-4.45-6.63-7.64-1.14-10.3,11.91-14.82,21.92-19.03,11.89-5.01,19.58-15.35,19.7-28.34l.16-17.91c.04-4.11,2.08-7.7,4.9-9.37,3.7-2.19,8.05-1.66,11.7.69,14.72,9.46,14.63,43.71,44.35,44.53l32.75.91c6.27.17,9.91,5.3,8.99,11.35-3.4,22.34-52.55,14.69-60.66,53.46l-5.55,26.52ZM184.13,105.52c8.82-5.72,18.32-9.7,28.05-13.82,3.29-1.39,6.57-2.46,9.02-6.29l-30.28-1.6c-24.25-1.28-32.92-20.29-41.73-38.02-1.13-2.28-2.23-4.58-4.84-5.82l-1.09,18.75c-.87,14.89-9.26,26.71-22.51,33.38-5.25,2.64-10.52,4.51-15.78,7.83,3.54,2.07,6.89,2.74,10.28,3.51,28.29,6.47,34.25,31.95,43.98,55.01,5.82-21.48,4.56-39.73,24.91-52.94Z"/>
      <path class="cls-1" d="M184.13,105.52c-20.34,13.21-19.08,31.46-24.91,52.94-9.74-23.06-15.69-48.53-43.98-55.01-3.38-.77-6.73-1.45-10.28-3.51,5.26-3.31,10.53-5.18,15.78-7.83,13.25-6.67,21.64-18.49,22.51-33.38l1.09-18.75c2.6,1.24,3.7,3.54,4.84,5.82,8.81,17.73,17.48,36.75,41.73,38.02l30.28,1.6c-2.45,3.83-5.73,4.89-9.02,6.29-9.73,4.12-19.23,8.09-28.05,13.82Z"/>
      <g>
        <path class="cls-2" d="M87.85,166.11c-14.59,11.46-6.34,24.34-13.7,25.73-8.33,1.57-7.45-10.61-12.52-18.49-8.94-13.88-25.02-7.48-27.02-14.3-1.67-5.69,10.36-8.23,15.43-10.33,19.87-8.23,9.63-29.7,20.13-28.41,7.28.89,3.43,15.63,16.35,24.05,8.59,5.6,18.61,3.77,19.69,8.48,1.24,5.42-9.33,6.18-18.35,13.27ZM71.92,166.39c3.62-4.7,6.74-7.37,10.43-11.09-4.51-3.16-7.78-5.96-11.61-9.82-3.16,4.5-6.3,7.28-10.65,10.58,4.66,3.23,7.7,6.45,11.83,10.33Z"/>
        <path class="cls-1" d="M71.92,166.39c-4.13-3.88-7.18-7.1-11.83-10.33,4.35-3.3,7.49-6.07,10.65-10.58,3.83,3.86,7.1,6.66,11.61,9.82-3.69,3.72-6.81,6.38-10.43,11.09Z"/>
      </g>
      <g>
        <path class="cls-2" d="M80.55,74.05c-23.35,7.42-16.18,29.91-23.39,30.79-8.04.97-4.31-14.91-13.06-24.05-8.12-8.48-21.61-4.12-23.21-10.21-.63-2.39.79-4.85,3.31-5.74l11.83-4.2c20.53-7.3,9.17-32.84,19.14-32.29,8.11.44,1.5,15.69,12.44,26.04,9.02,8.54,22.25,6.46,23,11.45s-4.44,6.43-10.06,8.22ZM56.91,77.7c3.47-4.28,6.17-6.58,10.29-9.57-4.52-3.43-7.71-6.09-11.4-10.37-2.34,4.8-5.48,6.99-9.51,10.37,4.36,2.9,6.66,6.3,10.62,9.56Z"/>
        <path class="cls-1" d="M56.91,77.7c-3.96-3.26-6.26-6.66-10.62-9.56,4.03-3.38,7.17-5.57,9.51-10.37,3.68,4.27,6.87,6.93,11.4,10.37-4.12,2.99-6.82,5.28-10.29,9.57Z"/>
      </g>
    </g>
  </g>
</svg>