<?xml version="1.0" encoding="UTF-8"?>
<svg id="Layer_2" data-name="Layer 2" xmlns="http://www.w3.org/2000/svg" viewBox="0 0 137.6 71.38">
  <defs>
    <style>
      .cls-1 {
        fill: #fcf4e9;
      }

      .cls-2 {
        fill: #eb7c34;
      }
    </style>
  </defs>
  <g id="Layer_1-2" data-name="Layer 1">
    <g>
      <path class="cls-2" d="M23.72,71.22c-3.99.8-7.25-1.3-8.12-5.19-.39-1.74.04-3.65.52-5.42,1.21-4.57-2.22-6.12-5.9-8.11C4.56,49.44.9,43.99.28,37.42S.06,23.8,1.66,17.19c1.1-4.53,3.47-8.52,7.06-11.32C14.87,1.07,27.31.52,34.77,1.1l16.29,1.26c11.51.89,22.67.67,34.11-.57l13.03-1.41c4.49-.49,8.85-.5,13.33-.03,11.77,1.22,21.79,7.45,24.96,19.28,1.03,3.85,1.24,7.59,1.05,11.63-.36,7.65-3.56,14.98-9.56,19.82-8.26,6.66-19.77,5.77-29.79,5.67l-15.31-.16c-11.13-.11-21.88,1.92-32.35,5.63l-16.02,5.68c-3.55,1.26-6.92,2.56-10.77,3.33ZM103.96,37.09c3.71,2.3,8.12.72,10.19-3,3.02-5.43,3.66-12.06,2.12-18.06-.86-3.37-3.43-5.36-6.48-5.63-9.3-.82-10.75,13.72-9.57,20.67.41,2.39,1.59,4.69,3.74,6.02ZM43.92,38.25c.12,1.99,2.09,2.83,3.41,2.56,1.47-.3,2.51-1.51,2.4-3.24l-1.26-20.5c1.49-.09,2.74-.02,3.78-.88.84-.69,1.05-2.04.47-2.97-.36-.59-1.13-1.54-2.18-1.6-3.77-.21-7.6.03-11.35.66-1.48.25-2.4,1.76-1.81,3.01,1.61,3.42,5.14.55,5.31,3.23l1.23,19.73ZM57.24,19.37c1.48-1.48,2.73-3.55,2.72-5.64,0-1.93-1.98-2.74-3.59-2.17-1.27.45-2.32,1.98-1.56,3.5.21.42.71.66.7,1.09-.01,1.16-1.47,1.94-1.1,2.85.42,1.04,1.89,1.31,2.82.38ZM93.09,29.05c.39,1.54-.16,3.57-1.72,4.25-4.29,1.87-6.04-8.17-2.08-14.97.5-.85,1.44-1.42,2.07-1.53,2.11-.36,3.5,3.03,5.79,1.12.87-.73,1.23-2.18.52-3.38-1.32-2.22-3.88-3.24-6.53-3.02-8.77.74-11.48,13.62-9,21.36.98,3.06,3.59,5.27,6.27,5.74,3.18.56,6.34-.32,8.17-2.89,1.68-2.36,3.69-10.38-.35-11.5-1.64-.45-3.49-.52-5.14-.09-1.2.31-1.94,1.34-1.75,2.42.5,2.8,3.5,1.48,3.76,2.49ZM30.71,30.05c2.59-.07,5.45-.68,5.34-3.09s-3.62-2.64-5.76-2.46l-.56-6.5,4.65-.54c1.39-.16,2.2-1.69,2.1-2.96-.09-1.17-1.3-2.29-2.69-2.34-2.64-.09-5.21.21-7.82.46-1.56.15-2.42,1.44-2.31,3.01l1.61,23.54c.08,1.24.52,2.21,1.35,2.86s1.89.81,3.08.61c3.08-.52,8.44-.34,8.02-3.62-.37-2.85-4.5-2.31-6.8-2.06-.04-2.34-.43-4.55-.2-6.92ZM72.52,26.75c-2.11-3.02-4.76-4.41-5.47-6.48-.29-.86-.05-1.73.65-2.12,1.78-1,3.15,1.61,5.07.3.67-.46,1.27-1.44,1.14-2.53-.22-1.82-1.76-3.03-3.53-3.45-3.34-.8-6.79.74-8.44,3.47-1.83,3.04-1.16,6.7,1.12,9.3,1.85,2.12,7.22,5.81,4.07,7.86-2.08,1.35-3.11-2.38-5.59-1.13-.75.38-1.38,1.3-1.35,2.46.06,2.34,1.84,4,4.07,4.53,3.33.8,6.71-.5,8.57-3.29,1.76-2.63,1.68-6.09-.31-8.93ZM23.77,39.48c-.44-3.37-5.48-2.44-7.04-2.8l-.21-21.34c-.02-2.3-3.72-3.59-5.41-2.37l-.39,14.53-.05,11.91c0,2.24,2,3.44,4,3.19,2.3-.28,9.57.5,9.1-3.13ZM124.93,28.81c.67-4.73,1.61-9.19,1.95-13.83.11-1.51-1.97-2.12-3.02-2.12-1.2,0-2.88.48-3.11,1.98-.66,4.39-.95,8.74-1.34,13.19-.14,1.6,1.16,2.67,2.54,2.8,1.11.11,2.76-.45,2.98-2.03ZM120.72,38.75c2.22.5,4.2-.88,4.3-2.91s-1.53-3.49-3.57-3.41c-1.83.07-3.36,1.02-3.46,2.76-.09,1.61.79,3.13,2.72,3.56ZM29.91,61.05c9.47-4.39,19.31-7.26,29.75-8.81,15.47-2.29,30.89-2.83,46.47-2.2,1.31.05,2.08-1.13,2.12-2.13.03-.83-.7-2.18-1.95-2.26-16.14-.96-32.19-.45-48.3,1.81-10.19,1.43-19.85,4.02-29.56,7.08-1.96.62-1.3,3.52-.77,5.46.27.99,1.26,1.51,2.25,1.06Z"/>
      <path class="cls-1" d="M29.91,61.05c-.99.46-1.98-.07-2.25-1.06-.53-1.94-1.19-4.84.77-5.46,9.71-3.06,19.37-5.65,29.56-7.08,16.11-2.26,32.16-2.77,48.3-1.81,1.25.07,1.98,1.43,1.95,2.26-.04,1-.81,2.18-2.12,2.13-15.59-.62-31.01-.09-46.47,2.2-10.44,1.55-20.27,4.42-29.75,8.81Z"/>
      <path class="cls-1" d="M103.96,37.09c-2.15-1.33-3.33-3.63-3.74-6.02-1.18-6.95.27-21.49,9.57-20.67,3.06.27,5.62,2.25,6.48,5.63,1.54,6,.9,12.63-2.12,18.06-2.07,3.72-6.49,5.3-10.19,3ZM109.52,31.17c1.82-4.15,2.14-8.76,1.55-13.14-.14-1.02-.77-1.88-1.64-1.93-.77-.05-1.83.42-2.22,1.37-1.7,4.15-2.03,8.94-1.06,13.35.19.85.84,1.54,1.44,1.63.65.1,1.53-.38,1.93-1.28Z"/>
      <path class="cls-1" d="M93.09,29.05c-.26-1.01-3.26.31-3.76-2.49-.19-1.08.55-2.11,1.75-2.42,1.65-.43,3.51-.36,5.14.09,4.03,1.12,2.03,9.14.35,11.5-1.84,2.58-4.99,3.45-8.17,2.89-2.68-.47-5.29-2.68-6.27-5.74-2.47-7.74.24-20.63,9-21.36,2.65-.22,5.22.8,6.53,3.02.71,1.2.35,2.66-.52,3.38-2.28,1.91-3.68-1.48-5.79-1.12-.63.11-1.58.68-2.07,1.53-3.96,6.8-2.21,16.84,2.08,14.97,1.56-.68,2.11-2.71,1.72-4.25Z"/>
      <path class="cls-1" d="M30.71,30.05c-.23,2.37.16,4.58.2,6.92,2.3-.25,6.44-.79,6.8,2.06.42,3.29-4.94,3.1-8.02,3.62-1.19.2-2.22.06-3.08-.61s-1.27-1.62-1.35-2.86l-1.61-23.54c-.11-1.57.75-2.86,2.31-3.01,2.61-.25,5.18-.55,7.82-.46,1.39.05,2.6,1.18,2.69,2.34.1,1.26-.7,2.8-2.1,2.96l-4.65.54.56,6.5c2.14-.19,5.64-.03,5.76,2.46s-2.75,3.02-5.34,3.09Z"/>
      <path class="cls-1" d="M72.52,26.75c1.98,2.83,2.07,6.3.31,8.93-1.86,2.79-5.24,4.1-8.57,3.29-2.23-.54-4.01-2.19-4.07-4.53-.03-1.15.6-2.08,1.35-2.46,2.48-1.25,3.51,2.47,5.59,1.13,3.15-2.04-2.22-5.74-4.07-7.86-2.28-2.61-2.95-6.27-1.12-9.3,1.65-2.73,5.1-4.27,8.44-3.47,1.77.42,3.31,1.63,3.53,3.45.13,1.09-.46,2.07-1.14,2.53-1.92,1.3-3.29-1.31-5.07-.3-.7.39-.94,1.26-.65,2.12.71,2.07,3.36,3.46,5.47,6.48Z"/>
      <path class="cls-1" d="M43.92,38.25l-1.23-19.73c-.17-2.68-3.7.19-5.31-3.23-.58-1.24.33-2.76,1.81-3.01,3.74-.62,7.58-.87,11.35-.66,1.05.06,1.82,1.01,2.18,1.6.58.93.36,2.28-.47,2.97-1.04.86-2.29.79-3.78.88l1.26,20.5c.11,1.73-.93,2.95-2.4,3.24-1.32.27-3.28-.58-3.41-2.56Z"/>
      <path class="cls-1" d="M23.77,39.48c.47,3.63-6.8,2.85-9.1,3.13-2,.25-4.01-.95-4-3.19l.05-11.91.39-14.53c1.68-1.22,5.38.07,5.41,2.37l.21,21.34c1.56.36,6.6-.58,7.04,2.8Z"/>
      <path class="cls-1" d="M124.93,28.81c-.22,1.58-1.87,2.14-2.98,2.03-1.37-.13-2.68-1.2-2.54-2.8.39-4.45.68-8.8,1.34-13.19.22-1.49,1.9-1.98,3.11-1.98,1.05,0,3.13.61,3.02,2.12-.34,4.64-1.28,9.1-1.95,13.83Z"/>
      <path class="cls-1" d="M120.72,38.75c-1.93-.43-2.81-1.95-2.72-3.56.1-1.74,1.63-2.68,3.46-2.76,2.04-.08,3.67,1.48,3.57,3.41-.1,2.03-2.08,3.41-4.3,2.91Z"/>
      <path class="cls-1" d="M57.24,19.37c-.93.93-2.4.66-2.82-.38-.37-.92,1.09-1.69,1.1-2.85,0-.43-.49-.67-.7-1.09-.77-1.52.28-3.05,1.56-3.5,1.6-.56,3.58.24,3.59,2.17,0,2.09-1.24,4.16-2.72,5.64Z"/>
      <path class="cls-2" d="M109.52,31.17c-.4.9-1.28,1.38-1.93,1.28-.6-.09-1.25-.78-1.44-1.63-.97-4.4-.64-9.19,1.06-13.35.39-.95,1.44-1.42,2.22-1.37.86.06,1.5.91,1.64,1.93.59,4.38.27,8.98-1.55,13.14Z"/>
    </g>
  </g>
</svg>