<?xml version="1.0" encoding="UTF-8"?>
<svg id="Layer_2" data-name="Layer 2" xmlns="http://www.w3.org/2000/svg" viewBox="0 0 297.76 250.83">
  <defs>
    <style>
      .cls-1 {
        fill: #e5506f;
      }

      .cls-2 {
        fill: #f9c4c8;
      }

      .cls-3 {
        fill: #fcfafa;
      }
    </style>
  </defs>
  <g id="Layer_1-2" data-name="Layer 1">
    <g>
      <path class="cls-2" d="M177.76,249.23c-15.12,5.03-36.08-2.62-48.8-11.51l-42.94-29.98c-33.33-23.27-60.9-53.62-77.48-90.81C.51,98.95-1.69,80.03,1.23,60.91c2.2-14.43,9.12-25.88,18.45-36.61C32.98,8.98,50.65.3,71.33.89c40.06,1.15,52.27,17.08,87.83,9,28.76-6.53,69.37-16.09,96.56-4.34,12.57,5.43,23.11,14.46,30.69,25.81,15.92,23.82,12.4,60.06,5.72,86.71-6.35,25.32-17.9,47.89-36.17,66.75-16.99,17.53-34.6,33.56-53.22,49.32-7.58,6.42-15.64,11.99-24.97,15.09ZM251.09,154.84c15.73-23.24,24.15-50.16,22.41-78.03-1.84-29.52-23.66-51.73-52.89-54.44-28.29-2.62-49.15,10.33-70.54,27.35-26.33-18.85-54.11-31.61-86.8-27.1-8.07,1.11-12.88,5.99-17.72,11.72l-11.91,14.11c-16.22,19.21-8.69,56.33,1.93,74.98,10.65,18.7,23.83,35.71,39.96,49.9,22.84,20.09,47.27,37.01,73.76,51.24,6.84,3.67,12.79,3.77,19.6.71,29.4-13.23,64.28-43.97,82.2-70.45Z"/>
      <g>
        <path class="cls-1" d="M251.09,154.84c-17.92,26.47-52.8,57.22-82.2,70.45-6.81,3.06-12.76,2.96-19.6-.71-26.48-14.23-50.92-31.14-73.76-51.24-16.13-14.19-29.31-31.2-39.96-49.9-10.62-18.65-18.15-55.77-1.93-74.98l11.91-14.11c4.84-5.73,9.65-10.61,17.72-11.72,32.69-4.51,60.47,8.25,86.8,27.1,21.39-17.02,42.25-29.97,70.54-27.35,29.23,2.7,51.06,24.91,52.89,54.44,1.73,27.87-6.68,54.79-22.41,78.03ZM71.92,100.95c5.17-3.71,1.5-19.56,16.99-24.53l9.07-2.91c2.08-.67,3.41-2.08,3.2-4.1-.73-6.96-21.14-2.59-25.37-18.24l-2.54-9.4c-.56-2.08-1.91-3.48-3.63-3.61-9.87-.71-2.04,19.96-19.52,25.65-5.65,1.84-14.05,3.12-13.75,7.52.1,1.53,1.11,2.95,2.97,3.39l12.87,3.02c13.54,3.17,10.53,29.8,19.7,23.23ZM230.77,145.22l12.33-3.59c2.51-.73,3.95-2.95,3.68-5.24-1.09-9.36-26.12-1.71-31.86-24.38-1.48-5.87-1.81-14.83-8.25-14.22-2.15.21-4.36,1.82-5.05,4.42l-3.7,14.12c-4.75,18.09-31.8,12.63-30.36,22.83s27.25-.4,32.46,23.08c1.12,5.07,3.04,13.21,8.57,13.08,9.43-.22,1.73-24.13,22.17-30.1Z"/>
        <path class="cls-3" d="M230.77,145.22c-20.45,5.96-12.74,29.88-22.17,30.1-5.53.13-7.45-8.01-8.57-13.08-5.2-23.48-31.05-13.11-32.46-23.08s25.61-4.74,30.36-22.83l3.7-14.12c.68-2.6,2.9-4.21,5.05-4.42,6.44-.61,6.76,8.35,8.25,14.22,5.73,22.67,30.77,15.02,31.86,24.38.27,2.29-1.17,4.51-3.68,5.24l-12.33,3.59Z"/>
        <path class="cls-3" d="M71.92,100.95c-9.17,6.57-6.16-20.05-19.7-23.23l-12.87-3.02c-1.86-.44-2.87-1.86-2.97-3.39-.3-4.4,8.1-5.68,13.75-7.52,17.48-5.69,9.65-26.36,19.52-25.65,1.72.12,3.06,1.53,3.63,3.61l2.54,9.4c4.23,15.65,24.63,11.28,25.37,18.24.21,2.03-1.11,3.43-3.2,4.1l-9.07,2.91c-15.49,4.98-11.81,20.82-16.99,24.53Z"/>
      </g>
    </g>
  </g>
</svg>