<?xml version="1.0" encoding="UTF-8"?>
<svg id="Layer_2" data-name="Layer 2" xmlns="http://www.w3.org/2000/svg" viewBox="0 0 557.55 845.5">
  <defs>
    <style>
      .cls-1 {
        fill: #d7ff99;
      }

      .cls-2 {
        fill: #ff850b;
      }

      .cls-3 {
        fill: #c1ceeb;
      }
    </style>
  </defs>
  <g id="Layer_1-2" data-name="Layer 1">
    <path class="cls-2" d="M59.31,844.41c.09-.84-.89-1.03-1.5-.76-.55.24-.94.53-.58,1.08-6.61.55-12.47.61-18.77-.57-27.76-9.21-43.04-34.11-37.23-63.17,4.41-22.05,12.44-42.2,24.05-61.63l60.02-100.52,3.78-6.37,35.33-55.6c12.92-20.33,27.4-53.49,25.23-77.96-1.1-12.4-3.85-25.29-10.24-35.97-3.12-5.21-8.32-8.98-12.36-13.61-28.86-33.07-48.12-72.04-55.97-115.38-.44-2.44-.84-4.29-1.18-6.84-10.94-84.2,6.93-166.2,66.82-228.47,13.13-13.65,26.66-26.32,42.52-37.06C236.84,2.56,309.19-10.05,376.39,8.24c53.24,14.49,98.18,46.92,130.95,90.92,22.51,30.23,37.95,64.46,45.17,101.67,8.77,45.15,6.19,90.89-8.54,134.43-12.64,37.35-33.93,70.19-61.2,98.51-45.89,47.67-109.03,75.19-175.53,73.53-21.42-.53-42.51,1.97-60.68,14.35-26.22,17.85-43.92,41.27-54.16,71.54l-19.99,59.12-32.66,95.98c-5.81,17.07-12.92,32.59-21.88,48.09-12.88,22.25-32.81,43.79-58.56,48.04ZM447.93,411.96c29.23-26.71,49.72-60.01,60.93-98.01,16.8-56.95,11.9-117.67-15.09-170.65-26.87-52.77-76.16-91.45-134.26-104.11-51.99-11.33-106.14-1.47-151.25,26.11-39.51,24.16-69.34,59.77-85.72,103.16-10.91,28.89-16.76,58.77-18.16,89.68-2.53,56.02,17.3,109.49,56.71,149.15,25.57,25.73,56.43,44.72,91.27,55.53,72.3,22.43,141.27-1.24,195.56-50.86ZM80.06,771.82c.06-7.12-3.73-12.86-8.87-15.73-6.09-3.4-13-2.93-19.1.84-10.58,6.53-17.08,19.05-16.96,31.65.07,8.09,5.06,14.54,12.51,16.62,18.07,5.05,32.26-15.19,32.42-33.38Z"/>
    <path class="cls-3" d="M59.31,844.41c-.68.11-.77,1.45-1.23.99-.27-.27-.66-.38-.85-.67-.36-.55.03-.84.58-1.08.61-.27,1.59-.08,1.5.76Z"/>
    <path class="cls-1" d="M447.93,411.96c-54.29,49.62-123.26,73.29-195.56,50.86-34.84-10.81-65.7-29.8-91.27-55.53-39.41-39.66-59.24-93.13-56.71-149.15,1.39-30.9,7.25-60.79,18.16-89.68,16.39-43.39,46.21-79,85.72-103.16,45.11-27.58,99.26-37.44,151.25-26.11,58.1,12.66,107.39,51.34,134.26,104.11,26.99,52.99,31.89,113.71,15.09,170.65-11.21,38-31.71,71.3-60.93,98.01ZM277.79,444.78c54.44,5.92,107.06-12.23,147.66-47.18,27.58-23.75,47.19-53.43,58.29-88.15,10.48-32.76,14.18-66.77,6.86-100.7-3.53-16.39-7.58-32.12-14.91-47.34-10.54-21.87-24.98-41.35-42.84-57.88-29.74-27.52-68.45-42.83-108.89-44.72-24.83-1.16-48.4,3.32-71.7,11.87-29.43,10.8-55.4,28.97-75.68,52.97-20.63,24.42-33.38,53.14-41.02,84-4.75,19.19-8.36,37.65-6.96,57.71,5.77,82.7,58.99,169.61,149.19,179.42Z"/>
    <path class="cls-1" d="M80.06,771.82c-.17,18.2-14.35,38.43-32.42,33.38-7.45-2.08-12.44-8.53-12.51-16.62-.12-12.6,6.39-25.12,16.96-31.65,6.1-3.77,13.01-4.25,19.1-.84,5.14,2.87,8.93,8.61,8.87,15.73Z"/>
    <path class="cls-2" d="M277.79,444.78c-90.2-9.81-143.42-96.72-149.19-179.42-1.4-20.06,2.22-38.52,6.96-57.71,7.63-30.86,20.39-59.58,41.02-84,20.28-24,46.25-42.17,75.68-52.97,23.3-8.55,46.87-13.03,71.7-11.87,40.44,1.89,79.16,17.2,108.89,44.72,17.86,16.53,32.3,36.01,42.84,57.88,7.34,15.23,11.38,30.95,14.91,47.34,7.31,33.92,3.61,67.94-6.86,100.7-11.1,34.72-30.71,64.4-58.29,88.15-40.6,34.96-93.23,53.1-147.66,47.18ZM188.25,219.53c8-5.85,14.18-12.39,21.31-19.06l84.09-78.48c4.16-3.88,7.87-7.63,10.27-12.49,2.13-4.31.91-9.23-2.82-11.69-3.05-2.01-7.91-1.59-11.34,1.55l-101.49,92.9c-6.69,6.12-22.61,18.95-12.84,27.15,3.39,2.85,8.49,3.28,12.82.11ZM253.91,204.11c3.78,5.16,12.34,4.62,16.95.41l75.43-68.89c6.44-5.88,22.52-18.71,12.59-27.54-3.62-3.22-9.3-3.61-13.58-.36-11.58,8.81-21.8,18.36-32.69,28.28l-55.27,50.31c-4.7,4.28-7.52,12.2-3.43,17.77Z"/>
    <path class="cls-1" d="M188.25,219.53c-4.33,3.17-9.43,2.73-12.82-.11-9.77-8.2,6.16-21.03,12.84-27.15l101.49-92.9c3.43-3.14,8.29-3.56,11.34-1.55,3.73,2.46,4.96,7.38,2.82,11.69-2.4,4.86-6.11,8.61-10.27,12.49l-84.09,78.48c-7.14,6.66-13.31,13.2-21.31,19.06Z"/>
    <path class="cls-1" d="M253.91,204.11c-4.09-5.57-1.27-13.49,3.43-17.77l55.27-50.31c10.9-9.92,21.11-19.47,32.69-28.28,4.28-3.26,9.96-2.86,13.58.36,9.92,8.82-6.16,21.66-12.59,27.54l-75.43,68.89c-4.61,4.21-13.17,4.75-16.95-.41Z"/>
  </g>
</svg>