<?xml version="1.0" encoding="UTF-8"?>
<svg id="Layer_2" data-name="Layer 2" xmlns="http://www.w3.org/2000/svg" viewBox="0 0 250.95 250.87">
  <defs>
    <style>
      .cls-1 {
        fill: #52ae6a;
      }

      .cls-2 {
        fill: #eae863;
      }
    </style>
  </defs>
  <g id="Layer_1-2" data-name="Layer 1">
    <g>
      <path class="cls-2" d="M250.95,125.43c0,69.27-56.18,125.43-125.47,125.43S0,194.71,0,125.43,56.18,0,125.47,0s125.47,56.16,125.47,125.43ZM189.15,212.29c15.06-9.88,25.48-23.18,32.26-39.31,19.09-45.44,9.15-101.73-27.92-135-19.15-17.19-43.94-25.52-69.45-26.51-9.75-1.23-18.24-.17-27.52,2.8-26.3,8.43-48.66,25.95-62.6,50.09-25.31,43.85-21.45,107,17.73,140.49,19.67,16.81,45.27,26.96,71.22,27.95,23.9.91,46.46-7.5,66.28-20.51Z"/>
      <path class="cls-1" d="M189.15,212.29c-19.82,13-42.38,21.41-66.28,20.51-25.96-.98-51.56-11.14-71.22-27.95C12.46,171.36,8.6,108.21,33.91,64.36c13.94-24.14,36.3-41.66,62.6-50.09,9.28-2.97,17.77-4.04,27.52-2.8,25.51.99,50.3,9.33,69.45,26.51,37.08,33.28,47.01,89.56,27.92,135-6.78,16.13-17.19,29.43-32.26,39.31ZM134.74,204.57c5.6-4.44.98-13.54,4.36-16.65,2.65-2.43,38.41-3.77,37-38.49-1.37-33.63-47.55-32.56-66.4-45.57-2.44-1.68-3.78-4.38-3.72-6.84.17-7.65,11.11-9.59,17.94-9.77,25.9-.7,21.24,20.18,39.24,16.82,3.75-.7,8.01-3.16,10.03-7.56,6.52-14.18-13.14-30.77-31.35-33.67-8.61-1.37-.9-10.74-5.82-18.21-3.46-5.25-19.9-5.76-22.86,1s2.62,16.06-5.85,17.42c-9.8,1.57-20.07,5.13-26.21,13.16-6.51,8.51-7.5,19.29-5.04,29.39,5.78,23.74,44.24,27.66,63.61,38.03,3.42,1.83,5.53,4.58,5.1,8.23-1.26,10.64-22.47,12.24-34.04,6.96-4.01-1.83-6.9-5.08-9.78-8.36-6.25-7.13-17.04-9.01-24.41-2.45-4.38,3.89-4.74,10.5-2.91,15.79,5.82,16.77,24.74,19.47,36.77,23.52,4.11,1.38,0,11.51,4.02,16.18,3.74,4.34,15.74,4.71,20.32,1.08Z"/>
      <path class="cls-2" d="M134.74,204.57c-4.58,3.63-16.58,3.27-20.32-1.08-4.02-4.67.09-14.8-4.02-16.18-12.03-4.05-30.95-6.74-36.77-23.52-1.84-5.3-1.47-11.9,2.91-15.79,7.37-6.55,18.16-4.68,24.41,2.45,2.88,3.28,5.77,6.53,9.78,8.36,11.57,5.27,32.78,3.67,34.04-6.96.43-3.65-1.68-6.4-5.1-8.23-19.37-10.37-57.84-14.28-63.61-38.03-2.46-10.1-1.47-20.88,5.04-29.39,6.14-8.03,16.42-11.59,26.21-13.16,8.47-1.36,2.83-10.53,5.85-17.42s19.4-6.25,22.86-1c4.92,7.47-2.79,16.84,5.82,18.21,18.21,2.9,37.87,19.49,31.35,33.67-2.02,4.4-6.28,6.86-10.03,7.56-18,3.35-13.35-17.52-39.24-16.82-6.83.18-17.77,2.12-17.94,9.77-.06,2.46,1.28,5.16,3.72,6.84,18.85,13.01,65.04,11.94,66.4,45.57,1.41,34.71-34.35,36.05-37,38.49-3.38,3.11,1.24,12.21-4.36,16.65Z"/>
    </g>
  </g>
</svg>