<?xml version="1.0" encoding="UTF-8"?>
<svg id="Layer_2" data-name="Layer 2" xmlns="http://www.w3.org/2000/svg" viewBox="0 0 166.11 104.94">
  <defs>
    <style>
      .cls-1 {
        fill: #cf5e96;
      }

      .cls-2 {
        fill: #fcf4e9;
      }

      .cls-3 {
        fill: #fde267;
      }

      .cls-4 {
        fill: #d5a6cc;
      }

      .cls-5 {
        fill: #f9ce80;
      }

      .cls-6 {
        fill: #ca597a;
      }

      .cls-7 {
        fill: #eb7c34;
      }

      .cls-8 {
        fill: #8a428e;
      }

      .cls-9 {
        fill: #d96260;
      }
    </style>
  </defs>
  <g id="Layer_1-2" data-name="Layer 1">
    <g>
      <path class="cls-4" d="M86.48,104.67c-16.74-1.59-16.81-9.96-30.87-9.11-9.82.59-19.57,1.11-26.08-7.57-1.31-1.75-2.32-3.61-3.4-5.5-4.18-7.34-10.47-6.62-16.92-9.91-7.68-3.92-11.2-12.81-8.08-20.86,2.23-5.73,9.89-6.54,9.95-17.55l.05-10.49c.06-11.03,8.25-16.46,18.03-18.78L47.13.62c4.56-1.09,9.33-.8,13.48,1.27,8.13,4.07,10.21,10.87,26.19,15.47l11.15,3.21c5.75,1.66,11.27,1.47,17.08.13,15.25-3.52,31.81-2.91,43.36,8.8,5.01,5.08,7.7,11.53,7.71,18.67,0,4.66-.13,9.05-.99,13.61-1.46,7.8-5.08,14.61-10.74,20.17-6.4,6.28-13.86,11.05-22.3,14.29-9.48,3.64-19.17,5.94-29.18,7.7-5.52.97-10.89,1.23-16.42.71ZM21.55,42.83c.02.11-.06.28-.03.57-5.43,1.47-16.94,10.07-14.49,16.54.7,1.83,2.83,3.15,4.68,3.54,1.2,1.92,7.15,4.69,9.65,5.32,4.47,1.13,8.99.96,13.53.02,5.2-1.07,10.07-2.3,15.12-4.01,10.46-3.56,20.49-7.6,30.4-12.45,4.2-2.06,8.01-4.41,11.77-7.35-1.09-1.69-2.9-1.6-4.56-2.36,3.14-1.84,6.1-3.22,8.32-5.97-.79-1.31-1.87-2.45-3.06-3.08.57-1.4-.36-3.15-1.15-4.29-3.99-5.7-10.4-4.91-16.21-2.94-.95.32-1.83.58-2.71.52-.16-.2-.65-.24-.87-.63-2.43-4.48-5.41-8.7-8.56-12.88-3.54-4.7-8.03-9.4-14.19-6.28-1.94.98-3.68,2.41-5.41,3.74-5.19,3.98-10.11.24-19,2.99-3.11.96-5.05,3.08-5.44,6.39-.43,3.68-.26,7.36.34,11.09l1.87,11.51ZM97.35,39.59c3.93-3.87,2.67-2.55,7.74-3.48-.72-1.37-2.18-2.08-2.8-3.43s.31-3.01-.71-4.34c-1.29,1.03-2.12,2.8-3.6,2.89l-4.3.27c.19.97,1.02,1.71,1.74,2.36,2.36,2.15.38,4.73,1.92,5.73ZM117.75,42.79c-2.3,1.53-3.77,3.86-4.76,6.34-.81,2.05-3.28,2.74-5.12,1.99-7.35-3.01-12.55-1.85-19.12.63-5.13,1.94-10.1,4.27-14.79,7.49l-8.27,5.68c-1.39.95-2.79,2.21-2.94,4.06-.12,1.53.7,2.93,1.18,4.34,2.69,7.91,10.11-.84,9.93,7.36l-.3,13.08c1.29.57,3.19.63,4.34-.34,1.24-1.04,1.19-4.75,2.23-5.97,6.34,7.03,14.99,5.21,22.62,2.52,1.92-.68,3.81-1.07,5.75-2.26,3.73-2.28,6.56-5.53,7.58-9.95.82-3.55.89-7.15.05-10.74-.21-.89.43-1.04.68-1.32l4.64,5.82c4.33,5.42,10.95,6.71,17.31,5.09,8.13-2.08,18.63-6.93,18-17.27-.24-3.92-1.19-7.75-2.74-11.34-1.85-4.31,3.67-2.51.97-9.55-.81-2.11-2.3-3.77-4.79-3.72-6.04.13-11.98.71-17.92,1.86-3.71.72-12.61,3.24-14.55,6.22ZM53.04,87.01c3.34-8.05.2-4.68,7.68-9.8-1.19-1.37-5.47-1.7-6.32-2.98l-3.51-5.24c-1.43,2.03-1.04,5.06-2.81,6.34l-5.11,3.71,6,2.53,4.07,5.43ZM38.45,86.64c.22-1.93,1.33-2.76,2.88-3.83-1.97-.49-2.91-1.44-3.78-3.16-.53,1.91-1.29,2.99-3.08,3.73.63.96,1.67.72,2.41,1.38.63.57.65,1.35,1.57,1.88ZM125.61,92.68c2.1-6.01,1.34-2.91,4.76-6.31l-3.56-1.38c-1.33-.51-1.63-2.29-2.7-3.48l-1.48,3.72c-.49,1.23-2.25,1.49-3.32,2.58,1.05.91,2.6.82,3.74,1.64s1.4,2.49,2.56,3.23Z"/>
      <path class="cls-8" d="M53.04,87.01l-4.07-5.43-6-2.53,5.11-3.71c1.77-1.28,1.39-4.32,2.81-6.34l3.51,5.24c.85,1.27,5.13,1.6,6.32,2.98-7.49,5.12-4.35,1.75-7.68,9.8Z"/>
      <path class="cls-8" d="M125.61,92.68c-1.17-.73-1.39-2.39-2.56-3.23s-2.69-.73-3.74-1.64c1.08-1.08,2.84-1.34,3.32-2.58l1.48-3.72c1.07,1.18,1.38,2.96,2.7,3.48l3.56,1.38c-3.42,3.4-2.66.31-4.76,6.31Z"/>
      <path class="cls-8" d="M38.45,86.64c-.92-.53-.94-1.31-1.57-1.88-.73-.66-1.78-.43-2.41-1.38,1.79-.74,2.55-1.82,3.08-3.73.88,1.73,1.81,2.68,3.78,3.16-1.56,1.07-2.66,1.91-2.88,3.83Z"/>
      <g>
        <g>
          <path class="cls-3" d="M71.94,26.27c.21,1.48-.62,2.44-1.87,3.31-11.41,7.87-27.65,13.48-41.49,14.6-2.6.21-4.84-.27-7.02-1.34l-1.87-11.51c-.6-3.73-.77-7.42-.34-11.09.39-3.3,2.33-5.42,5.44-6.39,8.88-2.75,13.81.99,19-2.99,1.74-1.33,3.47-2.76,5.41-3.74,6.16-3.12,10.65,1.58,14.19,6.28,3.15,4.18,6.13,8.39,8.56,12.88Z"/>
          <path class="cls-3" d="M92.88,33.61c-.58,1.42-1.72,2.83-3,3.99-7.94,7.18-16.81,13.22-26.73,17.55-12.87,5.62-26.6,8.49-40.59,9.21-3.82.19-7.37-.13-10.84-.86-1.85-.39-3.99-1.71-4.68-3.54-2.46-6.47,9.06-15.07,14.49-16.54,1.91,3.72.72,8.5,4.84,9.26,4.85.88,9.67.75,14.58-.07,11.95-1.99,23.77-6.76,32.35-15.31,3.71-3.69.73-6.82-.48-10.38.88.06,1.77-.2,2.71-.52,5.81-1.97,12.22-2.76,16.21,2.94.79,1.13,1.72,2.88,1.15,4.29Z"/>
          <path class="cls-7" d="M72.8,26.9c1.21,3.55,4.19,6.68.48,10.38-8.59,8.55-20.4,13.32-32.35,15.31-4.91.82-9.73.96-14.58.07-4.11-.75-2.93-5.54-4.84-9.26-.03-.29.05-.47.03-.57,2.18,1.07,4.42,1.55,7.02,1.34,13.84-1.11,30.08-6.73,41.49-14.6,1.26-.87,2.09-1.82,1.87-3.31.21.39.71.44.87.63Z"/>
        </g>
        <path class="cls-1" d="M11.71,63.48c3.48.73,7.02,1.06,10.84.86,13.98-.71,27.72-3.59,40.59-9.21,9.92-4.33,18.8-10.36,26.73-17.55,1.28-1.16,2.42-2.56,3-3.99,1.2.63,2.28,1.77,3.06,3.08-2.22,2.75-5.18,4.12-8.32,5.97,1.66.76,3.47.68,4.56,2.36-3.76,2.94-7.57,5.29-11.77,7.35-9.91,4.85-19.94,8.89-30.4,12.45-5.05,1.72-9.92,2.95-15.12,4.01-4.54.93-9.06,1.11-13.53-.02-2.5-.63-8.45-3.4-9.65-5.32Z"/>
        <path class="cls-8" d="M97.35,39.59c-1.55-1,.44-3.58-1.92-5.73-.72-.66-1.55-1.4-1.74-2.36l4.3-.27c1.49-.09,2.31-1.86,3.6-2.89,1.01,1.33.09,2.99.71,4.34s2.07,2.05,2.8,3.43c-5.08.94-3.81-.39-7.74,3.48Z"/>
        <g>
          <path class="cls-1" d="M138.76,76.58c.27-2.09-1.52-3,.04-4.2,3.79-.78,7.27-2.95,10.4-5.45,2.47-1.97,3.88-4.71,3.74-7.91-.29-6.66-3.74-14.04-7.17-19.76-9.1.34-18.33,1.99-25.82,6.8-2.5-1.16-1.5-2.14-2.22-3.27,1.94-2.98,10.84-5.5,14.55-6.22,5.94-1.15,11.88-1.73,17.92-1.86,2.49-.05,3.98,1.61,4.79,3.72,2.69,7.03-2.83,5.24-.97,9.55,1.55,3.6,2.5,7.43,2.74,11.34.62,10.34-9.87,15.19-18,17.27Z"/>
          <path class="cls-6" d="M88.75,51.74c.38.11.33.45.28.67-.08.33-.59.53-.69.81-.45,1.27-.57,2.53-1.9,3.21.19.2.31.22.45.33l-8.97,4.8c-.46-.38-.27-1.03-.63-1.79-2.96,1.58-9.84,5.72-11.49,8.15-1.75,2.59,1.97,6.51,2.73,8.69.96-.38.63-1,.87-1.7.36-1.06,2.13-2.01,3.32-1.4,5.45,2.83.27,9.69,4.31,12.19.66.41,1.51-.3,2.15-.2,3.96.59,6.24,3.92,8.71,4.26,3.31.46,6.73-.08,9.96-.5.26-.6.17-1.21.2-1.61,1.49-.3,2.99-.78,4.43-1.26-.52.54-.83,1.16-.68,2.07.08.48.66.9.94,1.48-7.63,2.69-16.28,4.52-22.62-2.52-1.04,1.22-.99,4.93-2.23,5.97-1.15.97-3.05.91-4.34.34l.3-13.08c.19-8.2-7.24.55-9.93-7.36-.48-1.41-1.3-2.81-1.18-4.34.14-1.84,1.55-3.1,2.94-4.06l8.27-5.68c4.69-3.22,9.66-5.56,14.79-7.49Z"/>
          <path class="cls-1" d="M114.86,60.28c1.1-.39,2.92,3.62,1.95,5.4-.24.28-.89.43-.68,1.32.84,3.58.78,7.19-.05,10.74-1.03,4.42-3.85,7.67-7.58,9.95-1.94,1.19-3.84,1.59-5.75,2.26-.28-.58-.86-1-.94-1.48-.15-.91.16-1.53.68-2.07,1.96-.65,3.92-1.59,5.66-2.82,6.49-4.59,5.29-12.49,4.14-19.42-.34-2.07.72-3.55,2.56-3.89Z"/>
          <path class="cls-1" d="M114.02,50.73c0,1.79.98,1.74.85,3.54-2.69,1.05-4.95,2.43-7.3.99-5.78-3.53-16.33-.81-20.67,1.51-.14-.11-.26-.14-.45-.33,1.33-.68,1.45-1.94,1.9-3.21.1-.28.6-.48.69-.81.05-.22.1-.56-.28-.67,6.57-2.48,11.77-3.64,19.12-.63,1.83.75,4.3.06,5.12-1.99.14.64.57,1.15,1.03,1.6Z"/>
          <path class="cls-6" d="M116.45,59.99l2.29,1.3c-.49,1.52.36,2.27,1.11,3.29,3.44,4.65,7.69,10.89,14.17,10.43.57-.04.95-.08,1.3-.5.24-.29.12-.89.08-1.32.69-.08,1.34-.07,1.81-.49l1.59-.33c-1.56,1.2.23,2.11-.04,4.2-6.35,1.63-12.98.34-17.31-5.09l-4.64-5.82c.97-1.78-.85-5.8-1.95-5.4.54-.1.96-.3,1.59-.29Z"/>
          <path class="cls-6" d="M119.97,46.06c-.11.15-.14.39-.28.52-.51-.27-.79.6-1.17.7-3.4.89-2.3,1.79-4.49,3.45-.46-.45-.89-.96-1.03-1.6.99-2.48,2.46-4.81,4.76-6.34.72,1.13-.28,2.11,2.22,3.27Z"/>
          <path class="cls-3" d="M138.81,72.38l-1.59.33c-1.84.1-3.7.22-5.57-.46-8.57-3.08-10.45-12.18-15.19-12.26-.63-.01-1.05.19-1.59.29-1.84.34-2.91,1.82-2.56,3.89,1.14,6.93,2.35,14.82-4.14,19.42-1.74,1.23-3.7,2.17-5.66,2.82-1.45.48-2.94.96-4.43,1.26-6.17,1.22-11.02,1.04-15.46-4.38-4.04-4.93-7.15-10.39-9.79-16.25-.41-.92.14-2.06.95-2.61l4.17-2.85,8.97-4.8c4.33-2.32,14.89-5.04,20.67-1.51,2.34,1.43,4.61.06,7.3-.99.75-.29,1.25-.34,1.5-1.44.54-2.38,1.57-4.67,3.32-6.24.14-.13.18-.37.28-.52,7.49-4.81,16.72-6.46,25.82-6.8,3.42,5.72,6.87,13.1,7.17,19.76.14,3.2-1.27,5.93-3.74,7.91-3.14,2.5-6.61,4.68-10.4,5.45ZM122.46,55.52c-.03.08,0,.24.03.32.56,1.56,1.04,3.36,2.28,4.47,1.12,2.43,3.04,4.51,5.23,6.24s4.98,2,7.66,1.21c2.82-.82,5.61-1.8,7.52-3.88,6.15-3.23,2.91-12.5-.42-16.83-1.6-2.09-4.14-2.86-6.68-2.49-5.19.75-18.3,3.67-15.61,10.96ZM106.1,78.88c1.3-.73,2.07-2.13,2.35-3.71.84-4.69-.15-9.68-2.63-13.71-1.59-2.59-4.23-3.46-7.26-3.09-6.65.81-12.83,3.8-18,8.02-3.34,2.73,3.31,11.97,5.52,14.39,1.79,1.97,4.13,3.09,6.84,2.89,3.42-.25,11.37-1.65,13.19-4.79Z"/>
          <path class="cls-9" d="M77.93,61.57l-4.17,2.85c-.81.56-1.36,1.7-.95,2.61,2.63,5.86,5.75,11.32,9.79,16.25,4.44,5.42,9.29,5.6,15.46,4.38-.04.4.06,1.01-.2,1.61-3.23.43-6.64.96-9.96.5-2.47-.34-4.75-3.68-8.71-4.26-.64-.1-1.49.61-2.15.2-4.05-2.5,1.14-9.36-4.31-12.19-1.18-.61-2.96.34-3.32,1.4-.23.69.09,1.31-.87,1.7-.76-2.18-4.49-6.1-2.73-8.69,1.65-2.44,8.53-6.58,11.49-8.15.35.77.17,1.41.63,1.79ZM71.23,70.29c0-.67-.54-1.21-1.21-1.21s-1.21.54-1.21,1.21.54,1.21,1.21,1.21,1.21-.54,1.21-1.21Z"/>
          <path class="cls-9" d="M119.68,46.58c-1.75,1.57-2.78,3.87-3.32,6.24-.25,1.1-.75,1.15-1.5,1.44.13-1.8-.85-1.75-.85-3.54,2.19-1.66,1.09-2.56,4.49-3.45.38-.1.66-.96,1.17-.7Z"/>
          <path class="cls-9" d="M137.21,72.71c-.47.42-1.12.41-1.81.49.04.44.16,1.04-.08,1.32-.35.42-.73.46-1.3.5-6.48.46-10.73-5.77-14.17-10.43-.75-1.02-1.6-1.78-1.11-3.29l-2.29-1.3c4.74.08,6.62,9.18,15.19,12.26,1.87.67,3.74.56,5.57.46Z"/>
          <path class="cls-6" d="M145.16,63.88c-1.9,2.08-4.7,3.06-7.52,3.88-2.67.78-5.43.54-7.66-1.21s-4.11-3.81-5.23-6.24l-.7-1.52c-.49-1.06-.68-2.29-1.58-2.95-.03-.08-.06-.24-.03-.32.22-.52-.24-1.57.25-2,.68-.56,1.35-.99,1.97-1.6,1.13-1.11,2.78-1.49,4.03-2.38,2.05-1.47,8.42-3.31,11.32-2.76.7.13,1.68.99,2.26,1.42,2.36,1.75,3.95,9.72,3.05,12.49-1.52.89-.36,2.15-.17,3.18ZM143.97,54.04c0-1.63-1.32-2.94-2.94-2.94s-2.94,1.32-2.94,2.94,1.32,2.94,2.94,2.94,2.94-1.32,2.94-2.94Z"/>
          <path class="cls-9" d="M106.1,78.88c-1.82,3.14-9.77,4.54-13.19,4.79-2.7.2-5.04-.91-6.84-2.89-2.21-2.43-8.87-11.67-5.52-14.39,5.17-4.22,11.35-7.21,18-8.02,3.03-.37,5.67.5,7.26,3.09,2.48,4.03,3.47,9.02,2.63,13.71-.28,1.59-1.05,2.98-2.35,3.71ZM104.42,76.92c.95-1.32.76-2.99,1.05-4.48.44-2.24.23-4.19-.98-6.24-.04-2.21-1.64-4.81-4.05-5.1-4.77-.57-9.58.81-13.52,3.45-1.26.84-3.23,1.29-3.89,2.78-1.19,2.69.18,5.8,1.72,8.01,1.38.44,1.48,1.43,2.07,2.58.67,1.3,2.25,3,3.88,3.25,4.22.65,11.28-.89,13.7-4.25Z"/>
          <path class="cls-9" d="M145.16,63.88c-.2-1.03-1.35-2.29.17-3.18.9-2.77-.69-10.75-3.05-12.49-.58-.43-1.56-1.29-2.26-1.42-2.9-.55-9.27,1.3-11.32,2.76-1.25.89-2.9,1.27-4.03,2.38-.62.61-1.29,1.04-1.97,1.6-.49.43-.03,1.48-.25,2-2.69-7.3,10.42-10.21,15.61-10.96,2.54-.37,5.08.4,6.68,2.49,3.33,4.33,6.57,13.61.42,16.83Z"/>
          <path class="cls-9" d="M124.76,60.31c-1.24-1.11-1.72-2.91-2.28-4.47.9.66,1.09,1.89,1.58,2.95l.7,1.52Z"/>
          <circle class="cls-5" cx="70.02" cy="70.29" r="1.21"/>
          <circle class="cls-2" cx="141.03" cy="54.04" r="2.94"/>
          <path class="cls-6" d="M104.42,76.92c-2.43,3.36-9.49,4.9-13.7,4.25-1.63-.25-3.21-1.95-3.88-3.25-.59-1.15-.69-2.15-2.07-2.58-1.54-2.2-2.92-5.32-1.72-8.01.66-1.49,2.63-1.94,3.89-2.78,3.93-2.64,8.75-4.01,13.52-3.45,2.41.29,4.01,2.89,4.05,5.1,1.2,2.04,1.42,4,.98,6.24-.29,1.49-.1,3.16-1.05,4.48ZM104.11,69.21c.54-1.39-.41-2.81-1.21-3.45-1.03-.82-2.37-.92-3.49-.15-1.72,1.17-1.51,3.59-.12,4.77,1.54,1.3,3.99.97,4.83-1.17Z"/>
          <path class="cls-4" d="M104.11,69.21c-.84,2.14-3.29,2.47-4.83,1.17-1.39-1.17-1.6-3.59.12-4.77,1.12-.76,2.47-.66,3.49.15.81.64,1.76,2.06,1.21,3.45Z"/>
        </g>
      </g>
    </g>
  </g>
</svg>