<?xml version="1.0" encoding="UTF-8"?>
<svg id="Layer_2" data-name="Layer 2" xmlns="http://www.w3.org/2000/svg" viewBox="0 0 304.17 236.72">
  <defs>
    <style>
      .cls-1 {
        fill: #78ccc7;
      }

      .cls-2 {
        fill: #fcfafa;
      }
    </style>
  </defs>
  <g id="Layer_1-2" data-name="Layer 1">
    <g>
      <path class="cls-1" d="M170.16,199.79c-8.53.62-15.7,1.89-23.08,3.47-13.6,2.89-4.55,20.57-9.35,32.3-1.57,2.3-7.03.62-9.78-.29-10.17-3.34-18.68-10.01-25.6-17.97-14.7-16.91-30.07-.56-55.53-9.69-13.71-4.92-22.89-16.56-27.85-29.96-7.24-19.52-13.54-38.63-16.44-59.35-3.08-22.07-3.69-43.43.17-65.33C6.83,29.52,22.68,10.15,45.29,2.72c13.4-4.4,27.32-3.09,40.53,1.23,8.63,2.82,16.71,4.05,25.88,3.55l74.82-4.08c23.96-1.31,57.34-2.99,78.55,6.04,25.91,11.03,39.94,35.74,39.06,63.64-.95,29.94-2.04,59.01-5.95,88.69-2.45,18.55-16.87,29.99-34.24,31.24l-93.78,6.78ZM262.63,72.09c1.43-8.71.84-17.71-3.89-25.3-8.92-14.29-27.26-15.1-42.44-14.08-2.85.19-4.81,2.46-4.78,5.28l.46,52.87c.02,1.81,1.86,3.74,3.7,3.83,18.04.95,42.93,1.97,46.96-22.6ZM71.28,74.19c3.44,1.66,6.19.13,9.05,1.02.69,2.9-.47,6.49-3.39,7.99-6.46,3.34-14.14-.06-16.41-7.04-3.17-9.75-2.13-27.37,10.57-28.62,4.1-.4,6.47,2.97,9.7,5.62,2.77,2.27,12.04-1.44,12.06-5.08-.92-8.99-10.89-14.27-19.08-15.14-10.97-1.18-20.35,3.91-25.62,13.66-6.41,11.85-6.81,27.24-.41,39.21,6.74,12.61,22.6,16.37,33.69,7.68,2.18,2.41,4.47,3.98,6.93,4.04,9.79.23,5.1-12.31,6.24-29.61.16-2.37-1.94-5.26-4.51-5.24-6.18.04-13.06-1.56-19,.81-3.06,1.22-2.43,9.42.2,10.69ZM202.06,84.25c6.63-12.64,7.11-28.66-.83-40.79-6.17-9.44-17.99-11.97-28.62-9.04-21,5.79-23.45,36.83-12.03,52.75,5.21,7.26,13.52,10.14,22.15,9.4,7.64-.65,15.32-4.67,19.33-12.32ZM144.26,88.43c9.15-12.52,9.42-28.99,3.03-41.92-3.91-7.92-12.03-12.01-19.39-12.63-8.43-.71-16.93,1.36-22.15,8.51-9.54,13.07-10.1,32.43-.3,45.9,8.95,12.3,29.6,12.74,38.8.14ZM253.83,163.77c8.4-2.61,12.66-9.35,12.42-17.26-.59-20.01-29.97-15.71-28.45-24.85.23-1.36,1.25-2.72,3.07-3.21,9.76-2.61,9.93,8.51,18.93,2.6,1.82-1.19,3.42-2.69,3.43-4.67.03-7.35-17.16-16.04-31.3-9.1-6.59,3.24-9.77,9.27-9.54,16.12.22,6.5,4.1,12.24,10.85,14.77l13.89,5.2c2.31.86,3.54,3.12,3.33,5.06-.25,2.31-2.32,3.49-4.92,3.83-10.14,1.32-12.33-11.68-20.08-5.21-1.84,1.54-3.68,3.19-3.57,5.42.4,8.16,15.93,16.29,31.93,11.31ZM192.14,145.49c6.73-2.48,13.64.1,19.76-2.72,3.18-1.47,3.27-10.28-.25-11.31-6.74-1.97-13.34,1.51-19.84.03-1.73-1.11-1.53-5.96-.6-7.88,7.49-2.21,15.86-.02,23.31-3.1,2.99-1.24,2.65-10.16-.3-12.11-11.38-.3-23.85,1.42-35.22,2.02-2.05.11-3.38,2.91-3.36,4.57l.53,48.97c.02,2.2,1.92,4.86,4.44,4.5,11.87-1.68,24.61-1.67,36.27-4.04,2.8-1.97,2.68-11.93-.61-11.89l-24.33.3c-.8-1.65-1.79-6.61.19-7.34ZM99.41,118.74c.76-2.2.72-4.7-.91-6.05-.99-.82-3.08-1.6-4.81-1.23-5.54-1.17-9.12.94-10.69,5.94-4.07,12.99-6.91,26.02-11.76,38.94l-11.28-42.91c-1.27-4.82-13.1-4.85-15.31-2-1.03,1.32-1.15,3.25-.54,5.21l16.05,51.64c1.69,5.42,4.6,7.53,10.67,7.1,2.81-.2,8.71.83,10.08-3.14l18.48-53.48ZM119.06,170.24l.32-54.96c.02-4.09-11.53-4.26-13.9-1.97-.96.93-1.56,2.57-1.58,4.65l-.36,49.99c-.02,2.08.65,3.93,1.77,4.69,2.57,1.74,13.73,1.85,13.75-2.39ZM171.6,158.33c.99-7.48-2.04-13.58-9.36-16.98,6.31-4.3,8.22-10.44,6.64-17.13-3.67-15.47-27.37-13.08-39.87-11.65-2.38.27-3.66,3.2-3.65,5.39l.34,48.98c.02,3.12,1.54,5.86,4.98,5.87,15.23.05,38.58,3.11,40.91-14.48Z"/>
      <path class="cls-2" d="M71.28,74.19c-2.62-1.27-3.25-9.47-.2-10.69,5.95-2.37,12.82-.77,19-.81,2.57-.02,4.67,2.87,4.51,5.24-1.13,17.29,3.55,29.84-6.24,29.61-2.46-.06-4.75-1.63-6.93-4.04-11.08,8.69-26.95,4.92-33.69-7.68s-6-27.35.41-39.21c5.27-9.75,14.65-14.84,25.62-13.66,8.19.88,18.15,6.15,19.08,15.14-.02,3.64-9.29,7.35-12.06,5.08-3.22-2.65-5.6-6.02-9.7-5.62-12.7,1.25-13.74,18.87-10.57,28.62,2.27,6.98,9.95,10.37,16.41,7.04,2.92-1.51,4.08-5.1,3.39-7.99-2.86-.89-5.6.64-9.05-1.02Z"/>
      <path class="cls-2" d="M192.14,145.49c-1.98.73-.99,5.68-.19,7.34l24.33-.3c3.29-.04,3.41,9.92.61,11.89-11.66,2.38-24.41,2.36-36.27,4.04-2.52.36-4.42-2.3-4.44-4.5l-.53-48.97c-.02-1.66,1.31-4.46,3.36-4.57,11.37-.6,23.84-2.31,35.22-2.02,2.95,1.95,3.29,10.87.3,12.11-7.45,3.09-15.82.9-23.31,3.1-.93,1.91-1.13,6.76.6,7.88,6.5,1.47,13.1-2,19.84-.03,3.52,1.03,3.43,9.85.25,11.31-6.12,2.82-13.03.24-19.76,2.72Z"/>
      <path class="cls-2" d="M99.41,118.74l-18.48,53.48c-1.37,3.97-7.27,2.94-10.08,3.14-6.07.43-8.98-1.68-10.67-7.1l-16.05-51.64c-.61-1.96-.49-3.89.54-5.21,2.21-2.85,14.04-2.82,15.31,2l11.28,42.91c4.85-12.91,7.7-25.95,11.76-38.94,1.57-5,5.14-7.11,10.69-5.94,1.73-.36,3.82.41,4.81,1.23,1.63,1.35,1.67,3.84.91,6.05Z"/>
      <path class="cls-2" d="M253.83,163.77c-16,4.98-31.53-3.15-31.93-11.31-.11-2.24,1.73-3.89,3.57-5.42,7.75-6.47,9.94,6.53,20.08,5.21,2.6-.34,4.67-1.52,4.92-3.83.21-1.94-1.02-4.2-3.33-5.06l-13.89-5.2c-6.75-2.52-10.64-8.26-10.85-14.77-.23-6.85,2.95-12.89,9.54-16.12,14.14-6.94,31.33,1.75,31.3,9.1,0,1.98-1.62,3.48-3.43,4.67-9,5.91-9.17-5.21-18.93-2.6-1.82.49-2.84,1.85-3.07,3.21-1.53,9.14,27.85,4.84,28.45,24.85.23,7.92-4.02,14.65-12.42,17.26Z"/>
      <path class="cls-2" d="M119.06,170.24c-.02,4.24-11.18,4.13-13.75,2.39-1.12-.76-1.79-2.61-1.77-4.69l.36-49.99c.02-2.07.62-3.72,1.58-4.65,2.37-2.29,13.92-2.12,13.9,1.97l-.32,54.96Z"/>
      <g>
        <path class="cls-2" d="M262.63,72.09c-4.03,24.57-28.92,23.55-46.96,22.6-1.83-.1-3.68-2.02-3.7-3.83l-.46-52.87c-.02-2.81,1.93-5.09,4.78-5.28,15.18-1.02,33.52-.21,42.44,14.08,4.73,7.58,5.32,16.59,3.89,25.3ZM244.61,75.44c4.87-7.06,4.33-17.2-.9-23.45-4.31-5.15-11.21-6-17.31-5.27l.29,34.1c6.5,1.37,13.77.64,17.91-5.37Z"/>
        <path class="cls-1" d="M244.61,75.44c-4.15,6.01-11.42,6.74-17.91,5.37l-.29-34.1c6.1-.73,13,.12,17.31,5.27,5.23,6.25,5.77,16.4.9,23.45Z"/>
      </g>
      <g>
        <path class="cls-2" d="M171.6,158.33c-2.33,17.59-25.68,14.53-40.91,14.48-3.45-.01-4.96-2.75-4.98-5.87l-.34-48.98c-.02-2.19,1.27-5.12,3.65-5.39,12.5-1.43,36.2-3.82,39.87,11.65,1.59,6.69-.32,12.83-6.64,17.13,7.31,3.4,10.35,9.5,9.36,16.98ZM140.63,137.19c3.44.66,6.15.54,8.95-.26,3.29-.93,4.98-3.37,4.79-6.45-.15-2.41-1.64-4.77-4.64-5.54-3.17-.81-6.39-.67-9.53.47-.42,4.03-.46,7.7.43,11.78ZM152.96,159.65c2.79-1.25,3.77-3.85,3.53-6.14-.71-6.79-12.85-5.91-15.83-3.93-1.48,3.01-.18,7.43.39,10.58,4.04.82,8.04,1.22,11.91-.51Z"/>
        <path class="cls-1" d="M152.96,159.65c-3.87,1.73-7.87,1.33-11.91.51-.56-3.15-1.87-7.57-.39-10.58,2.98-1.98,15.12-2.86,15.83,3.93.24,2.29-.74,4.89-3.53,6.14Z"/>
        <path class="cls-1" d="M140.63,137.19c-.89-4.07-.85-7.74-.43-11.78,3.14-1.15,6.36-1.29,9.53-.47,3,.77,4.49,3.14,4.64,5.54.19,3.08-1.5,5.52-4.79,6.45-2.8.8-5.51.92-8.95.26Z"/>
      </g>
      <g>
        <path class="cls-2" d="M144.26,88.43c-9.21,12.6-29.85,12.16-38.8-.14-9.8-13.47-9.24-32.83.3-45.9,5.22-7.15,13.72-9.22,22.15-8.51,7.36.62,15.47,4.71,19.39,12.63,6.39,12.93,6.12,29.4-3.03,41.92ZM134.77,55.86c-1.24-4.5-4.62-7.5-8.69-7.73s-8.28,1.91-10.05,6.23c-3.71,9.03-2.85,28.95,9.11,28.86,11.27-.09,12.19-18.08,9.63-27.35Z"/>
        <path class="cls-1" d="M134.77,55.86c2.56,9.28,1.64,27.27-9.63,27.35-11.96.09-12.82-19.83-9.11-28.86,1.77-4.32,5.96-6.47,10.05-6.23s7.45,3.24,8.69,7.73Z"/>
      </g>
      <g>
        <path class="cls-2" d="M202.06,84.25c-4.01,7.66-11.7,11.67-19.33,12.32-8.63.74-16.94-2.14-22.15-9.4-11.42-15.92-8.97-46.96,12.03-52.75,10.63-2.93,22.45-.4,28.62,9.04,7.94,12.13,7.46,28.15.83,40.79ZM190.05,54.69c-1.45-4.29-5-7.1-9.13-7.14-3.71-.03-7.87,2.23-9.5,6.35-3.61,9.1-2.58,28.21,8.83,28.59,11.19.37,13.31-17.42,9.81-27.81Z"/>
        <path class="cls-1" d="M190.05,54.69c3.5,10.38,1.38,28.17-9.81,27.81-11.4-.37-12.44-19.49-8.83-28.59,1.64-4.13,5.8-6.38,9.5-6.35,4.13.03,7.68,2.84,9.13,7.14Z"/>
      </g>
    </g>
  </g>
</svg>