<?xml version="1.0" encoding="UTF-8"?>
<svg id="Layer_2" data-name="Layer 2" xmlns="http://www.w3.org/2000/svg" viewBox="0 0 293.5 246.65">
  <defs>
    <style>
      .cls-1 {
        fill: #52ae6a;
      }

      .cls-2 {
        fill: #faf2a0;
      }
    </style>
  </defs>
  <g id="Layer_1-2" data-name="Layer 1">
    <g>
      <path class="cls-1" d="M278.19,226.58c-4,21.69-28.48,20.54-47.95,19.72-21.2-.89-41.24-3.18-62.39-5.39l-135.44-14.17c-6.25-.65-11.66-2.07-17.34-3.82C-1.78,217.74-.86,193.26.93,178.9L20.85,19.36c1.2-9.62,7.28-15.79,16.34-17.62C46.83-.2,56.41-.44,66.44.64l81.52,8.8,111.23,11.2c15.08,1.52,29.57,1.97,33.02,19.13,1.99,9.93,1.38,19.89.1,30.14l-5.85,47.1-4.98,78.79c-.67,10.56-1.41,20.59-3.29,30.79ZM246.89,220.57c4.23-.07,6.76-3.52,7.01-7.13l3.68-52.63c2.5-35.71,6.41-70.43,11.63-105.87.56-3.84,1.01-8.29-.84-11.43-2.02-3.42-6.77-4.54-10.76-5.16-33.32-5.24-66.07-8.2-99.87-10.02l-102.29-5.49c-6.59-.35-11.26,3.07-12.04,10.17l-12.04,109.58c-1.84,16.75-3.36,32.36-2.83,48.95.15,4.69,2.96,8.26,7.47,9.42,5.68,1.47,10.99,2.53,17.14,3.1l165.96,15.41c9.57.89,17.92,1.27,27.79,1.09Z"/>
      <g>
        <path class="cls-2" d="M246.89,220.57c-9.87.17-18.22-.21-27.79-1.09l-165.96-15.41c-6.15-.57-11.46-1.63-17.14-3.1-4.51-1.16-7.32-4.73-7.47-9.42-.53-16.58.99-32.19,2.83-48.95l12.04-109.58c.78-7.1,5.45-10.52,12.04-10.17l102.29,5.49c33.79,1.81,66.55,4.78,99.87,10.02,4,.63,8.74,1.74,10.76,5.16,1.85,3.14,1.41,7.59.84,11.43-5.22,35.43-9.13,70.16-11.63,105.87l-3.68,52.63c-.25,3.62-2.78,7.06-7.01,7.13ZM231.16,202.09c4.39.22,6.08-2.61,6.38-6.65,3.38-44.81,7.1-88.99,13.09-133.6.71-5.3-3.63-7.93-8.44-8.52-58.7-7.21-117.31-10.76-176.48-12.38-3.52-.1-6.11,2.7-6.44,5.93l-5.8,57.87-7.28,71.91c-.48,4.78,3.34,8.44,8.42,9.13,58.65,8.03,117.24,13.32,176.54,16.3Z"/>
        <path class="cls-1" d="M231.16,202.09c-59.3-2.98-117.89-8.27-176.54-16.3-5.08-.7-8.9-4.35-8.42-9.13l7.28-71.91,5.8-57.87c.32-3.24,2.92-6.03,6.44-5.93,59.16,1.62,117.77,5.17,176.48,12.38,4.81.59,9.15,3.22,8.44,8.52-5.99,44.61-9.71,88.79-13.09,133.6-.31,4.04-1.99,6.87-6.38,6.65ZM122.41,173.81c5.01,5.08,11.12,4.85,16.18.96,6.81-5.23,12.63-10.89,19.05-16.91l64.84-60.78c3.07-2.87,4.01-8,1.76-11.27-2.85-4.16-6.42-7.76-10.35-10.73-4.4-3.32-9.68-1.55-13.38,1.97l-62.75,59.89c-1.57,1.49-3.44,2.42-5.07,2.69-1.71.28-3.46-.89-4.91-2.38l-25.58-26.39c-7.26-7.49-16.79,3.21-21.62,9.11-2.82,3.45-2.22,9.18,1.08,12.53l40.75,41.31Z"/>
        <path class="cls-2" d="M122.41,173.81l-40.75-41.31c-3.3-3.34-3.9-9.08-1.08-12.53,4.83-5.9,14.36-16.6,21.62-9.11l25.58,26.39c1.45,1.49,3.2,2.66,4.91,2.38s3.51-1.19,5.07-2.69l62.75-59.89c3.7-3.53,8.98-5.29,13.38-1.97,3.93,2.96,7.5,6.57,10.35,10.73,2.24,3.27,1.3,8.4-1.76,11.27l-64.84,60.78c-6.42,6.02-12.24,11.67-19.05,16.91-5.06,3.88-11.17,4.12-16.18-.96Z"/>
      </g>
    </g>
  </g>
</svg>