<?xml version="1.0" encoding="UTF-8"?>
<svg id="Layer_2" data-name="Layer 2" xmlns="http://www.w3.org/2000/svg" viewBox="0 0 319.63 224.55">
  <defs>
    <style>
      .cls-1 {
        fill: #fcfafa;
      }

      .cls-2 {
        fill: #4b7dbd;
      }
    </style>
  </defs>
  <g id="Layer_1-2" data-name="Layer 1">
    <g>
      <path class="cls-2" d="M141.28,209.74c-33.24,19.12-73.36,24.19-95.89-12.17-3.72-6.01-5.93-12.39-8.98-18.95C22.73,149.25.2,138.65,0,95.38c-.09-19.55,8.12-36.13,24.04-47.84,18.54-13.65,42.15-19.83,65.35-17.6,24.98,2.41,25.28,16.44,48.07,13.34,26.77-3.64,38.41-24.37,58.71-34.32,25-12.26,55.38-11.91,80.16.94,24.97,12.95,41.99,47.71,43.16,74.58,1.49,34.3-8.43,74.91-38.35,95.19-20.56,13.94-39.83,10.2-62.06,5.14-15.6-3.55-31.06-1.96-44.82,5.96l-32.97,18.97ZM291.74,95.16c.85-12.66,2.43-24.43,4.87-36.59.89-4.42-1.05-8.37-5.56-8.89-2.71-.32-6.72,1.5-7.74,5.54-2.94,11.63-3.23,24.17-1.81,36.16.34,2.85,2.58,4.6,4.13,5.47,1.37.77,5.93.96,6.11-1.68ZM257.94,116.07c15.61-1.13,22.02-33.44,12.86-53.61-2.25-4.95-6.7-7.97-11.21-8.47s-8.9,1.84-11.86,5.65c-12.49,16.12-9.97,57.9,10.21,56.43ZM209.76,113.76c3.11,4.5,8.07,6.86,13.01,6.17,15.65-2.19,19.9-34.11,11.37-54.14-3.6-8.44-12.75-10.22-20.78-6.1-11.8,11.81-13.19,40.19-3.6,54.07ZM166.93,126.52c2.01,1.85,4.56,1.99,6.59,1.13,5.52-2.33,1.72-16.35,1.76-22.49,3.44-1.35,7.07-2.28,10.61-2.5.8,7.25-1,21.19,8.03,20.22,7.17-.77,5.35-13.22,5.53-19.53.34-11.87-.06-23.53-2.8-34.92-.88-3.67-3.74-6.9-7.25-7.58-2.02-.39-3.9.18-4.73,1.07-2.99,3.25,1.63,20.92.55,28.07-3.18,1.56-6.72,2.29-10.6,2.42-1.6-8.23,1.64-24.6-8.02-26.78-2.03-.46-3.78-.06-5.1,1.14-.89.8-1.73,2.63-1.62,4.63.82,15.76,1.63,30.99,3.33,46.6.34,3.1,1.28,6.23,3.74,8.5ZM139.14,70.72c-17.64.23-23.94,38.5-8.32,58.61,3.09,3.98,9.49,4.44,13.55,3.3,17.49-4.91,18.11-62.23-5.23-61.92ZM107.43,140.73c19.24-6.08,16.56-63.38-6.27-62.44-17.34.72-17.89,30.5-14.28,44.91,2.55,10.2,10.34,20.75,20.55,17.53ZM26.98,100.21c3.32,14.88,9.68,44.33,19.69,55.08,2.54,2.72,6.53,3.26,9.43,1.85,7.86-3.8,2.39-17.71,3.83-25.03,3.4,6.64,6.27,22.86,17.72,18.79,2.96-1.05,4.33-4.64,4.41-8.37.37-16.81,0-33.29-1.23-50.12-.31-4.25-2.5-8.25-6.4-9.37-1.96-.56-3.76-.07-4.99.71-1.33.84-2.19,2.6-2.04,4.62l3.07,40.25c-5.6-8.17-4.34-31.85-16.13-30.7-10.88,1.06-2.96,23.85-5.96,33.73l-8.01-30.84c-.94-3.61-3.84-6.35-7.66-6.64-2.05-.16-3.85.46-4.74,1.86-.55.86-1.35,2.58-.99,4.17ZM294.26,109.32c0-4.17-3.38-7.55-7.55-7.55s-7.55,3.38-7.55,7.55,3.38,7.55,7.55,7.55,7.55-3.38,7.55-7.55ZM234.88,146.11c9.79-1.52,17.66-2.87,26.76-3.69,3.98-.36,6.36-4.02,5.61-7.37s-3.76-5.05-7.95-4.63c-65.01,6.45-127.67,26.67-184.34,58.94-3.01,1.71-3.02,5.56-1.77,7.76,1,1.75,4.8,4.41,7.61,2.82,47.65-27.05,99.17-45.29,154.08-53.82Z"/>
      <path class="cls-1" d="M234.88,146.11c-54.91,8.53-106.43,26.77-154.08,53.82-2.81,1.6-6.61-1.07-7.61-2.82-1.25-2.2-1.24-6.04,1.77-7.76,56.67-32.27,119.33-52.49,184.34-58.94,4.19-.42,7.24,1.43,7.95,4.63s-1.63,7.01-5.61,7.37c-9.1.83-16.97,2.17-26.76,3.69Z"/>
      <path class="cls-1" d="M166.93,126.52c-2.46-2.26-3.4-5.4-3.74-8.5-1.7-15.61-2.51-30.85-3.33-46.6-.1-2.01.73-3.83,1.62-4.63,1.33-1.2,3.08-1.6,5.1-1.14,9.66,2.18,6.42,18.55,8.02,26.78,3.88-.13,7.42-.85,10.6-2.42,1.08-7.16-3.54-24.82-.55-28.07.83-.9,2.7-1.46,4.73-1.07,3.51.68,6.37,3.91,7.25,7.58,2.74,11.39,3.14,23.05,2.8,34.92-.18,6.3,1.64,18.76-5.53,19.53-9.03.97-7.23-12.97-8.03-20.22-3.54.21-7.17,1.14-10.61,2.5-.04,6.15,3.76,20.16-1.76,22.49-2.03.86-4.58.71-6.59-1.13Z"/>
      <path class="cls-1" d="M209.76,113.76c-9.58-13.88-8.19-42.26,3.6-54.07,8.03-4.11,17.18-2.34,20.78,6.1,8.53,20.02,4.27,51.95-11.37,54.14-4.94.69-9.9-1.67-13.01-6.17ZM222.02,73.38c-8.6-.26-8.96,33.28.08,32.07,6.29-.84,7.08-31.86-.08-32.07Z"/>
      <path class="cls-1" d="M291.74,95.16c-.18,2.64-4.74,2.45-6.11,1.68-1.55-.87-3.79-2.62-4.13-5.47-1.42-11.98-1.13-24.53,1.81-36.16,1.02-4.04,5.03-5.86,7.74-5.54,4.51.52,6.45,4.47,5.56,8.89-2.44,12.15-4.03,23.92-4.87,36.59Z"/>
      <circle class="cls-1" cx="286.71" cy="109.32" r="7.55"/>
      <g>
        <path class="cls-1" d="M26.98,100.21c-.35-1.58.45-3.31.99-4.17.89-1.4,2.69-2.02,4.74-1.86,3.83.29,6.73,3.04,7.66,6.64l8.01,30.84c3.01-9.88-4.92-32.67,5.96-33.73,11.79-1.15,10.53,22.53,16.13,30.7l-3.07-40.25c-.15-2.02.71-3.78,2.04-4.62,1.24-.79,3.04-1.27,4.99-.71,3.9,1.11,6.09,5.11,6.4,9.37,1.22,16.83,1.59,33.31,1.23,50.12-.08,3.73-1.45,7.32-4.41,8.37-11.45,4.07-14.33-12.15-17.72-18.79-1.45,7.31,4.02,21.23-3.83,25.03-2.9,1.4-6.89.87-9.43-1.85-10.01-10.75-16.37-40.21-19.69-55.08ZM49.7,132.86c0-.28-.22-.5-.5-.5s-.5.22-.5.5.22.5.5.5.5-.22.5-.5Z"/>
        <circle class="cls-2" cx="49.2" cy="132.86" r=".5"/>
      </g>
      <path class="cls-2" d="M222.02,73.38c7.16.21,6.37,31.23.08,32.07-9.04,1.21-8.68-32.33-.08-32.07Z"/>
      <g>
        <path class="cls-1" d="M139.14,70.72c23.34-.31,22.71,57.01,5.23,61.92-4.06,1.14-10.46.68-13.55-3.3-15.61-20.11-9.32-58.38,8.32-58.61ZM140.09,86.52c-9.16-.79-7.66,33.55.93,32.37,6.79-.93,5.99-31.78-.93-32.37Z"/>
        <path class="cls-2" d="M140.09,86.52c6.92.59,7.72,31.44.93,32.37-8.59,1.18-10.09-33.16-.93-32.37Z"/>
      </g>
      <g>
        <path class="cls-1" d="M107.43,140.73c-10.2,3.22-17.99-7.33-20.55-17.53-3.61-14.41-3.07-44.2,14.28-44.91,22.83-.94,25.51,56.36,6.27,62.44ZM102.21,94.21c-8.63,1.11-5.81,33.5,1.83,32.67s5.64-33.63-1.83-32.67Z"/>
        <path class="cls-2" d="M102.21,94.21c7.47-.96,9.35,31.85,1.83,32.67s-10.46-31.55-1.83-32.67Z"/>
      </g>
      <g>
        <path class="cls-1" d="M257.94,116.07c-20.18,1.47-22.7-40.31-10.21-56.43,2.95-3.81,7.38-6.15,11.86-5.65s8.96,3.52,11.21,8.47c9.16,20.17,2.75,52.48-12.86,53.61ZM258.27,69.74c-8.51,1.92-8.67,32.32-.26,31.81,7.37-.45,7.89-33.53.26-31.81Z"/>
        <path class="cls-2" d="M258.27,69.74c7.63-1.72,7.11,31.36-.26,31.81-8.41.52-8.25-29.89.26-31.81Z"/>
      </g>
    </g>
  </g>
</svg>