<?xml version="1.0" encoding="UTF-8"?>
<svg id="Layer_2" data-name="Layer 2" xmlns="http://www.w3.org/2000/svg" viewBox="0 0 366.5 456.77">
  <defs>
    <style>
      .cls-1 {
        fill: #faebcc;
      }

      .cls-2 {
        fill: #f6a03d;
      }

      .cls-3 {
        fill: #c44347;
      }

      .cls-4 {
        fill: #f7a23f;
      }

      .cls-5 {
        fill: #f8b55d;
      }
    </style>
  </defs>
  <g id="Layer_1-2" data-name="Layer 1">
    <g>
      <path class="cls-4" d="M86.82,160.42c-2.63,6.31-5.86,11.97-10.1,18.12-19.9,28.86-39.12,58.65-40.43,95.23-1.13,31.55,8.45,63.24,27.17,88.53,30.39,41.06,87,63.08,137.28,60.3,31.95-1.77,62.71-13.42,86.21-34.54,33.14-29.78,46.29-72.09,44.53-115.61-1.39-34.56-11.71-65.76-14.07-99.98,11.3,6.89,7.69,2.98,13.78,4.51,3.13.79,2.96,6.09.65,7.67-2.83,1.95-5.64,2.39-8.81,3.61-2.41.93-1.29,6.76,1.09,6.28,4.06-.82,7.58,0,9.49,3.87,5.88,11.97,15.18.75,20.95,3.96,2.55,18.29,7.28,36.09,9.8,55.08,3.47,26.16,3.09,51.99-3.79,77.25-9.37,34.42-28.84,63.05-56.99,84.79-30.91,23.88-68.49,37.06-108.08,37.28-41.16.22-80.93-11.22-115.78-32.59C31.7,394.72,5.38,342.34.57,287.41c-3.9-44.56,12.76-82.15,37.71-117.37,4.76-6.73,10.28-12.84,14.29-19.48,1.59,1.78,3.01,4.35,5.56,5.54,7.26,3.39,7.82-10.61,15.57-8.71-.3,8.13,5.92,13.75,13.13,13.03Z"/>
      <path class="cls-2" d="M354.56,202.36c-5.77-3.21-15.07,8.01-20.95-3.96-1.9-3.87-5.42-4.69-9.49-3.87-2.38.48-3.5-5.35-1.09-6.28,3.17-1.22,5.98-1.66,8.81-3.61,2.31-1.59,2.48-6.89-.65-7.67-6.09-1.53-2.48,2.38-13.78-4.51-1.09-4.28-3.49-9.08-8.29-10.51-6.21-1.86-11.72,2.12-14.82,7.21l-11.82,19.43c-3,4.93-19.09,30.71-25.53,31.11l-4.34-36.23c-2.54-21.18-4.1-41.76-9.87-62.25-8.93-31.7-31.74-65.72-62.95-77.66-3.59-1.37-7.76-.39-10.35,1.51-6.11,4.49-3.34,17.72-3.76,16.56-2.97,1.43-7.38,1.62-10.23,4.13-3.65,3.22-2.48,11.79,1.25,14.31,2.34,1.58,4.39,1.77,4.59,4.11.45,5.35-6.17,4.5-3.93,10.33,1.24,3.24,8.96.4,12.12,2.19-1.43,27.02-16.7,51.86-36.04,72.51-3.23-11.38-11.56-45.3-21.93-48.25-3.99-1.13-7.29.37-10.96,2.6-8.55,1.02-.96-5.73-15.79-13.2-3.31.26-5.19,3.63-8.17,3.71-4.35.12-6.9,1.97-8.54,5.68-1.41,3.18.27,6.59,3.22,9.18,5.13,4.5,3.49,10.29,6.28,16.67,5.87-.31,10.99-.11,15.98,1.16-1.51,4.77-4.64,8.69-6.71,13.66-7.21.72-13.43-4.9-13.13-13.03-7.74-1.9-8.31,12.09-15.57,8.71-2.55-1.19-3.97-3.76-5.56-5.54,14.25-23.66,9.49-37.66,21.74-55.22,4.56-6.54,9.96-10.2,16.44-13.02,1.01,4.74,16.09,7.88,18.61,7.84,5.01-.08,5.25-5.73,5.15-9.28,2.64.99,4.76,1.44,7.18,2.9-.92,3.37,4.72,3.95,5.91,7.88,1.11,3.67,4.79,5.06,8.36,3.74,4.59-1.69,2.05-11.02-1.45-13.17-1.13-.69-2.63-.05-3.92.3l-3.98-23.9C121.81,30.03,139.23.88,168.45.03c32.72-.96,65.74,24.93,84.4,50.15,17.85,24.12,28.93,49.82,32.2,79.94,9.74-7.61,20.65-10.81,32.29-8.39,21.89,4.55,29.93,28.51,32.68,48.19l4.53,32.44Z"/>
      <path class="cls-4" d="M114.49,80.88c.1,3.54-.14,9.2-5.15,9.28-2.52.04-17.6-3.1-18.61-7.84,7.6-3.3,15.58-4.51,23.76-1.43Z"/>
      <path class="cls-4" d="M121.67,83.78c2.6,1.57,6.03,2.36,8.73,3.8.53.28,1.71.07,2.12-.42.33-.39.19-1.56-.33-2.46-.25-.44-1.12.32-1.63.63.07-.9.14-1.9,0-2.8,1.29-.35,2.8-1,3.92-.3,3.5,2.16,6.04,11.48,1.45,13.17-3.57,1.31-7.25-.07-8.36-3.74-1.19-3.93-6.83-4.51-5.91-7.88Z"/>
      <path class="cls-2" d="M130.41,87.58l.17-2.25c.51-.31,1.37-1.07,1.63-.63.52.9.65,2.07.33,2.46-.41.49-1.59.7-2.12.42Z"/>
      <path class="cls-4" d="M100.55,123.57l-1.99,5.89c-1.95,5.76-3.12,11.25-5.04,17.3-4.99-1.28-10.11-1.48-15.98-1.16-2.79-6.37-1.14-12.17-6.28-16.67-2.95-2.58-4.63-5.99-3.22-9.18,1.64-3.7,4.19-5.56,8.54-5.68,2.98-.08,4.85-3.45,8.17-3.71,14.83,7.47,7.25,14.22,15.79,13.2Z"/>
      <path class="cls-4" d="M165.69,61.64c3.97,11.06,4.44,23.32,3.79,35.07-3.16-1.79-10.88,1.05-12.12-2.19-2.23-5.84,4.39-4.99,3.93-10.33-.2-2.34-2.25-2.53-4.59-4.11-3.73-2.52-4.91-11.09-1.25-14.31,2.85-2.51,7.26-2.7,10.23-4.13Z"/>
      <g>
        <path class="cls-3" d="M317.41,172.46c2.36,34.21,12.68,65.41,14.07,99.98,1.75,43.52-11.39,85.83-44.53,115.61-23.5,21.12-54.26,32.77-86.21,34.54-50.28,2.79-106.89-19.24-137.28-60.3-18.72-25.29-28.3-56.97-27.17-88.53,1.31-36.58,20.53-66.37,40.43-95.23,4.24-6.15,7.47-11.81,10.1-18.12,2.07-4.97,5.2-8.89,6.71-13.66,1.92-6.05,3.09-11.54,5.04-17.3l1.99-5.89c3.66-2.23,6.97-3.73,10.96-2.6,10.38,2.95,18.7,36.86,21.93,48.25,19.34-20.65,34.61-45.5,36.04-72.51.65-11.75.18-24.02-3.79-35.07.42,1.16-2.36-12.07,3.76-16.56,2.59-1.9,6.76-2.89,10.35-1.51,31.21,11.95,54.02,45.96,62.95,77.66,5.77,20.49,7.33,41.07,9.87,62.25l4.34,36.23c6.43-.4,22.52-26.17,25.53-31.11l11.82-19.43c3.1-5.09,8.61-9.07,14.82-7.21,4.8,1.43,7.21,6.23,8.29,10.51ZM143.6,272.58c8.41-19.05,18.41-34.88,31.5-49.56,3.97-4.46,12.81-6.52,16.19-.3,13.88,25.47,20.68,53.79,21.89,82.63.46,10.89,14.86-3.18,17.85-5.3,4.94-3.49,11.39-4.1,15.21.9,8.65,41.66,2.15,77.94-38.02,100.98,25.95-3.12,50.07-15.33,67.95-34.98,14.25-15.66,22.82-35.05,27.09-55.74,7.27-35.25.3-67.67-5.27-102.07-10.05,16.37-21.69,30.11-38.13,38.5-4.95,2.53-10.65,2.94-15.83.2-3.23-1.71-6.89-5.99-8.16-10.94-3.53-13.73-4.95-27.58-6.81-41.78l-6.38-48.62c-2.95-22.5-12.43-43.4-27.77-61.12-.25,28.68-9.05,55.02-25.93,77.5-11.63,15.49-24.58,29.12-37.89,42.91-2.87,2.97-8.37,2.69-11.01.46-7.5-6.34-5.01-24.59-9.83-36.84l-10.26,18.45-15.81,25.23c-7.04,11.23-12.61,22.29-16.75,35.17-13.07,40.7-2.97,90.41,29,119.23,3.82,3.44,7.07,7.45,12.47,9.45-1-3.72-3.33-7-5.15-10.8-11.34-23.71-7.95-49.73,2.53-73.18,4.76-10.66,8.95-20.99,11.38-32.42.85-4.02,4.34-6.72,7.51-7.04,10.59-1.07,11.68,13.38,18.44,19.09ZM145.43,386.69c16.79,8.21,34.33,8.24,50.82,1.31,28.06-11.79,39.92-38.78,35.27-69-5.82,2.71-10.57,5.67-16.54,6.87-8.27,1.66-15.59-3.3-17.37-11.6-1.56-7.29-1.6-14.43-2.34-21.9-1.72-17.34-6.05-33.66-13.19-50.62-16.87,19.93-21.6,36.65-31.38,58.79-1.35,3.05-4.78,4.68-7.51,4.55s-5.41-1.77-6.73-4.5l-7.03-14.56c-6.67,13.23-11.97,23.27-14.67,37.47-4.84,25.44,7.09,51.65,30.67,63.18Z"/>
        <path class="cls-5" d="M143.6,272.58c-6.77-5.71-7.85-20.15-18.44-19.09-3.17.32-6.65,3.02-7.51,7.04-2.43,11.43-6.62,21.76-11.38,32.42-10.48,23.45-13.87,49.47-2.53,73.18,1.82,3.8,4.15,7.07,5.15,10.8-5.4-2-8.65-6.01-12.47-9.45-31.96-28.82-42.07-78.53-29-119.23,4.13-12.87,9.71-23.94,16.75-35.17l15.81-25.23,10.26-18.45c4.82,12.25,2.33,30.5,9.83,36.84,2.64,2.23,8.14,2.52,11.01-.46,13.31-13.79,26.26-27.42,37.89-42.91,16.88-22.48,25.68-48.82,25.93-77.5,15.33,17.73,24.81,38.62,27.77,61.12l6.38,48.62c1.86,14.2,3.28,28.05,6.81,41.78,1.27,4.95,4.93,9.24,8.16,10.94,5.18,2.74,10.89,2.33,15.83-.2,16.44-8.4,28.09-22.14,38.13-38.5,5.57,34.4,12.53,66.82,5.27,102.07-4.27,20.7-12.84,40.08-27.09,55.74-17.88,19.65-42,31.86-67.95,34.98,40.17-23.04,46.67-59.32,38.02-100.98-3.83-5-10.28-4.39-15.21-.9-2.99,2.12-17.39,16.18-17.85,5.3-1.21-28.84-8.01-57.16-21.89-82.63-3.39-6.22-12.22-4.15-16.19.3-13.09,14.68-23.09,30.51-31.5,49.56Z"/>
        <path class="cls-1" d="M145.43,386.69c-23.58-11.53-35.51-37.73-30.67-63.18,2.7-14.19,8-24.23,14.67-37.47l7.03,14.56c1.32,2.74,4.02,4.37,6.73,4.5s6.16-1.5,7.51-4.55c9.78-22.14,14.51-38.86,31.38-58.79,7.14,16.96,11.47,33.28,13.19,50.62.74,7.47.78,14.61,2.34,21.9,1.77,8.3,9.1,13.26,17.37,11.6,5.97-1.2,10.73-4.16,16.54-6.87,4.64,30.22-7.21,57.21-35.27,69-16.49,6.93-34.03,6.89-50.82-1.31Z"/>
      </g>
    </g>
  </g>
</svg>