<svg xmlns="http://www.w3.org/2000/svg" xmlns:xlink="http://www.w3.org/1999/xlink" id="Apple" viewBox="0 0 512 512" width="512"  height="512" ><defs><style>      .st0 {        fill: url(#linear-gradient);      }      .st1 {        fill: #fff;      }    </style><linearGradient id="linear-gradient" x1="250.1" y1="56.5" x2="250.1" y2="454" gradientTransform="translate(0 514) scale(1 -1)" gradientUnits="userSpaceOnUse"><stop offset="0" stop-color="#00d02d"></stop><stop offset=".2" stop-color="#10d93a"></stop><stop offset=".8" stop-color="#3af15d"></stop><stop offset="1" stop-color="#51fe71"></stop></linearGradient><linearGradient id="linear-gradient" x1="250.1" y1="56.5" x2="250.1" y2="454" gradientTransform="translate(0 514) scale(1 -1)" gradientUnits="userSpaceOnUse"><stop offset="0" stop-color="#00d02d"></stop><stop offset=".2" stop-color="#10d93a"></stop><stop offset=".8" stop-color="#3af15d"></stop><stop offset="1" stop-color="#51fe71"></stop></linearGradient></defs><path class="st0" d="M184.7,60l171.1,13.5c89.4,0,44.5,98.4,85.8,82.2l8.5,124c0,89.4-50.9,177.9-140.3,177.9l-184.4-24.3c-89.4,0-48.5,26.1-48.5-63.3l-26.9-132c0-89.4,45.3-177.9,134.7-177.9Z" fill="url(&quot;#linear-gradient&quot;)"></path><path class="st1" d="M256.1,30.6c-123.2,0-223,99.9-223,223.1,0,39.2,10.4,77.8,30,111.7h0l-30.3,116.1,118-31.2h0c108.6,58.2,243.7,17.3,301.9-91.3,58.2-108.6,17.3-243.7-91.3-301.9-32.4-17.3-68.5-26.4-105.3-26.4ZM387.3,384.8c-61.7,61.7-158,72-231.4,24.9l-68.5,18.2,17.5-66.9c-59.3-83.5-39.6-199.3,43.9-258.6,83.5-59.3,199.3-39.6,258.6,43.9,52.4,73.8,43.9,174.6-20.1,238.5Z" fill="#FFFFFF"></path><path class="st1" d="M367.9,312c0,3.7-.3,7.3-.9,10.9-.6,3.7-1.5,7.3-2.7,10.8-2.8,7.8-17.9,17.4-17.9,17.4-10.7,7.1-23.5,10.5-36.4,9.4-3-.3-6-.8-9-1.4-5-1.1-7.5-1.8-7.5-1.8-2.4-.7-8.7-2.7-8.7-2.7-6.3-2-7.7-2.3-7.7-2.3-9.6-2.9-18.8-6.6-27.7-11.3-20.4-11.1-42.6-30.9-42.6-30.9-13.1-11.7-25-24.7-35.5-38.9-5.5-8.3-10.3-17.1-14.3-26.2-.5-1.3-3.2-7.4-3.2-7.4-2.7-6-3.6-8.4-3.6-8.4-1-2.3-2.7-7.2-2.7-7.2-1-2.9-1.8-5.8-2.4-8.7-.5-2.7-.8-5.4-1-8.1-.8-14.2,6.3-29.1,6.3-29.1,7.7-16,15.3-19.7,15.3-19.7,3.4-1.5,6.8-2.8,10.4-3.8,3.5-1.1,7.1-1.8,10.8-2.2,1.1-.1,2.2,0,3.3.3,2.8.8,8.8,11.3,8.8,11.3,1.9,2.8,5.1,8.1,5.1,8.1,3.2,5.2,5.9,9.4,5.9,9.4,2.7,4.2,5.2,8,5.2,8,.5.6,2.9,3.7,2.9,3.7,1.3,1.7,2.5,3.4,3.6,5.3.7,1.3,1.2,2.8,1.3,4.3.2,3.1-4,7.9-4,7.9-2.8,3.2-5.8,6.2-9.1,9-3.2,2.7-6.2,5.6-9.1,8.7-4.2,4.6-4,7.3-4,7.3.2,1.2.5,2.3,1,3.4.9,2,1.5,3.1,1.5,3.1.6,1,2.4,3.6,2.4,3.6,1.8,2.5,1.9,2.8,1.9,2.8,8.1,12.7,17.8,24.4,28.8,34.7,15.9,14.3,37.7,24.8,37.7,24.8.3.1,3,1.6,3,1.6,2.7,1.5,3.8,2,3.8,2,1.1.5,3.2,1.1,3.2,1.1,1.1.4,2.3.6,3.5.6,2.8-.1,6.8-4.8,6.8-4.8,2.7-3.2,5.3-6.5,7.6-10,2.4-3.5,5.1-6.9,7.9-10,4.4-4.6,7.5-4.8,7.5-4.8,1.5,0,3,.3,4.4.8,1.9.9,3.8,1.9,5.6,3,3.4,2,4,2.5,4,2.5,4,2.1,8.5,4.3,8.5,4.3,4.5,2.2,10.1,4.9,10.1,4.9,5.6,2.6,8.6,4.2,8.6,4.2,11.1,4.8,12.1,7.5,12.1,7.5.4,1,.7,2.1.8,3.2Z" fill="#FFFFFF"></path></svg>