<?xml version="1.0" encoding="UTF-8"?>
<svg id="Layer_2" data-name="Layer 2" xmlns="http://www.w3.org/2000/svg" viewBox="0 0 247.87 219.53">
  <defs>
    <style>
      .cls-1 {
        fill: #fdc835;
      }

      .cls-2 {
        fill: #41b8b4;
      }

      .cls-3 {
        fill: #fbfccc;
      }
    </style>
  </defs>
  <g id="Layer_2-2" data-name="Layer 2">
    <g>
      <path class="cls-1" d="M245.69,206.77c-3.72,13.76-23.2,12.96-38.24,12.63l-127.91-2.78c-18.21-.4-35.33-.69-53.22-3.01-18.51-2.4-23.42-14.65-23.73-32.38L.02,33.73C-.23,19.52,2.48,3.72,15.56,1.53,22.6.35,29.28-.04,36.86,0c51.64.28,102.53,2.46,153.96,6.34l33.77,4.27c13.24,1.67,20.2,16.69,20.46,30.37l2.81,147.34c.12,6.52-.54,12.43-2.16,18.45ZM182.97,199.51l40-1.57c4.54-.18,7.66-4.04,7.75-8.57l2.41-113.8c.33-15.72.96-30.48-.29-45.91-.55-6.75-4.61-10.95-11.34-11.5-49.38-4.02-98.08-5.75-147.68-6.25-15.53-.16-29.88-.69-45.04.42-7.76.56-12.49,5.91-12.93,13.76-2.55,45.12-2.98,89.86-2.39,135.21l1.21,24.14c.27,5.39,3.46,9.11,8.89,10.29,8.22,1.78,16.33,2.15,25.13,2.25l134.29,1.53Z"/>
      <path class="cls-3" d="M182.97,199.51l-134.29-1.53c-8.8-.1-16.9-.47-25.13-2.25-5.43-1.18-8.62-4.9-8.89-10.29l-1.21-24.14c-.59-45.35-.16-90.08,2.39-135.21.44-7.85,5.17-13.19,12.93-13.76,15.17-1.1,29.51-.57,45.04-.42,49.6.5,98.3,2.23,147.68,6.25,6.73.55,10.79,4.75,11.34,11.5,1.25,15.43.62,30.19.29,45.91l-2.41,113.8c-.1,4.53-3.21,8.39-7.75,8.57l-40,1.57ZM214.97,133.55l.83-27.19.97-25.15,1.43-35.67c.11-2.71-.22-5.57-1.7-7.36-1.2-1.45-3.27-2.56-6.1-2.7L40.86,26.71c-2.99-.15-5.39.32-6.74,1.76-1.53,1.63-1.63,3.63-1.66,6.16l-.97,95.69c-.03,3.15-.62,6.52.64,9.29.86,1.91-.62,6.6,1.72,8.15,23.1,1.89,45.47,2.18,68.85,2.52l111.03,1.61,1.25-18.34Z"/>
      <g>
        <path class="cls-2" d="M214.97,133.55l-1.25,18.34-111.03-1.61c-23.38-.34-45.75-.64-68.85-2.52-2.33-1.55-.85-6.24-1.72-8.15-1.25-2.77-.67-6.14-.64-9.29l.97-95.69c.03-2.53.13-4.53,1.66-6.16,1.35-1.44,3.75-1.91,6.74-1.76l169.53,8.78c2.83.15,4.91,1.26,6.1,2.7,1.48,1.78,1.81,4.65,1.7,7.36l-1.43,35.67-.97,25.15-.83,27.19ZM167.38,95.57c2.13-1.46,3.39-4.5,3.13-6.43-.2-1.48-1.74-3.9-3.67-5.11-22.42-14.14-45.83-26.35-70.46-36.23-2.65-1.06-6.16-.26-8,.83-2.03,1.2-2.83,3.97-2.87,6.95l-.94,67.91c-.06,4.48,2.39,7.89,7.27,7.79,16-.3,58.75-24.16,75.56-35.71Z"/>
        <path class="cls-3" d="M167.38,95.57c-16.81,11.56-59.56,35.41-75.56,35.71-4.88.09-7.33-3.32-7.27-7.79l.94-67.91c.04-2.98.84-5.74,2.87-6.95,1.84-1.09,5.36-1.89,8-.83,24.64,9.88,48.04,22.09,70.46,36.23,1.93,1.22,3.47,3.63,3.67,5.11.26,1.93-1,4.97-3.13,6.43Z"/>
      </g>
    </g>
  </g>
</svg>