<?xml version="1.0" encoding="UTF-8"?>
<svg id="Layer_2" data-name="Layer 2" xmlns="http://www.w3.org/2000/svg" viewBox="0 0 242.52 230.29">
  <defs>
    <style>
      .cls-1 {
        fill: #fdeb3e;
      }

      .cls-2 {
        fill: #fa791d;
      }
    </style>
  </defs>
  <g id="Layer_2-2" data-name="Layer 2">
    <g>
      <path class="cls-1" d="M185,229.63c-38.09,1.18-74.74.8-112.22-1.23l-37.31-3.57c-14.56-1.39-25.02-11.39-28.42-25.83-3.97-16.83-5.3-33.85-5.65-51.41L.34,93.88l-.34-60.85C2.07,16.12,14.21,1.33,31.67,1.08l38.95-.56L171.47,0c12.02-.06,23.11,1.35,34.35,4.41,17.66,4.81,29.61,18.92,32.13,36.86l3.15,42.42c.99,31.76,2.17,62.74.79,94.36-.88,20.14-2.8,43.7-22.8,47.95-11.19,2.38-21.84,3.25-34.08,3.64ZM214.85,182.91c3.26-45.59,1.98-90.35.22-136.1-.56-14.47-9.21-26.77-24.75-27.2l-92.65-2.54-52.72-.26c-14.35.99-22.88,11.46-23.52,24.87-1.54,32.34-1.58,63.58-.5,95.87l1.38,41.28c.51,15.1,12.92,23.19,28.86,23.32l137.28,1.15c14.06.12,25.42-6.83,26.39-20.38Z"/>
      <path class="cls-2" d="M214.85,182.91c-.97,13.55-12.34,20.5-26.39,20.38l-137.28-1.15c-15.94-.13-28.35-8.22-28.86-23.32l-1.38-41.28c-1.08-32.28-1.04-63.53.5-95.87.64-13.41,9.17-23.88,23.52-24.87l52.72.26,92.65,2.54c15.54.43,24.19,12.73,24.75,27.2,1.77,45.76,3.05,90.51-.22,136.1ZM198.46,111.48c0-44.15-35.8-79.94-79.96-79.94S38.53,67.34,38.53,111.48s35.8,79.94,79.96,79.94,79.96-35.79,79.96-79.94Z"/>
      <g>
        <path class="cls-1" d="M198.46,111.48c0,44.15-35.8,79.94-79.96,79.94s-79.96-35.79-79.96-79.94S74.33,31.55,118.5,31.55s79.96,35.79,79.96,79.94ZM99.75,101.18c5.14-5.98,5.56-14.18,2.25-20.86-1.86-3.76-5.27-5.79-8.9-5.93-3.85-.15-7.4,1.65-9.47,5.29-5.94,10.46-1.3,24.11,7.58,25.07,3.03.33,6.14-.78,8.54-3.57ZM154.1,101.57c4.73-6.39,5.44-15.26,1.25-21.48-2.7-4.01-6.66-5.63-10.74-4.94s-7.17,3.49-8.63,7.93c-2.24,6.83-1.24,14.07,3.75,19.41,3.92,4.2,10.56,4.2,14.36-.93ZM172.99,120.83c-5.15-2.41-8.05-3.59-12.35-4.3-2,7.98-4.61,15.19-9.98,21.27-11.44,12.95-28.84,17.24-45.71,11.67-14.62-4.83-25.68-18.13-28.02-34.72l-12.48,4.34c2.96,10.11,7.24,19.17,14.69,27.19,21.48,23.14,59.14,22.79,80.53-.53,6.59-7.19,9.82-15.95,13.33-24.91Z"/>
        <path class="cls-2" d="M172.99,120.83c-3.52,8.96-6.74,17.72-13.33,24.91-21.39,23.32-59.04,23.67-80.53.53-7.45-8.02-11.73-17.08-14.69-27.19l12.48-4.34c2.34,16.59,13.4,29.88,28.02,34.72,16.87,5.58,34.27,1.28,45.71-11.67,5.37-6.08,7.99-13.28,9.98-21.27,4.3.71,7.21,1.89,12.35,4.3Z"/>
        <path class="cls-2" d="M154.1,101.57c-3.81,5.14-10.44,5.13-14.36.93-5-5.35-5.99-12.59-3.75-19.41,1.46-4.45,4.4-7.22,8.63-7.93s8.04.93,10.74,4.94c4.19,6.22,3.48,15.09-1.25,21.48Z"/>
        <path class="cls-2" d="M99.75,101.18c-2.4,2.79-5.51,3.9-8.54,3.57-8.88-.97-13.52-14.61-7.58-25.07,2.07-3.64,5.62-5.44,9.47-5.29,3.63.14,7.04,2.17,8.9,5.93,3.31,6.68,2.89,14.88-2.25,20.86Z"/>
      </g>
    </g>
  </g>
</svg>