<?xml version="1.0" encoding="UTF-8"?>
<svg id="Layer_2" data-name="Layer 2" xmlns="http://www.w3.org/2000/svg" viewBox="0 0 300.05 196.76">
  <defs>
    <style>
      .cls-1 {
        fill: #fdc835;
      }

      .cls-2 {
        fill: #fcbdc4;
      }

      .cls-3 {
        fill: #e65167;
      }
    </style>
  </defs>
  <g id="Layer_2-2" data-name="Layer 2">
    <g>
      <path class="cls-2" d="M14.7,97.87c-6.82-7.58-12.15-15.95-14.11-25.98-2.83-14.51,4.81-28.38,17.51-35.58,11.79-6.69,25.19-6.41,37.96-1.77,29.91,10.88,56.86,30.71,91.24,41.53,4.39,1.38,8.63,1.79,12.48-1.11,17.86-13.46,33.68-28.56,50.74-43.01l25.99-22.03c12.49-10.58,34.73-14.77,48.09-2.04,15.69,14.96,19.61,38.24,10.99,58.03-4.77,10.95-9.61,20.86-16.49,30.63l-38.33,54.4c-7.84,11.12-17.38,19.82-28.2,27.83-34.32,25.41-75.64,22.6-110.79-.22-13.19-8.56-24.14-18.61-35.5-29.52-17.65-16.94-35.24-33.01-51.57-51.17ZM34.58,91.47l57.93,56.25c25.68,24.93,61.69,39.38,95.35,24.38,13.38-5.96,23.95-15.49,33.54-26.54,17.93-20.67,33.46-42.64,47.71-65.97,8.59-14.06,16.41-33.37,12.29-48.52-3.1-11.41-14.06-17.25-25.14-13.3-7.62,2.72-14.23,7.08-20.25,12.67l-31.55,29.32c-10.26,9.53-20.69,18.05-32.56,25.3-9.44,5.76-19.42,7.34-30.17,4.48-12.93-3.44-24.43-9.22-36.25-15.55l-43.57-23.34c-13.15-7.05-31.01-10.47-39.29.84-9.5,12.97-.3,28.06,11.96,39.97Z"/>
      <path class="cls-3" d="M34.58,91.47c-12.27-11.91-21.46-27-11.96-39.97,8.28-11.31,26.13-7.89,39.29-.84l43.57,23.34c11.82,6.33,23.32,12.11,36.25,15.55,10.76,2.86,20.73,1.29,30.17-4.48,11.87-7.25,22.31-15.77,32.56-25.3l31.55-29.32c6.02-5.59,12.63-9.95,20.25-12.67,11.09-3.96,22.04,1.88,25.14,13.3,4.12,15.15-3.7,34.46-12.29,48.52-14.25,23.33-29.79,45.3-47.71,65.97-9.59,11.05-20.16,20.58-33.54,26.54-33.66,15-69.67.55-95.35-24.38l-57.93-56.25ZM119.29,123.43c21.41,9.32,41.05,11.23,61.23.4l17.03-9.14c19.51-12.34,38.46-24.86,56.61-39.05,4.41-3.45,8.93-7.14,9.61-13.04-7.46,1.62-12.29,6.45-18.08,10.5-21.22,14.84-41.82,29.77-64.27,42.4-13.53,7.61-26.62,9.31-41.4,4.87-16.59-4.98-31.81-11.87-47.44-19.54l-55.76-27.35c6.96,8.04,16.18,13.17,25.21,18.99,18.31,11.82,36.84,22.05,57.27,30.95Z"/>
      <path class="cls-1" d="M119.29,123.43c-20.43-8.9-38.96-19.13-57.27-30.95-9.03-5.83-18.25-10.96-25.21-18.99l55.76,27.35c15.62,7.66,30.85,14.55,47.44,19.54,14.78,4.44,27.87,2.74,41.4-4.87,22.45-12.63,43.06-27.56,64.27-42.4,5.79-4.05,10.62-8.88,18.08-10.5-.68,5.9-5.2,9.59-9.61,13.04-18.15,14.2-37.09,26.71-56.61,39.05l-17.03,9.14c-20.18,10.83-39.82,8.92-61.23-.4Z"/>
    </g>
  </g>
</svg>