<?xml version="1.0" encoding="UTF-8"?>
<svg id="Layer_2" data-name="Layer 2" xmlns="http://www.w3.org/2000/svg" viewBox="0 0 266.19 234.98">
  <defs>
    <style>
      .cls-1 {
        fill: #fdc835;
      }

      .cls-2 {
        fill: #fda622;
      }

      .cls-3 {
        fill: #fdeb3e;
      }

      .cls-4 {
        fill: #fa791d;
      }
    </style>
  </defs>
  <g id="Layer_2-2" data-name="Layer 2">
    <g>
      <path class="cls-4" d="M254.09,43.44l-1.84,32.11c-2.54,22.78-6.27,44.74-10.59,66.68s-8.6,42.26-15.27,63.17c-2.53,7.94-8.7,13.63-17.18,12.92l-46.43-3.87-58.09-7.46c-23.51-3.02-46.19-6.87-68.93-12.87-9.69-2.56-14.78-9.52-13.62-19.99,5.37-48.52,13.31-96.07,21.98-144.7l-20.86,2.18C25.41,19.23,32.79.69,45.29,1.81l14.23-1.81c42.55,2.38,84.15,6.9,126.34,12.87,20.61,2.92,40.03,6.68,59.76,12.19,4.32,1.21,7.29,5.44,7.65,9.34l.83,9.04ZM209.61,191.12l8.71-47.71c5.71-31.3,9.4-62.08,12.09-93.83.48-5.69-2.14-9.59-8.28-10.41L67.45,18.57c-3.69-.49-6.94,3.42-7.52,6.65-8.64,48.31-15.37,96.2-20.68,145.1-.6,5.55,6.52,8.9,11.17,7.81l149.89,19.87c4.69.62,8.4-1.96,9.3-6.87Z"/>
      <path class="cls-2" d="M162.78,214.45c1.68,11.34-4.66,11.23-6.64,17.15-41.3-3.78-82.37-9.47-123.67-16.19-6.34-1.03-12.24-3.09-17.61-5.39-11.7-5.01-16.01-15.59-14.61-27.78,4.65-40.49,10.71-79.95,17.69-120.04l5.32-30.59,20.86-2.18c-8.67,48.63-16.61,96.18-21.98,144.7-1.16,10.47,3.93,17.43,13.62,19.99,22.73,5.99,45.42,9.84,68.93,12.87l58.09,7.46Z"/>
      <path class="cls-1" d="M251.64,175.25c-2.97,13.21-5.56,26.51-11.2,39.37-4.89,11.15-14.63,21.06-27.29,20.32l-57-3.34c1.98-5.92,8.33-5.81,6.64-17.15l46.43,3.87c8.48.71,14.65-4.98,17.18-12.92,6.66-20.91,11.1-42.01,15.27-63.17,1.3-.18,2.46.03,3.19.86,1.25,1.42,5.31,15.79,4.06,22.22-.73,3.72-.9,7.88,2.73,9.94Z"/>
      <path class="cls-3" d="M251.64,175.25c-3.64-2.05-3.46-6.21-2.73-9.94,1.25-6.42-2.81-20.8-4.06-22.22-.73-.83-1.89-1.04-3.19-.86,4.32-21.94,8.05-43.9,10.59-66.68l1.84-32.11c2.02,0,2.87,1.52,4.09,3.05,4.66,5.85,7.18,12.47,7.7,20.05,2.1,30.62-7.3,77.77-14.25,108.7Z"/>
      <g>
        <path class="cls-3" d="M209.61,191.12c-.9,4.91-4.61,7.5-9.3,6.87l-149.89-19.87c-4.65,1.09-11.77-2.26-11.17-7.81,5.31-48.9,12.04-96.79,20.68-145.1.58-3.23,3.82-7.14,7.52-6.65l154.68,20.6c6.14.82,8.76,4.72,8.28,10.41-2.7,31.75-6.38,62.53-12.09,93.83l-8.71,47.71ZM208.58,72.78c0-10.86-8.81-19.67-19.68-19.67s-19.68,8.81-19.68,19.67,8.81,19.67,19.68,19.67,19.68-8.81,19.68-19.67ZM204.25,163.42c-7.88-14.96-15.7-29.66-25.66-43.12-3.68-4.98-9.36-6.4-14-2.51l-12.48,10.46c-2.55,2.13-5.73,3.48-8.81,2.69-2.56-.66-5.76-2.51-7.04-5.52l-10.7-25.22-7-14.96c-1.54-3.29-4.54-5.24-7.95-5.43-2.7-.15-6.41,1.04-8.59,3.57l-29.09,33.68-20.36,25.63c-2.07,2.61-1,6.05.48,8.45,1.35,2.19,3.81,3.33,6.9,3.73l70.57,9.19,65.65,8.43c2.71.35,5.17-.85,6.63-2.14s2.67-4.64,1.47-6.92Z"/>
        <path class="cls-4" d="M204.25,163.42c1.2,2.28-.04,5.65-1.47,6.92s-3.92,2.49-6.63,2.14l-65.65-8.43-70.57-9.19c-3.09-.4-5.56-1.55-6.9-3.73-1.48-2.4-2.55-5.84-.48-8.45l20.36-25.63,29.09-33.68c2.18-2.53,5.89-3.72,8.59-3.57,3.41.19,6.42,2.14,7.95,5.43l7,14.96,10.7,25.22c1.28,3.01,4.48,4.87,7.04,5.52,3.08.79,6.27-.55,8.81-2.69l12.48-10.46c4.64-3.88,10.31-2.47,14,2.51,9.96,13.46,17.78,28.17,25.66,43.12Z"/>
        <ellipse class="cls-4" cx="188.91" cy="72.78" rx="19.68" ry="19.67"/>
      </g>
    </g>
  </g>
</svg>