<?xml version="1.0" encoding="UTF-8"?>
<svg id="Layer_2" data-name="Layer 2" xmlns="http://www.w3.org/2000/svg" viewBox="0 0 336.76 239.79">
  <defs>
    <style>
      .cls-1 {
        fill: #aceff4;
      }

      .cls-2 {
        fill: #fbfccc;
      }

      .cls-3 {
        fill: #3eb9ec;
      }
    </style>
  </defs>
  <g id="Layer_2-2" data-name="Layer 2">
    <g>
      <path class="cls-1" d="M271.19,214.76l.02-15.92c18.58-1.47,35.21-11.67,43.17-28.6,5.02-10.67,5.85-22.77,3.11-34.37-5.95-25.25-29.17-41.98-54.76-42.02-1.51,0-3.2-.37-3.81-1-1.83-1.88,3.53-25.7-14.98-48.05-29.78-35.98-85.59-36.31-115.62-.61-8.07,9.59-12.72,20.73-13.74,33.34-3,1.36-5.92-.14-8.87-.11l-13.8.13c-11.6.11-22.06,7.01-29.51,15.45-6.72,7.61-9.56,16.17-10.1,26.22-.13,2.39-4.36,3.56-6.15,4.29-21.37,8.72-29.99,31.56-20,52.05,7.04,14.45,20.37,23.9,36.97,23.7l50.64-.78.5,10.94,1.45,5.02,1.13,23.11c-6.45-.61-11.59-8.52-12.16-17.34-25.1,1.27-44.84.9-67.79-10.45C15.21,199.04.68,178.27.02,153.66c-.48-17.91,9.24-33.98,24.77-41.99,5.78-2.98,8.55-6.44,11.2-12.18,10.28-22.25,33.4-36.63,57.78-36.62,6.99,0,8.94-3.9,10.89-9.67,6.72-19.97,22.06-36.27,41.7-45.06C180.6-7.17,221.26-.4,249.05,24.38c16.44,14.66,26.33,34.03,26.96,56,7.24,1.87,13.83,2.53,20.34,5.8,29.13,14.66,45.23,46.93,39.13,79.34-2.55,13.53-10.05,25.63-20.06,34.46-13.74,12.1-27.35,14.01-44.23,14.78Z"/>
      <g>
        <path class="cls-3" d="M271.19,214.76c-.01,11.63-8.58,21.83-20.88,22.4l-52.45,2.44c-27.51.34-54.33.48-81.02-2.06l-1.13-23.11c3.8,1.63,7.72,2.02,12.29,2.04l79.85.4,40.81-3.29c4.87-.39,8.09-4.37,7.89-9.23l-1.17-28.4c-.2-4.84-6.8-6.1-10.41-4.94-4.62,1.48-5.81,5.28-5.74,10.38l.28,17.97c-36.89,2.52-73.16,2.31-110.22.85l-1.27-25.04c-1.48-5.11-9.83-4.49-14.5-2.23l.23,25.53-50.64.78c-16.6.2-29.92-9.25-36.97-23.7-9.99-20.49-1.37-43.33,20-52.05,1.79-.73,6.02-1.9,6.15-4.29.55-10.06,3.38-18.62,10.1-26.22,7.45-8.44,17.91-15.34,29.51-15.45l13.8-.13c2.95-.03,5.87,1.48,8.87.11,1.02-12.61,5.67-23.75,13.74-33.34,30.03-35.69,85.83-35.37,115.62.61,18.51,22.36,13.15,46.17,14.98,48.05.61.63,2.3,1,3.81,1,25.59.04,48.81,16.77,54.76,42.02,2.73,11.61,1.9,23.71-3.11,34.37-7.96,16.94-24.59,27.13-43.17,28.6l-.02,15.92ZM209.26,162.02l12.03-11c8.2-7.49,20.09-17.91,14.15-26.3-1.53-2.16-4.28-3.26-7.55-3.14l-19.82.71,2.44-36.61c.4-5.98-4.75-10.05-10.59-9.95l-36.41.6c-3.93.07-9.07,3.28-8.84,7.56l2.18,39.74-21.06-.3c-2.62-.04-4.89,1.26-5.68,2.98-3.25,7.05,3.61,15.46,10.81,21.43l34.84,28.94c4.92,4.09,11.23,3.85,16.07-.18l17.44-14.48Z"/>
        <path class="cls-2" d="M209.26,162.02l-17.44,14.48c-4.85,4.02-11.15,4.27-16.07.18l-34.84-28.94c-7.2-5.98-14.06-14.39-10.81-21.43.79-1.72,3.06-3.02,5.68-2.98l21.06.3-2.18-39.74c-.23-4.28,4.9-7.5,8.84-7.56l36.41-.6c5.84-.1,10.99,3.97,10.59,9.95l-2.44,36.61,19.82-.71c3.26-.12,6.02.98,7.55,3.14,5.94,8.39-5.95,18.8-14.15,26.3l-12.03,11Z"/>
      </g>
      <path class="cls-2" d="M115.7,214.43l-1.45-5.02-.5-10.94-.23-25.53c4.66-2.27,13.01-2.89,14.5,2.23l1.27,25.04c37.05,1.45,73.33,1.67,110.22-.85l-.28-17.97c-.08-5.1,1.11-8.9,5.74-10.38,3.61-1.16,10.21.1,10.41,4.94l1.17,28.4c.2,4.86-3.02,8.84-7.89,9.23l-40.81,3.29-79.85-.4c-4.57-.02-8.49-.42-12.29-2.04Z"/>
    </g>
  </g>
</svg>