<?xml version="1.0" encoding="UTF-8"?>
<svg id="Layer_2" data-name="Layer 2" xmlns="http://www.w3.org/2000/svg" viewBox="0 0 337.7 248.83">
  <defs>
    <style>
      .cls-1 {
        fill: #fdc835;
      }

      .cls-2 {
        fill: #6eca6b;
      }

      .cls-3 {
        fill: #fdeb3e;
      }

      .cls-4 {
        fill: #fa791d;
      }
    </style>
  </defs>
  <g id="Layer_2-2" data-name="Layer 2">
    <g>
      <g>
        <path class="cls-2" d="M234.47,199.88c-15.23,21.71-40.31,34.73-67.08,34.48-18.98-.17-32.74-7.25-36.4-5.97-.8.28-1.53,1.49-1.59,3.02l-.35,9.81c-.12,3.21-2.1,5.62-4.52,6.8-6.24,3.04-13.26-2.7-15.92-12.9-3.02-11.55-6.37-22.38-12.08-32.94-1.15-2.13-.87-6.08,1.99-6.73l52.03-11.81c7.72-1.75,15.44-.74,16.56,4.49,1.85,8.67-15.33,12.82-23.92,19.6,28.19,11.57,51.95,4.98,71.78-18.07,6.27,4.28,11.62,6.97,19.52,10.22Z"/>
        <g>
          <path class="cls-3" d="M313.57,72.61c-1.46,4.84,1.68,7.51,6.3,9.34,1.34,1.57-.31,5.39-1.05,7.6,13.87,22.84,11.36,52.37-8.21,71.41-26.81,26.09-71.68,22.25-94.73-7.07-10.75-13.68-14.89-30.37-11.29-47.28l-5.11-3.37c-1.21-.8-1.42-2.81-3.17-3.08l4.79-10.07c10.34-15.47,24.95-27.65,42.83-33.66,24.74-8.32,51.17-2.02,69.64,16.17ZM252.79,110.2c4.63-4.8,5.04-13.09.97-18.27-3.32-4.22-9.96-2.98-12.62,1.36-3.03,4.94-3.07,11.29.26,15.86,2.74,3.76,7.64,4.95,11.4,1.05ZM290.51,112.64c4.29-5.09,4.96-12.91.79-18.16-1.62-2.03-4.35-2.81-6.44-2.69s-4.38,1.31-5.84,3.49c-5.14,7.67-2.44,18.48,4.04,19.92,2.7.6,5.51-.25,7.46-2.56ZM296.69,124.96l-5.48,11.5c-8.03,10.96-21.53,15.56-34.71,11.6-11.89-3.57-20.97-14-22.12-27.68-3.85-.52-6.96.42-9.85,2.21,2.9,22.73,23.04,37.97,45.74,35.85,17.56-1.64,31.18-13.63,34.91-30.72-1.57-2.06-6.72-4.14-8.49-2.76Z"/>
          <path class="cls-1" d="M196.3,100.16c1.76.26,1.97,2.28,3.17,3.08l5.11,3.37c-3.6,16.9.54,33.6,11.29,47.28,23.05,29.32,67.91,33.16,94.73,7.07,19.57-19.04,22.08-48.57,8.21-71.41.75-2.22,2.4-6.04,1.05-7.6-4.63-1.83-7.77-4.5-6.3-9.34,29.37,28.94,35.73,81.59-2.41,108.08-27.82,19.32-66.84,17.68-93.45-3.57-23.48-18.75-33.65-51.21-21.4-76.95Z"/>
          <path class="cls-4" d="M296.69,124.96c1.77-1.38,6.92.7,8.49,2.76-3.73,17.09-17.34,29.08-34.91,30.72-22.7,2.12-42.84-13.12-45.74-35.85,2.89-1.79,6-2.73,9.85-2.21,1.15,13.67,10.23,24.11,22.12,27.68,13.18,3.96,26.68-.65,34.71-11.6l5.48-11.5Z"/>
          <path class="cls-4" d="M290.51,112.64c-1.94,2.31-4.75,3.16-7.46,2.56-6.48-1.44-9.18-12.25-4.04-19.92,1.46-2.18,3.73-3.37,5.84-3.49s4.82.66,6.44,2.69c4.17,5.25,3.5,13.07-.79,18.16Z"/>
          <path class="cls-4" d="M252.79,110.2c-3.75,3.89-8.65,2.71-11.4-1.05-3.33-4.57-3.29-10.92-.26-15.86,2.66-4.34,9.3-5.58,12.62-1.36,4.07,5.18,3.66,13.47-.97,18.27Z"/>
        </g>
      </g>
      <g>
        <path class="cls-3" d="M138.96,87.23c-2.81.37-6.95,1.92-6.07,5.12,7.44,27.02-4.31,54.8-29.42,67.24-19.72,9.77-42.86,9.84-62.25-1.1-20.62-11.63-32.09-34.64-29.2-57.91-3.25-2.11-6.29-3.18-9.4-3.59,3.99-14.02,11.1-25.77,21.63-35.48,23.14-21.36,55.69-27.05,83.37-11.04,14.55,8.42,24.58,22.05,31.33,36.76ZM60.71,98.18c4.15-5.32,4.27-13.07-.07-17.93-2.25-2.52-5.92-2.58-8.85-1.11-5.58,2.79-7.37,13.89-2.53,19.34,3.12,3.52,8.22,3.85,11.46-.3ZM98.26,99.81c5.15-6.75,3.29-18.32-3.77-20.18-2.47-.65-5.46-.21-7.18,1.78-3.92,4.54-4.57,10.9-2.25,16.31,1.2,2.78,3.71,4.45,5.97,4.82s5.43-.38,7.23-2.74ZM104.32,111.75c-2.09,7.35-4.88,13.8-10.38,18.19-9.66,7.7-22.07,9.85-33.64,4.54-9.41-4.32-16.98-13.85-18.49-25.56-3.25-.13-5.94.68-9.14,2.24,2.51,20.08,19.21,34.72,39.62,35.31,20.51.59,37.5-12.75,41.17-32.59-3.27-1.12-5.84-2.42-9.13-2.13Z"/>
        <path class="cls-1" d="M138.96,87.23c5.26,11.47,8.16,24.09,6.56,37.44-5.68,47.51-59.01,67.78-100.53,53.1C11.51,165.92-7.24,131.72,2.63,97c3.11.41,6.14,1.48,9.4,3.59-2.89,23.28,8.58,46.29,29.2,57.91,19.39,10.93,42.53,10.87,62.25,1.1,25.11-12.44,36.85-40.22,29.42-67.24-.88-3.2,3.26-4.75,6.07-5.12Z"/>
        <path class="cls-2" d="M191.72,43.36c-20.08-7.94-41.89-2.34-56.92,13.81-4.88-4.83-8.73-9.87-15.36-13.86,15.15-16.92,36.32-24.63,58.9-23.36l19.51,2.11-2.1-14.45c-.42-2.87,1.35-5.34,3.49-6.63,4.93-2.97,10.45,1.15,13.8,7.81l17.07,33.85c-7.92,7-15.2,13.68-24.14,18.44s-22.02,9.49-25.94,4.14c-1.45-1.98-.76-4.49.62-6.41l11.07-15.46Z"/>
        <path class="cls-4" d="M104.32,111.75c3.29-.29,5.86,1,9.13,2.13-3.67,19.84-20.66,33.19-41.17,32.59-20.41-.59-37.1-15.22-39.62-35.31,3.2-1.55,5.88-2.36,9.14-2.24,1.51,11.7,9.08,21.24,18.49,25.56,11.57,5.31,23.98,3.16,33.64-4.54,5.5-4.39,8.29-10.84,10.38-18.19Z"/>
        <path class="cls-4" d="M98.26,99.81c-1.8,2.36-4.86,3.13-7.23,2.74s-4.78-2.04-5.97-4.82c-2.33-5.41-1.67-11.77,2.25-16.31,1.72-2,4.71-2.43,7.18-1.78,7.06,1.86,8.92,13.43,3.77,20.18Z"/>
        <path class="cls-4" d="M60.71,98.18c-3.23,4.15-8.34,3.82-11.46.3-4.84-5.46-3.05-16.55,2.53-19.34,2.94-1.47,6.6-1.41,8.85,1.11,4.34,4.87,4.22,12.61.07,17.93Z"/>
      </g>
    </g>
  </g>
</svg>