<?xml version="1.0" encoding="UTF-8"?>
<svg id="Layer_2" data-name="Layer 2" xmlns="http://www.w3.org/2000/svg" viewBox="0 0 190.8 201.85">
  <defs>
    <style>
      .cls-1 {
        fill: #fda622;
      }

      .cls-2 {
        fill: #fa791d;
      }
    </style>
  </defs>
  <g id="Layer_2-2" data-name="Layer 2">
    <path class="cls-1" d="M47.24,113.77c.39-.37.7-.85.92-1.55.92-2.93.17-6.19.12-9.18-.19-11.11-.37-22.22-.56-33.33-.12-7.38-.25-14.76-.37-22.14-.18-10.68,7.02-19.16,17.47-21.85L162.26.64c11.47-2.95,21.61,4.66,22.27,16.01l2.03,35.03,4.18,92.69c1.46,32.33-27.56,52.81-59.08,49.74-15.33-1.5-27.86-10.62-34.39-24.94-8.1,16.87-27.45,28.92-45.75,32.02-23.01,3.89-44.6-9.76-50.34-32.15-5.89-22.98,10.97-42.58,32.66-50.24,3.34-1.18,6.69-2.36,10.03-3.54,1.34-.47,2.53-.69,3.37-1.48ZM157.64,53.32l2.41,64.57c.07,1.89-1.13,3.95-2.12,4.68-3.9,2.86-21.38-4.65-37.13,8.09-10.17,8.23-14.9,21.54-8.9,33.48,7.65,15.23,30.54,16.36,47.49,6.34,12.21-7.22,18.13-19.57,17.36-34.08l-1.11-20.9-.81-15.04-4.17-73.79c-.21-3.79-2.53-7.61-4.74-9.1-2.85-1.92-6.72-2.61-10.15-1.57l-68.81,20.89-18.57,6.87,1.4,81.66c.04,2.26-1.01,4.27-2.18,4.88-4.45,2.35-22.97-6.61-40.4,8.79-9.03,7.98-12.72,20.19-7.52,31.31,8.81,18.85,41.47,16.45,59.08-3.68,5.95-6.8,7.82-15.16,7.34-24.29l-3.08-58.87c-.22-4.2,1.22-7.7,5.7-9.07l68.9-21.16ZM119.94,112.9l19.5-7.29-.65-28.02-36.36,10.91,1.17,38.36c4.35-6.35,9.48-11.39,16.34-13.96Z"/>
    <path class="cls-2" d="M157.64,53.32l-68.9,21.16c-4.48,1.38-5.92,4.87-5.7,9.07l3.08,58.87c.48,9.13-1.39,17.49-7.34,24.29-17.61,20.13-50.27,22.54-59.08,3.68-5.2-11.12-1.51-23.33,7.52-31.31,17.43-15.39,35.96-6.44,40.4-8.79,1.17-.62,2.22-2.62,2.18-4.88l-1.4-81.66,18.57-6.87,68.81-20.89c3.43-1.04,7.3-.35,10.15,1.57,2.21,1.49,4.53,5.31,4.74,9.1l4.17,73.79.81,15.04,1.11,20.9c.77,14.51-5.16,26.86-17.36,34.08-16.94,10.02-39.84,8.89-47.49-6.34-6-11.94-1.27-25.26,8.9-33.48,15.75-12.74,33.24-5.23,37.13-8.09.99-.73,2.19-2.79,2.12-4.68l-2.41-64.57Z"/>
    <path class="cls-1" d="M119.94,112.9c-6.87,2.57-12,7.6-16.34,13.96l-1.17-38.36,36.36-10.91.65,28.02-19.5,7.29Z"/>
  </g>
</svg>