<?xml version="1.0" encoding="UTF-8"?>
<svg id="Layer_2" data-name="Layer 2" xmlns="http://www.w3.org/2000/svg" viewBox="0 0 291.99 240.01">
  <defs>
    <style>
      .cls-1 {
        fill: #6eca6b;
      }

      .cls-2 {
        fill: #fbfccc;
      }

      .cls-3 {
        fill: #fdeb3e;
      }
    </style>
  </defs>
  <g id="Layer_2-2" data-name="Layer 2">
    <g>
      <path class="cls-1" d="M257.07,210.23l-52.37.57c-.68,7.33-.71,14.77-5.92,20.64-5.14,5.8-13.29,9.06-21.81,8.51l-142.48-9.2c-5.86-.38-10.92-3.78-13.17-7.67-3.03-5.25-2.37-11.59,1.06-16.28l15.44-21.11-17.95-2.6C8.14,180.22-.64,170.33.04,157.65l3.53-65.65c.76-14.05,11.77-24.4,25.73-23.86l32.15,1.25,7.26-56.95c1.03-8.07,7.51-13.06,15.66-12.38l127.65,10.61c6.39.53,11.48,5.39,11.21,11.04l-1.2,25.02,8.61.81c5.03.47,10.57,3.56,11.49,9l-.18,21.31,10.03,1.29c10.1.93,18.83,6.22,23.69,15.22,10.1,6.27,15.22,16.49,16.32,28.58l-2.46,61.33c-.64,16.08-15.17,25.77-32.47,25.96ZM77.52,66.32c-.21,4.46,3.57,8.34,8.79,8.76l120.83,9.9,2.51-49.71c-.63-.9-.48-1.93-.32-2.97.11-.57.25-.94-.12-1.61.73-1.14.99-6.14-1.6-6.38l-114.28-10.64c-4.17-.39-9.2.99-9.83,5.42l-5.64,39.58-.35,7.64ZM52.31,99.71c0-4.89-3.96-8.85-8.85-8.85s-8.85,3.96-8.85,8.85,3.96,8.85,8.85,8.85,8.85-3.96,8.85-8.85ZM234.22,119.9c0-7.35-5.96-13.3-13.31-13.3s-13.31,5.96-13.31,13.3,5.96,13.3,13.31,13.3,13.31-5.96,13.31-13.3ZM185.05,216.5l8.93-49.67c.73-4.06-5.8-6.63-9.42-6.86l-101.25-6.6c-2.98-.19-8.26-.04-9.89,2.6l-31.3,50.57c-1,1.62-.95,3.86-.41,5.19s2.23,2.37,4.39,2.53l127.94,8.98c5.02.35,10.1-1.65,11.01-6.73Z"/>
      <path class="cls-2" d="M185.05,216.5c-.91,5.07-5.99,7.08-11.01,6.73l-127.94-8.98c-2.16-.15-3.83-1.16-4.39-2.53s-.59-3.56.41-5.19l31.3-50.57c1.63-2.63,6.91-2.79,9.89-2.6l101.25,6.6c3.62.24,10.15,2.81,9.42,6.86l-8.93,49.67ZM169.15,183.45c3.02.26,4.91-2.86,5.07-4.38.18-1.65-1.7-4.27-4.39-4.45l-84.03-5.52c-1.92-.13-4.02,2.12-4.38,3.29s1.74,3.72,3.57,3.88l84.15,7.18ZM165.88,202.25c.05-1.24-1.43-4.07-3.45-4.2l-90.32-5.9c-2-.13-4.08,2.85-3.94,4.16.17,1.52,1.95,3.26,4.2,3.45l74.33,6.33c9.06.77,18.94,1.61,19.17-3.85Z"/>
      <path class="cls-2" d="M209.22,30.69l.12,1.61c-.17,1.04-.32,2.07.32,2.97-.92-.09-1.51.52-1.63,1.51l-4.57,39.38-105.13-6.21c-7.57-.45-14.31-.59-20.81-3.63l.35-7.64,5.64-39.58c.63-4.43,5.66-5.81,9.83-5.42l114.28,10.64c2.58.24,2.32,5.24,1.6,6.38Z"/>
      <path class="cls-3" d="M77.52,66.32c6.5,3.05,13.24,3.19,20.81,3.63l105.13,6.21,4.57-39.38c.12-.99.7-1.6,1.63-1.51l-2.51,49.71-120.83-9.9c-5.22-.43-9-4.3-8.79-8.76Z"/>
      <ellipse class="cls-2" cx="220.91" cy="119.9" rx="13.31" ry="13.3"/>
      <circle class="cls-2" cx="43.46" cy="99.71" r="8.85"/>
      <path class="cls-3" d="M209.34,32.3l-.12-1.61c.37.67.23,1.04.12,1.61Z"/>
      <path class="cls-3" d="M165.88,202.25c-.23,5.46-10.12,4.62-19.17,3.85l-74.33-6.33c-2.25-.19-4.03-1.93-4.2-3.45-.14-1.31,1.94-4.29,3.94-4.16l90.32,5.9c2.03.13,3.51,2.97,3.45,4.2Z"/>
      <path class="cls-3" d="M169.15,183.45l-84.15-7.18c-1.83-.16-3.93-2.7-3.57-3.88s2.46-3.42,4.38-3.29l84.03,5.52c2.69.18,4.56,2.79,4.39,4.45-.16,1.52-2.05,4.63-5.07,4.38Z"/>
    </g>
  </g>
</svg>