<?xml version="1.0" encoding="UTF-8"?>
<svg id="Layer_2" data-name="Layer 2" xmlns="http://www.w3.org/2000/svg" viewBox="0 0 340.49 144.31">
  <defs>
    <style>
      .cls-1 {
        fill: #9ad8f3;
      }

      .cls-2 {
        fill: #4774d0;
      }

      .cls-3 {
        fill: #fbf9fd;
      }

      .cls-4 {
        fill: #fbfccc;
      }
    </style>
  </defs>
  <g id="Layer_2-2" data-name="Layer 2">
    <path class="cls-4" d="M239.11,144.31c-7.03,0-14.13-.88-21.13-2.63-12.35-3.08-23.32-9.21-33.52-18.74-6.06-5.67-10.58-11.82-14.02-18.25-5.26,10.77-13.32,20.11-23.44,26.89-10.59,7.09-22.27,11.01-35.7,11.99-2.4.17-4.82.26-7.19.26-13.12,0-25.3-2.6-36.21-7.72-9.88-4.64-18.45-10.54-25.62-17.64-3.44.93-7.08,1.54-10.87,1.54-10.28,0-19.43-4.53-25.74-12.76l-.57-.75-.5-.8C.37,98.96.16,92.27.05,88.68l-.03-.76c-.42-10.7,4.08-20.56,12.21-27.17-2.48-9.29-5.73-29.51,7.98-42.49C32.19,6.92,49.9,3.2,59.4,2l9.62-1.22,13.82-.63c2.02-.09,4.2-.14,6.46-.14,7.72,0,16.49.55,24.06,1.5l5.19.65c9.03,1.14,17.67,3.66,26.41,7.7,6.53,3.02,12.13,6.79,16.92,11.42h10.34c3.94-3.77,7.98-6.3,11.17-8.08,14.25-7.97,28.53-10.09,39.39-11.04,5.33-.47,11-.71,16.88-.71,11.12,0,39.42.99,62.05,10.14,4.75,1.92,8.95,4.41,13.21,7.84,8.65,6.96,13.07,17.56,12.44,29.85-.2,3.86-.67,7.59-1.3,11.15,2.55,1.84,5.07,4.09,7.32,6.88,7.01,8.68,8.97,20.91,5.25,32.72l-.46,1.47-.68,1.38c-5.68,11.49-16.19,18.07-28.83,18.07-3.69,0-7.23-.54-10.59-1.35-6.85,7.17-14.6,12.79-23.18,16.75-11.4,5.28-23.44,7.96-35.78,7.96ZM220.94,71.06c.79,3.44,2.48,6.12,5.49,8.81,3.73,3.34,8.61,5.18,13.74,5.18h0c3.69,0,7.24-.97,10.33-2.81l1.55-1.32,3.15-10.36h3.71c.54-1.33.96-2.54,1.16-3.35l.25-3.58c-3.36-1.15-10.02-2.58-20.76-2.58-3.72,0-6.69.18-8.53.33-3.74.31-7.13,1.06-10.35,2.28l.28,7.39ZM77.43,60.55c.08.44.18.95.31,1.53.15.65.29,1.29.42,1.91.17.79.4,1.88.51,2.17,5.36,12.93,12.52,16.01,18.82,17.32,1.93.4,3.25.58,4.29.58.28,0,.54-.01.8-.04,4.52-.48,7.54-1.31,9.23-2.52,2.62-1.88,3.05-2.49,3.11-2.59,1.86-3.5,2.12-5.27,2.15-5.73.28-3.72.11-6.66-.56-9.21-.04-.04-.1-.08-.17-.13-2.71-1.86-5.56-2.98-8.73-3.43l-8.71-1.24c-1.44-.21-3.09-.31-5.03-.31-2.91,0-6.08.22-9.43.46l-.39.03c-2.52.18-4.65.56-6.63,1.19Z"/>
    <path class="cls-2" d="M198.12,108.33c-12-11.21-15.92-25.73-18.47-41.63l-21.4-.27c.03,3.72.11,6.82-.7,10.15.57,2.19-.48,3.91-.79,5.84-2.13,13.31-9.77,25.1-20.88,32.54-8.01,5.37-16.46,7.97-26.02,8.66-11.39.83-23.08-.74-33.45-5.61-11.25-5.28-20.86-12.72-27.96-23.32-9.73,4.43-20.15,9.18-26.9.39-1.53-2.44-1.43-5.21-1.54-7.95-.2-5.2,2.17-9.39,6.49-12.02,3.06-1.87,5.87-3.87,9.67-5.06l-4.01-12.43c-2.5-7.75-3.82-19.5,1.81-24.84,6.88-6.51,18.47-9.74,27.95-10.95l8.82-1.12,13.01-.6c8.26-.38,18.79.18,27.11,1.23l5.19.65c7.2.91,13.94,2.97,20.52,6.01s11.99,7.27,16.18,13.25l28.95.03c2.8-4.85,6.75-8.01,11.46-10.65,9.77-5.47,20.23-7.59,31.38-8.57,20.96-1.84,50.32.23,69.68,8.05,3.06,1.24,5.62,2.82,8.18,4.89,3.93,3.16,5.26,8.13,5,13.24-.37,7.17-1.97,14.01-3.87,20.89-.47,1.69.43,2.31,1.76,2.87,4.54,1.9,9.36,3.92,12.55,7.86s3.16,9.64,1.74,14.14c-5.63,11.39-17.45,6.19-28.44,2.4-6.36,9.39-14.47,17.09-24.64,21.8-13.9,6.44-28.84,7.77-43.67,4.07-9.42-2.35-17.42-7.15-24.7-13.95ZM58.24,66.55c.57,2.51.92,4.79,1.95,7.28,6.36,15.34,16.7,25.81,33.23,29.24,3.8.79,7.39,1.26,11.27.84,6.7-.72,13.3-2.23,18.78-6.17,3.68-2.64,6.93-5.37,9.1-9.46s4.07-8.84,4.43-13.59c.44-5.74.15-11.16-1.33-16.46-1.27-4.51-4.12-8.21-8.03-10.88-5.2-3.56-10.95-5.84-17.21-6.73l-8.71-1.24c-6.3-.9-12.74-.42-19.08.03-5.72.4-10.92,1.58-16.01,3.91-9.96,4.55-10.68,13.27-8.4,23.23ZM200.61,62.58l.4,10.78c1.48,8.66,5.59,15.61,12.08,21.42,13.58,12.15,34.06,13.75,49.32,3.6l5.44-4.64c.9-.76,1.88-2.2,2.17-3.14.63,0,.95-.27,1.32-.79,3.61-5.01,8.31-15.81,8.64-20.66l.23-3.39c.29-4.2.81-9.12-1.66-13.02-7.43-11.74-35.12-12.45-49.19-11.28-5.8.48-11.26,1.71-16.57,3.82-7.26,2.88-12.46,9.8-12.18,17.31Z"/>
    <path class="cls-3" d="M135.68,58.24c1.49,5.3,1.77,10.71,1.33,16.46-.36,4.76-2.23,9.45-4.43,13.59s-5.42,6.81-9.1,9.46c-5.48,3.94-12.08,5.46-18.78,6.17-3.88.41-7.48-.06-11.27-.84-16.53-3.43-26.87-13.91-33.23-29.24-1.03-2.49-1.38-4.77-1.95-7.28.55-1.47,1.56-1.63,2.88-2.18,4.85-2.01,9.76-2.88,14.69-4.31,6.04-1.75,12.02-2.6,18.3-3.06,2.24-.17,4.5-.65,6.77-.63l21.22.11c4.65.02,9.03.79,13.57,1.77Z"/>
    <path class="cls-3" d="M280.21,65.76l-.23,3.39c-.54,0-.75.26-.94.9-1.79,6.06-3.89,11.88-7.12,17.29-.73,1.22-1.53,2-1.91,3.26-.29.94-1.27,2.38-2.17,3.14l-5.44,4.64c-15.26,10.15-35.74,8.56-49.32-3.6-6.49-5.81-10.59-12.76-12.08-21.42l-.4-10.78c.89-.73,2.24-1.26,3.62-1.45l11.65-1.65c14.26-.67,35.94-.35,49.24,2.81l15.09,3.46Z"/>
    <path class="cls-1" d="M280.21,65.76l-15.09-3.46c-13.3-3.17-34.99-3.48-49.24-2.81l-11.65,1.65c-1.37.19-2.72.72-3.62,1.45-.28-7.5,4.92-14.42,12.18-17.31,5.32-2.11,10.78-3.34,16.57-3.82,14.06-1.17,41.76-.46,49.19,11.28,2.47,3.91,1.95,8.83,1.66,13.02Z"/>
    <path class="cls-1" d="M135.68,58.24c-4.54-.99-8.92-1.75-13.57-1.77l-21.22-.11c-2.28-.01-4.53.47-6.77.63-6.29.47-12.26,1.31-18.3,3.06-4.93,1.43-9.83,2.3-14.69,4.31-1.32.55-2.33.71-2.88,2.18-2.28-9.96-1.56-18.68,8.4-23.23,5.09-2.33,10.29-3.5,16.01-3.91,6.33-.45,12.78-.93,19.08-.03l8.71,1.24c6.27.89,12.02,3.17,17.21,6.73,3.9,2.68,6.76,6.37,8.03,10.88Z"/>
    <path class="cls-1" d="M279.98,69.14c-.33,4.86-5.03,15.66-8.64,20.66-.38.52-.69.79-1.32.79.38-1.26,1.18-2.04,1.91-3.26,3.23-5.42,5.33-11.24,7.12-17.29.19-.64.4-.91.94-.9Z"/>
  </g>
</svg>