<?xml version="1.0" encoding="UTF-8"?>
<svg id="Layer_2" data-name="Layer 2" xmlns="http://www.w3.org/2000/svg" viewBox="0 0 105.63 99.32">
  <defs>
    <style>
      .cls-1 {
        fill: #f4c2ff;
      }

      .cls-2 {
        fill: #ff5f5f;
      }
    </style>
  </defs>
  <g id="Layer_1-2" data-name="Layer 1">
    <path class="cls-2" d="M95.64,65.13c.21,5.54-.17,10.92-1.09,16.25s-4.38,9.07-9.27,10.72l-15.49,5.23c-8.58,2.9-17.28,2.1-26.2,1-10.39-1.29-11.55-4.18-21.63-5.05-6.4-.55-9.12-7.05-9.61-12.89l-1.26-14.93c-.19-2.29-1.72-3.86-3.86-4.5-4.05-1.22-6.66-4.4-7.14-8.68s.86-8.28,3.42-11.67c6.54-8.66-.65-13.59-.18-22.23.29-5.23,2.99-9.68,6.67-13.27S18.1-.21,23.25.11c8.3.51,15.47,2.28,23.48,1.62,5.53-2.58,13.64-1.96,19.28-.19,4.7,1.47,9.09,3.75,11.89,7.92,3.17,4.73,3.19,5.73,5.24,11.03,1.5,3.88,4.33,6.76,8.4,7.89,5.83,1.62,9.64,3.96,9.45,10.62-.21,7.36,1.82,6.59,4.13,11.77,1.16,2.61.3,5.33-1.97,6.98-4.42,3.2-7.69,2.31-7.51,7.38ZM45.72,21.21c-.99-.88-1.93-.54-2.79-1.04-1.45-.85-1.93-2.56-1.34-3.99,1.19-2.86,3.37-1.86,4.73-2.61-1.05-2.21-2.73-3.93-4.19-5.91-.35-.48-1.05-.79-1.63-.4-2.16,1.44-4.36,2.65-6.3,4.52,3.01.59,4.81,3.34,3.63,5.79s-4.69.77-5.15,1.65,3.84,5.47,4.69,6.62c4.79.57,4.42-1.99,8.34-4.64ZM28.39,20.77c-1.98-.58-3.31-.06-4.71-.84l1.14-11.07-7.47-.7-1.1,11.34-4.9-.21,8.17,9,8.86-7.53ZM54.62,50.27l18.28-4.28c-3.54-2.7-7.34-4.26-10.88-6.57-.55-.36-1.34-.03-1.65.39l-2.6,3.46c-.33.43-.72.4-.98.27-1.22-.62,1.51-4.28,2.18-5.11,2.34-2.89,4.89.44,6.87.91,1.21-1.84,2.44-8.06,5.16-7.07l9.88,3.59c2.8,1.02,1.37,4.71.6,6.67-.21.53-1.44.92-1.56.3-.31-1.58,2.22-4.85-.88-5.91l-6.83-2.33c-2.44-.83-3.74,3.48-5.25,5.74l8.89,5.05,12.4-2.27c1.12-.21,2.02.8,3.22.81,1.21-1.68,2.16-3.47,3.16-5.25.42-.75,0-1.75-.83-2.06-4.88-1.84-9.75-3.23-14.79-4.62-3.51-.97-6.72-2.17-10.01-3.69-3.54-1.64-8.33-4.2-9.97-.07-1.01,2.55-1.85,5.14-3.33,7.52l-2.11-6.49c-.5-1.55-2.48-2.15-4.13-1.91-7.95,1.13-15.71,2.48-23.6,4.07-1.97.4-3.77.94-5.47,1.86-.45.72-.3,1.6-.86,2.14-.52-.38-1.26-1.58-1.97-1.16-2.14,1.27-3.28,3.51-4.69,5.46-.37.51-.75,1.58.07,1.85,2.31.76,4.66,1.36,7.08,1.79l8.5,1.52c3.45.62-3.3-9.16,3.01-10.37l12.25-2.34c2.47-.47,4.8.66,5.75,3.1s1.94,5.15,2.46,7.87c.18.92-1.07,1.9-1.67,2.52-.89-2.89-1.45-5.71-2.59-8.49-.71-1.74-2.6-2.75-4.42-2.43-3.4.59-6.56,1.22-9.87,2s-1.73,5.8-1.32,8.63c5.95,1.2,11.61,2.05,17.35,3.67.86.24,2.21.97,2.98.4,1.15-1.25,1.56-2.98,3.02-4.14,1.22,1.71-2.24,3.54-.83,4.95ZM70.01,64.2l27.85-8.77c.55-.17,1.44-1.09.93-1.57l-8.48-8.06c-.79-.75-1.94-1.09-3.08-.83l-29.74,6.84c-1.9.44-3.57.49-5.43.04l-15.91-3.85c-5.16-1.25-10.12-2.41-15.2-3.88-.7-.2-1.39.16-1.87.6l-8.88,8.32c-.39.36-.49.89-.35,1.32.1.32.47.66.98.81l9.61,2.88c6.37,1.91,12.73,3.18,18.96,5.51,1.75.66,3.33.42,4.76-.79l8.74-7.41c1.22-1.03,2.77-1.01,3.9.11l7.79,7.74c1.5,1.49,3.19,1.7,5.43,1ZM22.38,84.27c8.64,2.15,16.88,4.22,25.2,6.84,3.24,1.02,6.33,1.11,9.6.28,3.81-.98,7.42-2,11.18-3.18l18.93-5.9c.49-.34.77-.92.77-1.59l-.09-19.05-21.82,8.12c-1.2.45-1.83.15-2.55-.8l-6.69-8.85c-.19-.25-.54-.46-.69-.34-.18.15-.29.52-.3.88l-.34,25.4c0,.69-.58,1.03-1.02,1.06-.51.04-1.07-.31-1.07-1.04v-21.6c0-1.6.1-3.14-.55-4.63-3.03,2.33-5.17,5.06-7.4,7.85-.55.69-1.21,1.07-2.16.8l-18.35-5.23c-2.22-.63-4.19-1.46-6.08-2.58-.27,1.75-.15,3.32-.1,5.06l.41,15.48c.04,1.69,1.46,2.62,3.13,3.03Z"/>
    <g>
      <path class="cls-1" d="M22.38,84.27c-1.67-.42-3.09-1.35-3.13-3.03l-.41-15.48c-.05-1.74-.17-3.31.1-5.06,1.89,1.12,3.86,1.95,6.08,2.58l18.35,5.23c.95.27,1.61-.11,2.16-.8,2.23-2.79,4.37-5.52,7.4-7.85.65,1.49.55,3.03.55,4.63v21.6c0,.73.56,1.08,1.07,1.04.45-.04,1.01-.38,1.02-1.06l.34-25.4c0-.36.12-.73.3-.88.15-.13.5.09.69.34l6.69,8.85c.72.95,1.35,1.25,2.55.8l21.82-8.12.09,19.05c0,.67-.28,1.25-.77,1.59l-18.93,5.9c-3.76,1.17-7.37,2.2-11.18,3.18-3.26.84-6.35.74-9.6-.28-8.32-2.62-16.56-4.68-25.2-6.84Z"/>
      <path class="cls-1" d="M54.62,50.27c-1.41-1.4,2.05-3.24.83-4.95-1.46,1.16-1.87,2.89-3.02,4.14-.76.56-2.12-.16-2.98-.4-5.74-1.62-11.41-2.47-17.35-3.67-.41-2.83-2.08-7.83,1.32-8.63s6.47-1.41,9.87-2c1.82-.31,3.71.69,4.42,2.43,1.14,2.78,1.7,5.59,2.59,8.49.6-.62,1.85-1.6,1.67-2.52-.52-2.71-1.47-5.33-2.46-7.87s-3.28-3.57-5.75-3.1l-12.25,2.34c-6.31,1.2.44,10.98-3.01,10.37l-8.5-1.52c-2.42-.43-4.77-1.04-7.08-1.79-.82-.27-.43-1.34-.07-1.85,1.41-1.95,2.56-4.19,4.69-5.46.71-.42,1.45.78,1.97,1.16.56-.54.41-1.42.86-2.14,1.7-.92,3.5-1.46,5.47-1.86,7.89-1.6,15.64-2.94,23.6-4.07,1.65-.24,3.63.37,4.13,1.91l2.11,6.49c1.48-2.38,2.32-4.97,3.33-7.52,1.64-4.13,6.43-1.57,9.97.07,3.29,1.52,6.5,2.72,10.01,3.69,5.04,1.39,9.91,2.78,14.79,4.62.82.31,1.25,1.31.83,2.06-1.01,1.78-1.95,3.58-3.16,5.25-1.21,0-2.1-1.01-3.22-.81l-12.4,2.27-8.89-5.05c1.51-2.26,2.81-6.57,5.25-5.74l6.83,2.33c3.1,1.06.57,4.33.88,5.91.12.62,1.35.23,1.56-.3.77-1.96,2.2-5.66-.6-6.67l-9.88-3.59c-2.72-.99-3.95,5.22-5.16,7.07-1.98-.47-4.53-3.8-6.87-.91-.67.83-3.4,4.49-2.18,5.11.26.13.65.16.98-.27l2.6-3.46c.31-.42,1.1-.75,1.65-.39,3.54,2.31,7.34,3.87,10.88,6.57l-18.28,4.28Z"/>
      <path class="cls-1" d="M70.01,64.2c-2.24.71-3.93.5-5.43-1l-7.79-7.74c-1.13-1.12-2.68-1.14-3.9-.11l-8.74,7.41c-1.43,1.21-3.01,1.45-4.76.79-6.23-2.34-12.59-3.61-18.96-5.51l-9.61-2.88c-.51-.15-.88-.49-.98-.81-.13-.43-.04-.95.35-1.32l8.88-8.32c.47-.44,1.17-.81,1.87-.6,5.09,1.47,10.04,2.63,15.2,3.88l15.91,3.85c1.86.45,3.52.4,5.43-.04l29.74-6.84c1.14-.26,2.3.08,3.08.83l8.48,8.06c.51.48-.38,1.39-.93,1.57l-27.85,8.77Z"/>
    </g>
    <path class="cls-1" d="M28.39,20.77l-8.86,7.53-8.17-9,4.9.21,1.1-11.34,7.47.7-1.14,11.07c1.4.77,2.73.25,4.71.84Z"/>
    <path class="cls-1" d="M45.72,21.21c-3.92,2.65-3.55,5.21-8.34,4.64-.86-1.15-5.14-5.78-4.69-6.62s3.94.87,5.15-1.65-.62-5.2-3.63-5.79c1.94-1.86,4.14-3.08,6.3-4.52.58-.39,1.28-.07,1.63.4,1.46,1.97,3.14,3.69,4.19,5.91-1.36.75-3.54-.25-4.73,2.61-.59,1.43-.11,3.14,1.34,3.99.86.5,1.8.16,2.79,1.04Z"/>
  </g>
</svg>