<?xml version="1.0" encoding="UTF-8"?>
<svg id="Layer_2" data-name="Layer 2" xmlns="http://www.w3.org/2000/svg" viewBox="0 0 229.68 265.33">
  <defs>
    <style>
      .cls-1 {
        fill: #805ad5;
      }

      .cls-2 {
        fill: #ceb5fa;
      }

      .cls-3 {
        fill: #3d75cc;
      }

      .cls-4 {
        fill: #fcfafc;
      }

      .cls-5 {
        fill: #4b77d1;
      }
    </style>
  </defs>
  <g id="Layer_2-2" data-name="Layer 2">
    <g>
      <path class="cls-1" d="M149.15,9.21l48.36,10.19c7.23,1.52,13.51,7.02,16,13.85,2.55,7,2.73,14.16,2.34,21.69l-5.07,99.84-7.15,80.45c-.5,5.57-2.08,10.72-4.5,15.6-3.16,6.36-9.48,9.54-16.55,10.34-12.28,1.38-24.05.22-36.64-.9l-86.74-7.67c-1.11-.1-1.94.48-2.09,1.42-1.06-.14-2.51-1.02-3.81-.61-.34-2.57-2.63-1.54-4.27-1.6-9.06-.28-18.16-2.23-27.22-4.85-10.66-3.09-17.57-11.42-19.5-22.46C.16,212.35-.38,200.35.24,187.63l5.04-104.72,3.1-36C10.22,25.42,14.65,4.85,36.56,1.41c27.06-4.25,84.55,1.89,112.59,7.79ZM191.47,211.41c7.15-51.46,9.74-101.97,10.26-153.43.08-8.04-1.98-13.91-9.16-17.86-5.97-3.29-12.37-4.64-19.66-5.2l-104.73-8.08-27.35-.32c-6.8.95-11.97,5.01-12.89,12.61-6.12,50.84-8.68,101.8-7.33,153.05.15,5.69,4.91,10.16,10.41,10.83l148.78,18.03c6.38.77,10.8-3.45,11.66-9.63ZM115.32,230.02c0-7.23-5.86-13.09-13.09-13.09s-13.09,5.86-13.09,13.09,5.86,13.09,13.09,13.09,13.09-5.86,13.09-13.09Z"/>
      <path class="cls-2" d="M57.1,254.02c.15-.94.98-1.52,2.09-1.42l86.74,7.67c12.59,1.11,24.36,2.28,36.64.9,7.07-.8,13.39-3.97,16.55-10.34,2.42-4.88,4.01-10.03,4.5-15.6l7.15-80.45,5.07-99.84c.38-7.53.21-14.69-2.34-21.69-2.49-6.83-8.77-12.33-16-13.85l-48.36-10.19c.86-1.55,2.99-1.6,4.93-1.42,18.33,1.72,54.34,6.83,65.85,16.21,7.66,6.24,10.22,15.97,9.68,25.98l-5.37,99.83-4.2,57.87c-.92,12.6-2.28,24.51-5.47,36.61-5.04,19.12-18.18,21.77-37.72,20.92-40.49-1.75-80.23-6.1-119.74-11.18Z"/>
      <path class="cls-2" d="M53.29,253.4c-.81.26-2.29.4-3.46.18-.58-.11-1.1-.88-.82-1.77,1.64.05,3.94-.98,4.27,1.6Z"/>
      <ellipse class="cls-2" cx="102.22" cy="230.02" rx="13.09" ry="13.09"/>
      <g>
        <path class="cls-4" d="M191.47,211.41c-.86,6.18-5.28,10.4-11.66,9.63l-148.78-18.03c-5.5-.67-10.26-5.14-10.41-10.83-1.35-51.25,1.21-102.21,7.33-153.05.92-7.61,6.09-11.67,12.89-12.61l27.35.32,104.73,8.08c7.29.56,13.69,1.91,19.66,5.2,7.17,3.95,9.24,9.83,9.16,17.86-.52,51.46-3.1,101.97-10.26,153.43ZM169.29,200.25c3.69.34,5.52-3.49,5.92-6.67,5.55-43.83,8.69-87.4,9.8-131.48.13-4.98-3.46-8.1-7.96-8.58l-108.81-11.62-18.1-.24c-5.72-.08-8.18,4.41-8.67,9.89-3.72,41.39-5.26,82.41-5.65,124.13-.05,5.56,3.91,9.5,9.21,10.25l60.29,8.49,63.97,5.84Z"/>
        <path class="cls-5" d="M169.29,200.25l-63.97-5.84-60.29-8.49c-5.3-.75-9.26-4.69-9.21-10.25.39-41.71,1.93-82.73,5.65-124.13.49-5.48,2.95-9.97,8.67-9.89l18.1.24,108.81,11.62c4.5.48,8.08,3.6,7.96,8.58-1.11,44.09-4.25,87.65-9.8,131.48-.4,3.18-2.23,7-5.92,6.67ZM86.18,77.66c-.81.72-2.13,2.54-2.39,4.01-3.95,22.91-5.55,45.74-4.75,69.03.08,2.37,1,4.48,2.12,5.44,1.94,1.66,4.78.38,6.43.88,4.47,1.38,8.61.53,13.15-1.63l23.76-11.27,17.4-9.46c2.76-1.5,5.63-3.18,6.18-6.13l5.09-3.66c4.66-1.14,6.52-7.57,3.93-12.32-3.28-6.03-9.28-9.87-14.7-14.08l-7.61-9.3-7.79-5.2-7.74-3.33-24.29-7.03c-3.08-.89-7.01,2.44-8.8,4.03Z"/>
        <path class="cls-4" d="M153.18,124.87l-5.09,3.66-25.89,13.41-34.6,15.08c-1.65-.51-4.5.77-6.43-.88-1.12-.96-2.04-3.07-2.12-5.44-.8-23.29.8-46.12,4.75-69.03.25-1.47,1.57-3.28,2.39-4.01,2.35-.37,4.93.11,7.43,1.69l56.12,35.59c3.84,2.43,5.1,6.12,3.45,9.93Z"/>
        <path class="cls-3" d="M153.18,124.87c1.65-3.81.39-7.49-3.45-9.93l-56.12-35.59c-2.51-1.59-5.08-2.06-7.43-1.69,1.79-1.59,5.72-4.92,8.8-4.03l24.29,7.03,7.74,3.33,7.79,5.2,7.61,9.3c5.43,4.2,11.42,8.05,14.7,14.08,2.59,4.75.72,11.18-3.93,12.32Z"/>
        <path class="cls-3" d="M148.09,128.53c-.55,2.96-3.42,4.63-6.18,6.13l-17.4,9.46-23.76,11.27c-4.54,2.15-8.68,3-13.15,1.63l34.6-15.08,25.89-13.41Z"/>
      </g>
    </g>
  </g>
</svg>