<?xml version="1.0" encoding="UTF-8"?>
<svg id="Layer_2" data-name="Layer 2" xmlns="http://www.w3.org/2000/svg" viewBox="0 0 256.38 246.92">
  <defs>
    <style>
      .cls-1 {
        fill: #805ad5;
      }

      .cls-2 {
        fill: #ceb5fa;
      }
    </style>
  </defs>
  <g id="Layer_2-2" data-name="Layer 2">
    <g>
      <path class="cls-2" d="M246.23,158c19.1,21.11,8.86,55.09-10.94,74.06-28.49,27.3-89.73,12.03-124.07-6.46-40.26-21.68-80.13-57.75-98.72-100.02C1.86,101.39-3.53,74.26,2.54,48.07,6.87,29.38,21.83,14.1,38.1,5.4c18.03-9.64,38.57-5.94,53.24,7.68,18.56,17.23,28.26,42.36,27.48,67.71-.28,9.24-4.06,17.22-10.73,23.16-4.48,4-6.34,8.97-3.79,15,8.19,19.41,31.27,35.82,38.06,26.3,4.81-6.75,10.58-12.69,18.64-15.36,28.27-9.35,64.99,5.75,85.22,28.11ZM153.32,159.54l-5.5,9.07c-1.97,3.25-5.68,4.64-9.44,2.91-14.93-6.87-28.21-16.22-39.81-28.03-8.84-9.01-15.32-19.49-21.49-30.41-2.35-4.16-.67-8.45,3.03-11.17l13.26-9.74c13.66-13.52-2.96-47.86-15.88-63.28-5.78-6.9-14.09-10.64-22.95-9.37-11.43,1.64-22.49,7.09-29.27,16.56-4.68,6.53-5.72,14.84-6,22.99-.69,20.76,4.73,40.28,14.1,58.94,18.05,35.95,47.09,64.72,82.12,84.43,26.99,15.18,58.88,24.97,89.61,21.67,15.21-1.63,25.57-11.38,29.91-25.72,3.35-11.04,1.73-22.13-7.66-30.01-14.02-11.78-31.7-19.49-50.14-21.12-10.09-.89-18.77,3.85-23.89,12.29Z"/>
      <path class="cls-1" d="M153.32,159.54c5.12-8.44,13.8-13.18,23.89-12.29,18.44,1.63,36.12,9.34,50.14,21.12,9.39,7.89,11,18.97,7.66,30.01-4.35,14.34-14.7,24.09-29.91,25.72-30.73,3.3-62.62-6.49-89.61-21.67-35.03-19.71-64.07-48.48-82.12-84.43-9.37-18.66-14.79-38.18-14.1-58.94.27-8.15,1.32-16.46,6-22.99,6.78-9.47,17.84-14.92,29.27-16.56,8.86-1.27,17.17,2.47,22.95,9.37,12.92,15.42,29.54,49.77,15.88,63.28l-13.26,9.74c-3.7,2.72-5.38,7.01-3.03,11.17,6.17,10.91,12.65,21.39,21.49,30.41,11.59,11.82,24.88,21.16,39.81,28.03,3.75,1.73,7.47.33,9.44-2.91l5.5-9.07ZM66.89,40.35c-3.46-4.22-9.75-4.93-13.83-1.41-2.3,1.98-2.77,5.8-1.33,8.57,4.55,8.76,8.68,17.54,14.36,25.38,2.49,3.44,7.49,4.5,10.48,3.07,10.22-4.86-1.23-25.3-9.68-35.61ZM218.84,183.23c.24-2.31-.62-5.62-3.08-7.22-13-8.45-40.48-21.98-43.61-8.58-.83,3.55,1.27,7.71,5.17,9.32l25.38,10.44c7.99,3.29,15.59,1.38,16.14-3.95Z"/>
      <path class="cls-2" d="M218.84,183.23c-.54,5.33-8.15,7.24-16.14,3.95l-25.38-10.44c-3.91-1.61-6-5.76-5.17-9.32,3.13-13.4,30.61.13,43.61,8.58,2.46,1.6,3.32,4.91,3.08,7.22Z"/>
      <path class="cls-2" d="M66.89,40.35c8.45,10.31,19.89,30.75,9.68,35.61-3,1.43-7.99.37-10.48-3.07-5.68-7.84-9.81-16.62-14.36-25.38-1.44-2.77-.97-6.59,1.33-8.57,4.08-3.52,10.37-2.82,13.83,1.41Z"/>
    </g>
  </g>
</svg>