<?xml version="1.0" encoding="UTF-8"?>
<svg id="Layer_2" data-name="Layer 2" xmlns="http://www.w3.org/2000/svg" viewBox="0 0 262.56 227.09">
  <defs>
    <style>
      .cls-1 {
        fill: #ceb5fa;
      }

      .cls-2 {
        fill: #aceff4;
      }

      .cls-3 {
        fill: #3d75cc;
      }

      .cls-4 {
        fill: #3eb9ec;
      }
    </style>
  </defs>
  <g id="Layer_2-2" data-name="Layer 2">
    <g>
      <path class="cls-3" d="M262.39,179.74c-.29,12.61-8.17,23.28-21.18,25.75-10.5,1.99-20.52,2.9-31.64,3.2-50.14,1.36-99.61.86-149.65-1.83-6.54-.35-11.9-1.43-17.78-3.36-16.83-5.53-28.87-20.27-28.5-38.71l2.25-110.61c.17-8.53,3.75-15.66,8.9-21.43,5.47-2,10.36-4.01,16.98-4.09,12.88-.17,25.53.06,38.01.54,2.43.09,5.05.66,7.71-.18,0-7.54.21-14.5,3.11-21.06,5.12-3.69,11.05-6.42,18.25-6.97,19.07-1.46,38.52-1.66,57.1,1.68,9.64,1.74,15.81,9.05,16.17,18.05l.51,12.67,41.11,2.4c6.21.36,12.05,1.29,17.75,3.44,17.1,6.45,21.12,21.86,21.08,39.89l-.18,100.6ZM154.72,35.46c2.02.06,3.87-1.04,4.73-2.15,1.52-1.95,1.6-8.75-.46-10.97-1.21-1.3-2.94-1.97-5.27-2.06l-38.99-1.51c-2.04-.08-3.93.89-4.84,2-1.74,2.15-1.84,8.94.23,11.39,1.16,1.37,3.18,2.05,5.59,2.13l39.01,1.18ZM68.93,66.59c4.43-.27,5.46-5.22,5.63-8.08.16-2.65-1.37-6.97-5.09-7.18l-32.67-1.9c-2.63-.15-4.76.83-6.09,2.07-1.9,1.78-2.11,3.8-2.12,6.6,0,3.93,2.08,7.29,6.48,7.59,11.03.76,22.29,1.59,33.85.89ZM210.15,126.66c0-38.64-31.34-69.97-69.99-69.97s-69.99,31.33-69.99,69.97,31.34,69.97,69.99,69.97,69.99-31.33,69.99-69.97ZM233.07,72.95c4.16-1.03,5.58-5.04,5.28-8.26-.26-2.73-1.85-6.27-5.33-6.93-4.78-.91-10.14-1.16-14.91-.2-4.4.88-6.01,5.06-5.38,8.83.54,3.27,2.95,6.29,7.05,6.7s8.79.97,13.3-.14Z"/>
      <path class="cls-2" d="M262.39,179.74c-.01,7.36.42,15.05-1.29,22.77-4.57,20.7-31.26,23.04-52.48,23.74-54.43,1.79-108.22.64-162.65-2.51-14.41-.83-26.72-7.75-35.87-18.09C2.02,196.51-.13,185.23,0,172.8l1.21-106.32c.18-16.28,9.31-28.51,23.56-33.72-5.15,5.77-8.73,12.9-8.9,21.43l-2.25,110.61c-.37,18.44,11.66,33.18,28.5,38.71,5.88,1.93,11.25,3.01,17.78,3.36,50.04,2.69,99.51,3.19,149.65,1.83,11.12-.3,21.14-1.21,31.64-3.2,13.01-2.47,20.89-13.14,21.18-25.75Z"/>
      <path class="cls-4" d="M90.59,7.97c-2.9,6.55-3.12,13.52-3.11,21.06-2.66.84-5.28.28-7.71.18.26-8.48,4.06-16.36,10.82-21.24Z"/>
      <path class="cls-2" d="M210.15,126.66c0,38.64-31.34,69.97-69.99,69.97s-69.99-31.33-69.99-69.97,31.34-69.97,69.99-69.97,69.99,31.33,69.99,69.97ZM195.52,126.73c0-30.49-24.72-55.21-55.22-55.21s-55.22,24.72-55.22,55.21,24.72,55.21,55.22,55.21,55.22-24.72,55.22-55.21Z"/>
      <path class="cls-2" d="M154.72,35.46l-39.01-1.18c-2.41-.07-4.43-.75-5.59-2.13-2.07-2.45-1.97-9.23-.23-11.39.9-1.11,2.79-2.08,4.84-2l38.99,1.51c2.33.09,4.07.76,5.27,2.06,2.06,2.22,1.98,9.02.46,10.97-.86,1.11-2.71,2.21-4.73,2.15Z"/>
      <path class="cls-2" d="M68.93,66.59c-11.56.7-22.82-.14-33.85-.89-4.4-.3-6.49-3.65-6.48-7.59,0-2.8.21-4.82,2.12-6.6,1.33-1.24,3.46-2.23,6.09-2.07l32.67,1.9c3.71.22,5.25,4.53,5.09,7.18-.17,2.86-1.2,7.81-5.63,8.08Z"/>
      <path class="cls-2" d="M233.07,72.95c-4.51,1.12-9.12.56-13.3.14s-6.51-3.43-7.05-6.7c-.63-3.77.99-7.95,5.38-8.83,4.77-.96,10.13-.71,14.91.2,3.48.66,5.07,4.2,5.33,6.93.31,3.22-1.12,7.23-5.28,8.26Z"/>
      <path class="cls-3" d="M195.52,126.73c0,30.49-24.72,55.21-55.22,55.21s-55.22-24.72-55.22-55.21,24.72-55.21,55.22-55.21,55.22,24.72,55.22,55.21ZM141.81,89.99c-.87-.04-1.75-.04-2.62-.02-20.15.56-36.14,17.15-35.94,37.3.2,20.15,16.51,36.43,36.67,36.59,20.16.16,36.73-15.86,37.25-36s-15.21-36.99-35.35-37.87Z"/>
      <path class="cls-1" d="M139.19,89.97c-2.03,5.79-7.33,6.43-5.07,11.84-9.94,2.44-17.78,10.05-19.61,19.66-2.01,10.55,2.2,20.54,11.05,26.72,12.13,8.47,28.78,5.25,36.72-7.01,8.05-12.44,4.05-28.71-9.28-36.49-.45-.26-1.27-.69-1.66-.64-.34.04-.64.8-.77,1.36-4.56-3.82-8.33-8.08-8.75-15.42,20.14.87,35.87,17.72,35.35,37.87s-17.09,36.16-37.25,36c-20.16-.16-36.47-16.44-36.67-36.59-.2-20.15,15.79-36.75,35.94-37.3Z"/>
      <path class="cls-2" d="M141.81,89.99c.43,7.34,4.19,11.6,8.75,15.42,2.55,2.13.89,7.15-1.23,8.67-3.2,2.29-7.24,2.27-10.37-.37-1.74-1.47-2.99-3.44-3.23-5.33-.33-2.51,1.07-4.42,3.14-5.99-1.92-.56-3.6-.87-4.76-.59-2.25-5.42,3.04-6.06,5.07-11.84.87-.02,1.75-.02,2.62.02Z"/>
      <path class="cls-3" d="M134.11,101.81c1.16-.29,2.84.03,4.76.59-2.06,1.57-3.46,3.48-3.14,5.99.25,1.89,1.49,3.85,3.23,5.33,3.13,2.64,7.16,2.66,10.37.37,2.12-1.52,3.78-6.54,1.23-8.67.13-.56.42-1.32.77-1.36.39-.05,1.21.38,1.66.64,13.32,7.78,17.32,24.06,9.28,36.49-7.93,12.26-24.59,15.48-36.72,7.01-8.85-6.18-13.06-16.17-11.05-26.72,1.83-9.61,9.67-17.22,19.61-19.66Z"/>
    </g>
  </g>
</svg>