<?xml version="1.0" encoding="UTF-8"?>
<svg id="Layer_2" data-name="Layer 2" xmlns="http://www.w3.org/2000/svg" viewBox="0 0 212.31 210.48">
  <defs>
    <style>
      .cls-1 {
        fill: #f8bdcc;
      }

      .cls-2 {
        fill: #76489d;
      }
    </style>
  </defs>
  <g id="Layer_1-2" data-name="Layer 1">
    <path class="cls-1" d="M74.01,200.53c-28.66,12.45-66.4,3.88-73.1-24.38-2.39-10.1.19-20.07,4.55-29.19,9.82-20.54,25.86-28.81,48.6-29.48l8.02-77.71c2.53-24.49,16.7-29.95,41.83-32.28L182.95.15c9.06-.84,18.1,1.92,23.73,8.95,4.54,5.68,6.03,13.17,5.56,20.76l-7.98,127.02c-.9,14.25-8.1,27.22-18.13,36.67-16.54,15.56-40.51,20.99-61.7,13.82-15.15-5.13-23.79-17.75-25.44-33.55-5.84,12.87-13.03,21.53-24.97,26.71ZM172.83,62.83l-2.08,78.68c-18.15-1.98-35.12,2.27-47.82,13.71-5.76,6.23-9,13.84-6.54,22,3.6,8.82,12.09,13.65,21.82,14.14,23.1,1.15,48.53-15.28,49.73-38.91l6.32-124.57c.37-7.32-5.19-12.95-12.35-12.09l-92.47,11.05c-5.8.69-9.61,4.32-10.08,10.17l-8.47,103.76c-19.07-4.41-38.93-1.85-49.46,15.12-3.55,5.72-3.97,12.44-1,18.61,8.03,16.69,39.67,16.94,57.82,1.23,4.3-3.72,9.24-9.25,9.86-15.2l9.4-90.76,75.31-6.95ZM132.41,127.01c7.63-5.35,16.52-6.78,25.94-8.09l1.34-32.91-44.52,4.71-5.54,51.09c-.57,2.13,2.17,2.4,1.58.05l21.19-14.84Z"/>
    <path class="cls-2" d="M172.83,62.83l-75.31,6.95-9.4,90.76c-.62,5.96-5.56,11.48-9.86,15.2-18.15,15.71-49.8,15.46-57.82-1.23-2.97-6.17-2.54-12.89,1-18.61,10.53-16.97,30.39-19.54,49.46-15.12l8.47-103.76c.48-5.85,4.28-9.48,10.08-10.17l92.47-11.05c7.16-.86,12.72,4.77,12.35,12.09l-6.32,124.57c-1.2,23.63-26.64,40.06-49.73,38.91-9.73-.48-18.22-5.32-21.82-14.14-2.46-8.17.78-15.77,6.54-22,12.69-11.44,29.67-15.69,47.82-13.71l2.08-78.68Z"/>
    <path class="cls-1" d="M132.41,127.01l-21.19,14.84c.58,2.35-2.16,2.09-1.58-.05l5.54-51.09,44.52-4.71-1.34,32.91c-9.43,1.31-18.31,2.75-25.94,8.09Z"/>
  </g>
</svg>