<?xml version="1.0" encoding="UTF-8"?>
<svg id="Layer_2" data-name="Layer 2" xmlns="http://www.w3.org/2000/svg" viewBox="0 0 574.85 362.52">
  <defs>
    <style>
      .cls-1 {
        fill: #993c60;
      }

      .cls-2 {
        fill: #e5ecb6;
      }
    </style>
  </defs>
  <g id="Layer_1-2" data-name="Layer 1">
    <g>
      <path class="cls-2" d="M292.81,323.93c-48.46,12.89-46.16-18.82-108.2-6.25-9.03,1.83-17.47,3.99-26.75,4.19-3.95.09-7.07,1.49-9.87,4.03-15.89,14.48-41.29,34.82-63.27,36.5-25.69,1.97-47.82-19.68-59.81-40.6C11.32,298.09,3.12,272.23.31,245.02c-1.51-14.63,2.42-28.59,13.02-38.65,6.81-6.46,14.22-11.63,21.64-17.38,17.22-13.35,28.48-37.81,38.95-57.09,7.13-13.14,13.9-25.33,22.01-38.06,24.72-38.79,61.99-68.24,106.67-80.59,24.28-6.71,49.26-.7,70.34,11.79,1.67.99,4.62,3.47,6.43,2C299.06,6.41,325.66-3.15,354.19.92c38.57,5.51,74.26,23.18,102.46,50.31,18.09,17.4,30.8,38.24,42.43,60.29l19.71,37.37c11,20.85,30.93,31.7,45.23,50.79,9.89,13.2,13,29.73,9.36,46.24-7.73,34.95-24.63,67.42-48.55,93.94-6.8,7.55-14.58,13.05-23.15,17.73-11.97,6.54-25.34,5.87-37.4-.42-19.43-10.14-30.03-26.24-45.66-41.25-27.54-8.82-48.47-8.91-75.41,2.4-19.97,8.38-29.43,9.97-50.4,5.62ZM242.85,283.33c6.15,2.15,11.13,5.22,16.59,7.74,11.17,5.17,23.58,3.69,32.43-5.53,20.78,19.49,37.69-1.22,58.06-7.55,33.06-12.3,47.85,1.37,78.68,1.58,4.81.03,7.92.63,11.03,4.61,9.99,12.79,20.31,25.39,32.12,36.41,7.93,7.4,17.73,6.91,25.34-.38,20.73-19.87,39.57-57.42,42.6-86.12.66-6.26-1.55-12.05-6.25-15.85l-17.68-14.31c-12.04-9.74-20.96-21.38-28-35.23l-20.44-40.21c-17.89-35.19-42.71-60.06-77.98-77.81-13.82-6.96-27.89-12.74-43.54-13.31-26.43-.97-51.32,26.13-61.78,49.45-13.6-20.6-36.42-37.05-60.19-39.43-27.23,1.09-59.87,26.62-78.49,45.25-12.18,12.19-21.37,25.98-29.63,41.14l-27.19,49.88c-5.22,9.57-10.95,18.52-18.95,26-14.16,13.24-32.55,14.5-30.93,33.41,2.31,27.08,13.85,61.44,33.22,80.77,6.02,6.01,14.53,6.9,21.81,2.61,17.18-10.13,30.09-22.29,44.33-36.4,1.71-1.69,4.43-2.46,6.87-2.27,42.03,3.2,58.56-21.63,97.99-4.44Z"/>
      <g>
        <path class="cls-1" d="M242.85,283.33c-39.44-17.2-55.97,7.64-97.99,4.44-2.44-.19-5.16.58-6.87,2.27-14.24,14.11-27.15,26.27-44.33,36.4-7.28,4.29-15.8,3.4-21.81-2.61-19.36-19.33-30.9-53.68-33.22-80.77-1.62-18.91,16.77-20.18,30.93-33.41,8-7.48,13.73-16.43,18.95-26l27.19-49.88c8.26-15.16,17.45-28.95,29.63-41.14,18.62-18.63,51.26-44.16,78.49-45.25,23.77,2.38,46.6,18.83,60.19,39.43,10.47-23.32,35.35-50.41,61.78-49.45,15.65.57,29.72,6.36,43.54,13.31,35.27,17.75,60.09,42.62,77.98,77.81l20.44,40.21c7.04,13.85,15.97,25.49,28,35.23l17.68,14.31c4.7,3.8,6.91,9.59,6.25,15.85-3.03,28.7-21.87,66.25-42.6,86.12-7.61,7.29-17.4,7.78-25.34.38-11.8-11.02-22.13-23.62-32.12-36.41-3.11-3.98-6.21-4.58-11.03-4.61-30.83-.21-45.63-13.88-78.68-1.58-20.37,6.33-37.29,27.04-58.06,7.55-8.85,9.22-21.27,10.7-32.43,5.53-5.46-2.53-10.43-5.6-16.59-7.74ZM303.9,273.49c2.94,4.74,9.58,4.03,13.86,1.72,9.97-5.4,19.46-10.39,30.07-14.14,35.31-12.47,49.97,1.48,85.24,2.49,6.56.19,12.37,2.46,16.7,7.31,11.06,12.4,19.19,23.75,30.69,35.27,1.9,1.9,4.78,2.47,6.8.2,17.21-19.49,29.09-42.89,34.59-68.31,1.19-5.51-.43-8.46-4.65-11.68-10.37-7.9-20.71-15.59-29.16-25.67-9.8-11.67-16.83-24.55-23.45-38.25-15.75-32.59-31.95-66.68-64.88-85.59-3.05,1.05-5.85,2.7-9.1.51-10.55-7.1-22-12.57-33.72-17.31-7.35-2.97-14.47-3.61-22.02-.69-15.15,5.86-26.69,17.56-33.31,32.35-2.35,5.25-5.24,10.13-4.52,16.61,9.5-12.23,36.89-33.58,51.95-30.34,10.86,2.34,20.8,7,29.92,12.95,2.68,1.75,3.44,4.8,2.37,7.24-4.55,10.37-25.7-11.91-40.93-5.61-15.93,6.59-29.61,17.44-38.69,31.97-1.66,2.66-2.03,5.96-.69,7.81,9.12,12.5,23.12-17,46.78-15.93s43.5,18.33,50.64,41.12c8.1,25.84-5,53.84-30.78,62.25l-24.96,8.14c-15.56,5.08-29.07,14.74-36.96,29.03-2.74,4.97-5.08,11.18-1.76,16.53ZM248.14,232.11c-16.21-6.03-33.32-6.18-48.31-18.05-23.22-18.4-24.78-51.74-5.47-73.72,8.25-9.39,18.59-16.55,31.44-18.02,19.21-2.2,31.82,13.4,40.08,15.51,2.88.74,6.25.18,7.63-2.31,1.08-1.96,1.18-5.11-.71-7.45-11.17-13.8-25.57-23.87-42.43-29.36-4.74-1.54-8.55-1.12-12.96.99-5.6,2.68-11.04,5.4-16.48,8.41-2.95,1.63-6.63.19-7.71-2.02-1.32-2.69-.43-5.78,1.98-7.7,6.89-5.5,14.65-9.7,23.07-12.82,11.99-4.45,33.14,8.15,43.12,14.95,4.26,2.9,7.78,6.17,12.6,8.74-.62-7.55-4.58-13.36-9.08-19.2-7.83-10.15-18.73-16.49-30.43-21.58-7.81-3.39-15.42-3.53-23.33.08-21.59,9.85-39.87,24.42-56.19,41.55-4.15,4.36-8.02,7.66-11.41,12.81-10.25,15.57-19.02,31.56-27.81,48.09-7.99,15.03-19.85,37.58-31.8,48.9-7.03,6.67-15.3,11.43-23.59,16.34-2.96,1.75-4.47,3.94-3.95,7.84,1.69,12.76,4.65,25.06,9.02,37.21,2.3,6.39,12.82,29.43,19.16,30.2,5.41.66,34.41-26.84,40.46-32.4s12.74-8.46,20.89-7.9c30.07,2.05,43.4-10.41,68.91-10.92,12.32-.25,24.26,2.3,35.03,7.84l16.29,8.38c3.95,2.03,8.78,1.54,11.61-1.17,2.7-2.58,4.17-7.05,2.77-11.14-5.15-15-17.12-26.43-32.37-32.1ZM199.18,176.3c.75,15.83,11.54,27.42,25.84,31.54l25.93,7.24c16.76,5.48,30.24,15.8,40.52,31.75,10.72-16.86,25.38-29.02,43.89-35.07l22.62-7.39c10.49-3.28,17.79-10.65,21.6-20.72,5.72-15.14.89-27.74-8.68-39.48-11.37-13.95-29.81-15-43.46-3.38-17.86,15.2-25.14,4.88-30.43,12.59-2.25,3.28-6.2,5.05-9.52,5.22-4.33.22-6.98-2.8-10.52-5.06-5.9-3.76-5.84,6.61-31.75-10.76-9.88-6.63-21.45-6.6-30.64,1.16-9.24,7.8-16.03,19.37-15.42,32.36Z"/>
        <path class="cls-2" d="M303.9,273.49c-3.32-5.35-.98-11.56,1.76-16.53,7.89-14.29,21.4-23.96,36.96-29.03l24.96-8.14c25.78-8.41,38.88-36.4,30.78-62.25-7.14-22.79-26.22-40.02-50.64-41.12s-37.66,28.44-46.78,15.93c-1.35-1.85-.98-5.15.69-7.81,9.08-14.53,22.76-25.38,38.69-31.97,15.23-6.3,36.38,15.98,40.93,5.61,1.07-2.44.31-5.5-2.37-7.24-9.12-5.95-19.06-10.61-29.92-12.95-15.06-3.24-42.45,18.11-51.95,30.34-.72-6.48,2.17-11.36,4.52-16.61,6.61-14.79,18.15-26.48,33.31-32.35,7.55-2.92,14.67-2.28,22.02.69,11.72,4.73,23.17,10.2,33.72,17.31,3.25,2.19,6.05.54,9.1-.51,32.93,18.91,49.12,53,64.88,85.59,6.62,13.7,13.65,26.57,23.45,38.25,8.46,10.08,18.79,17.77,29.16,25.67,4.22,3.21,5.84,6.17,4.65,11.68-5.49,25.42-17.38,48.82-34.59,68.31-2.01,2.28-4.9,1.71-6.8-.2-11.51-11.52-19.64-22.87-30.69-35.27-4.33-4.85-10.13-7.12-16.7-7.31-35.27-1.01-49.93-14.96-85.24-2.49-10.61,3.75-20.1,8.74-30.07,14.14-4.28,2.32-10.92,3.02-13.86-1.72Z"/>
        <path class="cls-2" d="M248.14,232.11c15.26,5.67,27.23,17.1,32.37,32.1,1.4,4.09-.07,8.56-2.77,11.14-2.83,2.71-7.66,3.2-11.61,1.17l-16.29-8.38c-10.76-5.54-22.71-8.08-35.03-7.84-25.51.51-38.85,12.97-68.91,10.92-8.15-.56-15.02,2.51-20.89,7.9s-35.04,33.06-40.46,32.4c-6.34-.77-16.86-23.81-19.16-30.2-4.37-12.15-7.33-24.45-9.02-37.21-.52-3.9.99-6.08,3.95-7.84,8.3-4.91,16.56-9.67,23.59-16.34,11.95-11.33,23.81-33.87,31.8-48.9,8.79-16.54,17.56-32.53,27.81-48.09,3.39-5.15,7.25-8.46,11.41-12.81,16.32-17.14,34.6-31.7,56.19-41.55,7.91-3.61,15.52-3.48,23.33-.08,11.7,5.08,22.6,11.43,30.43,21.58,4.5,5.84,8.46,11.65,9.08,19.2-4.82-2.57-8.34-5.84-12.6-8.74-9.98-6.8-31.13-19.4-43.12-14.95-8.41,3.12-16.18,7.32-23.07,12.82-2.41,1.93-3.3,5.01-1.98,7.7,1.08,2.21,4.76,3.65,7.71,2.02,5.44-3,10.88-5.73,16.48-8.41,4.42-2.11,8.23-2.53,12.96-.99,16.86,5.49,31.27,15.55,42.43,29.36,1.89,2.34,1.79,5.49.71,7.45-1.38,2.49-4.74,3.05-7.63,2.31-8.25-2.12-20.87-17.71-40.08-15.51-12.85,1.47-23.19,8.63-31.44,18.02-19.31,21.98-17.75,55.32,5.47,73.72,14.99,11.87,32.1,12.02,48.31,18.05Z"/>
        <path class="cls-2" d="M199.18,176.3c-.62-12.99,6.18-24.57,15.42-32.36,9.19-7.75,20.75-7.79,30.64-1.16,25.91,17.37,25.85,7,31.75,10.76,3.53,2.25,6.19,5.28,10.52,5.06,3.32-.17,7.27-1.94,9.52-5.22,5.29-7.71,12.57,2.61,30.43-12.59,13.65-11.62,32.09-10.57,43.46,3.38,9.57,11.74,14.4,24.33,8.68,39.48-3.81,10.07-11.11,17.45-21.6,20.72l-22.62,7.39c-18.51,6.05-33.17,18.21-43.89,35.07-10.28-15.95-23.76-26.26-40.52-31.75l-25.93-7.24c-14.31-4.12-25.09-15.71-25.84-31.54Z"/>
      </g>
    </g>
  </g>
</svg>