<?xml version="1.0" encoding="UTF-8"?>
<svg id="Layer_2" data-name="Layer 2" xmlns="http://www.w3.org/2000/svg" viewBox="0 0 274.74 260.61">
  <defs>
    <style>
      .cls-1 {
        fill: #e8ddec;
      }

      .cls-2 {
        fill: #f8bdcc;
      }

      .cls-3 {
        fill: #b08dc1;
      }

      .cls-4 {
        fill: #76489d;
      }
    </style>
  </defs>
  <g id="Layer_1-2" data-name="Layer 1">
    <g>
      <path class="cls-2" d="M142.45,260.6c-47.69.65-93.19-31.78-111.76-75.39-9.17-21.52-15.83-50.32-13.79-73.87l-10.16-9.13c-7.29-6.55-8.98-16.78-3.55-25.15,1.93-2.98,3.14-6.02,3.3-9.81,1.07-25.21,22.42-34.91,42.16-48.99.78-3.36.48-7.2,2.7-10,6.97-8.78,19.03-10.43,29.13-5.59,10.35,4.97,14.42,15.66,27.2,12.12l21.96-6.09C171.76-.15,209.28,21.97,237.94,51.89c43.58,45.49,51.26,118.77,7.84,165.9-10.44,11.33-22.65,20.45-36.95,26.75-21.1,9.29-43,15.74-66.38,16.06ZM62.51,67.45l1.62,6.32c-4.14,5.98-8.57,11.45-11.7,18.59-24.31,55.52,1.37,116.49,58.11,137.77,29.37,11.02,61.88,8.45,89.07-6.39,28.83-15.73,47.48-43.97,51.73-74.55,4.78-34.43-7.51-67-32.69-89.92-18.81-17.13-42.82-25.21-68.02-26.64l-.66-11.91c-.6-.35-2.64-.48-3.31.06l-1.86,12.1c-16.31.57-31.2,4.32-44.95,11.27.28-4.07-.65-9.49-5.15-9.86l-15.93-1.32-1.95-19.73c-.28-2.8-1.91-4.92-4.96-5.12-3.97-.26-8.73-1.12-12.58.37-2.53.97-2.72,5.46-2.96,7.75l-1.71,16.29-15.01,1c-2.43.16-5.15.98-6.11,2.43-2.18,3.27-1.61,14.95,2.68,15.71l15.3,2.7c3.41,6.16.17,12.97,4.3,14.45,2.83,1.01,4.09-1.52,6.75-1.37ZM34.94,87.98c3.65-2.71,11.84-1.09,11.2-7.88-.56-5.86-10.55-2.79-11.34-6.94l-1.8-9.44c-.53-2.79-5.04-2.22-7.19-1.49-4.49,1.52-2.74,9.44-5.22,11.8-2.17,2.05-8.55.04-10.44,4.42-.84,1.95-.72,4.85,1.67,5.69l8.78,3.08c2.85,1-.66,13.04,6.41,13.36,8.11.37,4.79-10.27,7.93-12.6Z"/>
      <path class="cls-3" d="M99.85,44.15l-15.31,9.37-13.65,12.29c-1.3,1.17-1.93,2.67-3.91,2.78l2.56-12.09c2.19-10.33,11.06-6.28,17.97-10.89-8.86-4.36-16.56-.41-18.05-9.24l-2.55-15.15-4.38,15.09c-.94,3.23-2.63,4.9-5.91,5.42l-15.97,2.52c7.2,4.61,19.57,1.04,20.55,10.56l1.3,12.63c-2.67-.15-3.93,2.38-6.75,1.37-4.14-1.48-.9-8.29-4.3-14.45l-15.3-2.7c-4.28-.76-4.86-12.44-2.68-15.71.96-1.45,3.68-2.27,6.11-2.43l15.01-1,1.71-16.29c.24-2.29.42-6.78,2.96-7.75,3.86-1.48,8.62-.63,12.58-.37,3.05.2,4.69,2.33,4.96,5.12l1.95,19.73,15.93,1.32c4.5.37,5.43,5.79,5.15,9.86Z"/>
      <path class="cls-3" d="M34.94,87.98c-3.14,2.33.18,12.97-7.93,12.6-7.07-.32-3.56-12.36-6.41-13.36l-8.78-3.08c-2.4-.84-2.51-3.74-1.67-5.69,1.89-4.38,8.27-2.37,10.44-4.42,2.48-2.35.73-10.28,5.22-11.8,2.15-.73,6.66-1.29,7.19,1.49l1.8,9.44c.79,4.15,10.78,1.08,11.34,6.94.65,6.79-7.55,5.17-11.2,7.88ZM27.81,88.78c2.34-4.46,2.86-5.54,6.39-7.26-3.76-2.05-4.74-4.49-6.17-8.5-.91,4.37-3.43,6.58-8.06,7.98,4.79,1.71,6.05,4.03,7.84,7.79Z"/>
      <path class="cls-1" d="M66.98,68.59c-.38,1.8-1.82,3.7-2.85,5.18l-1.62-6.32-1.3-12.63c-.98-9.52-13.35-5.95-20.55-10.56l15.97-2.52c3.28-.52,4.97-2.19,5.91-5.42l4.38-15.09,2.55,15.15c1.49,8.83,9.19,4.88,18.05,9.24-6.91,4.61-15.79.56-17.97,10.89l-2.56,12.09Z"/>
      <g>
        <path class="cls-4" d="M64.13,73.77c1.02-1.48,2.47-3.38,2.85-5.18,1.98-.11,2.61-1.61,3.91-2.78l13.65-12.29,15.31-9.37c13.75-6.95,28.64-10.7,44.95-11.27l1.86-12.1c.67-.54,2.7-.41,3.31-.06l.66,11.91c25.2,1.43,49.21,9.51,68.02,26.64,25.17,22.92,37.47,55.49,32.69,89.92-4.25,30.58-22.91,58.82-51.73,74.55-27.19,14.84-59.7,17.41-89.07,6.39-56.74-21.28-82.42-82.25-58.11-137.77,3.13-7.15,7.56-12.61,11.7-18.59ZM169.05,62.53c-1.25-7.74-3.8-12.94-7.8-18.01-4.55-3.72-11.19-4.48-16.64-1.97-3.97,5.96-5.27,12.95-4.55,19.84l28.98.13ZM133.3,62.03c1.34-7.57,3.94-13.37,3.82-20.31-12.08,3.2-21.45,10.7-26.06,21.82l22.24-1.52ZM170.63,44.78c-.95-1.06-2.08.43-.95,1.11l.95-1.11ZM171.18,44.96l-1.53,1.37,6.33,16.63c6,1.1,11.99,1.99,18.02.92-5.95-9.2-14.12-14.87-22.82-18.93ZM104.08,63.69l9.88-16.88c-11.32,4-20.6,10.28-27.36,19.53,6.72.34,11.93-.52,17.48-2.65ZM213.73,67.28c-5.59-6.11-11.46-11.11-19.85-14.29l8.72,12.29c3.39,1.76,6.83,2.86,11.13,1.99ZM193.42,98.56l18.17.81c.77,1.14,1.7,2.09,1.9,4.1l1.45,14.37c.11,1.04.72,1.95,1.26,2.25.7.38,1.58.35,2.58.15l.64,20.23,21.76.25c1.6-8.97.51-18.28-1.7-27.29-1.31-5.33-10.36-5.77-18.04-5.13.56-2.51,1.19-5.03,2.8-7.03l11.46,1.56-.34-5.63c.34-.85,2.66-1.89,1.69-3.58-2.9-5.04-13.38-1.98-14.41-10.55l-1.48-12.32c-.26-2.12-3.99-3.95-4.49-2.61-1.65,4.42-3.59,4.39-7.05,5.33-4.85,1.31-6.76.6-10.86-1.15-6.02-2.57-13.41-1.73-20.71-2.65l4.2,27.77c4,1.53,7.64.96,11.17,1.15ZM99.91,99.08l30.59-2.27,1.71-28.01-22.42,1.11c-4.66.23-8.59,18.61-9.87,29.17ZM175.3,97.09c-.45-10.16-1.91-18.55-4.1-27.63l-32.26-.81-1.76,28.3,38.12.14ZM92.83,99.13l7.1-28.18c-5.63-.16-11.18.19-16.45,2.49-6.6,8-10.39,17.57-12.8,28.51,7.62.17,14.31-1.07,22.15-2.82ZM63.88,100.76l8.97-23.65c-7.48,5.26-12.66,18.07-15.77,27.46,3.43.69,5.78-1.13,6.8-3.81ZM129.44,137.94l.6-34.22-31.23,1.93c-1.67,11.12-1.71,21.59-1.41,32.74l32.04-.45ZM136.16,103.19l-.28,35.22,40.97.32.28-35.22-40.97-.32ZM212.09,139.92c.99-11.68.08-21.98-2.8-32.25-2.1-1.16-4.2-1.59-6.45-1.72l-19.96-1.17.34,34.48,28.87.66ZM90.84,138.28l1.25-32.17-17.63,1.36c-2,.15-5.68,1.2-6.25,3.59-2.17,9.17-3.06,18.55-1.81,28,8.53.52,15.99.45,24.44-.78ZM67.71,174.04c-8.64-20.98-9.67-42.1-6.15-63.74-3.13-.86-6.01,1.31-6.8,4.43-4.45,17.69-3.98,36.2,3.29,52.89,1.65,4.27,4.86,7.64,9.66,6.42ZM173.29,176.13l3.23-31.03-40.2-.35,1.45,33.15,30.53.19c1.34,0,4.8-.15,4.99-1.96ZM85.5,176.93c-.72,1.44-1.16,2.78-3.43,3.13l-14.71,2.24c-1.99.3-1.74,4.69-.23,5.58l4.09,2.42,10.43,10.51c3.14-3.03-3.49-5.6-3.02-10.53l2.24.07c.13.27.39.82.68.95,1.94.92,3.48,2.65,3.82,5.19l1.77,13.03c.14,1.06.82,1.97,1.27,2.37.76.68,2.47.62,3.24-.48,1.3-1.87,1.81-4.05,2.07-5.97l12.37,1.7-5.8-14.05c1.68-1.35,3.84-1.28,5.8-1.79,2.06,4.95,3.32,12.59,8.29,16.11,5.08,3.6,13.02,2.09,19.14,2.16l-1.91-25.33-20.02-.24-11.14-1.6c-2.85-.41-4.63-2.54-4.88-5.27l-1.28-13.63c-.19-2.02-1.19-3.53-2.69-3.98.35-4.55.19-9.08-1.14-14.26-7.94-.37-15.5-.62-23.52.67.71,10.66,3.83,19.96,7.79,29.28l10.78,1.72ZM206.82,174.69c2.4-9.37,4.6-18.45,4.95-28.33l-29.04-.84-3.09,32.32,22.43.11c2.11.01,4.19-1.1,4.74-3.26ZM231.61,176.16c5.79-8.51,8.2-18.66,8.87-28.36-7.19-1.54-13.28-1.32-20.09-1.19-1.31.03-2.16,2.27-2.39,3.46l-5.38,27.85c5.85.3,13.6,1.18,18.99-1.76ZM166.05,209.69c2.84-8.92,4.77-16.7,5.65-25.49h-33.29s2.27,25.86,2.27,25.86c8.62.69,16.61.65,25.36-.37ZM219.58,194.98c2.96-3.57,5.55-6.53,7.31-10.77l-12.54-.29c-2.67-.06-4.48,1.53-5.59,3.8l-9.06,20.04c8.82-1.07,14.89-6.27,19.89-12.78ZM137.69,222.16c-4.52-7.74-8.99-7.63-17.86-7.37,1.82,4.21,5.06,5.88,7.61,8.43,4.26,4.27,9.09,5.69,15.08,5.89,8.48.27,16.49-3.33,19.82-12.32-11.85-.58-19.79-3.06-24.65,5.38ZM163.38,227.31c9.48-1.49,16.27-6.2,22.19-12.61-13.3,0-16.57-.46-22.19,12.61Z"/>
        <rect class="cls-3" x="138.9" y="100.47" width="35.22" height="40.97" transform="translate(34.32 276.51) rotate(-89.55)"/>
        <path class="cls-1" d="M235.36,97.19c-4.08-.11-8.58.9-11.12,4.07-1.61,2-2.24,4.52-2.8,7.03l-2.66,11.94c-.99.2-1.88.22-2.58-.15-.54-.29-1.15-1.2-1.26-2.25l-1.45-14.37c-.2-2-1.13-2.96-1.9-4.1-.85-1.25-1.6-2.78-3.95-3.29l-13.33-2.86c-1.46.82-1.18,3.94-.9,5.34-3.54-.19-7.17.38-11.17-1.15l-4.2-27.77c7.3.92,14.7.08,20.71,2.65,4.1,1.75,6.01,2.46,10.86,1.15,3.47-.94,5.4-.9,7.05-5.33.5-1.34,4.23.49,4.49,2.61l1.48,12.32c1.03,8.57,11.51,5.51,14.41,10.55.97,1.69-1.35,2.73-1.69,3.58Z"/>
        <path class="cls-3" d="M173.29,176.13c-.19,1.81-3.65,1.96-4.99,1.96l-30.53-.19-1.45-33.15,40.2.35-3.23,31.03Z"/>
        <path class="cls-1" d="M129.44,137.94l-32.04.45c-.3-11.14-.26-21.61,1.41-32.74l31.23-1.93-.6,34.22Z"/>
        <path class="cls-1" d="M175.3,97.09l-38.12-.14,1.76-28.3,32.26.81c2.19,9.09,3.64,17.47,4.1,27.63Z"/>
        <path class="cls-1" d="M212.09,139.92l-28.87-.66-.34-34.48,19.96,1.17c2.25.13,4.35.56,6.45,1.72,2.88,10.28,3.79,20.57,2.8,32.25Z"/>
        <path class="cls-3" d="M206.82,174.69c-.56,2.17-2.63,3.27-4.74,3.26l-22.43-.11,3.09-32.32,29.04.84c-.36,9.88-2.55,18.95-4.95,28.33Z"/>
        <path class="cls-1" d="M99.91,99.08c1.28-10.56,5.22-28.94,9.87-29.17l22.42-1.11-1.71,28.01-30.59,2.27Z"/>
        <path class="cls-3" d="M90.84,138.28c-8.45,1.24-15.91,1.3-24.44.78-1.24-9.45-.36-18.83,1.81-28,.57-2.39,4.25-3.44,6.25-3.59l17.63-1.36-1.25,32.17Z"/>
        <path class="cls-3" d="M166.05,209.69c-8.76,1.02-16.75,1.06-25.36.37l-2.27-25.85h33.29c-.88,8.78-2.81,16.56-5.65,25.48Z"/>
        <path class="cls-1" d="M111.58,184c.21,1.16,1.13,3.44.15,4.53-1.44,1.61-3.92,2.32-5.65,2.77-1.96.52-4.11.45-5.8,1.79-3.92-.64-5.72,5.92-6.57,12.35-.26,1.92-.76,4.11-2.07,5.97-.76,1.1-2.48,1.15-3.24.48-.45-.4-1.13-1.31-1.27-2.37l-1.77-13.03c-.34-2.54-1.88-4.27-3.82-5.19-.03-.33-.32-.94-.68-.95l-2.24-.07c-2.28-.88-5.09-1.82-7.41.02l-4.09-2.42c-1.5-.89-1.76-5.28.23-5.58l14.71-2.24c2.27-.35,2.71-1.69,3.43-3.13,3.36-6.75,1.61-14.63,6.09-17.41,1.51.45,2.5,1.96,2.69,3.98l1.28,13.63c.26,2.73,2.03,4.86,4.88,5.27l11.14,1.6Z"/>
        <path class="cls-3" d="M218.78,120.23l2.66-11.94c7.67-.64,16.73-.2,18.04,5.13,2.21,9,3.3,18.31,1.7,27.29l-21.76-.25-.64-20.23Z"/>
        <path class="cls-3" d="M231.61,176.16c-5.39,2.93-13.14,2.05-18.99,1.76l5.38-27.85c.23-1.18,1.09-3.43,2.39-3.46,6.81-.13,12.9-.35,20.09,1.19-.67,9.7-3.08,19.85-8.87,28.36Z"/>
        <path class="cls-3" d="M91.59,159.52c-4.48,2.77-2.72,10.65-6.09,17.41l-10.78-1.72c-3.96-9.32-7.09-18.62-7.79-29.28,8.02-1.29,15.57-1.03,23.52-.67,1.33,5.18,1.5,9.71,1.14,14.26Z"/>
        <path class="cls-1" d="M92.83,99.13c-7.84,1.75-14.53,3-22.15,2.82,2.42-10.94,6.2-20.51,12.8-28.51,5.27-2.3,10.82-2.65,16.45-2.49l-7.1,28.18Z"/>
        <path class="cls-3" d="M106.08,191.3c1.74-.46,4.22-1.16,5.65-2.77.97-1.09.06-3.37-.15-4.53l20.02.24,1.91,25.33c-6.13-.07-14.07,1.45-19.14-2.16-4.96-3.52-6.22-11.16-8.29-16.11Z"/>
        <path class="cls-3" d="M169.05,62.53l-28.98-.13c-.72-6.9.58-13.88,4.55-19.84,5.45-2.51,12.08-1.75,16.64,1.97,4,5.07,6.55,10.27,7.8,18.01Z"/>
        <path class="cls-3" d="M67.71,174.04c-4.8,1.22-8.01-2.15-9.66-6.42-7.26-16.69-7.74-35.2-3.29-52.89.78-3.12,3.67-5.29,6.8-4.43-3.52,21.63-2.49,42.76,6.15,63.74Z"/>
        <path class="cls-3" d="M137.69,222.16c4.86-8.44,12.8-5.95,24.65-5.38-3.32,8.99-11.34,12.59-19.82,12.32-6-.19-10.82-1.62-15.08-5.89-2.55-2.55-5.78-4.23-7.61-8.43,8.87-.27,13.34-.37,17.86,7.37Z"/>
        <path class="cls-3" d="M133.3,62.03l-22.24,1.52c4.61-11.12,13.98-18.63,26.06-21.82.12,6.94-2.48,12.74-3.82,20.31Z"/>
        <path class="cls-3" d="M219.58,194.98c-5,6.51-11.07,11.71-19.89,12.78l9.06-20.04c1.11-2.28,2.92-3.87,5.59-3.8l12.54.29c-1.76,4.24-4.36,7.2-7.31,10.77Z"/>
        <path class="cls-3" d="M169.68,45.9c-1.13-.69,0-2.17.95-1.11.1.11.43.13.55.18,8.7,4.06,16.87,9.73,22.82,18.93-6.03,1.06-12.03.18-18.02-.92l-6.33-16.63c.07-.18.05-.34.02-.44Z"/>
        <path class="cls-3" d="M104.08,63.69c-5.54,2.13-10.76,2.98-17.48,2.65,6.76-9.25,16.04-15.53,27.36-19.53l-9.88,16.88Z"/>
        <path class="cls-3" d="M163.38,227.31c5.61-13.07,8.89-12.6,22.19-12.61-5.92,6.41-12.71,11.13-22.19,12.61Z"/>
        <path class="cls-3" d="M63.88,100.76c-1.02,2.68-3.37,4.5-6.8,3.81,3.11-9.39,8.29-22.2,15.77-27.46l-8.97,23.65Z"/>
        <path class="cls-3" d="M100.28,193.1l5.8,14.05-12.37-1.7c.86-6.43,2.65-12.99,6.57-12.35Z"/>
        <path class="cls-3" d="M213.73,67.28c-4.3.86-7.74-.24-11.13-1.99l-8.72-12.29c8.38,3.17,14.26,8.18,19.85,14.29Z"/>
        <path class="cls-3" d="M211.59,99.37l-18.17-.81c-.29-1.4-.57-4.52.9-5.34l13.33,2.86c2.35.5,3.1,2.03,3.95,3.29Z"/>
        <path class="cls-3" d="M78.63,190.28c-.47,4.93,6.16,7.51,3.02,10.53l-10.43-10.51c2.32-1.84,5.14-.9,7.41-.02Z"/>
        <path class="cls-3" d="M235.36,97.19l.34,5.63-11.46-1.56c2.54-3.17,7.04-4.18,11.12-4.07Z"/>
        <path class="cls-3" d="M81.55,191.31c-.29-.14-.55-.68-.68-.95.36.01.65.62.68.95Z"/>
      </g>
      <path class="cls-1" d="M27.81,88.78c-1.79-3.75-3.05-6.07-7.84-7.79,4.62-1.39,7.15-3.61,8.06-7.98,1.43,4.01,2.41,6.45,6.17,8.5-3.53,1.72-4.04,2.8-6.39,7.26Z"/>
    </g>
  </g>
</svg>