<?xml version="1.0" encoding="UTF-8"?>
<svg id="Layer_2" data-name="Layer 2" xmlns="http://www.w3.org/2000/svg" viewBox="0 0 290.25 227.9">
  <defs>
    <style>
      .cls-1 {
        fill: #e5506f;
      }

      .cls-2 {
        fill: #faf2a0;
      }

      .cls-3 {
        fill: #f9c4c8;
      }

      .cls-4 {
        fill: #eae863;
      }

      .cls-5 {
        fill: #fed534;
      }
    </style>
  </defs>
  <g id="Layer_1-2" data-name="Layer 1">
    <g>
      <path class="cls-3" d="M116.01,6.18c-12.84-3.49-37.39-4.29-45.01,9.08-2.33,4.09-5.17,7.95-7.03,12.98-5.6.26-10.69-.78-15.76-.9-7.13-.16-10.54,4.02-11.56,10.67l-18.92,123.64c-1.32,8.6,2.37,14.85,10.41,17.15,11.1,3.18,22.03,4.45,33.91,5.96l126.81,16.07c.27.49.9,1.03,1.87,1.19l28.13,4.67c10.62,1.76,28.5,7.88,34.47.71,3.74-4.49,5.15-10.12,5.99-16.06l13.65-96.15c2.42-17.05-10.39-19.99-9.6-28.85.74-8.34-4.54-11.65-9.36-15.45-5.16-4.06-9.82-4.49-16.28-4.86l-50.83-2.85c-9.48-.53-5.37-7.24-16.23-9.84-12.55-3-24.9-2.38-37.22,1.61-3.09,1-6.26,2.04-9.52.99l-2.04-18.1c-.47-4.17-2.76-9.07-5.88-11.66,8.39,2.55,7.64,10.71,14.96,10.82,30.77.46,40.16,11.97,61.9,12.89l36.7,1.55c11.29.48,21.85,3.71,31.56,9.25,15.2,8.68,23.73,23.53,23.47,41.4-.35,23.29.98,45.46,4.41,68.54,3.32,22.3,1.13,57.24-20.9,69.52-11.97,6.67-25.5,8.29-39.31,7.62-23.01-1.12-44.97-4.23-67.62-8.37l-70.16-12.81c-21.89-4-43.01-6.38-64.72-8.85-15.59-1.77-25.79-13.79-26.24-28.78-.89-29.35,11.28-47.2,4.53-89.51-2.34-14.67.3-28.68,7.5-41.49,5.77-10.27,12.76-19.32,22.55-26.09C45.55,4.3,63.05,2.54,76.69.8c12.47-1.59,24.63-.84,36.63,2.72,1.49.44,2.24,1.65,2.69,2.67Z"/>
      <g>
        <path class="cls-1" d="M231.77,52.16c6.46.43,13.88,1.58,19.07,5.54,5.42,4.13,7.7,11.16,8.59,17.82.72,5.34,8.82,8.28,7.07,22.16l-11.37,90.13c-1.12,8.85-5.01,19.29-15.66,18.78-17.15-.82-33.92-3.64-50.62-5.76l-126.81-16.07c-11.87-1.5-22.8-2.77-33.91-5.96-8.03-2.3-11.72-8.55-10.41-17.15l18.92-123.64c1.02-6.65,4.43-10.83,11.56-10.67,5.08.12,10.16,1.16,15.76.9,1.86-5.03,4.7-8.89,7.03-12.98,2.49.49,4.52-1.54,7.16-2.14,9.31-2.11,19.2-2.75,28.34-.93,7.16,1.42,9.86,6.31,10.61,12.93-.22-1.97,3.47,12.17,3.92,12.47.7.47,2.54.54,3.81.4,14.15-1.53,27.84-1.26,41.55,1.23,6.55,1.19,9.71,5.02,14.58,8.69,3.35,2.53,43.74,3.78,50.81,4.26ZM83.15,23.26c-.75.19-1.52.38-2.06.55-1.41.46-.76,1.8-.77,3.16-.03,3.42,1.95,5.73,5.35,6.26,4.13.65,17.65,3.62,17.11-2.08,1.81-1.54,3.23-6.93.7-8.22-2.73-1.39-19.02-2.9-20.32.31ZM229.52,186.61c5.86.83,11.25-1.4,12.45-7.67,4.94-25.76,8.4-51.68,11.86-77.79.28-7.56-4.61-10.78-11.23-11.83l-40.75-6.5c-16.02-27.4-49.06-42.87-79.02-27.56-7.82.26-14.89-1.24-22.47-2.51-14.15-2.37-28.13-4.88-42.29-6.48-7.77-.88-11.73,5.18-12.91,12-5.13,29.4-8.17,58.36-11.72,88.02-.61,5.11.54,11.18,6.48,12.59,22.23,5.29,44.55,8.56,67.35,10.42,9.64.79,18.12,2.89,27.24,5.93,5.51,1.84,11.66-.15,17.5.65l52.69,7.23,24.82,3.51ZM218.47,72.19c2.14-1.33,1.6-5.41.77-7.03-1.09-2.14-11.81-4.53-13.16,1.5-.42,1.88.41,4.79,3.33,5.71,2.41.76,6.54,1.39,9.06-.18ZM233.64,65.92c-2.88-.94-6.61-1.32-9.18-.04-1.95.97-1.83,5.21-.93,6.88,1.04,1.93,10.29,4.69,12.62.11,1.22-2.39.78-5.88-2.51-6.95Z"/>
        <path class="cls-5" d="M116.01,6.18c3.12,2.59,5.41,7.49,5.88,11.66l2.04,18.1c3.26,1.05,6.44.01,9.52-.99,12.32-3.99,24.66-4.61,37.22-1.61,10.86,2.59,6.75,9.3,16.23,9.84l50.83,2.85c-.55,1.17-.18,3.37-1.53,4.45s-3.59.25-4.44,1.67c-7.08-.47-47.46-1.73-50.81-4.26-4.87-3.67-8.03-7.5-14.58-8.69-13.71-2.48-27.4-2.75-41.55-1.23-1.27.14-3.11.07-3.81-.4-.44-.29-4.14-14.44-3.92-12.47-.75-6.62-3.45-11.51-10.61-12.93-9.14-1.82-19.03-1.17-28.34.93-2.64.6-4.67,2.62-7.16,2.14,7.63-13.38,32.17-12.57,45.01-9.08Z"/>
        <path class="cls-2" d="M188.86,200.82c16.71,2.12,33.47,4.94,50.62,5.76,10.64.51,14.54-9.93,15.66-18.78l11.37-90.13c1.75-13.88-6.35-16.82-7.07-22.16-.9-6.66-3.18-13.69-8.59-17.82,1.87-1.81,3.08-4.19,3.17-6.81,4.82,3.79,10.11,7.11,9.36,15.45-.79,8.87,12.02,11.8,9.6,28.85l-13.65,96.15c-.84,5.93-2.25,11.56-5.99,16.06-5.97,7.17-23.85,1.05-34.47-.71l-28.13-4.67c-.96-.16-1.6-.7-1.87-1.19Z"/>
        <path class="cls-4" d="M254.01,50.88c-.08,2.62-1.3,4.99-3.17,6.81-5.19-3.96-12.61-5.11-19.07-5.54.84-1.42,3.11-.6,4.44-1.67s.98-3.29,1.53-4.45c6.45.36,11.11.79,16.28,4.86Z"/>
        <path class="cls-5" d="M229.52,186.61l-24.82-3.51-52.69-7.23c-5.84-.8-11.98,1.19-17.5-.65-9.12-3.04-17.6-5.15-27.24-5.93-22.8-1.86-45.11-5.13-67.35-10.42-5.93-1.41-7.09-7.48-6.48-12.59,3.55-29.66,6.6-58.62,11.72-88.02,1.19-6.82,5.14-12.88,12.91-12,14.17,1.61,28.14,4.12,42.29,6.48,7.58,1.27,14.65,2.77,22.47,2.51,29.96-15.31,63,.16,79.02,27.56l40.75,6.5c6.62,1.06,11.51,4.27,11.23,11.83-3.46,26.11-6.92,52.03-11.86,77.79-1.2,6.27-6.6,8.5-12.45,7.67ZM106.12,160.17c-8.29-9.58-14.84-17.29-18.5-27.83-8.8-24.85-1.34-51.83,19.86-68.35l-43.52-6.94c-4.6-.73-8.16,1.81-8.66,6.71-5.25,25.45-8.34,52.93-10.77,78.47-.22,2.35-1.44,7.54,1.1,7.95l60.5,9.98ZM197.81,111.87c0-28.31-22.96-51.27-51.29-51.27s-51.29,22.95-51.29,51.27,22.96,51.27,51.29,51.27,51.29-22.95,51.29-51.27ZM226.16,175.7c3.38.36,6.44-3.14,6.91-5.71,3.88-21.41,6.79-42.34,9.21-63.97.32-3.97-1.48-6.62-5.3-7.37-9.96-1.95-19.66-3.63-30.23-5.09,6.36,21.09,1.47,42.58-13.03,58.18-6.04,6.5-12.46,11.73-20.57,15.35-.95.42-1.43,1.55-1.22,2.09.19.48.86.89,1.81.99l52.41,5.54Z"/>
        <path class="cls-3" d="M102.76,31.16c-4.4-.07-8.91,0-13.72-.37-5.85-.46-4.27-7.19-5.9-7.53,1.29-3.21,17.59-1.7,20.32-.31,2.53,1.29,1.12,6.68-.7,8.22Z"/>
        <path class="cls-5" d="M233.64,65.92c3.29,1.07,3.73,4.56,2.51,6.95-2.34,4.58-11.58,1.82-12.62-.11-.9-1.68-1.02-5.92.93-6.88,2.57-1.28,6.3-.9,9.18.04Z"/>
        <path class="cls-5" d="M218.47,72.19c-2.51,1.57-6.65.93-9.06.18-2.92-.91-3.75-3.83-3.33-5.71,1.35-6.03,12.06-3.65,13.16-1.5.83,1.63,1.37,5.7-.77,7.03Z"/>
        <path class="cls-5" d="M102.76,31.16c.54,5.7-12.98,2.73-17.11,2.08-3.4-.54-5.38-2.84-5.35-6.26.01-1.36-.64-2.7.77-3.16.54-.18,1.32-.36,2.06-.55,1.63.34.05,7.08,5.9,7.53,4.81.38,9.32.3,13.72.37Z"/>
        <path class="cls-1" d="M106.12,160.17l-60.5-9.98c-2.54-.42-1.32-5.61-1.1-7.95,2.43-25.55,5.52-53.02,10.77-78.47.51-4.9,4.07-7.44,8.66-6.71l43.52,6.94c-21.2,16.52-28.66,43.5-19.86,68.35,3.66,10.54,10.21,18.25,18.5,27.83Z"/>
        <path class="cls-1" d="M197.81,111.87c0,28.31-22.96,51.27-51.29,51.27s-51.29-22.95-51.29-51.27,22.96-51.27,51.29-51.27,51.29,22.95,51.29,51.27ZM187.61,111.74c0-22.59-18.32-40.91-40.92-40.91s-40.92,18.32-40.92,40.91,18.32,40.91,40.92,40.91,40.92-18.32,40.92-40.91Z"/>
        <path class="cls-1" d="M226.16,175.7l-52.41-5.54c-.94-.1-1.62-.52-1.81-.99-.21-.53.27-1.67,1.22-2.09,8.11-3.62,14.53-8.84,20.57-15.35,14.49-15.6,19.39-37.08,13.03-58.18,10.56,1.46,20.27,3.13,30.23,5.09,3.82.75,5.61,3.4,5.3,7.37-2.42,21.63-5.33,42.57-9.21,63.97-.47,2.56-3.53,6.06-6.91,5.71Z"/>
        <path class="cls-4" d="M187.61,111.74c0,22.59-18.32,40.91-40.92,40.91s-40.92-18.32-40.92-40.91,18.32-40.91,40.92-40.91,40.92,18.32,40.92,40.91ZM171.28,118.15c6.61-7.62,5.95-18.31-2.49-23.08-5.74-3.25-12.53-1.58-18.2,2.27-4.53-7.32-12-11.92-20.36-8.86-7.62,2.79-10.27,11.38-7.9,19.29,3.33,11.1,10.52,20.43,18.95,29.29,11.35-4.1,22.01-9.72,29.99-18.92Z"/>
        <path class="cls-5" d="M171.28,118.15c-7.98,9.19-18.64,14.82-29.99,18.92-8.43-8.86-15.62-18.2-18.95-29.29-2.37-7.9.28-16.5,7.9-19.29,8.36-3.06,15.84,1.54,20.36,8.86,5.67-3.85,12.45-5.52,18.2-2.27,8.43,4.77,9.1,15.46,2.49,23.08Z"/>
      </g>
    </g>
  </g>
</svg>