<?xml version="1.0" encoding="UTF-8"?>
<svg id="Layer_2" data-name="Layer 2" xmlns="http://www.w3.org/2000/svg" viewBox="0 0 307.84 279.74">
  <defs>
    <style>
      .cls-1 {
        fill: #c2e5e1;
      }

      .cls-2 {
        fill: #218cbc;
      }
    </style>
  </defs>
  <g id="Layer_1-2" data-name="Layer 1">
    <g>
      <path class="cls-1" d="M307.17,206.8c-3,14.79-29.29,24.74-41.84,28.59l-122.03,37.48c-10.36,3.18-20.13,5.09-30.74,6.35-26.77,3.19-54.4-8.43-65.67-34.17-21.8-49.81-10.21-63.15-23.31-103.23-2.93-8.98-7.03-15.52-14.42-21.03-9.76-7.29-11.75-20.46-5.81-30.58,7.79-13.28,15.22-16.16,16.06-34.7.45-9.95,6.93-17.68,16.49-19.52,17.77-3.42,24.26-17.83,38.83-30.04,9.12-7.64,20.91-8.2,29.61-.07l8.78,8.2c12.35,11.54,20.61,4.91,35.4,7.48,7.19,1.25,12.23,6.61,12.14,14.01-.05,4.36-.54,8.62-1.01,12.93-3.15,28.63,52.09.52,93.4,18.21,8.83,3.78,15.23,9.99,19.78,18.55,5.76,10.83,9.92,22.17,13.8,33.94,8.43,25.62,1.28,35.14,15.44,60.27,4.52,8.04,7.08,17.59,5.1,27.32ZM67.45,74.85c5.62-1.64,8.46,3.14,12.44,3.22,9.08-3.39,7.06-25.38,12.15-23.85.58.17,1.4,1.17,1.54,2.29l3.25,25.23c3.84-1.14,5.81-4.08,8.38-6.53l8.25-7.86c4.82-.35-.33,6.92,0,10.62,4.09,4.2,21.37-30.35,22.84-33.45.73-1.55.5-4.39-.85-4.95-1.05-.44-3.19-.64-4.63.51l-19.83,15.87c-1.17.93-2.65,1.65-3.79,1.5-3.56-.47-16.89-32.03-22.17-31.61-.93.07-2.77.42-2.97,1.99-1.47,11.66-1.38,22.89-1.4,34.81,0,6.07-35.89-11.59-39.32-7.03-.58.77-.67,2.85.15,4.06l16.17,23.84c.74,1.09,1.1,2.22.77,3.26-.28.87-1.24,1.63-2.5,2.06l-30.56,10.47c-1.38.47-2.3,2.46-1.97,3.33s1.76,1.93,2.96,2.08c15.95,1.94,24.58,2.03,40.22,3.61,1.93.2,3.64-.21,4.52-1.7.57-.96,1.6-2.94.26-4.21-2.08-1.98-5.61-2-7.24-4.27-1.14-3.69,11.01-1.94,15.45-7.08-3.51-6.51-9.81-9.93-12.15-16.21ZM52.59,154.02c4.38,11.05,7.14,21.75,9.51,32.99l5.4,25.59c2.56,12.12,8.05,23.29,13.78,33.92,6.85,12.69,19.25,17.78,32.78,13.27l44.87-14.95,98.3-31.56c13.75-4.41,32.72-11.05,28.32-28.04l-11.49-44.41c-3.73-14.43-8.67-27.9-16.15-40.72-1.6-2.75-5.4-4.72-6.45-7.47-4.08-10.67-12.87-14.29-23.85-13.46-12.82.97-25.17,4.5-37.23,9.4-10.9,4.43-9.07,13.57-17.42,9.84-18.6-8.32-29.68,5.52-35.02,2.78-3.72-1.9-2.94-18.5-17.59-15.64-12.12,2.36-23.82,6.51-35.03,11.53-4.71,2.11-7.43,6.26-6.86,11.33l1.36,12.05c.75,6.66-9.33,5.31-20.86,13.43-6.43,4.53-9.57,12.09-6.38,20.12Z"/>
      <path class="cls-2" d="M67.45,74.85c2.34,6.28,8.64,9.71,12.15,16.21-4.44,5.14-16.59,3.38-15.45,7.08,1.62,2.27,5.16,2.29,7.24,4.27,1.34,1.28.31,3.25-.26,4.21-.88,1.49-2.59,1.9-4.52,1.7-15.63-1.58-24.27-1.67-40.22-3.61-1.2-.15-2.63-1.2-2.96-2.08s.59-2.86,1.97-3.33l30.56-10.47c1.25-.43,2.22-1.19,2.5-2.06.33-1.04-.03-2.17-.77-3.26l-16.17-23.84c-.82-1.21-.73-3.29-.15-4.06,3.43-4.56,39.31,13.1,39.32,7.03.02-11.92-.07-23.15,1.4-34.81.2-1.57,2.04-1.91,2.97-1.99,5.28-.42,18.61,31.14,22.17,31.61,1.14.15,2.62-.57,3.79-1.5l19.83-15.87c1.44-1.15,3.58-.95,4.63-.51,1.34.56,1.58,3.4.85,4.95-1.46,3.1-18.75,37.65-22.84,33.45-.34-3.7,4.81-10.98,0-10.62l-8.25,7.86c-2.57,2.45-4.54,5.39-8.38,6.53l-3.25-25.23c-.14-1.12-.96-2.12-1.54-2.29-5.09-1.53-3.07,20.46-12.15,23.85-3.98-.08-6.82-4.87-12.44-3.22Z"/>
      <g>
        <path class="cls-2" d="M52.59,154.02c-3.18-8.02-.05-15.59,6.38-20.12,11.53-8.12,21.62-6.77,20.86-13.43l-1.36-12.05c-.57-5.07,2.15-9.22,6.86-11.33,11.21-5.02,22.91-9.17,35.03-11.53,14.65-2.86,13.87,13.73,17.59,15.64,5.34,2.74,16.42-11.11,35.02-2.78,8.35,3.74,6.52-5.41,17.42-9.84,12.07-4.9,24.41-8.44,37.23-9.4,10.97-.83,19.76,2.79,23.85,13.46,1.05,2.74,4.85,4.72,6.45,7.47,7.47,12.83,12.41,26.3,16.15,40.72l11.49,44.41c4.4,17-14.57,23.63-28.32,28.04l-98.3,31.56-44.87,14.95c-13.53,4.51-25.93-.58-32.78-13.27-5.74-10.63-11.22-21.8-13.78-33.92l-5.4-25.59c-2.37-11.24-5.13-21.94-9.51-32.99ZM234.21,97.78c2.33-2.61-.1-5.94-1.6-7.29-2.33-2.08-12.74.56-12.93,4.62-.1,2.2.16,5.63,3.09,6.09,3.59.56,8.8-.45,11.44-3.42ZM208.83,106.36c3.05-.5,5.92-1.36,7.94-2.66,2.62-1.68.75-5.17-.48-6.61-2.63-3.09-11.2.49-11.62,4.17-.24,2.07.86,5.64,4.16,5.1ZM123.13,109.76c.88-3.39-.51-7.46-2.19-9.7-3.25-4.33-22.28,3.57-26.55,5.61-4.08,1.96-1.38,13.7,3.13,12.59,8.48-2.07,17.22-5.28,25.6-8.51ZM196.91,216.25l51.32-17.03,19.22-5.8c7.18-2.17,7.64-8.54,5.92-14.84l-3.87-14.2-15.98-49.98c-.73-2.29-3.28-6.15-6.02-5.49-13.83,3.32-26.99,7.22-40.81,9.32-31.62-20.8-64.86-14.06-85.53,16.71-7.73,3.11-15.08,4.74-22.63,7.59l-25.4,9.58c-3.85,1.45-5.9,5.51-4.61,9.47l12.52,38.45,12.26,34.57c1.69,4.77,6.08,8.05,11.42,6.62l70.56-18.93c7.45-2,13.81-3.44,21.63-6.04Z"/>
        <path class="cls-1" d="M196.91,216.25c-7.81,2.59-14.18,4.04-21.63,6.04l-70.56,18.93c-5.34,1.43-9.72-1.85-11.42-6.62l-12.26-34.57-12.52-38.45c-1.29-3.96.76-8.02,4.61-9.47l25.4-9.58c7.54-2.85,14.9-4.49,22.63-7.59,20.67-30.77,53.91-37.51,85.53-16.71,13.82-2.1,26.98-6,40.81-9.32,2.75-.66,5.29,3.2,6.02,5.49l15.98,49.98,3.87,14.2c1.72,6.3,1.26,12.67-5.92,14.84l-19.22,5.8-51.32,17.03ZM219.53,163.24c0-26.59-21.56-48.15-48.16-48.15s-48.16,21.56-48.16,48.15,21.56,48.15,48.16,48.15,48.16-21.56,48.16-48.15ZM258.81,186.54c3.68-1.24,5.61-5.22,4.63-9.1-4.56-18.13-10.26-35.71-16.54-53.24-1.27-3.55-4.83-5.3-8.03-4.34l-23.81,5.8c18.84,22.44,17.97,53.36-1.08,75.73,11.19-2.77,20.72-6.75,31.02-10.21l13.81-4.64ZM145.86,221.38c3.76-1.01,7-2.01,9.75-3.49-31.31-11.05-49.04-38.57-39.1-71.9-13.03,3.42-24.93,7.94-36.48,13.56-.79.95-.85,3.7-.55,4.88,5.25,20.96,12.57,40.6,20.22,60.69.99,2.6,2.27,4.94,3.98,5.76,2.53,1.2,4.82.53,7.24-.12l34.94-9.38Z"/>
        <path class="cls-1" d="M123.13,109.76c-8.38,3.22-17.12,6.43-25.6,8.51-4.52,1.1-7.22-10.64-3.13-12.59,4.27-2.05,23.3-9.95,26.55-5.61,1.68,2.24,3.07,6.31,2.19,9.7Z"/>
        <path class="cls-1" d="M234.21,97.78c-2.64,2.96-7.85,3.97-11.44,3.42-2.93-.45-3.19-3.89-3.09-6.09.19-4.06,10.6-6.7,12.93-4.62,1.5,1.34,3.93,4.68,1.6,7.29Z"/>
        <path class="cls-1" d="M208.83,106.36c-3.3.54-4.39-3.03-4.16-5.1.43-3.68,9-7.26,11.62-4.17,1.23,1.44,3.1,4.93.48,6.61-2.03,1.3-4.89,2.16-7.94,2.66Z"/>
        <path class="cls-2" d="M219.53,163.24c0,26.59-21.56,48.15-48.16,48.15s-48.16-21.56-48.16-48.15,21.56-48.15,48.16-48.15,48.16,21.56,48.16,48.15ZM207.63,163.45c0-19.93-16.17-36.1-36.11-36.1s-36.11,16.16-36.11,36.1,16.17,36.1,36.11,36.1,36.11-16.16,36.11-36.1Z"/>
        <path class="cls-2" d="M145.86,221.38l-34.94,9.38c-2.41.65-4.71,1.32-7.24.12-1.71-.81-2.99-3.16-3.98-5.76-7.65-20.1-14.97-39.74-20.22-60.69-.29-1.18-.24-3.93.55-4.88,11.55-5.62,23.44-10.14,36.48-13.56-9.94,33.33,7.79,60.86,39.1,71.9-2.74,1.47-5.98,2.47-9.75,3.49Z"/>
        <path class="cls-2" d="M258.81,186.54l-13.81,4.64c-10.3,3.46-19.83,7.44-31.02,10.21,19.05-22.37,19.93-53.29,1.08-75.73l23.81-5.8c3.2-.96,6.76.79,8.03,4.34,6.28,17.53,11.98,35.11,16.54,53.24.98,3.88-.95,7.86-4.63,9.1Z"/>
        <path class="cls-1" d="M207.63,163.45c0,19.93-16.17,36.1-36.11,36.1s-36.11-16.16-36.11-36.1,16.17-36.1,36.11-36.1,36.11,16.16,36.11,36.1ZM185.39,147.35c1.05,6.66-2.4,10.29-6.65,11.63-4.62,1.46-9.32-.64-11.86-4.27-2.83-4.04-1.05-8.64,1.75-13.4-11.31-.1-19.46,8.94-20.69,19.78-1.03,9.1,3.62,17.58,11.43,22.56,9.63,6.14,21.78,4.18,29.31-3.6,7.66-7.92,9.42-20.16,2.77-29.53-1.46-2.05-3.76-5.4-6.06-3.16Z"/>
        <path class="cls-2" d="M185.39,147.35c2.29-2.23,4.6,1.12,6.06,3.16,6.65,9.37,4.89,21.61-2.77,29.53-7.53,7.78-19.67,9.74-29.31,3.6-7.81-4.98-12.45-13.46-11.43-22.56,1.22-10.84,9.38-19.87,20.69-19.78-2.8,4.76-4.58,9.36-1.75,13.4,2.54,3.63,7.24,5.73,11.86,4.27,4.26-1.34,7.7-4.98,6.65-11.63Z"/>
      </g>
    </g>
  </g>
</svg>