<?xml version="1.0" encoding="UTF-8"?>
<svg id="Layer_2" data-name="Layer 2" xmlns="http://www.w3.org/2000/svg" viewBox="0 0 472.64 444.9">
  <defs>
    <style>
      .cls-1 {
        fill: #365eaa;
      }

      .cls-2 {
        fill: #8a9ed1;
      }

      .cls-3 {
        fill: #f9f0d7;
      }

      .cls-4 {
        fill: #345ca9;
      }
    </style>
  </defs>
  <g id="Layer_1-2" data-name="Layer 1">
    <g>
      <path class="cls-2" d="M313.93,394.75c-27.08,17.55-41.5,3.46-61.83-9.82-8.85-5.78-22.38-6.63-29.86,1.73-10.35,11.57-22.3,34.37-35.25,46.71-13.14,12.52-33.15,15.66-48.53,5.35-10.25-6.87-14.86-18.74-15.8-30.78-.39-4.96.87-9.32-.27-14.52-8.37,7.53-17.04,13.21-27.88,14.42-24,2.7-43.7-15.97-41.99-40.03,1.22-17.23,9.67-39.36,15.75-56.11,4.89-13.47-32.55,4.51-55.95-14.3-15.55-12.5-16.32-34.27-2.68-48.22,12.19-12.47,40.24-25.91,41.89-30.72.4-1.17-.12-2.42-1.38-3.17-7.91-4.72-15.27-9.58-21.63-15.98-15.01-15.11-13.45-37.79,3.83-51.26C12.43,136.83.22,126.32,2.92,103.84c1.28-10.71,10.34-16.04,16.95-24.26,6.08-7.55,7.11-18.44,15.67-25.42,14.3-11.66,33.87-15.47,49.94-4.76,7.66,5.11,12.13,12.79,17.84,20.92,14.01-14.27,34.28-16.97,50.89-7.66l21.27,11.92c5.9,3.31,15.46,6.71,21.55,2.14,4.37-3.28,6.48-10.11,9.11-14.9,7.51-13.71,14.19-27.07,22.93-39.93,5.26-7.74,11.42-13.88,19.86-17.78,20.21-9.33,42.87-.06,50.62,20.89,5.5,14.84,2.34,29.51,7.06,24.51,12.91-13.67,25.87-26.58,41.02-37.77,20.62-15.23,45.55-16.95,63.58,2.57,9.34,10.11,13.33,23.94,7.89,36.97-6.64,15.89-17.87,16.32-12.63,24.69,6.73,10.73,8.13,23.66,2.19,34.82l-12.46,23.37c-.51.95.09,2.4.47,2.96s1.45.62,2.64.63c25.21.11,51.56-6.2,67,14.21,10.07,13.31,7.97,31.43-5.17,42.21-16.54,13.56-42.42,26.11-59.88,38.81-2.08,1.51-3.21,3.5-3.37,5.6-.2,2.61,1.17,4.69,3.49,6.42,15.83,11.81,33.43,17.08,40.2,33.53,5.5,13.37,1.46,27.11-9.86,36.01-9.32,7.33-20.64,9.73-32.86,11,14.73,15.21,23.46,35.07,9.39,52.35-6.45,7.92,1.45,17.64-11.19,32.67-5.2,6.18-12.35,8.44-19.11,12.23-16.46,9.22-35.58,7.19-49.08-6.69-5.9-6.07-9.9-13.6-14.92-21.35ZM333.91,81.83l52.51-34.34c3.48-2.27,5.93-5.17,5.9-8.74s-1.87-6.64-4.47-9.04c-5.04-4.66-10.95-5.52-16.72-1.5-20.43,14.23-38.41,31.13-54.27,50.36-1.88,2.28-1.07,5.3,0,6.7,4.18,5.45,11.78,0,17.04-3.44ZM202.79,365.1c5.63-8.61,10.73-16.35,16.61-24.01,3.98-5.18,9.67-5.45,15.36-2.66,8.69,4.25,16.2,10.05,23.76,16.29l25.11,20.75c3.76,3.11,8.51,3.17,12.18,1.29,4-2.05,5.85-6.05,5.69-10.78-.59-16.66-2.19-39.39,1.8-54.81,3.13-12.1,21.43-11.81,32.65-11.7l69.24.71c5.18.05,9.31-3.8,10.19-7.75,1.17-5.22-1.71-8.92-6.12-11.45-16.76-9.62-40.38-23.51-53.36-37.31-2.1-2.23-3.32-4.83-2.59-7.73.48-1.9,1.87-4.39,4.04-5.97,11.01-8.05,22.4-14.59,34.13-21.78l48.31-29.6c3.66-2.24,4.8-6.97,3.73-10.53s-4.85-6.54-9.32-6.31l-60.83,3.04c-6.57.33-19.33,1.28-21.37-3.92-2.94-7.5,23.06-51.91,28.41-61.2,2.64-4.58,1.29-10.3-1.8-13.45-3.31-3.37-9.34-3.96-13.85-1.39l-51.43,29.45c-6.77,3.88-12.93,7.79-20.13,10.73-4.08,1.66-8.13-.58-9.24-4.72-3.55-13.27-5.29-26.4-6.5-40.19l-3.96-45.19c-.4-4.57-4.27-8.11-7.71-8.72-4.27-.75-8.35,1.18-10.73,4.82-8.93,13.59-15.8,27.72-23.52,42.2-8.61,16.15-15.48,32.46-25,48.14-2.28,3.75-8.12,2.75-11.51,1.06-21.85-10.85-42.51-30.67-57.2-38.55-4.5-2.42-9.63-1.32-12.93,1.4-3.69,3.04-3.7,7.58-2.68,12.36,4.29,20.18,9.25,39.78,11.92,60.26.36,2.77.19,5.39-1.1,7.29-3.37,4.96-21.28,3.63-28.63,3.24l-47.88-2.52c-4.9-.26-8.93,3.68-10.22,7.47-1.46,4.26.62,8.54,4.62,11.29l41.94,28.81c2.23,1.53,3.58,4.03,3.66,6.11.09,2.54-1.73,4.23-4.12,5.74l-59.84,37.81c-4.37,2.76-6.21,7.26-4.73,12.15,1.16,3.82,5.66,6.69,10.71,6.61,19.75-.3,39.01-1.05,58.6,1.23,2.96.35,5.7,1.48,6.75,3.31,1.27,2.21,1.37,5.01.5,7.49l-15.12,42.9c-3.78,10.72-7.42,20.97-9.49,32.16-1.02,5.54-.05,10.53,5.03,13.27,3.42,1.85,9.24,2.34,12.91-1.19l31.54-30.25c3.77-3.62,16.02-15.61,20.2-13.31,1.28.71,2.08,2.33,2.32,4.2,2.37,17.95-3.34,52.61-1.59,71.25.42,4.44,4.41,6.99,8.01,7.36,3.3.33,7.49-.75,9.84-3.88,12.41-16.54,23.17-33.58,34.77-51.33ZM103.68,124.18c-9.79-18.02-20.25-34.83-31.94-51.09-2.73-3.79-7.39-4.85-10.92-3.91-2.98.8-8.81,6.08-5.87,9.87l40.3,52.12c2.01,2.6,5.87,2.27,7.5.87,1.79-1.53,2.55-4.88.93-7.87ZM90.52,135.41l-46.24-31.65c-4.6-3.15-10.5-2.06-12.82,2.52s-.27,9.52,4.68,12.18l49.3,26.56c2.86,1.54,6.86.05,7.76-2.51.71-2.02.08-5.23-2.67-7.11ZM383.23,350.9l-42.79-29.02c-3.04-2.06-7.19-1.48-8.84,1.64-1.17,2.2-1.05,5.42,1.59,7.71,13.07,11.34,26.02,22.37,39.73,32.91,3.77,2.9,9.39,1.95,11.97-1.16s2.28-9.42-1.65-12.09ZM363.23,384.41c-7.56-7.31-12.53-15.97-18.32-24.18l-10.28-14.57c-1.49-2.12-4.41-2.3-6.33-1.28-2.04,1.09-2.59,3.69-1.7,6.3,5.68,16.7,13.29,32.32,22.34,47.4,2.63,4.38,7.04,6.45,11.69,5.69,4.22-.69,8.46-3.89,9.01-8.79s-3.16-7.41-6.42-10.56Z"/>
      <path class="cls-4" d="M202.79,365.1c-11.6,17.75-22.36,34.79-34.77,51.33-2.35,3.13-6.54,4.22-9.84,3.88-3.6-.37-7.6-2.92-8.01-7.36-1.75-18.64,3.96-53.31,1.59-71.25-.25-1.87-1.05-3.5-2.32-4.2-4.17-2.31-16.43,9.69-20.2,13.31l-31.54,30.25c-3.68,3.52-9.49,3.04-12.91,1.19-5.08-2.74-6.05-7.73-5.03-13.27,2.07-11.19,5.71-21.45,9.49-32.16l15.12-42.9c.88-2.49.77-5.28-.5-7.49-1.05-1.83-3.79-2.97-6.75-3.31-19.58-2.29-38.85-1.54-58.6-1.23-5.05.08-9.55-2.79-10.71-6.61-1.48-4.89.36-9.39,4.73-12.15l59.84-37.81c2.39-1.51,4.21-3.2,4.12-5.74-.07-2.08-1.43-4.58-3.66-6.11l-41.94-28.81c-4.01-2.75-6.08-7.03-4.62-11.29,1.29-3.79,5.32-7.72,10.22-7.47l47.88,2.52c7.35.39,25.26,1.72,28.63-3.24,1.3-1.91,1.46-4.53,1.1-7.29-2.67-20.48-7.62-40.08-11.92-60.26-1.02-4.78-1.01-9.32,2.68-12.36,3.3-2.71,8.43-3.81,12.93-1.4,14.69,7.88,35.34,27.69,57.2,38.55,3.39,1.69,9.24,2.69,11.51-1.06,9.52-15.67,16.39-31.98,25-48.14,7.72-14.48,14.59-28.61,23.52-42.2,2.39-3.63,6.46-5.57,10.73-4.82,3.45.61,7.31,4.15,7.71,8.72l3.96,45.19c1.21,13.79,2.95,26.92,6.5,40.19,1.11,4.14,5.16,6.38,9.24,4.72,7.19-2.93,13.36-6.85,20.13-10.73l51.43-29.45c4.5-2.58,10.54-1.99,13.85,1.39,3.09,3.15,4.43,8.87,1.8,13.45-5.36,9.29-31.35,53.7-28.41,61.2,2.04,5.2,14.8,4.25,21.37,3.92l60.83-3.04c4.47-.22,8.22,2.64,9.32,6.31s-.08,8.29-3.73,10.53l-48.31,29.6c-11.73,7.19-23.12,13.73-34.13,21.78-2.17,1.58-3.56,4.07-4.04,5.97-.73,2.9.49,5.5,2.59,7.73,12.98,13.8,36.6,27.7,53.36,37.31,4.4,2.53,7.28,6.23,6.12,11.45-.88,3.96-5.01,7.81-10.19,7.75l-69.24-.71c-11.22-.12-29.52-.41-32.65,11.7-3.99,15.42-2.39,38.15-1.8,54.81.17,4.73-1.69,8.73-5.69,10.78-3.66,1.88-8.42,1.82-12.18-1.29l-25.11-20.75c-7.56-6.25-15.07-12.04-23.76-16.29-5.69-2.79-11.39-2.52-15.36,2.66-5.89,7.67-10.99,15.41-16.61,24.01ZM190.67,343.24c4.77-7.81,9.95-15.09,15.54-22.25,6.12-7.84,15.54-10.56,25-7.66,11.02,3.37,20.82,8.85,29.97,15.77l16.79,12.71c-.55-16.77-2.33-27.55,2.54-43.7,5.89-19.5,30.53-19.72,47.79-19.35l38.15.83-20.84-14.95c-7.98-5.72-14.3-13.08-19.3-21.45-5.07-8.5-2.87-17.24,5.11-23.13,17.92-13.23,36.92-23.92,56.96-35.24-18.02-1.03-34.35,2.07-52.05-2.71-9.5-2.62-13.01-10.65-10.76-19.93,3.5-14.38,10.06-27.05,16.09-41.32l-37.39,21.5c-11.71,6.73-28.31,13.9-36.89-.19-8.12-13.34-11.55-45.34-13.28-62.32-11.52,21.46-18.34,40.62-31.6,61.33-4.46,6.97-11.96,9.62-20.28,7.02-11.48-3.58-22.01-9.72-31.82-16.84l-20.77-15.08c3.36,16.58,7.07,32.29,8.43,48.85.75,9.17-2.73,17.23-11.83,19.98-16.57,5-36.9,2.68-54.93,2.27,9.81,7.08,36.11,23.11,34.02,35.09-.52,2.95-2.5,6.58-5.7,8.89-14.96,10.78-30.52,19.92-46.45,29.66,15.01.12,28.78-1.18,42.86,1.06,9.91,1.58,15.57,8.93,14.41,19.14-1.54,13.62-6.52,26.39-11.57,39.19-2.2,5.57-5.34,10.15-6.38,16.85,10.83-10.08,27.98-27.58,42.82-29.23,6.88-.77,12.62,2.96,14.78,9.37,6.22,18.4,3.35,37.68,2.39,55.57l18.17-29.72Z"/>
      <path class="cls-1" d="M333.91,81.83c-5.26,3.44-12.86,8.89-17.04,3.44-1.08-1.4-1.89-4.42,0-6.7,15.86-19.23,33.84-36.13,54.27-50.36,5.77-4.02,11.68-3.15,16.72,1.5,2.6,2.4,4.45,5.46,4.47,9.04s-2.43,6.47-5.9,8.74l-52.51,34.34Z"/>
      <path class="cls-1" d="M103.68,124.18c1.62,2.99.87,6.34-.93,7.87-1.63,1.4-5.49,1.73-7.5-.87l-40.3-52.12c-2.93-3.79,2.89-9.08,5.87-9.87,3.53-.95,8.19.11,10.92,3.91,11.69,16.25,22.15,33.07,31.94,51.09Z"/>
      <path class="cls-1" d="M363.23,384.41c3.26,3.15,6.97,5.62,6.42,10.56s-4.78,8.1-9.01,8.79c-4.65.76-9.06-1.31-11.69-5.69-9.05-15.08-16.66-30.7-22.34-47.4-.89-2.61-.35-5.21,1.7-6.3,1.92-1.02,4.83-.84,6.33,1.28l10.28,14.57c5.79,8.21,10.76,16.88,18.32,24.18Z"/>
      <path class="cls-1" d="M90.52,135.41c2.75,1.88,3.38,5.08,2.67,7.11-.9,2.56-4.89,4.05-7.76,2.51l-49.3-26.56c-4.95-2.67-7.04-7.52-4.68-12.18s8.22-5.67,12.82-2.52l46.24,31.65Z"/>
      <path class="cls-1" d="M383.23,350.9c3.93,2.67,4.19,9.04,1.65,12.09s-8.2,4.06-11.97,1.16c-13.71-10.54-26.66-21.57-39.73-32.91-2.64-2.29-2.76-5.51-1.59-7.71,1.66-3.12,5.81-3.7,8.84-1.64l42.79,29.02Z"/>
      <path class="cls-3" d="M190.67,343.24l-18.17,29.72c.97-17.9,3.83-37.17-2.39-55.57-2.17-6.41-7.9-10.13-14.78-9.37-14.83,1.65-31.99,19.15-42.82,29.23,1.04-6.7,4.19-11.28,6.38-16.85,5.05-12.79,10.03-25.57,11.57-39.19,1.16-10.21-4.5-17.57-14.41-19.14-14.08-2.24-27.85-.94-42.86-1.06,15.93-9.74,31.49-18.88,46.45-29.66,3.2-2.31,5.18-5.93,5.7-8.89,2.09-11.98-24.21-28.01-34.02-35.09,18.03.4,38.36,2.73,54.93-2.27,9.1-2.75,12.58-10.81,11.83-19.98-1.36-16.56-5.07-32.27-8.43-48.85l20.77,15.08c9.81,7.12,20.34,13.25,31.82,16.84,8.32,2.6,15.82-.05,20.28-7.02,13.26-20.71,20.08-39.87,31.6-61.33,1.73,16.98,5.16,48.98,13.28,62.32,8.58,14.09,25.18,6.92,36.89.19l37.39-21.5c-6.03,14.27-12.59,26.94-16.09,41.32-2.26,9.28,1.26,17.31,10.76,19.93,17.7,4.78,34.03,1.68,52.05,2.71-20.04,11.33-39.05,22.02-56.96,35.24-7.98,5.89-10.18,14.63-5.11,23.13,4.99,8.36,11.32,15.73,19.3,21.45l20.84,14.95-38.15-.83c-17.26-.37-41.91-.15-47.79,19.35-4.88,16.15-3.1,26.93-2.54,43.7l-16.79-12.71c-9.15-6.93-18.95-12.4-29.97-15.77-9.46-2.89-18.88-.18-25,7.66-5.59,7.16-10.76,14.44-15.54,22.25Z"/>
    </g>
  </g>
</svg>