<?xml version="1.0" encoding="UTF-8"?>
<svg id="Layer_2" data-name="Layer 2" xmlns="http://www.w3.org/2000/svg" viewBox="0 0 276.14 245.11">
  <defs>
    <style>
      .cls-1 {
        fill: #faf2a0;
      }

      .cls-2 {
        fill: #ee6436;
      }

      .cls-3 {
        fill: #fed534;
      }
    </style>
  </defs>
  <g id="Layer_1-2" data-name="Layer 1">
    <g>
      <g>
        <path class="cls-2" d="M270.46,71.55c2,4.31,2.11,9.05,1.34,14.22l-7.05,46.96-7.08,47.85c-2.08,14.08-3.78,27.9-7.23,41.66-1.38,5.52-5.12,8.23-11.05,7.86-32.02-1.99-63.36-5.57-95.1-9.98-9.9-1.38-18.91-3.41-28.38-5.7-11.35-2.75.09-7.94-21.95-5.33l1.62,10.16-52.85,3.85c-9.38.68-22.86,1.42-26.16-7.27-3.73-9.83-4.94-19.54-5.73-30.41L.08,37.88C-1.31,18.9,15.94,8.74,32.77,7.78L164.38.23c7.29-.42,14.06-.42,20.87,1.27,9.69,2.41,16.22,11.4,17.03,21.19l2.73,33.41c16.25,1.63,31.5,2.5,46.83,5.43,7.58,1.45,14.33,4.43,18.62,10.01ZM45.17,163.72c-5.12.11-8.6-2.79-10.13-6.22s-1.73-7.76.55-11.16l43.29-64.47c3.7-5.51,12.09-4.05,16.11.47l7.98,8.99c6.6,7.43,12.41,15.19,20.14,21.54l11.05-54.75c.45-2.25,1.09-4.17,2.25-5.17,1.8-1.56,3.84-1.33,6.2-1.15l40.27,3.08-2.46-33.16c-.31-4.23-3.74-7.32-7.8-8.12-18.71-3.68-122.28,3.01-144.8,7.15-4.48.82-7.46,4.29-7.53,9.01-.22,16.19.7,31.59,1.47,47.95l4.02,84.87c.33,6.88.89,13.15,2.24,19.67,1.13,5.46,5.01,8.73,10.73,9.33,9.23.97,18.45.63,27.91-.04l43.41-3.07,4.29-26.21-69.2,1.47ZM160.3,130.82c8.78-9.41,15.8,8.61,20.85,6.34,9.43-5.79,17.19-13.36,25.45-20.47l15.59-13.41c2.24-1.93,4.58-3.07,7.34-2.3,2.13.59,3.74,2.44,5.04,4.71l17,29.72c3.99-18.66,6.47-36.45,8.79-54.62.49-3.81-2.5-5.82-5.87-6.32-35.91-5.32-71.31-10.68-107.49-12.38-1.69-.06-2.78,4.46-3.06,6.13l-20.94,124.51c-1,5.97,3.43,8.99,8.92,9.73l102.69,13.9c2.05.28,4.06-1.71,4.47-3.41,2.38-9.9,4.3-19.6,5.35-30.01l-105.18-12.95c-3.29-.41-5.17-3.25-5.75-5.15-.77-2.54.28-5.56,2.07-7.48l24.73-26.52Z"/>
        <path class="cls-3" d="M95.6,219.25l-1.62-10.16c22.05-2.61,10.6,2.59,21.95,5.33,9.47,2.29,18.48,4.33,28.38,5.7,31.74,4.41,63.08,8,95.1,9.98,5.93.37,9.66-2.34,11.05-7.86,3.45-13.76,5.14-27.58,7.23-41.66l7.08-47.85,7.05-46.96c.78-5.17.66-9.91-1.34-14.22,1.7,2.22,4.43,3.12,5.09,7.18.84,5.17.74,10.29-.03,16.06l-15.59,117.27c-.88,6.66-2.48,12.52-4.58,18.59-5.56,16.02-22.11,15.31-35.91,13.61l-84.38-10.38c-14.53-1.79-31.49-2.87-39.46-14.63Z"/>
        <path class="cls-1" d="M160.3,130.82l-24.73,26.52c-1.79,1.92-2.84,4.95-2.07,7.48.58,1.91,2.46,4.75,5.75,5.15l105.18,12.95c-1.05,10.41-2.97,20.11-5.35,30.01-.41,1.71-2.43,3.69-4.47,3.41l-102.69-13.9c-5.49-.74-9.92-3.77-8.92-9.73l20.94-124.51c.28-1.66,1.37-6.19,3.06-6.13,36.18,1.7,71.58,7.06,107.49,12.38,3.38.5,6.36,2.51,5.87,6.32-2.32,18.17-4.8,35.96-8.79,54.62l-17-29.72c-1.3-2.27-2.91-4.12-5.04-4.71-2.77-.76-5.1.37-7.34,2.3l-15.59,13.41c-8.26,7.11-16.02,14.68-25.45,20.47-5.05,2.27-12.07-15.75-20.85-6.34Z"/>
      </g>
      <g>
        <path class="cls-1" d="M45.17,163.72l69.2-1.47-4.29,26.21-43.41,3.07c-9.46.67-18.68,1-27.91.04-5.72-.6-9.6-3.87-10.73-9.33-1.34-6.52-1.91-12.79-2.24-19.67l-4.02-84.87c-.78-16.36-1.7-31.76-1.47-47.95.06-4.72,3.04-8.18,7.53-9.01,22.52-4.14,126.08-10.83,144.8-7.15,4.06.8,7.48,3.89,7.8,8.12l2.46,33.16-40.27-3.08c-2.35-.18-4.39-.4-6.2,1.15-1.17,1.01-1.8,2.93-2.25,5.17l-11.05,54.75c-7.73-6.35-13.55-14.11-20.14-21.54l-7.98-8.99c-4.02-4.52-12.41-5.98-16.11-.47l-43.29,64.47c-2.29,3.4-2.02,7.87-.55,11.16s5,6.33,10.13,6.22ZM69.61,51.6c0-8.28-6.71-14.99-14.99-14.99s-14.99,6.71-14.99,14.99,6.71,14.99,14.99,14.99,14.99-6.71,14.99-14.99Z"/>
        <ellipse class="cls-2" cx="54.62" cy="51.6" rx="14.99" ry="14.99"/>
      </g>
    </g>
  </g>
</svg>